<svg xmlns="http://www.w3.org/2000/svg" version="1.2" viewBox="25 20 168 60"><path d="M67.75 23.88c0 .29-.04.54-.1.75-.08.21-.18.4-.3.55-.12.16-.27.29-.43.38-.16.1-.33.17-.5.21v.03c.2.04.4.11.6.22a1.91 1.91 0 01.82 1c.08.23.12.48.12.75 0 .33-.05.62-.16.9-.12.26-.29.5-.52.7s-.53.35-.89.46c-.36.11-.78.17-1.27.17h-1.68v-8.21h1.58c.49 0 .9.05 1.25.14.34.1.62.25.85.43.22.18.38.4.48.66.1.26.15.54.15.86m-1.05.04c0-.38-.13-.7-.4-.94-.28-.25-.7-.37-1.28-.37h-.55v2.83h.54c.56 0 .97-.14 1.26-.4.29-.27.43-.65.43-1.12m.16 3.78c0-.44-.15-.8-.44-1.05-.29-.26-.7-.39-1.24-.39h-.7v2.88h.64c.6 0 1.05-.12 1.33-.36s.4-.6.4-1.08m6.38 2.3h-.88v-.64h-.02l-.15.2a1.72 1.72 0 01-.75.49 1.98 1.98 0 01-1.27-.02 1.2 1.2 0 01-.52-.37 1.64 1.64 0 01-.33-.64c-.08-.27-.11-.6-.11-.98v-3.75h.96v3.67c0 .48.08.82.23 1.02.16.2.4.3.72.3.28 0 .51-.07.7-.2.2-.14.35-.28.46-.42V24.3h.96m4.6 5.71v-3.68c0-.48-.08-.83-.25-1.04-.16-.21-.4-.32-.74-.32-.29 0-.52.08-.72.22-.19.14-.34.28-.45.41V30h-.96v-5.71h.88v.64h.02l.16-.21c.08-.1.18-.18.3-.26.13-.08.29-.16.46-.22a1.9 1.9 0 011.29.02c.2.07.38.2.52.36.14.17.25.38.33.65.08.26.12.59.12.98V30m1.18-2.77a4 4 0 01.23-1.46c.14-.39.34-.7.58-.94.24-.24.5-.4.8-.5a2.82 2.82 0 011.39-.11c.13.03.24.06.33.1v-2.73l.97-.11V30h-.89v-.6h-.02a1.35 1.35 0 01-.4.44 1.75 1.75 0 01-1 .3c-.26 0-.52-.05-.76-.16-.24-.1-.45-.28-.64-.51a2.68 2.68 0 01-.43-.9c-.1-.37-.16-.82-.16-1.34m2.26 2.06c.15 0 .29-.02.4-.07.12-.04.23-.08.31-.15a1.21 1.21 0 00.36-.35V25.2a1.22 1.22 0 00-.74-.2c-.22 0-.43.04-.62.11-.2.08-.37.2-.5.38-.15.17-.26.4-.35.68-.08.28-.12.62-.12 1.02s.03.73.1 1c.07.26.16.47.28.63a1.07 1.07 0 00.88.47m7.18-3.08a7.55 7.55 0 01-.07 1.11h-2.92c.03.67.17 1.17.43 1.49.26.32.63.48 1.11.48a1.83 1.83 0 001.05-.37l.16-.13.35.67-.18.18a2.08 2.08 0 01-.82.42c-.2.05-.43.08-.7.08-.36 0-.68-.06-.97-.18-.29-.12-.53-.3-.74-.55-.2-.25-.35-.57-.47-.95a4.97 4.97 0 01-.16-1.39c0-.5.06-.94.17-1.32.12-.36.27-.67.47-.9a1.96 1.96 0 011.54-.7c.54 0 .97.17 1.28.51s.47.86.47 1.55m-1.81-1.28a.97.97 0 00-.83.43c-.2.28-.32.7-.35 1.23h2.08l.02-.17v-.24c0-.4-.07-.7-.23-.93-.16-.21-.4-.32-.7-.32m5.56.51a2.01 2.01 0 00-.34-.3 1.06 1.06 0 00-.66-.18.86.86 0 00-.58.18.56.56 0 00-.2.43c0 .22.06.4.18.53.13.14.31.29.57.45l.36.21c.38.23.69.48.91.74.22.27.34.61.34 1.04 0 .44-.16.83-.48 1.14-.3.3-.76.46-1.35.46a2.37 2.37 0 01-1.06-.24 1.44 1.44 0 01-.33-.2c-.08-.08-.16-.15-.21-.22l.46-.76.17.17a1.61 1.61 0 00.57.33c.12.05.26.07.41.07a1 1 0 00.66-.2.58.58 0 00.23-.46c0-.14-.02-.25-.06-.35a.8.8 0 00-.16-.27 1.26 1.26 0 00-.26-.22c-.1-.08-.22-.16-.36-.24l-.35-.23a3.4 3.4 0 01-.84-.73c-.2-.25-.3-.57-.3-.97a1.34 1.34 0 01.48-1.05 1.78 1.78 0 011.18-.42c.21 0 .4.01.56.06.16.04.3.1.41.16a2 2 0 01.47.38M97.86 30v-3.68c0-.47-.07-.8-.2-1.01-.14-.2-.36-.31-.66-.31a1.41 1.41 0 00-1.18.6V30h-.96v-5.71h.87v.64h.03a1.65 1.65 0 011.43-.79c.65 0 1.1.26 1.38.76a1.8 1.8 0 01.56-.5 1.92 1.92 0 01.95-.26c1.16 0 1.74.68 1.74 2.03V30h-.97v-3.68c0-.47-.08-.8-.25-1.01-.16-.2-.4-.31-.74-.31-.27 0-.49.07-.67.2a2.8 2.8 0 00-.42.37 2.8 2.8 0 01.05.6V30m5.4 0h-.96v-5.71h.96zm-.48-7.1a.61.61 0 01-.47-.19.69.69 0 01-.18-.5c0-.2.06-.35.18-.48s.28-.2.47-.2c.2 0 .35.07.47.2a.7.7 0 01.18.48.7.7 0 01-.18.5.61.61 0 01-.47.2m5.07 7.09v-3.68c0-.48-.08-.83-.24-1.04-.16-.21-.41-.32-.75-.32-.28 0-.52.08-.7.22-.2.14-.35.28-.46.41V30h-.96v-5.71h.88v.64h.02a1.28 1.28 0 01.47-.47 1.78 1.78 0 011.05-.31c.25 0 .48.03.68.1.2.08.38.2.52.37.15.17.26.38.34.65.08.26.12.59.12.98V30m2.4 0h-.96v-5.71h.96zm-.47-7.1a.61.61 0 01-.48-.19.69.69 0 01-.18-.5c0-.2.06-.35.18-.48s.28-.2.48-.2c.18 0 .34.07.46.2a.7.7 0 01.18.48.7.7 0 01-.18.5.61.61 0 01-.46.2m4.41 2.53a2.08 2.08 0 00-.35-.3 1.05 1.05 0 00-.65-.18c-.25 0-.45.06-.58.18a.55.55 0 00-.2.43c0 .22.06.4.18.53.12.14.31.29.57.45l.35.21c.4.23.7.48.92.74.22.27.33.61.33 1.03 0 .45-.16.84-.47 1.15-.31.3-.76.46-1.35.46a2.32 2.32 0 01-1.39-.44 1.85 1.85 0 01-.21-.22l.46-.76.17.17a1.57 1.57 0 00.56.33c.13.05.26.06.42.06a1 1 0 00.65-.19.58.58 0 00.23-.46c0-.14-.01-.25-.05-.35a.8.8 0 00-.16-.27 1.4 1.4 0 00-.27-.23c-.1-.07-.21-.15-.35-.23l-.36-.23a3.43 3.43 0 01-.84-.73c-.2-.25-.3-.57-.3-.97 0-.22.04-.41.12-.6a1.67 1.67 0 01.88-.77c.21-.07.43-.1.66-.1a1.83 1.83 0 011.45.6m3.72.32h-1.25v3.16c0 .41.05.69.16.83.1.15.28.22.52.22.14 0 .27-.01.37-.06.1-.04.18-.07.22-.1l.13.77a1.44 1.44 0 01-.89.25c-.49 0-.86-.14-1.1-.41s-.37-.73-.37-1.36v-3.3h-.7v-.64l.7-.15.1-1.59h.86v1.6h1.37m4.56 1.92a7.55 7.55 0 01-.07 1.11h-2.92c.03.67.18 1.17.44 1.49.25.31.63.47 1.1.47a1.65 1.65 0 001.2-.5l.37.68-.18.18a2.15 2.15 0 01-.82.42c-.2.05-.44.08-.7.08-.36 0-.68-.06-.97-.18-.3-.12-.54-.3-.74-.55a2.6 2.6 0 01-.47-.95 4.97 4.97 0 01-.17-1.39c0-.5.06-.95.17-1.32.12-.36.28-.67.47-.9.2-.24.43-.42.7-.53.26-.12.54-.18.84-.18.54 0 .97.18 1.28.52.31.34.47.86.47 1.55m-1.81-1.28a.96.96 0 00-.82.43c-.2.28-.33.7-.36 1.23h2.08l.02-.17v-.24c0-.4-.07-.7-.23-.93a.8.8 0 00-.7-.32m5.61.2a.65.65 0 00-.15-.06 1.15 1.15 0 00-.32-.04 1 1 0 00-.7.25c-.18.16-.3.34-.37.53V30h-.97v-5.71h.89v.77h.02l.15-.33a1.12 1.12 0 01.58-.48c.13-.05.29-.07.47-.07.13 0 .24.01.33.03l.2.06m1.79 5.73h-.96v-5.71h.96zm-.47-7.1a.61.61 0 01-.48-.19.69.69 0 01-.18-.5c0-.2.06-.35.18-.48s.28-.2.48-.2a.6.6 0 01.46.2c.12.13.18.29.18.48 0 .21-.06.38-.18.5a.6.6 0 01-.46.2m5.94 7.09h-.88v-.64h-.02l-.15.2c-.09.1-.18.18-.3.26a1.74 1.74 0 01-1.03.32 2 2 0 01-.7-.11c-.2-.08-.37-.2-.5-.37a1.64 1.64 0 01-.34-.64 3.7 3.7 0 01-.11-.98v-3.75h.96v3.67c0 .48.08.82.23 1.02.16.2.4.3.73.3.27 0 .5-.07.7-.2.19-.14.34-.28.45-.42V24.3h.96M140.6 30v-3.68c0-.47-.07-.8-.2-1.01-.14-.2-.36-.31-.66-.31a1.38 1.38 0 00-1 .4l-.18.2V30h-.96v-5.71h.88v.64h.02a1.72 1.72 0 01.9-.7c.15-.06.33-.09.53-.09.65 0 1.11.26 1.38.76a1.8 1.8 0 01.56-.5 1.95 1.95 0 01.95-.26c1.16 0 1.74.68 1.74 2.03V30h-.96v-3.68c0-.47-.08-.8-.25-1.01-.17-.2-.42-.31-.74-.31-.27 0-.5.07-.67.2-.18.13-.32.25-.42.37a2.8 2.8 0 01.04.6V30m-75.92 7.07h-1.17V42h-.96v-4.93h-.69v-.64l.7-.13v-1.14c0-.31.03-.58.12-.8.09-.22.2-.4.35-.55.14-.14.3-.25.5-.31a1.95 1.95 0 011.13-.01c.14.06.24.1.28.13l-.2.8a1.08 1.08 0 00-.2-.1.84.84 0 00-.32-.06c-.23 0-.4.08-.53.22-.12.14-.18.4-.18.78v1.02h1.3M70.58 42h-.88v-.64h-.02l-.16.2c-.08.1-.18.18-.3.26a2.3 2.3 0 01-.45.23 1.98 1.98 0 01-1.27-.02c-.2-.08-.37-.2-.51-.37a1.68 1.68 0 01-.33-.64c-.08-.27-.11-.6-.11-.99v-3.75h.96v3.68c0 .48.08.82.23 1.02.16.2.4.3.72.3.28 0 .51-.07.7-.2.2-.14.35-.28.46-.42v-4.38h.96m-2.37-1.64a.6.6 0 01-.17.45c-.1.1-.24.16-.4.16a.56.56 0 01-.4-.16.61.61 0 01-.17-.45.6.6 0 01.17-.44c.1-.1.24-.17.4-.17.16 0 .3.06.4.17.12.11.17.26.17.44m1.83 0c0 .18-.05.33-.16.45a.56.56 0 01-.4.16.56.56 0 01-.41-.16.61.61 0 01-.17-.45.6.6 0 01.17-.44.56.56 0 01.81 0c.11.11.16.26.16.44m4.53 2.49a.66.66 0 00-.16-.06 1.15 1.15 0 00-.32-.04c-.3 0-.54.09-.7.25-.18.16-.3.34-.37.53V42h-.96v-5.72h.87v.78h.03l.15-.33c.07-.1.15-.2.24-.28.1-.09.21-.15.34-.2.14-.05.29-.07.47-.07.14 0 .25.01.33.03l.2.06m7.59-.39c0 .29-.04.54-.1.75-.08.21-.18.4-.3.55a1.5 1.5 0 01-.43.38c-.16.1-.33.17-.5.21v.03c.21.04.41.11.6.22.18.11.35.25.49.42a2.01 2.01 0 01.45 1.33c0 .33-.05.62-.16.9-.11.26-.29.5-.52.7s-.53.35-.89.46c-.36.11-.78.17-1.27.17h-1.68v-8.22h1.58c.49 0 .9.06 1.25.15.34.1.63.25.85.43.22.18.38.4.48.66.1.26.15.54.15.86m-1.05.04c0-.39-.13-.7-.4-.94s-.7-.37-1.28-.37h-.54v2.83h.53c.56 0 .98-.14 1.26-.4.29-.27.43-.65.43-1.12m.15 3.78c0-.44-.14-.8-.43-1.05-.29-.26-.7-.39-1.24-.39h-.7v2.88h.64c.6 0 1.05-.12 1.32-.36.28-.25.41-.6.41-1.08m3.35 2.3h-.96v-5.72h.96zm-.47-7.1a.61.61 0 01-.48-.19.69.69 0 01-.18-.5c0-.2.06-.35.18-.48s.28-.2.48-.2a.6.6 0 01.46.2c.12.13.18.29.18.48 0 .21-.06.38-.18.5a.6.6 0 01-.46.2m2.9 5.75c0 .24.03.41.1.5.07.1.18.15.35.15.09 0 .16-.01.22-.03.06-.01.1-.03.14-.05l.08.72-.26.1c-.13.04-.3.06-.52.06-.32 0-.58-.1-.78-.3-.2-.2-.3-.55-.3-1.06v-7.16l.97-.11m1.5 5.75a4 4 0 01.22-1.46c.15-.39.35-.7.59-.94.23-.24.5-.4.8-.5a2.8 2.8 0 011.38-.11c.14.03.25.06.34.1v-2.73l.96-.11V42h-.88v-.61h-.02a1.34 1.34 0 01-.4.45c-.1.08-.25.15-.41.21a1.9 1.9 0 01-1.35-.07c-.24-.1-.46-.28-.64-.51a2.61 2.61 0 01-.43-.9c-.1-.38-.16-.82-.16-1.34m2.26 2.05c.15 0 .28-.01.4-.06.12-.04.22-.08.31-.15a1.21 1.21 0 00.36-.35V37.2a1.3 1.3 0 00-.74-.2c-.22 0-.43.03-.62.11-.2.08-.37.2-.5.38-.15.17-.27.4-.35.68a3.5 3.5 0 00-.12 1.02c0 .4.03.73.1 1 .07.26.16.47.28.63a1.07 1.07 0 00.88.46m7.5.72h-.88v-.64h-.02l-.15.2c-.08.1-.19.18-.3.26a1.73 1.73 0 01-1.03.32c-.26 0-.49-.04-.7-.11-.19-.08-.37-.2-.5-.37a1.64 1.64 0 01-.33-.64 3.7 3.7 0 01-.12-.99v-3.75h.97v3.68c0 .48.07.82.23 1.02.15.2.4.3.72.3.28 0 .51-.07.7-.2.2-.14.34-.28.45-.42v-4.38h.97m4.6 5.72v-3.68c0-.48-.1-.83-.26-1.04-.16-.21-.4-.32-.74-.32-.28 0-.52.07-.71.22-.2.14-.34.28-.45.41V42h-.97v-5.7h.88v.64h.03a1.52 1.52 0 01.46-.47c.13-.09.28-.16.45-.22a1.95 1.95 0 011.29.02c.2.07.38.2.52.36.14.16.26.38.33.65.08.26.12.59.12.98V42m5.54-4.97h-.72c.19.3.28.65.28 1.03 0 .3-.05.57-.15.81a1.74 1.74 0 01-1.05 1c-.24.09-.5.13-.78.13h-.15c-.05 0-.1 0-.16-.02-.1.05-.2.1-.3.2-.1.09-.15.2-.15.34 0 .12.04.22.14.3.09.07.24.1.44.1h.73c.27 0 .52.03.75.1.23.05.43.14.6.26.17.12.3.28.4.47.1.19.14.42.14.69a1.84 1.84 0 01-.75 1.5c-.24.18-.53.32-.87.43a4 4 0 01-1.14.15c-.61 0-1.08-.13-1.4-.4s-.47-.65-.47-1.15c0-.21.04-.4.11-.55a1.67 1.67 0 01.59-.68l.25-.16v-.02a.93.93 0 01-.36-.8c0-.15.02-.28.08-.4a1.19 1.19 0 01.6-.53v-.02c-.29-.14-.53-.35-.7-.64a2.08 2.08 0 01-.27-1.11c0-.32.05-.6.15-.84.1-.24.25-.44.42-.6.17-.16.38-.28.61-.36a2.39 2.39 0 011.52.02h1.74m-2.79 5.54c-.16 0-.3-.01-.44-.04a1.8 1.8 0 00-.2.15 1.04 1.04 0 00-.38.85c0 .61.34.92 1.01.92.58 0 1.01-.11 1.29-.34.28-.23.41-.49.41-.78 0-.28-.08-.47-.26-.59-.17-.11-.4-.17-.7-.17m.55-3.76c0-.42-.1-.7-.3-.88a.99.99 0 00-.68-.26c-.28 0-.51.08-.71.26-.2.17-.3.46-.3.88s.1.7.3.88c.2.17.43.26.69.26.28 0 .51-.09.7-.26.2-.17.3-.47.3-.88M67.23 54h-.87v-.65h-.03c-.02.05-.08.12-.15.21-.08.1-.18.18-.3.26a1.7 1.7 0 01-1.03.32c-.26 0-.5-.04-.69-.11-.2-.08-.38-.2-.52-.37a1.74 1.74 0 01-.33-.65 3.7 3.7 0 01-.11-.98v-3.75h.96v3.68c0 .48.08.82.24 1.02.15.2.4.3.72.3.27 0 .5-.07.7-.2.2-.14.34-.28.45-.42v-4.38h.96m4.6 5.72v-3.68c0-.48-.08-.83-.24-1.04-.17-.21-.41-.32-.75-.32-.29 0-.52.07-.71.22-.2.14-.35.28-.45.41V54h-.97v-5.7h.88v.64h.02l.16-.21c.08-.1.18-.18.3-.26.14-.09.29-.16.46-.22a1.94 1.94 0 011.29.02c.2.07.38.2.52.36.14.16.25.38.34.64.07.27.11.6.11.99V54m1.18-2.77c0-.59.08-1.07.23-1.46.15-.39.34-.7.58-.94.24-.24.5-.4.81-.5a2.8 2.8 0 011.38-.11c.14.03.24.06.33.1v-2.73l.97-.11V54h-.88v-.61h-.03c-.02.05-.06.11-.13.2a1.47 1.47 0 01-.68.46 1.9 1.9 0 01-1.35-.07c-.24-.1-.45-.28-.63-.51a2.61 2.61 0 01-.44-.9c-.1-.38-.16-.82-.16-1.34m2.26 2.05c.15 0 .29-.02.4-.06a1.32 1.32 0 00.67-.5V49.2c-.09-.06-.19-.1-.3-.14a1.65 1.65 0 00-1.06.05c-.2.08-.36.2-.5.38-.15.17-.26.4-.35.68-.08.27-.12.61-.12 1.02 0 .4.03.73.1 1 .07.26.16.47.28.63a1.04 1.04 0 00.88.46m6.24.72v-8.22h4.03l-.07.83H83.5v3.03h2.7v.82h-2.7V54m3.73-2.86c0-.52.06-.97.18-1.36.12-.38.29-.69.5-.93.21-.24.45-.42.73-.53a2.21 2.21 0 011.76 0c.26.1.5.29.7.53.2.24.35.55.47.93.11.39.17.84.17 1.36 0 .53-.06.99-.18 1.37-.12.38-.29.7-.5.93-.2.25-.45.42-.73.53a2.3 2.3 0 01-.88.17c-.31 0-.6-.06-.88-.17-.27-.1-.5-.28-.7-.53a2.7 2.7 0 01-.47-.93 4.82 4.82 0 01-.17-1.37m3.5 0c0-.76-.1-1.31-.32-1.66a1.05 1.05 0 00-.93-.52c-.4 0-.7.18-.93.52-.21.35-.32.9-.32 1.66 0 .76.11 1.3.33 1.64.22.34.53.5.93.5s.7-.16.92-.5c.22-.33.33-.88.33-1.64m4.72-2.01a.68.68 0 00-.15-.06 1.2 1.2 0 00-.33-.04 1 1 0 00-.7.25c-.17.16-.3.34-.37.53V54h-.96v-5.72h.88v.78h.03c.03-.11.09-.22.15-.33a1.12 1.12 0 01.57-.48c.14-.05.3-.07.48-.07.13 0 .24.01.33.03l.2.06m3.24 1.17a2.01 2.01 0 00-.35-.3 1.06 1.06 0 00-.65-.18.86.86 0 00-.58.18.56.56 0 00-.2.43c0 .21.06.39.18.53s.3.29.57.45l.35.21c.39.23.7.48.92.74.22.27.33.61.33 1.03 0 .45-.16.84-.47 1.14-.31.31-.76.47-1.35.47a2.37 2.37 0 01-1.06-.24 1.44 1.44 0 01-.33-.2l-.22-.22.47-.76.17.17a1.61 1.61 0 00.57.33c.12.04.25.06.41.06a1 1 0 00.66-.19.58.58 0 00.22-.46c0-.14-.02-.25-.05-.35a.8.8 0 00-.16-.27 1.26 1.26 0 00-.26-.23l-.36-.23-.36-.23a3.4 3.4 0 01-.83-.73c-.2-.25-.31-.58-.31-.97a1.34 1.34 0 01.48-1.05 1.79 1.79 0 011.18-.42c.22 0 .4.01.57.06.15.04.29.1.4.16a1.8 1.8 0 01.48.38m4.46.64l-.11-.1-.2-.15a1.25 1.25 0 00-.66-.18c-.21 0-.4.04-.58.12-.18.07-.34.2-.47.36-.13.16-.23.38-.3.65a4.74 4.74 0 00-.01 2.03 2 2 0 00.27.68c.12.17.26.3.44.37.16.08.35.11.56.11.3 0 .52-.05.67-.15.16-.1.27-.19.33-.25l.4.67a1.89 1.89 0 01-.47.36 2.43 2.43 0 01-1.02.23c-.32 0-.62-.05-.9-.16-.28-.1-.52-.27-.72-.5-.21-.25-.37-.56-.5-.93a4.76 4.76 0 01-.17-1.42c0-.55.07-1.01.21-1.4.15-.38.33-.68.56-.91.23-.24.49-.41.77-.52a2.45 2.45 0 011.41-.1c.17.04.3.1.42.15.12.06.22.12.29.2l.18.16m4.13 5.29v-3.68c0-.48-.08-.83-.24-1.04-.16-.21-.41-.32-.75-.32-.28 0-.52.07-.71.22-.19.14-.34.28-.45.41V54h-.97v-8.4l.97-.11v3.39h.02l.15-.2a1.98 1.98 0 01.71-.45c.17-.05.38-.08.6-.08.5 0 .9.16 1.2.5.29.32.44.86.44 1.6V54m5.43 0h-.87v-.65h-.03a1.48 1.48 0 01-.46.47 1.72 1.72 0 01-1.03.32c-.25 0-.48-.04-.68-.11-.2-.08-.37-.2-.52-.37a1.69 1.69 0 01-.33-.65 3.7 3.7 0 01-.11-.98v-3.75h.96v3.68c0 .48.08.82.24 1.02.15.2.39.3.72.3.27 0 .5-.07.7-.2.19-.14.34-.28.45-.42v-4.38h.96m4.6 5.72v-3.68c0-.49-.08-.83-.25-1.04-.16-.21-.4-.32-.74-.32-.29 0-.52.07-.72.22-.18.14-.33.28-.44.41V54h-.97v-5.7h.88v.64h.02l.16-.21c.08-.1.18-.18.3-.26.14-.09.29-.16.46-.22s.37-.1.6-.1c.25 0 .48.04.69.12.2.07.38.2.52.36.14.16.25.38.33.64.08.27.12.6.12.99V54m5.53-4.97h-.7a2.17 2.17 0 01.13 1.84 1.75 1.75 0 01-1.06 1c-.24.09-.5.13-.78.13h-.16c-.04 0-.1 0-.15-.02-.1.05-.2.1-.3.2-.1.08-.15.2-.15.34 0 .12.05.22.13.3.1.07.24.1.45.1h.73c.27 0 .52.03.75.1.23.05.43.14.6.26.17.12.3.28.4.47.1.19.14.42.14.69 0 .3-.06.59-.2.84-.13.25-.31.47-.55.66-.24.18-.53.32-.87.43-.34.1-.72.15-1.14.15-.61 0-1.07-.13-1.4-.4-.31-.27-.47-.65-.47-1.15 0-.21.04-.4.11-.55a1.8 1.8 0 01.59-.68l.25-.16v-.02a.93.93 0 01-.37-.8c0-.15.03-.28.1-.4a1.08 1.08 0 01.42-.44l.17-.09v-.02c-.3-.14-.53-.35-.7-.64a2.08 2.08 0 01-.27-1.11c0-.32.05-.6.15-.84.1-.24.24-.44.42-.6.18-.16.38-.28.61-.36a2.36 2.36 0 011.52.02h1.74m-2.79 5.54c-.17 0-.31-.01-.44-.04a1.8 1.8 0 00-.2.14 1.03 1.03 0 00-.33.49c-.04.1-.05.23-.05.37 0 .61.33.92 1.01.92.58 0 1-.12 1.29-.34.27-.23.41-.49.41-.78 0-.28-.09-.48-.26-.59a1.28 1.28 0 00-.7-.17m.55-3.76c0-.42-.1-.7-.3-.88a.99.99 0 00-.68-.26c-.28 0-.52.08-.72.26-.2.17-.3.46-.3.88s.1.7.3.88c.2.17.43.26.7.26.27 0 .5-.09.7-.26.2-.18.3-.47.3-.88"/><path fill="#f5cf00" d="M54.5 62H56v20h-3.5V62"/><path fill="#e6000c" d="M54.5 41.9H56V62h-3.5V41.9"/><path d="M43.4 28.99c1.01 1.62 1.82 1.6 3.03 1.6a8.7 8.7 0 01-1.98-2.26l-1.87-3a4.44 4.44 0 00-1.38-2.42c.24-.1.44-.2.56-.28-1.22 0-2.43-.62-3.1-.62-.42 0-.7.25-.7.6.03.37.42.75 1.13.75.17 0 .38-.02.6-.06.4.54.7 1.03.7 1.73 0 1.31-1.56 2.33-3.14 2.33h-.27c-.14-.33-.62-.88-.62-1.5 0-1.04.68-1.9.68-2.92 0-.64-.31-1.04-.43-1.2.2-.18.4-.4.45-.56-.1.05-.24.06-.44.06-.76 0-1.37-.2-1.98-.2-.34 0-.43.1-.43.21l.01.1a1.74 1.74 0 00-.39-.12 3.26 3.26 0 00-.57-.05c-.73 0-1 .3-1 .57 0 .22.18.63.38.94.29-.14.63-.24.79-.24.38 0 .73.37.91.8-.26.04-.3.05-.57.05-.71 0-1.2-.26-1.3-.26 0 0-.03.01-.03.03 0 .1.2.36.6.5.53.2 1.31.28 1.44.3 0 .02-.13.27-.28.32a6.72 6.72 0 01-1.49-.41c-.02-.01-.03 0-.03.02 0 .27.71.88 1.35 1.11-.53.68-1.2 1.38-1.51 2.44l-.27.01c-1.58 0-3.14-1.02-3.14-2.33 0-.7.3-1.19.7-1.73.23.04.43.06.6.06.71 0 1.1-.38 1.13-.76 0-.34-.28-.6-.7-.6-.67 0-1.88.63-3.1.63.12.09.32.19.56.28-.72.64-1.2 1.5-1.38 2.43l-1.87 2.99c-.31.5-.98 1.48-1.98 2.25 1.21 0 2.02.03 3.04-1.6l.96-1.53c.07.2.16.4.26.59l-1.9 3.05a8.7 8.7 0 01-1.99 2.25c1.21 0 2.01.03 3.04-1.59l1.64-2.63c.12.13.25.26.39.38l-2.32 3.71c-.32.5-.97 1.48-1.98 2.25 1.21 0 2.01.03 3.04-1.59l2.25-3.61c.15.1.3.18.46.27l-2.75 4.4c-.32.52-.98 1.48-1.98 2.26 1.2 0 2 .02 3.03-1.6l2.84-4.54.51.19-3.2 5.13a8.7 8.7 0 01-1.98 2.25c1.2 0 2 .03 3.03-1.59l3.42-5.47.1.02c.1.3.16.57.16.85 0 1.71-1.13 3.23-2.48 4.4.09.04.23.06.38.06.28 0 .46-.02.58-.04-.31.7-.98 1.63-1.32 2.1-.45-.07-1.1-.13-1.51-.13-.45 0-.5.25-.5.48 0 .4.2.72.41.9.08-.2.25-.48 1.06-.48h.08c-.23.27-.98.88-.98 1.36 0 .33.35.8.82.8-.03-.1-.03-.2-.03-.26 0-.4.35-.86.65-1.18v.2c0 .93.08 1.36.67 1.36.29 0 .49-.16.56-.21-.39-.35-.4-.63-.4-1.15v-.46c0-.11 0-.27-.02-.39.2-.02.3-.02.46-.02 0 0 .84-.07 1.04.37.23-.21.56-.5.56-.84 0-.21-.1-.45-.54-.45-.16 0-.68.1-1.1.1.1-.26.62-1.01 1.07-1.56.07.21.17.44.4.63.04-.35.25-1.47.8-2.12.06.44.15.9.15 1.85 0 2.3-.56 4.02-1.74 4.34.15.27.48.51.82.51.43 0 .66-.49.9-.95.13.34.47 1.17.82 1.17.34 0 .7-.83.82-1.17.24.46.47.95.9.95.34 0 .67-.24.82-.5-1.18-.33-1.74-2.04-1.74-4.35 0-.96.09-1.4.15-1.85.55.65.76 1.77.79 2.12.23-.19.34-.42.4-.63.45.55.97 1.3 1.09 1.56-.44 0-.95-.1-1.11-.1-.44 0-.54.24-.54.45 0 .33.33.63.56.84.2-.44 1.04-.37 1.04-.37.16 0 .25 0 .46.02a2.6 2.6 0 00-.02.4v.45c0 .52-.01.8-.4 1.15.07.05.27.2.56.2.6 0 .68-.42.68-1.35v-.2c.29.32.64.78.64 1.18 0 .07 0 .16-.03.27.47 0 .82-.48.82-.8 0-.5-.75-1.1-.99-1.36h.08c.83 0 .99.27 1.07.47.22-.18.4-.5.4-.9 0-.23-.04-.48-.48-.48-.43 0-1.07.06-1.52.14-.34-.48-1-1.4-1.32-2.11.12.02.3.04.58.04.14 0 .3-.02.38-.06-1.36-1.17-2.48-2.69-2.48-4.4 0-.28.06-.56.16-.85l.1-.02 3.42 5.47c1.02 1.62 1.82 1.6 3.03 1.6a8.75 8.75 0 01-1.98-2.26l-3.2-5.13.5-.19 2.84 4.55c1.03 1.61 1.83 1.59 3.04 1.59a8.55 8.55 0 01-1.98-2.25l-2.75-4.41.46-.27 2.25 3.61c1.03 1.62 1.83 1.6 3.04 1.6a8.56 8.56 0 01-1.98-2.26l-2.32-3.7.39-.39 1.64 2.63c1.03 1.62 1.83 1.59 3.04 1.59a8.55 8.55 0 01-1.98-2.25l-1.9-3.05c.1-.2.18-.39.25-.59M28.1 25.48c0-1.14.82-2.05 1.12-2.3l.2.05c-.3.38-.85 1.01-.85 1.85 0 1.67 1.78 3.12 3.8 3.12-.02.14-.02.3-.02.44 0 .25.01.48.04.7-2.29-.02-4.3-1.87-4.3-3.86m3.1 13.67l-.02.04h.04c.64 0 .96-.05 1.16-.08l.27-.02c.17 0 .3.01.3.21 0 .14-.16.36-.32.48-.23-.22-.56-.26-1.04-.26-.23 0-.52.04-.68.06h-.02l-.03.01v.07c.03.14.05.3.05.52v.46c0 .54.07.85.26 1.09a.59.59 0 01-.18.03c-.34 0-.44-.15-.44-1.12l-.01-.5-.02-.18-.04.03c-.5.38-1.02 1.06-1.05 1.58-.15-.1-.31-.32-.31-.49 0-.28.42-.7.9-1.18l.32-.31-.1-.03c-.1-.03-.3-.08-.46-.08-.54 0-.88.11-1.1.34-.07-.11-.13-.37-.13-.52 0-.1.02-.16.06-.2.04-.05.12-.05.18-.05h.02c.6 0 1.31.11 1.6.16l.02-.01c.05-.07 1.2-1.6 1.49-2.4a.6.6 0 01.25-.05c.23 0 .28.16.35.39a7.82 7.82 0 00-1.32 2m6.17-2.39c.12 0 .18.02.25.05.3.8 1.44 2.33 1.49 2.4v.01h.03c.27-.05 1-.16 1.6-.16.07 0 .15 0 .2.05.03.04.05.1.05.2 0 .15-.06.4-.14.52-.2-.23-.55-.34-1.1-.34-.16 0-.35.05-.46.08l-.04.01-.05.02.32.3c.48.5.9.91.9 1.2 0 .16-.16.38-.31.48-.04-.52-.55-1.2-1.05-1.58l-.05-.03v.18l-.02.5c0 .97-.1 1.12-.44 1.12a.56.56 0 01-.18-.03c.19-.24.27-.55.27-1.1v-.24l-.01-.2c0-.23.02-.4.04-.53l.01-.07h-.05a5.26 5.26 0 00-.68-.07c-.48 0-.8.04-1.04.26-.16-.12-.32-.34-.32-.48 0-.2.13-.21.3-.21.08 0 .16 0 .27.02.2.03.51.08 1.16.08h.04l-.02-.04A7.67 7.67 0 0037 37.14c.06-.23.13-.39.35-.39m-2.65-13.3c-.07-.3-.22-.6-.41-.83-.18-.2-.47-.45-.86-.45-.18 0-.48.08-.67.17a1.76 1.76 0 01-.21-.59c0-.14.24-.3.71-.3 1.03 0 1.65.48 1.65 1.26 0 .27-.1.52-.2.74m.45-1.01a1.32 1.32 0 00-.25-.6c.01-.2.1-.4.42-.23-.18.18-.04.5-.04.5s.36-.17.28-.4c.54.12.16.84-.4.73m2 6.9c.03-.23.04-.46.04-.7l-.01-.45c2-.02 3.74-1.46 3.74-3.1 0-.85-.55-1.49-.86-1.86l.21-.05c.3.25 1.12 1.16 1.12 2.3 0 1.98-1.98 3.82-4.24 3.86M56 22v20h-3.5V22"/></svg>
