<svg width="3124px" height="375px" viewBox="0 0 3124 375" xmlns="http://www.w3.org/2000/svg" xmlns:xlink="http://www.w3.org/1999/xlink"><g fill-rule="nonzero" fill="none"><path d="M1345 4c-5 5-4 12 2 15 8 4 17-5 13-13-4-6-10-7-15-2zM1589 4l-3 6c0 6 6 11 11 9 4 0 8-5 8-9 0-5-5-9-10-9l-6 3zM2180 4c-5 5-3 14 4 15 7 2 13-5 11-11-2-7-10-9-15-4zM2 5C0 7 0 8 0 167c0 154 0 161 2 162 1 2 6 2 39 2 32 0 37 0 38-2 2-1 2-10 2-79a1546 1546 0 013-74 325 325 0 0028 54l4 11c8 16 5 15 48 15s40 1 48-16a2473 2473 0 0135-68v78c0 70 0 78 2 79 1 2 6 2 38 2 35 0 38 0 39-2 2-1 2-14 2-162V6l-2-1c-2-2-7-2-38-2l-39 1c-2 1-9 15-29 56l-33 68-6 14-1 1c-1-1-14 27-14 29l-2 1-6-10A6425 6425 0 0079 4L40 3C5 3 4 3 2 5z" fill="#757E74" style="mix-blend-mode:normal"/><path d="M419 4c-2 2-2 5-2 163 0 135 1 161 2 162 1 2 5 2 39 2 35 0 39 0 40-2l1-162-1-163c-3-2-76-2-79 0z" fill="#D80A12" style="mix-blend-mode:normal"/><path d="M592 5c-3 3-3 68-1 71 2 1 4 2 62 2 53 0 60 0 61 2 2 2 3 5 1 9a17852 17852 0 01-141 237l2 3c2 2 3 2 139 2l140-1 1-36-1-37-67-1c-74 0-71 0-70-7l68-115 71-117c3-7 4-10 1-12-2-2-12-2-133-2H593l-1 2zM1018 65v61h15V84a733 733 0 001-41l15 35 14 30h7l13-29a894 894 0 0019-39l-2 44v42h15V65l-1-61h-13l-15 35-17 41-2 6-2-3-17-41-16-38-7-1h-7v62zM1296 26c0 25 0 25-7 19-13-12-36-5-44 13-2 4-2 6-2 25 0 18 0 20 2 25 3 6 9 12 16 15 6 3 17 4 22 2l8-4c5-5 7-5 7 0l1 5h12V3h-15v23zm-11 28l7 6 4 4v18c0 18-1 19-3 22-7 10-20 12-29 5-6-6-7-9-7-26 0-16 1-20 5-25 6-6 17-8 23-4zM2115 33c-10 10-11 13-11 15v3l7 1h7v26c1 25 1 26 3 31 5 10 14 17 25 19h5v-13l-4-1-8-5c-5-5-6-10-6-36V52h18V39h-9l-8-1-1-8v-9h-3c-3 0-5 1-15 12zM2787 33c-10 10-11 12-11 15v4h15v27c1 26 1 26 3 31 5 9 12 14 22 17 7 2 8 1 8-6v-5l-5-2c-6-3-10-7-12-11l-1-27V52h9l9-1-1-6v-6h-17V21h-4c-3 0-4 1-15 12zM1169 39c-10 3-16 9-20 18-2 4-2 6-2 26 0 24 0 27 8 35 5 6 13 9 24 10 12 0 18-2 25-8 4-4 8-8 8-10l-6-4-6-3-4 5-8 6c-4 2-11 1-16-1-8-4-11-11-11-22v-6l27-1h27V72c-1-11-1-13-3-18-6-10-16-16-29-17-6 0-10 0-14 2zm21 13c7 3 10 9 10 17v4h-39v-5c1-7 5-13 10-16 5-2 13-3 19 0zM1410 39c-8 3-16 10-19 17-2 5-2 7-2 26 0 24 0 28 7 35 6 7 13 10 25 11 12 0 18-2 25-8 4-4 8-8 8-10l-6-4-6-3-4 5-8 6c-4 2-11 1-16-1-8-4-11-11-11-22v-6l27-1h27V73c0-11 0-12-3-17-3-8-8-12-15-16-8-3-20-4-29-1zm21 13c7 3 11 8 11 16v5h-39v-5c1-7 5-13 10-16 5-2 13-3 18 0zM1858 39c-10 2-17 9-21 18-2 4-2 6-2 26s0 21 2 26c3 7 9 13 16 16 5 2 7 2 16 2s11 0 16-2c15-7 20-18 19-47-1-18-2-23-9-30-8-9-24-13-37-9zm19 12c4 2 8 5 10 9 1 3 2 7 2 23 0 18-1 19-3 23-3 6-9 9-17 9-6 0-7 0-11-3-8-5-9-7-9-28l1-21c1-4 7-10 10-12h17zM2041 38l-9 4c-5 3-13 10-13 13 0 1 10 7 12 7l2-3c4-7 15-11 23-8 9 3 13 9 13 20v7h-17c-16 1-16 1-22 4-8 4-11 9-12 18 0 8 1 13 5 18 5 5 11 8 22 8 10 0 14-1 20-7 4-3 6-3 7 3v4h6l7-1v-26c0-37-1-44-10-52-8-8-22-11-34-9zm28 56c0 7-3 12-9 16-4 3-5 3-13 3s-8 0-11-3c-3-2-3-4-3-8 0-11 2-13 22-13h14v5zM2242 39c-8 2-13 6-17 12-5 8-6 13-6 34 1 19 1 20 3 25 3 6 9 12 16 15 4 2 6 2 16 2 13 0 19-2 26-10 8-8 8-11 8-36l-1-22-2-5c-6-10-16-16-29-17-6 0-10 0-14 2zm21 13l7 6 3 3v21c0 21 0 22-3 25-4 6-9 8-16 8-9 0-15-4-18-11-2-5-3-35-1-41 1-4 9-14 9-12h2c4-2 12-1 17 1zM2435 38c-6 2-11 5-15 9-5 5-6 10-6 18 1 14 9 19 34 25 14 2 19 6 19 12 0 9-6 14-19 14-9 0-14-2-19-8l-4-4-5 3-6 4c0 2 6 9 10 11 6 4 12 6 24 6 11 0 18-2 24-6 7-6 12-19 9-28-3-10-10-14-29-18-17-4-16-4-20-7-6-4-5-14 2-17 4-3 15-4 21-2 4 1 7 2 10 6l5 5 6-2 5-4c0-4-7-11-13-14-7-3-8-3-18-4l-15 1zM2617 38c-9 3-17 9-21 17-2 4-2 6-3 26 0 20 0 22 2 27 3 7 8 13 16 17 5 2 7 2 17 2s11 0 16-2c6-3 11-8 13-13l2-3-6-3-7-3-3 4c-8 12-27 10-33-2-2-4-2-7-2-13v-8h54v-9c0-11-2-18-6-24-7-11-24-17-39-13zm20 14c6 3 9 8 9 15l1 5-20 1h-19v-5c0-4 2-10 6-13 5-5 16-6 23-3zM1344 82v44h15V83l-1-43-7-1h-7zM1487 83v43h15V97c0-26 0-30 2-33l4-7c5-4 14-6 21-4 3 1 9 6 10 10 1 1 2 11 2 32l1 31h14V95c0-36 0-37-9-46-6-6-12-9-21-10-8 0-14 1-19 6-5 4-7 4-7-1v-5h-13v44zM1588 83v43h15V39h-15zM1636 40l-1 44 1 42h14V96c0-28 1-30 3-34 7-13 25-13 34-1l3 4v61h15V97c0-24 0-31-2-35-4-13-14-21-29-23-8 0-12 1-19 6-5 4-6 4-6 0 0-5-1-6-7-6l-6 1zM1737 40l-1 44 1 42h14V98l1-31c5-18 28-20 36-5 2 4 3 6 3 34v30h15V98l-1-34c-2-10-11-20-21-23-11-3-21-2-29 4-4 4-6 3-6-2v-4h-6l-6 1zM1921 41l34 83c1 2 2 2 7 2h6l17-43 17-43-8-1-7 1-12 30-13 33-1-1-13-33-12-29-7-1c-8 0-8 0-8 2zM2179 41l-1 43 1 41h15l-1-43V39h-7c-6 0-7 0-7 2zM2318 82v44h15V97l1-33c6-13 23-16 33-5l4 5 1 33v29h15V94l-1-33-2-5c-5-9-15-16-27-17-8 0-14 1-19 6-5 4-7 4-7-2v-4h-13v43zM2507 40l-1 6v6h20l21 1-7 13a124 124 0 00-8 14 466 466 0 00-27 45l35 1h35v-6l-1-7h-22c-21 0-22 0-22-2l21-36 20-35h-64zM2688 40l-1 43 1 42h15V95c1-34 1-35 8-40 9-6 21-3 28 6l3 4v61h15V94c-1-30-1-32-3-36-5-11-15-18-28-19-8 0-12 1-19 6l-5 3-1-4-1-5h-6l-6 1zM2851 82v44h15V97c0-27 0-29 2-33 3-6 9-10 17-10h6V39h-4c-6 0-12 3-16 8-6 6-7 5-7-2v-6h-13v43zM2910 71l1 32 2 5c6 11 15 17 28 18 8 0 14-2 19-6l4-3c2 0 2 1 2 4v5h13V39h-14l-1 31v31l-3 4c-5 7-16 10-24 7-3-1-8-6-10-10-1-1-2-11-2-32l-1-31h-14v32zM3008 82v44h7l8-1V95c0-30 1-31 3-34 3-5 9-9 14-9 7 0 15 6 17 14l1 32v28h15V97c0-33 0-34 7-40 7-7 15-7 22 1 6 6 6 6 6 38v30h15V94c-1-30-1-32-3-36-8-19-32-25-48-13l-5 4c-1 1-3 0-6-3-8-6-18-9-25-6l-4 2-5 3-5 3-1-4-1-5h-12v43zM1018 269v61h53l5-3a31 31 0 0017-29c0-9 0-10-2-15l-7-10-5-5 4-5 8-9c2-5 2-7 2-15-1-10-4-18-10-23-9-8-10-8-39-9h-26v62zm50-47c13 7 14 28 2 36-4 2-5 3-21 3h-16v-41h15c15 0 16 0 20 2zm-4 53c5 1 10 6 13 10 3 7 2 19-3 25-4 6-8 7-25 7h-16v-21l1-21h30zM1213 269v61h13v-4l1-5 5 3 9 5c5 2 16 1 22-2 7-3 13-9 16-15 2-5 2-7 2-25 0-20 0-21-2-25-3-7-9-13-16-16-10-4-20-4-29 3l-5 3-1-22-1-22-7-1h-7v62zm42-11c5 2 8 5 10 10 3 5 3 32 0 38-3 7-9 11-18 11-8 0-14-4-17-11-3-4-3-33-1-38 4-10 16-14 26-10zM1400 208l-1 62 1 60h15l-1-61v-61l-7-1-7 1zM1534 209l-1 62 1 59 6-1h7v-4l1-4 5 3c7 5 11 6 19 6 13-1 23-7 28-18 2-5 2-6 2-25s0-20-2-25c-5-11-15-18-26-19-7 0-13 1-18 5l-6 4-1-22-1-23h-7c-6 0-7 0-7 2zm43 49l8 7c3 4 3 4 3 20s0 17-2 21l-6 7c-7 6-20 5-26-2-5-5-5-7-5-25 0-17 0-17 3-21 5-8 16-11 25-7zM1142 242c-7 2-13 5-18 11l-5 6 6 4 6 3 5-5c6-6 12-8 20-6 9 2 14 10 14 21v6h-17c-15 1-17 1-21 3-10 4-15 14-14 25 1 5 3 9 4 8l1 1c-1 2 3 6 8 8 5 3 7 3 15 3 9 0 10 0 15-3l6-4 3-2c2 0 2 1 2 5v4h13v-33l-1-32-2-6c-4-7-9-12-17-15-6-2-17-3-23-2zm28 56c0 6-3 11-8 15-4 3-5 4-12 4-10 0-13 0-15-4-4-7-2-16 4-19l17-1 14 1v4zM1329 242c-10 3-17 9-21 17-2 4-2 6-3 26 0 17 0 22 2 26 2 7 7 13 14 17 6 3 8 4 16 4 15 0 25-4 31-14l3-4-6-4-6-3-4 4c-7 9-18 11-26 5-7-4-9-9-9-20v-7l27-1h27v-11c-1-9-1-13-3-17-3-6-11-14-18-16-6-3-18-3-24-2zm18 13c7 3 12 11 12 19v3h-39v-4c0-5 2-11 6-14 5-5 14-6 21-4zM1463 242c-13 3-21 13-21 25 0 7 3 13 8 17s8 6 23 9c20 5 22 6 22 14 0 9-6 13-19 13-9 0-14-2-19-8l-4-4-5 3-6 4c0 2 6 9 10 11 6 5 11 6 24 6 8 0 12 0 16-2 11-4 17-11 18-22 0-8-1-12-5-17s-12-8-27-11c-13-3-15-4-19-7-2-2-2-3-2-7 0-7 3-10 10-12 12-2 20-1 26 6l5 5 4-1 6-4 2-1-3-4c-4-6-10-11-18-12-6-2-20-2-26-1zM1655 242c-11 3-18 9-23 18-2 6-2 8-3 21-1 26 2 36 13 44 7 6 13 7 24 7 12-1 19-4 25-11l4-7-12-7-3 4c-6 9-21 11-29 3-4-3-6-8-6-17v-9h54v-11c-1-13-2-18-9-25-6-7-14-10-24-11l-11 1zm18 14c7 3 12 12 11 18 0 3-1 3-20 3h-19v-4l1-8c4-9 17-14 27-9zM1725 244l-1 43v43h15v-29c0-32 1-33 6-38 4-3 7-4 13-4l7-1-1-7v-7l-3-1c-5 0-11 3-16 8-6 6-8 5-8-2v-6h-6l-6 1zM1804 244c-16 4-27 19-26 36 1 7 6 17 11 21l3 3-2 5c-2 5-3 11 0 17l1 4-5 5c-7 6-9 12-7 19 1 9 6 15 14 19 5 2 36 3 44 1 7-1 14-6 17-12 2-4 2-6 2-11 0-11-4-18-14-22-4-2-7-2-21-3-17 0-17 0-19-3s-2-8 1-10c2-2 3-3 11-3 15-1 24-7 30-19l3-7v-40l-6-1h-6v3c0 4-1 7-2 7l-4-3c-7-6-16-8-25-6zm18 14c14 8 14 29 0 37-15 8-33-7-28-24 3-13 17-19 28-13zm16 84c6 5 4 16-2 18-5 3-32 3-37 1-6-3-8-13-3-19 3-2 3-2 21-2s19 0 21 2z" fill="#757E74" style="mix-blend-mode:normal"/></g></svg>
