<svg version="1.1" xmlns="http://www.w3.org/2000/svg" x="0" y="0" viewBox="0 0 148.5 56.7" xml:space="preserve"><style>.st1{fill:#6d796e}</style><path d="M85 56.7H73.3c-.9 0-1.2-.4-1.2-1.2V1.3c0-.9.4-1.2 1.2-1.2H85c.9 0 1.2.4 1.2 1.2v54.2c0 .9-.4 1.2-1.2 1.2z" fill="#e11b22"/><path class="st1" d="M147 4l-21.7 36c-.9 1.4-1.4 2.2-1.4 2.7 0 .6.5 1 1.4 1h21.4c.9 0 1.2.4 1.2 1.2v10.6c0 .9-.4 1.2-1.2 1.2h-46.2c-.9 0-1.4-.4-1.4-1 0-.5.5-1.2 1.4-2.7L122 17a8.7 8.7 0 001.5-3c0-.6-.5-1-1.4-1H103c-.9 0-1.2-.4-1.2-1.2V1.2c0-.9.4-1.2 1.2-1.2h44.1c.9 0 1.4.4 1.4 1 0 .5-.7 1.6-1.5 3zM55.4.1h-12-.2c-.3.1-.7.4-.8.7l-1 2L31 24a58.8 58.8 0 00-2.4 5.3h-.4s-.7-1.9-2.4-5.3L15.2 2.5 14.3.6c-.2-.3-.7-.6-1.2-.6H.9C.3.2 0 .6 0 1.3v54.2c0 .9.4 1.2 1.2 1.2h11.7c.9 0 1.2-.4 1.2-1.2v-2.2c0-13.5-.2-24-.2-24h.3c1.9 5.4 3.2 6.2 6.1 12.6l.2.5c.3.6 1 1.1 1.7 1.2l.3.1H34l.3-.1c.7-.1 1.4-.6 1.7-1.2l.2-.4c2.9-6.4 4.2-7.3 6.1-12.7h.3s-.2 10.4-.2 24v2.2c0 .9.4 1.2 1.2 1.2h11.7c.9 0 1.2-.4 1.2-1.2V1.3c.2-.9-.2-1.2-1.1-1.2z"/></svg>
