<svg xmlns="http://www.w3.org/2000/svg" viewBox="20 20 285 475"><style>.st0{fill:#1d1d1b}</style><g id="Ebene_2"><path d="M25 381h12c9 0 17 4 17 13 0 10-8 14-18 14h-5v17h-6v-44zm6 22h5c4 0 11-1 11-9 0-7-6-8-10-8l-6-1v18zM59 402l-1-8h6v8h1c1-4 4-8 9-8l4 1v5l-4-1c-6 0-9 6-9 12v14h-6v-23zM95 393c11 0 15 10 15 17 0 8-5 16-15 16s-16-8-16-16c0-7 5-17 16-17zm0 29c5 0 9-4 9-12s-4-12-9-12c-4 0-9 2-9 12 0 6 2 12 9 12zM113 394h5l1-9h5v9h9v5h-9v17c0 3 1 5 4 5l5-1v4l-6 2c-6 0-9-4-9-10v-17h-5v-5zM151 393c11 0 16 10 16 17 0 8-6 16-16 16s-15-8-15-16c0-7 5-17 15-17zm0 29c5 0 9-4 9-12 1-8-4-12-9-12-4 0-9 2-9 12 0 6 3 12 9 12zM169 394h6l1-9h4v9h9v5h-9v17c0 3 2 5 4 5l5-1v4l-5 2c-6 0-10-4-10-10v-17h-5v-5zM208 432c-2 4-5 6-9 6l-4-1v-5l3 1c3 0 4-1 5-3l1-5c1-1 0-2-1-2l-12-29h7l9 25 8-25h6l-13 38zM231 437h-6v-38-5h5v5h1c2-3 5-5 9-5 8 0 13 7 13 16s-5 16-13 16c-6 0-8-4-9-5v16zm7-39c-4 0-7 5-7 8v7c0 4 3 9 8 9s8-6 8-12c0-7-3-12-9-12zM261 411c0 6 4 11 9 11 4 0 7-3 8-6h6c-1 5-6 10-14 10-9 0-15-6-15-17 0-8 6-16 15-16 11 0 14 10 13 17h-22zm17-5c0-3-2-8-8-8-4 0-8 3-8 8h16z" class="st0"/><g><path d="M25 439h25v5H32v15h17v5H32v20h-7v-45zM82 453v31h-6v-6c-1 2-4 6-10 6-5 0-11-2-11-11v-20h6v20c0 4 2 6 6 6s8-3 9-9v-17h6zM88 458l-1-5h6v5h1c0-1 4-6 10-6 3 0 10 2 10 12v20h-6v-21c0-4-2-6-5-6-5 0-8 4-10 9v18h-5v-26zM140 439h6v45h-5v-5h-1c-2 3-5 5-9 5-9 0-13-7-13-16s4-16 13-16c5 0 8 3 9 5v-18zm-8 41c5 0 8-5 8-8v-7c0-4-3-9-8-9-6 0-8 6-8 12 0 7 3 12 8 12z" class="st0"/></g><path id="XMLID_19_" fill="#333" d="M199 28l39 5 45 87-45 73-72 18h-45v118l37 13-1 13-65-1-65 1-2-13 37-13V53L25 41l2-13h172zm-78 158l38 7 58-40 18-33-18-33-58-39-38 5v133z"/></g></svg>
