<?xml version="1.0" encoding="UTF-8" standalone="no"?>
<svg
   xmlns:dc="http://purl.org/dc/elements/1.1/"
   xmlns:cc="http://creativecommons.org/ns#"
   xmlns:rdf="http://www.w3.org/1999/02/22-rdf-syntax-ns#"
   xmlns:svg="http://www.w3.org/2000/svg"
   xmlns="http://www.w3.org/2000/svg"
   xmlns:sodipodi="http://sodipodi.sourceforge.net/DTD/sodipodi-0.dtd"
   xmlns:inkscape="http://www.inkscape.org/namespaces/inkscape"
   width="100%"
   viewBox="0 0 4.2650232 2.3220501"
   version="1.1"
   id="svg14191"
   inkscape:version="1.0.1 (c497b03c, 2020-09-10)"
   sodipodi:docname="logo_100only.svg">
  <defs
     id="defs14185" />
  <sodipodi:namedview
     id="base"
     pagecolor="#ffffff"
     bordercolor="#666666"
     borderopacity="1.0"
     inkscape:pageopacity="0.0"
     inkscape:pageshadow="2"
     inkscape:zoom="2.3068182"
     inkscape:cx="54.285714"
     inkscape:cy="31.428571"
     inkscape:document-units="mm"
     inkscape:current-layer="layer1"
     inkscape:document-rotation="0"
     showgrid="false"
     fit-margin-top="0"
     fit-margin-left="0"
     fit-margin-right="0"
     fit-margin-bottom="0"
     inkscape:window-width="1248"
     inkscape:window-height="943"
     inkscape:window-x="0"
     inkscape:window-y="25"
     inkscape:window-maximized="0" />
  <metadata
     id="metadata14188">
    <rdf:RDF>
      <cc:Work
         rdf:about="">
        <dc:format>image/svg+xml</dc:format>
        <dc:type
           rdf:resource="http://purl.org/dc/dcmitype/StillImage" />
        <dc:title></dc:title>
      </cc:Work>
    </rdf:RDF>
  </metadata>
  <g
     inkscape:label="Ebene 1"
     inkscape:groupmode="layer"
     id="layer1"
     transform="translate(-36.421063,-140.95805)">
    <path
       style="fill:#eb008a;fill-opacity:1;fill-rule:nonzero;stroke:none;stroke-width:0.352777"
       d="m 37.071492,143.22768 c 0.04272,-0.022 0.06339,-0.0537 0.06339,-0.0951 v -2.04363 c 0,-0.0386 -0.01929,-0.0716 -0.05788,-0.0951 -0.03859,-0.0248 -0.07993,-0.0358 -0.121267,-0.0358 -0.01929,0 -0.03445,0.003 -0.04823,0.007 -0.01378,0.006 -0.02756,0.0138 -0.03996,0.0234 l -0.370692,0.28387 c -0.0248,0.0165 -0.0441,0.0386 -0.0565,0.0634 -0.0124,0.0262 -0.01929,0.0551 -0.01929,0.0841 0,0.04 0.0124,0.0772 0.03721,0.11162 0.02343,0.0345 0.05512,0.051 0.09508,0.051 0.01102,0 0.02205,-0.001 0.03445,-0.007 0.0124,-0.006 0.02618,-0.0124 0.03858,-0.0207 l 0.09922,-0.10059 v 1.67845 c 0,0.0413 0.02205,0.073 0.06477,0.0951 0.04272,0.0221 0.08957,0.0331 0.140559,0.0331 0.05237,0 0.09922,-0.011 0.14056,-0.0331 m 1.495171,-0.0179 c 0.111621,-0.0482 0.199816,-0.12402 0.264584,-0.23013 0.06477,-0.10611 0.09784,-0.24529 0.09784,-0.41892 v -0.87781 c 0,-0.17363 -0.03307,-0.31282 -0.09784,-0.41893 -0.06477,-0.1061 -0.152963,-0.1819 -0.264584,-0.22875 -0.112999,-0.0482 -0.2384,-0.0717 -0.376204,-0.0717 -0.137804,0 -0.263205,0.0234 -0.373448,0.0717 -0.111621,0.0468 -0.199816,0.12265 -0.264584,0.22875 -0.06477,0.10611 -0.09646,0.2453 -0.09646,0.41893 v 0.87781 c 0,0.17363 0.03169,0.31281 0.09646,0.41892 0.06477,0.10611 0.152963,0.1819 0.264584,0.23013 0.110243,0.0469 0.235644,0.0703 0.373448,0.0703 0.137804,0 0.263206,-0.0234 0.376205,-0.0703 m -0.615984,-0.3762 c -0.05788,-0.0593 -0.08682,-0.15021 -0.08682,-0.27285 v -0.87781 c 0,-0.12265 0.02894,-0.21498 0.08682,-0.27285 0.05788,-0.0593 0.137804,-0.0882 0.239779,-0.0882 0.103352,0 0.183279,0.0289 0.242534,0.0882 0.05788,0.0579 0.08682,0.1502 0.08682,0.27285 v 0.87781 c 0,0.12264 -0.02894,0.21359 -0.08682,0.27285 -0.05926,0.0579 -0.139182,0.0882 -0.242534,0.0882 -0.101975,0 -0.181901,-0.0303 -0.239779,-0.0882 m 0.348644,-0.60496 c 0.02618,-0.0289 0.03859,-0.0634 0.03859,-0.10473 0,-0.0441 -0.0124,-0.0799 -0.03859,-0.10611 -0.02618,-0.0262 -0.06339,-0.0386 -0.108865,-0.0386 -0.0441,0 -0.07855,0.0124 -0.104731,0.0386 -0.02618,0.0262 -0.03996,0.062 -0.03996,0.10611 0,0.0413 0.01378,0.0758 0.03996,0.10473 0.02618,0.0289 0.06063,0.0427 0.104731,0.0427 0.04548,0 0.08268,-0.0138 0.108865,-0.0427 m 2.02296,0.98116 c 0.112999,-0.0482 0.201194,-0.12402 0.265962,-0.23013 0.06477,-0.10611 0.09784,-0.24529 0.09784,-0.41892 v -0.87781 c 0,-0.17363 -0.03307,-0.31282 -0.09784,-0.41893 -0.06477,-0.1061 -0.152963,-0.1819 -0.265962,-0.22875 -0.111621,-0.0482 -0.237022,-0.0717 -0.374826,-0.0717 -0.139182,0 -0.263205,0.0234 -0.374827,0.0717 -0.110243,0.0468 -0.198437,0.12265 -0.263205,0.22875 -0.06477,0.10611 -0.09784,0.2453 -0.09784,0.41893 v 0.87781 c 0,0.17363 0.03307,0.31281 0.09784,0.41892 0.06477,0.10611 0.152962,0.1819 0.263205,0.23013 0.111622,0.0469 0.235645,0.0703 0.374827,0.0703 0.137804,0 0.263205,-0.0234 0.374826,-0.0703 m -0.615983,-0.3762 c -0.05788,-0.0593 -0.08544,-0.15021 -0.08544,-0.27285 v -0.87781 c 0,-0.12265 0.02756,-0.21498 0.08544,-0.27285 0.05788,-0.0593 0.137804,-0.0882 0.241156,-0.0882 0.101975,0 0.183279,0.0289 0.241157,0.0882 0.05926,0.0579 0.08819,0.1502 0.08819,0.27285 v 0.87781 c 0,0.12264 -0.02894,0.21359 -0.08819,0.27285 -0.05788,0.0579 -0.139182,0.0882 -0.241157,0.0882 -0.103352,0 -0.183279,-0.0303 -0.241156,-0.0882 m 0.348644,-0.60496 c 0.02756,-0.0289 0.03996,-0.0634 0.03996,-0.10473 0,-0.0441 -0.0124,-0.0799 -0.03996,-0.10611 -0.02618,-0.0262 -0.06201,-0.0386 -0.107487,-0.0386 -0.0441,0 -0.07993,0.0124 -0.106109,0.0386 -0.02618,0.0262 -0.03858,0.062 -0.03858,0.10611 0,0.0413 0.0124,0.0758 0.03858,0.10473 0.02618,0.0289 0.06201,0.0427 0.106109,0.0427 0.04548,0 0.0813,-0.0138 0.107487,-0.0427"
       id="path7170"
       inkscape:export-xdpi="300"
       inkscape:export-ydpi="300" />
  </g>
</svg>
