<?xml version="1.0" encoding="UTF-8" standalone="no"?>
<svg
   xmlns:dc="http://purl.org/dc/elements/1.1/"
   xmlns:cc="http://creativecommons.org/ns#"
   xmlns:rdf="http://www.w3.org/1999/02/22-rdf-syntax-ns#"
   xmlns:svg="http://www.w3.org/2000/svg"
   xmlns="http://www.w3.org/2000/svg"
   xmlns:sodipodi="http://sodipodi.sourceforge.net/DTD/sodipodi-0.dtd"
   xmlns:inkscape="http://www.inkscape.org/namespaces/inkscape"
   width="100%"
   viewBox="0 0 3.8610461 4.7745056"
   version="1.1"
   id="svg11724"
   inkscape:version="1.0.1 (c497b03c, 2020-09-10)"
   sodipodi:docname="bee-turq.svg">
  <defs
     id="defs11718" />
  <sodipodi:namedview
     id="base"
     pagecolor="#ffffff"
     bordercolor="#666666"
     borderopacity="1.0"
     inkscape:pageopacity="0.0"
     inkscape:pageshadow="2"
     inkscape:zoom="0.35"
     inkscape:cx="-41.274946"
     inkscape:cy="-45.263019"
     inkscape:document-units="mm"
     inkscape:current-layer="layer1"
     inkscape:document-rotation="0"
     showgrid="false"
     fit-margin-top="0"
     fit-margin-left="0"
     fit-margin-right="0"
     fit-margin-bottom="0"
     inkscape:window-width="1248"
     inkscape:window-height="943"
     inkscape:window-x="0"
     inkscape:window-y="25"
     inkscape:window-maximized="0" />
  <metadata
     id="metadata11721">
    <rdf:RDF>
      <cc:Work
         rdf:about="">
        <dc:format>image/svg+xml</dc:format>
        <dc:type
           rdf:resource="http://purl.org/dc/dcmitype/StillImage" />
        <dc:title></dc:title>
      </cc:Work>
    </rdf:RDF>
  </metadata>
  <g
     inkscape:label="Ebene 1"
     inkscape:groupmode="layer"
     id="layer1"
     transform="translate(-116.754,-160.14251)">
    <path
       style="fill:#a1e1cf;fill-opacity:1;fill-rule:nonzero;stroke:none;stroke-width:0.352777"
       d="m 117.1214,163.52096 c 0.0441,-0.76757 0.92329,-0.69453 1.4745,-0.68213 0.33073,0.007 0.65871,0.0248 0.98668,0.0744 0.45062,0.0675 1.06109,0.5526 0.49885,0.904 -0.41892,0.26182 -1.03353,0.26734 -1.50895,0.25355 -0.49196,-0.0138 -1.40147,0.0979 -1.45108,-0.54983 -0.0124,-0.17364 -0.28525,-0.17639 -0.27147,0 0.0689,0.91226 0.853,0.75103 1.57234,0.81166 0.565,0.0469 1.95957,0.0524 2.16076,-0.67799 0.26597,-0.96738 -1.19613,-1.05558 -1.77077,-1.08176 -0.78549,-0.0345 -1.90583,-0.0772 -1.96233,0.94809 -0.011,0.17501 0.26183,0.17363 0.27147,0"
       id="path7904" />
    <path
       style="fill:#a1e1cf;fill-opacity:1;fill-rule:nonzero;stroke:none;stroke-width:0.352777"
       d="m 117.67813,162.916 c 0.29077,0.27974 0.33073,0.83509 0.18052,1.192 -0.0675,0.16123 0.19569,0.23151 0.26321,0.0717 0.18604,-0.44235 0.10335,-1.11483 -0.25081,-1.45659 -0.12677,-0.12264 -0.3197,0.0703 -0.19292,0.19293"
       id="path7906" />
    <path
       style="fill:#a1e1cf;fill-opacity:1;fill-rule:nonzero;stroke:none;stroke-width:0.352777"
       d="m 118.23486,162.83332 c 0.41341,0.0937 0.29352,1.02664 0.19706,1.32705 -0.0538,0.16674 0.20946,0.2384 0.2632,0.0717 0.14607,-0.45338 0.22876,-1.52136 -0.38722,-1.66192 -0.17088,-0.0386 -0.24392,0.22462 -0.073,0.26321"
       id="path7908" />
    <path
       style="fill:#a1e1cf;fill-opacity:1;fill-rule:nonzero;stroke:none;stroke-width:0.352777"
       d="m 118.87289,162.83332 c 0.41341,0.0937 0.29352,1.02664 0.19706,1.32705 -0.0551,0.16674 0.20808,0.2384 0.26183,0.0717 0.14745,-0.45338 0.22875,-1.52136 -0.38723,-1.66192 -0.17088,-0.0386 -0.24254,0.22462 -0.0717,0.26321"
       id="path7910" />
    <path
       style="fill:#a1e1cf;fill-opacity:1;fill-rule:nonzero;stroke:none;stroke-width:0.352777"
       d="m 119.61014,162.9408 c 0.28112,0.29628 0.22875,0.70005 0.0703,1.04318 -0.073,0.15847 0.16123,0.29766 0.23427,0.13781 0.21222,-0.46027 0.26044,-0.98255 -0.11162,-1.37253 -0.12127,-0.12816 -0.3142,0.0648 -0.19293,0.19154"
       id="path7912" />
    <path
       style="fill:#a1e1cf;fill-opacity:1;fill-rule:nonzero;stroke:none;stroke-width:0.352777"
       d="m 118.62347,162.67898 c -0.13781,-0.46991 -0.32109,-0.86541 -0.36381,-1.36564 -0.0468,-0.54432 0.26872,-1.11621 0.88884,-0.83647 0.94257,0.42444 -0.58705,1.78318 -0.8723,2.18281 -0.10198,0.14332 0.13367,0.27975 0.23564,0.13781 0.34038,-0.47818 0.84888,-0.84612 1.07625,-1.40147 0.1819,-0.44235 0.11438,-1.04179 -0.41617,-1.2044 -0.47266,-0.14745 -0.9536,0.0413 -1.13412,0.50987 -0.25907,0.67111 0.14194,1.42903 0.32246,2.05052 0.0482,0.16813 0.31144,0.0965 0.26321,-0.073"
       id="path7914" />
    <path
       style="fill:#a1e1cf;fill-opacity:1;fill-rule:nonzero;stroke:none;stroke-width:0.352777"
       d="m 118.63862,162.7148 c 0.0579,-0.5705 0.0978,-1.13687 0.36656,-1.65502 0.23151,-0.44372 1.01561,-0.81855 1.1107,-0.0661 0.10887,0.86403 -0.97841,1.38217 -1.64951,1.59025 -0.16812,0.0524 -0.0965,0.3142 0.0717,0.26321 0.53743,-0.16674 1.05833,-0.42719 1.45383,-0.83234 0.37069,-0.37896 0.56499,-1.03766 0.23564,-1.50206 -0.29352,-0.41479 -0.90261,-0.19844 -1.21129,0.0661 -0.56224,0.48507 -0.58154,1.46347 -0.65044,2.13595 -0.0165,0.17502 0.25494,0.17364 0.27285,0"
       id="path7916" />
    <path
       style="fill:#a1e1cf;fill-opacity:1;fill-rule:nonzero;stroke:none;stroke-width:0.352777"
       d="m 117.48245,163.54025 c 0.17639,0 0.17639,-0.27285 0,-0.27285 -0.17501,0 -0.17501,0.27285 0,0.27285"
       id="path7918" />
    <path
       style="fill:#a1e1cf;fill-opacity:1;fill-rule:nonzero;stroke:none;stroke-width:0.352777"
       d="m 117.47005,162.73685 c -0.1254,-0.26182 -0.0744,-0.49885 0.23288,-0.55259 0.17226,-0.0303 0.0992,-0.29214 -0.073,-0.26321 -0.1943,0.0345 -0.37207,0.13781 -0.45475,0.32247 -0.0951,0.20946 -0.0345,0.43546 0.0606,0.63114 0.0758,0.15847 0.31006,0.0207 0.23427,-0.13781"
       id="path7920" />
    <path
       style="fill:#a1e1cf;fill-opacity:1;fill-rule:nonzero;stroke:none;stroke-width:0.352777"
       d="m 117.35705,162.59767 c -0.20533,-0.14607 -0.47267,-0.53881 -0.24254,-0.76068 0.12678,-0.12126 -0.0661,-0.31419 -0.19292,-0.19154 -0.37483,0.35967 -0.0524,0.93982 0.29765,1.18787 0.14332,0.10197 0.27975,-0.13505 0.13781,-0.23565"
       id="path7922" />
    <path
       style="fill:#a1e1cf;fill-opacity:1;fill-rule:nonzero;stroke:none;stroke-width:0.352777"
       d="m 117.86554,164.23478 c -0.0165,0.34865 0.17364,0.68902 0.55673,0.68213 0.17639,-0.004 0.17639,-0.27561 0,-0.27285 -0.23289,0.004 -0.29352,-0.21084 -0.28525,-0.40928 0.008,-0.17501 -0.26459,-0.17501 -0.27148,0"
       id="path7924" />
    <path
       style="fill:#a1e1cf;fill-opacity:1;fill-rule:nonzero;stroke:none;stroke-width:0.352777"
       d="m 119.33453,164.22238 c 0.0165,0.12127 0.0303,0.24116 0.0882,0.35278 0.0606,0.11713 0.18465,0.17777 0.30454,0.21911 0.16537,0.0579 0.23703,-0.20533 0.0717,-0.26183 -0.15572,-0.0551 -0.17088,-0.15848 -0.19155,-0.31006 -0.01,-0.0744 -0.0551,-0.13643 -0.13642,-0.13643 -0.0662,0 -0.14607,0.062 -0.13643,0.13643"
       id="path7926" />
  </g>
</svg>
