<?xml version="1.0" encoding="UTF-8" standalone="no"?>
<!-- Generator: Adobe Illustrator 16.0.0, SVG Export Plug-In . SVG Version: 6.00 Build 0)  -->

<svg
   version="1.0"
   id="Ebene_1"
   x="0px"
   y="0px"
   width="100%"
   viewBox="0 0 17 16"
   enable-background="new 0 0 170.08 113.39"
   xml:space="preserve"
   sodipodi:docname="channel_whats_app_2.svg"
   inkscape:version="1.2.2 (b0a8486541, 2022-12-01)"
   height="19.301605"
   xmlns:inkscape="http://www.inkscape.org/namespaces/inkscape"
   xmlns:sodipodi="http://sodipodi.sourceforge.net/DTD/sodipodi-0.dtd"
   xmlns="http://www.w3.org/2000/svg"
   xmlns:svg="http://www.w3.org/2000/svg"><defs
   id="defs54" /><sodipodi:namedview
   id="namedview52"
   pagecolor="#ffffff"
   bordercolor="#666666"
   borderopacity="1.0"
   inkscape:showpageshadow="2"
   inkscape:pageopacity="0.0"
   inkscape:pagecheckerboard="0"
   inkscape:deskcolor="#d1d1d1"
   showgrid="false"
   inkscape:zoom="2"
   inkscape:cx="-40.25"
   inkscape:cy="93.75"
   inkscape:window-width="3840"
   inkscape:window-height="2123"
   inkscape:window-x="1600"
   inkscape:window-y="0"
   inkscape:window-maximized="1"
   inkscape:current-layer="Ebene_1" />
<path
   fill="transparent"
   d="m 11.093244,0.0149092 c -5.3510004,-0.328 -11.40200037,4.818 -11.08100037,9.314 0.333,4.6699998 2.71899997,9.6859998 9.63599997,9.9569998 8.1900004,0.321 10.6000004,-4.336 10.6000004,-8.993 -0.001,-4.9789998 -3.383,-9.9229998 -9.155,-10.2779998"
   id="path45" />
<path
   fill="#ffffff"
   d="m 16.634244,6.5449092 c -1.403,-2.964 -5.557,-3.621 -8.3980004,-2.866 -3.958,1.053 -5.151,5.362 -3.543,8.7739998 -0.191,0.971 -0.415,1.967 -0.757,2.893 -0.1,0.27 0.205,0.554 0.467,0.467 1.329,-0.438 2.685,-1.173 4.048,-0.758 1.7000004,0.521 3.7690004,0.193 5.3750004,-0.49 3.027,-1.289 4.153,-5.1819998 2.808,-8.0199998 z m -5.632,8.1129998 c -1.1020004,0.045 -2.8580004,-0.831 -3.8860004,-0.514 -0.749,0.232 -1.497,0.477 -2.243,0.721 0.235,-0.771 0.429,-1.564 0.58,-2.348 0.007,-0.035 10e-4,-0.065 -0.002,-0.098 0.002,-0.019 0.003,-0.037 0,-0.057 -10e-4,-0.01 -0.004,-0.019 -0.007,-0.027 -0.007,-0.037 -0.012,-0.072 -0.03,-0.11 -1.874,-3.7489998 -0.034,-7.6209998 4.088,-8.0669998 3.0210004,-0.327 6.8370004,1.318 7.1660004,4.584 0.371,3.6799998 -2.442,5.7819998 -5.666,5.9159998 z"
   id="path47" />
<path
   fill="#ffffff"
   d="m 14.329244,10.560909 c -0.266,-0.6679998 -1.474,-1.0059998 -2.1,-0.8429998 -0.487,0.127 -0.451,1.0559998 -1.03,0.7919998 -0.773,-0.352 -1.3300004,-1.1899998 -1.7070004,-1.9279998 -0.17,-0.76 0.6390004,-0.768 0.6640004,-1.379 0.024,-0.574 -0.3810004,-1.021 -0.7480004,-1.425 -0.662,-0.728 -1.295,0.161 -1.61,0.686 -1.162,1.939 0.928,4.1179998 2.3370004,5.3179998 0.837,0.712 1.975,0.884 2.952,0.374 0.375,-0.195 1.461,-1.044 1.242,-1.595 z"
   id="path49" />
</svg>
