<?xml version="1.0" encoding="UTF-8" standalone="no"?>
<svg
   xmlns:dc="http://purl.org/dc/elements/1.1/"
   xmlns:cc="http://creativecommons.org/ns#"
   xmlns:rdf="http://www.w3.org/1999/02/22-rdf-syntax-ns#"
   xmlns:svg="http://www.w3.org/2000/svg"
   xmlns="http://www.w3.org/2000/svg"
   xmlns:xlink="http://www.w3.org/1999/xlink"
   xmlns:sodipodi="http://sodipodi.sourceforge.net/DTD/sodipodi-0.dtd"
   xmlns:inkscape="http://www.inkscape.org/namespaces/inkscape"
   version="1.1"
   id="Ebene_1"
   x="0px"
   y="0px"
   width="100%"
   viewBox="0 0 20.247242 19.301605"
   enable-background="new 0 0 170.08 113.39"
   xml:space="preserve"
   sodipodi:docname="channel_telegram.svg"
   inkscape:export-filename="/Users/jakobvicari/Dropbox/Arbeit/Journalismus2022/100eyesIcons2023/photos.png"
   inkscape:export-xdpi="300"
   inkscape:export-ydpi="300"
   inkscape:version="1.0.1 (c497b03c, 2020-09-10)"><metadata
   id="metadata1056"><rdf:RDF><cc:Work
       rdf:about=""><dc:format>image/svg+xml</dc:format><dc:type
         rdf:resource="http://purl.org/dc/dcmitype/StillImage" /><dc:title></dc:title></cc:Work></rdf:RDF></metadata><defs
   id="defs1054">
	<defs
   id="defs834">
		<rect
   id="SVGID_1_"
   x="4.9289999"
   y="16.558001"
   width="220"
   height="73.083" />
	</defs>
	<clipPath
   id="SVGID_2_">
		<use
   xlink:href="#SVGID_1_"
   overflow="visible"
   id="use836"
   x="0"
   y="0"
   width="100%"
   height="100%" />
	</clipPath>
	
	
	
	
	
	
	
	
	
	
	
	
	
	
	
	
	
	
	
	
	
	
	
	
	
	
	
	
	
	
	
	
	
	
	
	
	
	
	
	
	
	
	
	
	
	
	
	
	
	
	
	
	
	
	
	
	
		
	
		
	
		
	
		
	
	
	
	
	
	
	
	
	
	
	
	
	
	
	
	
	
	
	
	
	
	
	
	
	
	
	
	
	
	
	
	
	
	
	
	
	
	
	
	
	
	
	
	
	
</defs><sodipodi:namedview
   pagecolor="#ffffff"
   bordercolor="#666666"
   borderopacity="1"
   objecttolerance="10"
   gridtolerance="10"
   guidetolerance="10"
   inkscape:pageopacity="0"
   inkscape:pageshadow="2"
   inkscape:window-width="1398"
   inkscape:window-height="878"
   id="namedview1052"
   showgrid="false"
   inkscape:zoom="3.4101599"
   inkscape:cx="10.996976"
   inkscape:cy="-18.355377"
   inkscape:window-x="0"
   inkscape:window-y="25"
   inkscape:window-maximized="0"
   inkscape:current-layer="Ebene_1"
   fit-margin-top="0"
   fit-margin-left="0"
   fit-margin-right="0"
   fit-margin-bottom="0" />
<path
   clip-path="url(#SVGID_2_)"
   fill="transparent"
   d="m 52.474,70.354 c -5.35,-0.328 -11.402,4.818 -11.081,9.314 0.333,4.67 2.719,9.686 9.636,9.957 8.19,0.321 10.599,-4.336 10.599,-8.993 -10e-4,-4.98 -3.382,-9.924 -9.154,-10.278"
   id="path893"
   inkscape:export-xdpi="300"
   inkscape:export-ydpi="300"
   transform="translate(-41.380758,-70.339091)" /><path
   clip-path="url(#SVGID_2_)"
   fill="#ffffff"
   d="m 47.239,81.425 c 0.43,0.883 0.618,1.851 0.978,2.761 0.089,0.227 0.474,0.297 0.53,0 0.197,-1.025 0.341,-2.002 1.148,-2.699 0.707,-0.61 1.406,-1.228 2.106,-1.847 1.385,-1.227 2.765,-2.46 4.15,-3.687 0.231,-0.207 -0.08,-0.617 -0.334,-0.433 -2.671,1.948 -5.69,3.708 -8.668,5.149 -0.32,0.156 -0.041,0.631 0.278,0.477 2.977,-1.441 5.997,-3.203 8.667,-5.15 -0.11,-0.144 -0.222,-0.288 -0.334,-0.432 -1.461,1.294 -2.916,2.596 -4.378,3.888 -0.682,0.604 -1.365,1.203 -2.054,1.797 -0.813,0.702 -0.913,1.749 -1.112,2.791 h 0.53 c -0.377,-0.957 -0.581,-1.966 -1.032,-2.894 -0.156,-0.318 -0.63,-0.04 -0.475,0.279"
   id="path933"
   inkscape:export-xdpi="300"
   inkscape:export-ydpi="300"
   transform="translate(-41.380758,-70.339091)" /><path
   clip-path="url(#SVGID_2_)"
   fill="#ffffff"
   d="M 47.047,80.58 C 46.216,80.266 45.382,79.969 44.6,79.54 v 0.477 c 3.847,-1.641 7.873,-2.795 11.744,-4.369 -0.104,-0.135 -0.207,-0.271 -0.311,-0.404 -1.4,3.007 -1.97,6.267 -2.667,9.487 0.135,-0.055 0.27,-0.109 0.403,-0.165 -1.418,-0.94 -2.951,-1.679 -4.396,-2.574 -0.302,-0.189 -0.579,0.288 -0.277,0.474 1.444,0.898 2.978,1.635 4.396,2.576 0.144,0.097 0.37,0.004 0.406,-0.165 0.685,-3.167 1.231,-6.396 2.61,-9.355 0.089,-0.191 -0.062,-0.507 -0.311,-0.404 -3.915,1.593 -7.984,2.766 -11.875,4.424 -0.193,0.083 -0.166,0.386 0,0.477 0.824,0.451 1.703,0.763 2.579,1.096 0.333,0.122 0.474,-0.411 0.146,-0.535"
   id="path935"
   inkscape:export-xdpi="300"
   inkscape:export-ydpi="300"
   transform="translate(-41.380758,-70.339091)" /><path
   clip-path="url(#SVGID_2_)"
   fill="#ffffff"
   d="m 48.97,84.482 c 0.811,-0.338 1.719,-0.458 2.576,-0.629 0.348,-0.069 0.201,-0.6 -0.147,-0.531 -0.856,0.171 -1.764,0.291 -2.574,0.629 -0.324,0.135 -0.182,0.668 0.145,0.531"
   id="path937"
   inkscape:export-xdpi="300"
   inkscape:export-ydpi="300"
   transform="translate(-41.380758,-70.339091)" />
</svg>
