<?xml version="1.0" encoding="UTF-8" standalone="no"?>
<svg
   xmlns:dc="http://purl.org/dc/elements/1.1/"
   xmlns:cc="http://creativecommons.org/ns#"
   xmlns:rdf="http://www.w3.org/1999/02/22-rdf-syntax-ns#"
   xmlns:svg="http://www.w3.org/2000/svg"
   xmlns="http://www.w3.org/2000/svg"
   xmlns:xlink="http://www.w3.org/1999/xlink"
   xmlns:sodipodi="http://sodipodi.sourceforge.net/DTD/sodipodi-0.dtd"
   xmlns:inkscape="http://www.inkscape.org/namespaces/inkscape"
   version="1.1"
   id="Ebene_1"
   x="0px"
   y="0px"
   width="100%"
   viewBox="0 0 20.248171 19.301605"
   enable-background="new 0 0 170.08 113.39"
   xml:space="preserve"
   sodipodi:docname="channel_signal.svg"
   inkscape:export-filename="/Users/jakobvicari/Dropbox/Arbeit/Journalismus2022/100eyesIcons2023/photos.png"
   inkscape:export-xdpi="300"
   inkscape:export-ydpi="300"
   inkscape:version="1.0.1 (c497b03c, 2020-09-10)"><metadata
   id="metadata1056"><rdf:RDF><cc:Work
       rdf:about=""><dc:format>image/svg+xml</dc:format><dc:type
         rdf:resource="http://purl.org/dc/dcmitype/StillImage" /><dc:title></dc:title></cc:Work></rdf:RDF></metadata><defs
   id="defs1054">
	<defs
   id="defs834">
		<rect
   id="SVGID_1_"
   x="4.9289999"
   y="16.558001"
   width="220"
   height="73.083" />
	</defs>
	<clipPath
   id="SVGID_2_">
		<use
   xlink:href="#SVGID_1_"
   overflow="visible"
   id="use836"
   x="0"
   y="0"
   width="100%"
   height="100%" />
	</clipPath>
	
	
	
	
	
	
	
	
	
	
	
	
	
	
	
	
	
	
	
	
	
	
	
	
	
	
	
	
	
	
	
	
	
	
	
	
	
	
	
	
	
	
	
	
	
	
	
	
	
	
	
	
	
	
	
	
	
		
	
		
	
		
	
		
	
	
	
	
	
	
	
	
	
	
	
	
	
	
	
	
	
	
	
	
	
	
	
	
	
	
	
	
	
	
	
	
	
	
	
	
	
	
	
	
	
	
	
	
	
</defs><sodipodi:namedview
   pagecolor="#ffffff"
   bordercolor="#666666"
   borderopacity="1"
   objecttolerance="10"
   gridtolerance="10"
   guidetolerance="10"
   inkscape:pageopacity="0"
   inkscape:pageshadow="2"
   inkscape:window-width="1398"
   inkscape:window-height="878"
   id="namedview1052"
   showgrid="false"
   inkscape:zoom="3.4101599"
   inkscape:cx="22.73091"
   inkscape:cy="-50.241006"
   inkscape:window-x="0"
   inkscape:window-y="25"
   inkscape:window-maximized="0"
   inkscape:current-layer="Ebene_1"
   fit-margin-top="0"
   fit-margin-left="0"
   fit-margin-right="0"
   fit-margin-bottom="0" />
<path
   clip-path="url(#SVGID_2_)"
   fill="#f0047f"
   d="m 102.829,70.354 c -5.35,-0.328 -11.4,4.818 -11.08,9.314 0.334,4.67 2.719,9.686 9.636,9.957 8.19,0.321 10.6,-4.336 10.6,-8.993 -0.001,-4.98 -3.382,-9.924 -9.156,-10.278"
   id="path931"
   inkscape:export-xdpi="300"
   inkscape:export-ydpi="300"
   transform="translate(-91.736829,-70.339091)" /><path
   clip-path="url(#SVGID_2_)"
   fill="#ffffff"
   d="m 98.537,81.84 c -1.326,-2.651 0.179,-5.394 3.095,-5.709 2.139,-0.231 4.493,0.91 4.727,3.221 0.262,2.603 -2.082,4.02 -4.363,4.114 -0.778,0.032 -1.527,-0.492 -2.255,-0.268 -0.688,0.215 -1.378,0.436 -2.062,0.661 0.11,0.11 0.221,0.22 0.33,0.331 0.254,-0.686 0.417,-1.427 0.557,-2.144 0.065,-0.338 -0.452,-0.482 -0.518,-0.144 -0.14,0.718 -0.304,1.458 -0.557,2.144 -0.07,0.189 0.145,0.392 0.33,0.33 0.94,-0.31 1.898,-0.83 2.863,-0.536 1.203,0.369 2.665,0.137 3.803,-0.347 2.143,-0.91 2.938,-3.665 1.987,-5.673 -0.993,-2.097 -3.931,-2.562 -5.942,-2.027 -2.841,0.755 -3.672,3.888 -2.458,6.316 0.155,0.311 0.616,0.039 0.463,-0.269"
   id="path949"
   inkscape:export-xdpi="300"
   inkscape:export-ydpi="300"
   transform="translate(-91.736829,-70.339091)" /><path
   clip-path="url(#SVGID_2_)"
   fill="none"
   stroke="#ffffff"
   stroke-width="0.5048"
   stroke-miterlimit="10"
   stroke-dasharray="1.4749, 0.9701"
   d="m 102.013,85.08 c 0.649,-0.005 1.31,-0.104 1.935,-0.27"
   id="path951"
   inkscape:export-xdpi="300"
   inkscape:export-ydpi="300"
   transform="translate(-91.736829,-70.339091)" /><path
   clip-path="url(#SVGID_2_)"
   fill="none"
   stroke="#ffffff"
   stroke-width="0.5048"
   stroke-miterlimit="10"
   stroke-dasharray="1.6498, 1.145"
   d="m 106.699,83.285 c 1.128,-1.228 1.604,-3.018 1.319,-4.667"
   id="path953"
   inkscape:export-xdpi="300"
   inkscape:export-ydpi="300"
   transform="translate(-91.736829,-70.339091)" /><path
   clip-path="url(#SVGID_2_)"
   fill="none"
   stroke="#ffffff"
   stroke-width="0.5048"
   stroke-miterlimit="10"
   stroke-dasharray="1.6695, 1.1647"
   d="m 106.352,75.753 c -1.3,-1.009 -3.154,-1.368 -4.82,-1.242"
   id="path955"
   inkscape:export-xdpi="300"
   inkscape:export-ydpi="300"
   transform="translate(-91.736829,-70.339091)" /><path
   clip-path="url(#SVGID_2_)"
   fill="none"
   stroke="#ffffff"
   stroke-width="0.5048"
   stroke-miterlimit="10"
   stroke-dasharray="1.4666, 0.9618"
   d="m 98.589,75.418 c -1.983,1.279 -2.691,3.729 -2.053,6.01"
   id="path957"
   inkscape:export-xdpi="300"
   inkscape:export-ydpi="300"
   transform="translate(-91.736829,-70.339091)" /><path
   clip-path="url(#SVGID_2_)"
   fill="none"
   stroke="#ffffff"
   stroke-width="0.5048"
   stroke-miterlimit="10"
   d="m 96.561,84.364 c -0.072,0.245 -0.153,0.492 -0.247,0.746 -0.087,0.239 0.184,0.491 0.415,0.415 0.331,-0.108 0.663,-0.238 0.996,-0.36 m -1.042,-3.28 c 0.083,0.229 0.181,0.452 0.291,0.673 -0.052,0.266 -0.102,0.521 -0.155,0.771 m 4.133,-8.754 c -0.281,0.042 -0.555,0.099 -0.816,0.167 -0.243,0.064 -0.475,0.143 -0.695,0.232 m 8.451,3.087 c -0.076,-0.265 -0.171,-0.521 -0.29,-0.771 -0.121,-0.258 -0.267,-0.494 -0.432,-0.714 m -2.756,8.098 c 0.238,-0.077 0.47,-0.164 0.69,-0.258 0.258,-0.109 0.5,-0.24 0.726,-0.39 m -6.551,0.731 c 0.348,-0.032 0.698,-0.012 1.048,0.097 0.232,0.071 0.473,0.123 0.719,0.161"
   id="path959"
   inkscape:export-xdpi="300"
   inkscape:export-ydpi="300"
   transform="translate(-91.736829,-70.339091)" />
</svg>
