<?xml version="1.0" encoding="UTF-8" standalone="no"?>
<svg
   xmlns:dc="http://purl.org/dc/elements/1.1/"
   xmlns:cc="http://creativecommons.org/ns#"
   xmlns:rdf="http://www.w3.org/1999/02/22-rdf-syntax-ns#"
   xmlns:svg="http://www.w3.org/2000/svg"
   xmlns="http://www.w3.org/2000/svg"
   xmlns:xlink="http://www.w3.org/1999/xlink"
   xmlns:sodipodi="http://sodipodi.sourceforge.net/DTD/sodipodi-0.dtd"
   xmlns:inkscape="http://www.inkscape.org/namespaces/inkscape"
   version="1.1"
   id="Ebene_1"
   x="0px"
   y="0px"
   width="100%"
   viewBox="0 0 20.246244 19.301605"
   enable-background="new 0 0 170.08 113.39"
   xml:space="preserve"
   sodipodi:docname="channel_mail.svg"
   inkscape:export-filename="/Users/jakobvicari/Dropbox/Arbeit/Journalismus2022/100eyesIcons2023/photos.png"
   inkscape:export-xdpi="300"
   inkscape:export-ydpi="300"
   inkscape:version="1.0.1 (c497b03c, 2020-09-10)"><metadata
   id="metadata1056"><rdf:RDF><cc:Work
       rdf:about=""><dc:format>image/svg+xml</dc:format><dc:type
         rdf:resource="http://purl.org/dc/dcmitype/StillImage" /><dc:title></dc:title></cc:Work></rdf:RDF></metadata><defs
   id="defs1054">
	<defs
   id="defs834">
		<rect
   id="SVGID_1_"
   x="4.9289999"
   y="16.558001"
   width="220"
   height="73.083" />
	</defs>
	<clipPath
   id="SVGID_2_">
		<use
   xlink:href="#SVGID_1_"
   overflow="visible"
   id="use836"
   x="0"
   y="0"
   width="100%"
   height="100%" />
	</clipPath>
	</defs><sodipodi:namedview
   pagecolor="#ffffff"
   bordercolor="#666666"
   borderopacity="1"
   objecttolerance="10"
   gridtolerance="10"
   guidetolerance="10"
   inkscape:pageopacity="0"
   inkscape:pageshadow="2"
   inkscape:window-width="1398"
   inkscape:window-height="878"
   id="namedview1052"
   showgrid="false"
   inkscape:zoom="3.4101599"
   inkscape:cx="31.655526"
   inkscape:cy="6.2380578"
   inkscape:window-x="0"
   inkscape:window-y="25"
   inkscape:window-maximized="0"
   inkscape:current-layer="Ebene_1"
   fit-margin-top="0"
   fit-margin-left="0"
   fit-margin-right="0"
   fit-margin-bottom="0" />
<path
   clip-path="url(#SVGID_2_)"
   fill="transparent"
   d="m 29.498,70.354 c -5.351,-0.328 -11.402,4.818 -11.081,9.314 0.333,4.67 2.719,9.686 9.635,9.957 8.19,0.321 10.599,-4.336 10.599,-8.993 0,-4.98 -3.38,-9.924 -9.153,-10.278"
   id="path895"
   style="opacity:1"
   inkscape:export-xdpi="300"
   inkscape:export-ydpi="300"
   transform="translate(-18.404756,-70.339091)" /><path
   clip-path="url(#SVGID_2_)"
   fill="#ffffff"
   d="m 24.487,77.623 c 1.406,1.085 2.713,2.288 4.088,3.411 0.08,0.064 0.208,0.089 0.285,0 1.07,-1.246 2.308,-2.558 3.797,-3.296 0.233,-0.116 0.028,-0.462 -0.204,-0.348 -1.521,0.755 -2.787,2.089 -3.878,3.358 h 0.285 c -1.375,-1.122 -2.682,-2.326 -4.088,-3.41 -0.203,-0.155 -0.491,0.127 -0.285,0.285"
   id="path897"
   style="opacity:1"
   inkscape:export-xdpi="300"
   inkscape:export-ydpi="300"
   transform="translate(-18.404756,-70.339091)" /><path
   clip-path="url(#SVGID_2_)"
   fill="none"
   stroke="#ffffff"
   stroke-width="0.2524"
   stroke-miterlimit="10"
   d="m 24.487,77.623 c 1.406,1.085 2.713,2.288 4.088,3.411 0.08,0.064 0.208,0.089 0.285,0 1.07,-1.246 2.308,-2.558 3.797,-3.296 0.233,-0.116 0.028,-0.462 -0.204,-0.348 -1.521,0.755 -2.787,2.089 -3.878,3.358 h 0.285 c -1.375,-1.122 -2.682,-2.326 -4.088,-3.41 -0.203,-0.155 -0.491,0.127 -0.285,0.285"
   id="path899"
   style="opacity:1"
   inkscape:export-xdpi="300"
   inkscape:export-ydpi="300"
   transform="translate(-18.404756,-70.339091)" /><path
   clip-path="url(#SVGID_2_)"
   fill="#ffffff"
   d="m 24.487,77.623 c 1.406,1.085 2.713,2.288 4.088,3.411 0.08,0.064 0.208,0.089 0.285,0 1.07,-1.246 2.308,-2.558 3.797,-3.296 0.233,-0.116 0.028,-0.462 -0.204,-0.348 -1.521,0.755 -2.787,2.089 -3.878,3.358 h 0.285 c -1.375,-1.122 -2.682,-2.326 -4.088,-3.41 -0.203,-0.155 -0.491,0.127 -0.285,0.285"
   id="path901"
   style="opacity:1"
   inkscape:export-xdpi="300"
   inkscape:export-ydpi="300"
   transform="translate(-18.404756,-70.339091)" /><path
   clip-path="url(#SVGID_2_)"
   fill="none"
   stroke="#ffffff"
   stroke-width="0.0689"
   d="m 24.487,77.623 c 1.406,1.085 2.713,2.288 4.088,3.411 0.08,0.064 0.208,0.089 0.285,0 1.07,-1.246 2.308,-2.558 3.797,-3.296 0.233,-0.116 0.028,-0.462 -0.204,-0.348 -1.521,0.755 -2.787,2.089 -3.878,3.358 h 0.285 c -1.375,-1.122 -2.682,-2.326 -4.088,-3.41 -0.203,-0.155 -0.491,0.127 -0.285,0.285 z"
   id="path903"
   style="opacity:1"
   inkscape:export-xdpi="300"
   inkscape:export-ydpi="300"
   transform="translate(-18.404756,-70.339091)" /><path
   clip-path="url(#SVGID_2_)"
   fill="#ffffff"
   d="m 27.16,79.509 c -1.055,0.54 -1.961,1.395 -2.751,2.252 -0.182,0.197 0.116,0.491 0.298,0.293 0.769,-0.835 1.642,-1.664 2.667,-2.189 0.24,-0.124 0.026,-0.48 -0.214,-0.356"
   id="path905"
   style="opacity:1"
   inkscape:export-xdpi="300"
   inkscape:export-ydpi="300"
   transform="translate(-18.404756,-70.339091)" /><path
   clip-path="url(#SVGID_2_)"
   fill="none"
   stroke="#ffffff"
   stroke-width="0.2524"
   stroke-miterlimit="10"
   d="m 27.16,79.509 c -1.055,0.54 -1.961,1.395 -2.751,2.252 -0.182,0.197 0.116,0.491 0.298,0.293 0.769,-0.835 1.642,-1.664 2.667,-2.189 0.24,-0.124 0.026,-0.48 -0.214,-0.356"
   id="path907"
   style="opacity:1"
   inkscape:export-xdpi="300"
   inkscape:export-ydpi="300"
   transform="translate(-18.404756,-70.339091)" /><path
   clip-path="url(#SVGID_2_)"
   fill="#ffffff"
   d="m 27.16,79.509 c -1.055,0.54 -1.961,1.395 -2.751,2.252 -0.182,0.197 0.116,0.491 0.298,0.293 0.769,-0.835 1.642,-1.664 2.667,-2.189 0.24,-0.124 0.026,-0.48 -0.214,-0.356"
   id="path909"
   style="opacity:1"
   inkscape:export-xdpi="300"
   inkscape:export-ydpi="300"
   transform="translate(-18.404756,-70.339091)" /><path
   clip-path="url(#SVGID_2_)"
   fill="none"
   stroke="#ffffff"
   stroke-width="0.0689"
   d="m 27.16,79.509 c -1.055,0.54 -1.961,1.395 -2.751,2.252 -0.182,0.197 0.116,0.491 0.298,0.293 0.769,-0.835 1.642,-1.664 2.667,-2.189 0.24,-0.124 0.026,-0.48 -0.214,-0.356 z"
   id="path911"
   style="opacity:1"
   inkscape:export-xdpi="300"
   inkscape:export-ydpi="300"
   transform="translate(-18.404756,-70.339091)" /><path
   clip-path="url(#SVGID_2_)"
   fill="#ffffff"
   d="m 29.771,79.751 c 0.961,0.763 1.914,1.537 2.674,2.499 0.164,0.205 0.53,0.002 0.365,-0.207 -0.785,-0.991 -1.747,-1.794 -2.741,-2.582 -0.209,-0.166 -0.509,0.122 -0.298,0.29"
   id="path913"
   style="opacity:1"
   inkscape:export-xdpi="300"
   inkscape:export-ydpi="300"
   transform="translate(-18.404756,-70.339091)" /><path
   clip-path="url(#SVGID_2_)"
   fill="none"
   stroke="#ffffff"
   stroke-width="0.2524"
   stroke-miterlimit="10"
   d="m 29.771,79.751 c 0.961,0.763 1.914,1.537 2.674,2.499 0.164,0.205 0.53,0.002 0.365,-0.207 -0.785,-0.991 -1.747,-1.794 -2.741,-2.582 -0.209,-0.166 -0.509,0.122 -0.298,0.29"
   id="path915"
   style="opacity:1"
   inkscape:export-xdpi="300"
   inkscape:export-ydpi="300"
   transform="translate(-18.404756,-70.339091)" /><path
   clip-path="url(#SVGID_2_)"
   fill="#ffffff"
   d="m 29.771,79.751 c 0.961,0.763 1.914,1.537 2.674,2.499 0.164,0.205 0.53,0.002 0.365,-0.207 -0.785,-0.991 -1.747,-1.794 -2.741,-2.582 -0.209,-0.166 -0.509,0.122 -0.298,0.29"
   id="path917"
   style="opacity:1"
   inkscape:export-xdpi="300"
   inkscape:export-ydpi="300"
   transform="translate(-18.404756,-70.339091)" /><path
   clip-path="url(#SVGID_2_)"
   fill="none"
   stroke="#ffffff"
   stroke-width="0.0689"
   d="m 29.771,79.751 c 0.961,0.763 1.914,1.537 2.674,2.499 0.164,0.205 0.53,0.002 0.365,-0.207 -0.785,-0.991 -1.747,-1.794 -2.741,-2.582 -0.209,-0.166 -0.509,0.122 -0.298,0.29 z"
   id="path919"
   style="opacity:1"
   inkscape:export-xdpi="300"
   inkscape:export-ydpi="300"
   transform="translate(-18.404756,-70.339091)" /><path
   clip-path="url(#SVGID_2_)"
   fill="#ffffff"
   d="m 24.334,75.555 c -1.458,0.023 -1.803,0.864 -1.845,2.149 -0.054,1.676 -0.273,3.478 -0.02,5.146 0.047,0.308 0.11,0.669 0.375,0.878 0.521,0.413 1.785,0.352 2.424,0.385 2.103,0.106 4.234,-0.032 6.342,0.015 1.221,0.028 3.041,0.431 3.022,-1.249 -0.02,-1.871 0.111,-3.74 0.093,-5.611 -0.004,-0.415 0.105,-0.853 -0.203,-1.168 -0.373,-0.381 -0.986,-0.501 -1.493,-0.574 -1.127,-0.162 -2.352,-0.035 -3.486,-0.021 -1.735,0.023 -3.473,0.07 -5.209,0.05 -0.258,-0.003 -0.258,0.387 0,0.39 2.352,0.026 4.707,-0.046 7.058,-0.073 0.858,-0.011 2.402,-0.206 2.93,0.601 0.144,0.221 0.006,1.044 0.007,1.325 10e-4,0.479 -0.01,0.957 -0.023,1.436 -0.027,0.977 -0.068,1.951 -0.08,2.928 -0.006,0.55 0.195,1.538 -0.63,1.606 -1.122,0.094 -2.306,-0.035 -3.431,-0.06 -2.065,-0.044 -4.163,0.178 -6.214,-0.101 -0.789,-0.106 -1.015,-0.184 -1.105,-0.938 -0.087,-0.724 -0.049,-1.469 -0.033,-2.197 0.022,-0.982 0.049,-1.967 0.082,-2.949 0.032,-0.991 0.334,-1.562 1.439,-1.578 0.258,-0.006 0.258,-0.394 0,-0.39"
   id="path921"
   style="opacity:1"
   inkscape:export-xdpi="300"
   inkscape:export-ydpi="300"
   transform="translate(-18.404756,-70.339091)" /><path
   clip-path="url(#SVGID_2_)"
   fill="none"
   stroke="#ffffff"
   stroke-width="0.2524"
   stroke-miterlimit="10"
   d="m 24.334,75.555 c -1.458,0.023 -1.803,0.864 -1.845,2.149 -0.054,1.676 -0.273,3.478 -0.02,5.146 0.047,0.308 0.11,0.669 0.375,0.878 0.521,0.413 1.785,0.352 2.424,0.385 2.103,0.106 4.234,-0.032 6.342,0.015 1.221,0.028 3.041,0.431 3.022,-1.249 -0.02,-1.871 0.111,-3.74 0.093,-5.611 -0.004,-0.415 0.105,-0.853 -0.203,-1.168 -0.373,-0.381 -0.986,-0.501 -1.493,-0.574 -1.127,-0.162 -2.352,-0.035 -3.486,-0.021 -1.735,0.023 -3.473,0.07 -5.209,0.05 -0.258,-0.003 -0.258,0.387 0,0.39 2.352,0.026 4.707,-0.046 7.058,-0.073 0.858,-0.011 2.402,-0.206 2.93,0.601 0.144,0.221 0.006,1.044 0.007,1.325 10e-4,0.479 -0.01,0.957 -0.023,1.436 -0.027,0.977 -0.068,1.951 -0.08,2.928 -0.006,0.55 0.195,1.538 -0.63,1.606 -1.122,0.094 -2.306,-0.035 -3.431,-0.06 -2.065,-0.044 -4.163,0.178 -6.214,-0.101 -0.789,-0.106 -1.015,-0.184 -1.105,-0.938 -0.087,-0.724 -0.049,-1.469 -0.033,-2.197 0.022,-0.982 0.049,-1.967 0.082,-2.949 0.032,-0.991 0.334,-1.562 1.439,-1.578 0.258,-0.006 0.258,-0.394 0,-0.39"
   id="path923"
   style="opacity:1"
   inkscape:export-xdpi="300"
   inkscape:export-ydpi="300"
   transform="translate(-18.404756,-70.339091)" /><path
   clip-path="url(#SVGID_2_)"
   fill="#ffffff"
   d="m 24.334,75.555 c -1.458,0.023 -1.803,0.864 -1.845,2.149 -0.054,1.676 -0.273,3.478 -0.02,5.146 0.047,0.308 0.11,0.669 0.375,0.878 0.521,0.413 1.785,0.352 2.424,0.385 2.103,0.106 4.234,-0.032 6.342,0.015 1.221,0.028 3.041,0.431 3.022,-1.249 -0.02,-1.871 0.111,-3.74 0.093,-5.611 -0.004,-0.415 0.105,-0.853 -0.203,-1.168 -0.373,-0.381 -0.986,-0.501 -1.493,-0.574 -1.127,-0.162 -2.352,-0.035 -3.486,-0.021 -1.735,0.023 -3.473,0.07 -5.209,0.05 -0.258,-0.003 -0.258,0.387 0,0.39 2.352,0.026 4.707,-0.046 7.058,-0.073 0.858,-0.011 2.402,-0.206 2.93,0.601 0.144,0.221 0.006,1.044 0.007,1.325 10e-4,0.479 -0.01,0.957 -0.023,1.436 -0.027,0.977 -0.068,1.951 -0.08,2.928 -0.006,0.55 0.195,1.538 -0.63,1.606 -1.122,0.094 -2.306,-0.035 -3.431,-0.06 -2.065,-0.044 -4.163,0.178 -6.214,-0.101 -0.789,-0.106 -1.015,-0.184 -1.105,-0.938 -0.087,-0.724 -0.049,-1.469 -0.033,-2.197 0.022,-0.982 0.049,-1.967 0.082,-2.949 0.032,-0.991 0.334,-1.562 1.439,-1.578 0.258,-0.006 0.258,-0.394 0,-0.39"
   id="path925"
   style="opacity:1"
   inkscape:export-xdpi="300"
   inkscape:export-ydpi="300"
   transform="translate(-18.404756,-70.339091)" /><path
   clip-path="url(#SVGID_2_)"
   fill="none"
   stroke="#ffffff"
   stroke-width="0.0689"
   d="m 24.334,75.555 c -1.458,0.023 -1.803,0.864 -1.845,2.149 -0.054,1.676 -0.273,3.478 -0.02,5.146 0.047,0.308 0.11,0.669 0.375,0.878 0.521,0.413 1.785,0.352 2.424,0.385 2.103,0.106 4.234,-0.032 6.342,0.015 1.221,0.028 3.041,0.431 3.022,-1.249 -0.02,-1.871 0.111,-3.74 0.093,-5.611 -0.004,-0.415 0.105,-0.853 -0.203,-1.168 -0.373,-0.381 -0.986,-0.501 -1.493,-0.574 -1.127,-0.162 -2.352,-0.035 -3.486,-0.021 -1.735,0.023 -3.473,0.07 -5.209,0.05 -0.258,-0.003 -0.258,0.387 0,0.39 2.352,0.026 4.707,-0.046 7.058,-0.073 0.858,-0.011 2.402,-0.206 2.93,0.601 0.144,0.221 0.006,1.044 0.007,1.325 10e-4,0.479 -0.01,0.957 -0.023,1.436 -0.027,0.977 -0.068,1.951 -0.08,2.928 -0.006,0.55 0.195,1.538 -0.63,1.606 -1.122,0.094 -2.306,-0.035 -3.431,-0.06 -2.065,-0.044 -4.163,0.178 -6.214,-0.101 -0.789,-0.106 -1.015,-0.184 -1.105,-0.938 -0.087,-0.724 -0.049,-1.469 -0.033,-2.197 0.022,-0.982 0.049,-1.967 0.082,-2.949 0.032,-0.991 0.334,-1.562 1.439,-1.578 0.258,-0.006 0.258,-0.394 0,-0.39 z"
   id="path927"
   style="opacity:1"
   inkscape:export-xdpi="300"
   inkscape:export-ydpi="300"
   transform="translate(-18.404756,-70.339091)" />
</svg>
