<?xml version="1.0" encoding="UTF-8" standalone="no"?>
<svg
   xmlns:dc="http://purl.org/dc/elements/1.1/"
   xmlns:cc="http://creativecommons.org/ns#"
   xmlns:rdf="http://www.w3.org/1999/02/22-rdf-syntax-ns#"
   xmlns:svg="http://www.w3.org/2000/svg"
   xmlns="http://www.w3.org/2000/svg"
   xmlns:xlink="http://www.w3.org/1999/xlink"
   xmlns:sodipodi="http://sodipodi.sourceforge.net/DTD/sodipodi-0.dtd"
   xmlns:inkscape="http://www.inkscape.org/namespaces/inkscape"
   version="1.1"
   id="Ebene_1"
   x="0px"
   y="0px"
   width="100%"
   viewBox="0 0 20.248243 19.301605"
   enable-background="new 0 0 170.08 113.39"
   xml:space="preserve"
   sodipodi:docname="channel_threema.svg"
   inkscape:export-filename="/Users/jakobvicari/Dropbox/Arbeit/Journalismus2022/100eyesIcons2023/photos.png"
   inkscape:export-xdpi="300"
   inkscape:export-ydpi="300"
   inkscape:version="1.0.1 (c497b03c, 2020-09-10)"><metadata
   id="metadata1056"><rdf:RDF><cc:Work
       rdf:about=""><dc:format>image/svg+xml</dc:format><dc:type
         rdf:resource="http://purl.org/dc/dcmitype/StillImage" /><dc:title></dc:title></cc:Work></rdf:RDF></metadata><defs
   id="defs1054">
	<defs
   id="defs834">
		<rect
   id="SVGID_1_"
   x="4.9289999"
   y="16.558001"
   width="220"
   height="73.083" />
	</defs>
	<clipPath
   id="SVGID_2_">
		<use
   xlink:href="#SVGID_1_"
   overflow="visible"
   id="use836"
   x="0"
   y="0"
   width="100%"
   height="100%" />
	</clipPath>
	
	
	
	
	
	
	
	
	
	
	
	
	
	
	
	
	
	
	
	
	
	
	
	
	
	
	
	
	
	
	
	
	
	
	
	
	
	
	
	
	
	
	
	
	
	
	
	
	
	
	
	
	
	
	
	
	
		
	
		
	
		
	
		
	
	
	
	
	
	
	
	
	
	
	
	
	
	
	
	
	
	
	
	
	
	
	
	
	
	
	
	
	
	
	
	
	
	
	
	
	
	
	
	
	
	
	
	
	
</defs><sodipodi:namedview
   pagecolor="#ffffff"
   bordercolor="#666666"
   borderopacity="1"
   objecttolerance="10"
   gridtolerance="10"
   guidetolerance="10"
   inkscape:pageopacity="0"
   inkscape:pageshadow="2"
   inkscape:window-width="1398"
   inkscape:window-height="878"
   id="namedview1052"
   showgrid="false"
   inkscape:zoom="3.4101599"
   inkscape:cx="0.10359984"
   inkscape:cy="-11.571985"
   inkscape:window-x="0"
   inkscape:window-y="25"
   inkscape:window-maximized="0"
   inkscape:current-layer="Ebene_1"
   fit-margin-top="0"
   fit-margin-left="0"
   fit-margin-right="0"
   fit-margin-bottom="0" />
<path
   clip-path="url(#SVGID_2_)"
   fill="#f0047f"
   d="m 77.116,70.354 c -5.351,-0.328 -11.402,4.818 -11.081,9.314 0.333,4.67 2.719,9.686 9.636,9.957 8.19,0.321 10.6,-4.336 10.6,-8.993 0,-4.98 -3.382,-9.924 -9.155,-10.278"
   id="path929"
   inkscape:export-xdpi="300"
   inkscape:export-ydpi="300"
   transform="translate(-66.022756,-70.339091)" /><path
   clip-path="url(#SVGID_2_)"
   fill="#ffffff"
   d="m 72.217,81.089 c -1.559,-3.118 0.212,-6.342 3.641,-6.713 2.514,-0.272 5.282,1.07 5.557,3.786 0.309,3.061 -2.448,4.727 -5.13,4.838 -0.916,0.038 -1.797,-0.579 -2.651,-0.314 -0.811,0.251 -1.619,0.513 -2.426,0.778 0.13,0.129 0.259,0.259 0.388,0.388 0.299,-0.806 0.491,-1.677 0.654,-2.52 0.077,-0.397 -0.531,-0.566 -0.608,-0.168 -0.163,0.843 -0.355,1.714 -0.653,2.52 -0.083,0.225 0.17,0.461 0.388,0.389 1.105,-0.364 2.233,-0.976 3.367,-0.63 1.414,0.434 3.135,0.16 4.471,-0.408 2.519,-1.071 3.455,-4.311 2.337,-6.671 -1.168,-2.465 -4.622,-3.012 -6.986,-2.384 -3.342,0.889 -4.319,4.571 -2.891,7.428 0.179,0.363 0.723,0.043 0.542,-0.319"
   id="path939"
   inkscape:export-xdpi="300"
   inkscape:export-ydpi="300"
   transform="translate(-66.022756,-70.339091)" /><path
   clip-path="url(#SVGID_2_)"
   fill="#ffffff"
   d="m 73.251,84.608 c -0.808,-0.124 -1.157,1.229 -0.611,1.552 1.485,0.873 2.143,-1.315 0.611,-1.552"
   id="path941"
   inkscape:export-xdpi="300"
   inkscape:export-ydpi="300"
   transform="translate(-66.022756,-70.339091)" /><path
   clip-path="url(#SVGID_2_)"
   fill="#ffffff"
   d="m 76.527,84.608 c -0.809,-0.124 -1.159,1.229 -0.611,1.552 1.484,0.873 2.144,-1.315 0.611,-1.552"
   id="path943"
   inkscape:export-xdpi="300"
   inkscape:export-ydpi="300"
   transform="translate(-66.022756,-70.339091)" /><path
   clip-path="url(#SVGID_2_)"
   fill="#ffffff"
   d="m 79.803,84.608 c -0.808,-0.124 -1.158,1.229 -0.611,1.552 1.486,0.873 2.143,-1.315 0.611,-1.552"
   id="path945"
   inkscape:export-xdpi="300"
   inkscape:export-ydpi="300"
   transform="translate(-66.022756,-70.339091)" /><path
   clip-path="url(#SVGID_2_)"
   fill="#ffffff"
   d="m 75.786,78.215 c -0.029,-0.314 -0.127,-1.345 0.785,-1.374 0.667,-0.021 0.756,0.589 0.756,1.364 -0.442,0.029 -1.13,0.01 -1.541,0.01 m 2.189,0.029 c -0.018,-0.367 0.05,-0.714 -0.039,-1.079 -0.197,-0.732 -0.766,-0.986 -1.472,-0.952 -0.733,0.036 -1.217,0.569 -1.286,0.952 -0.053,0.3 -0.088,0.674 -0.088,1.04 -0.321,0.017 -0.434,0.083 -0.451,0.588 -0.033,0.925 -0.039,1.04 -0.05,1.631 -0.011,0.585 0.232,0.558 0.822,0.54 0.393,0 0.875,-0.017 1.269,0 0.356,0 0.817,-0.017 1.179,-0.017 0.554,0 0.541,-0.294 0.554,-0.785 0.04,-1.574 0.096,-1.928 -0.438,-1.918"
   id="path947"
   inkscape:export-xdpi="300"
   inkscape:export-ydpi="300"
   transform="translate(-66.022756,-70.339091)" />
</svg>
