<?xml version="1.0" encoding="UTF-8" standalone="no"?>
<svg
   xmlns:dc="http://purl.org/dc/elements/1.1/"
   xmlns:cc="http://creativecommons.org/ns#"
   xmlns:rdf="http://www.w3.org/1999/02/22-rdf-syntax-ns#"
   xmlns:svg="http://www.w3.org/2000/svg"
   xmlns="http://www.w3.org/2000/svg"
   xmlns:xlink="http://www.w3.org/1999/xlink"
   xmlns:sodipodi="http://sodipodi.sourceforge.net/DTD/sodipodi-0.dtd"
   xmlns:inkscape="http://www.inkscape.org/namespaces/inkscape"
   version="1.1"
   id="Ebene_1"
   x="0px"
   y="0px"
   width="100%"
   viewBox="0 0 17.562 13.143177"
   enable-background="new 0 0 170.08 113.39"
   xml:space="preserve"
   sodipodi:docname="community.svg"
   inkscape:version="1.0.1 (c497b03c, 2020-09-10)"><metadata
   id="metadata1056"><rdf:RDF><cc:Work
       rdf:about=""><dc:format>image/svg+xml</dc:format><dc:type
         rdf:resource="http://purl.org/dc/dcmitype/StillImage" /><dc:title></dc:title></cc:Work></rdf:RDF></metadata><defs
   id="defs1054">
	<defs
   id="defs834">
		<rect
   id="SVGID_1_"
   x="4.9289999"
   y="16.558001"
   width="220"
   height="73.083" />
	</defs>
	<clipPath
   id="SVGID_2_">
		<use
   xlink:href="#SVGID_1_"
   overflow="visible"
   id="use836"
   x="0"
   y="0"
   width="100%"
   height="100%" />
	</clipPath>
	
	
	
	
	
	
	
	
	
	
	
	
	
	
	
	
	
	
	
	
	
	
	
	
	
	
	
	
	
	
	
	
	
	
	
	
	
	
	
	
	
	
	
	
	
	
	
	
	
	
	
	
	
	
	
	
	
		
	
		
	
		
	
		
	
	
	
	
	
	
	
	
	
	
	
	
	
	
	
	
	
	
	
	
	
	
	
	
	
	
	
	
	
	
	
	
	
	
	
	
	
	
	
	
	
	
	
	
	
</defs><sodipodi:namedview
   pagecolor="#ffffff"
   bordercolor="#666666"
   borderopacity="1"
   objecttolerance="10"
   gridtolerance="10"
   guidetolerance="10"
   inkscape:pageopacity="0"
   inkscape:pageshadow="2"
   inkscape:window-width="1309"
   inkscape:window-height="701"
   id="namedview1052"
   showgrid="false"
   inkscape:zoom="3.4101599"
   inkscape:cx="22.67773"
   inkscape:cy="7.1595218"
   inkscape:window-x="0"
   inkscape:window-y="25"
   inkscape:window-maximized="0"
   inkscape:current-layer="Ebene_1"
   fit-margin-top="0"
   fit-margin-left="0"
   fit-margin-right="0"
   fit-margin-bottom="0" />
<path
   clip-path="url(#SVGID_2_)"
   fill="#f882bf"
   d="m 76.533,44.531 c -0.821,0.012 -1.775,0.522 -2.223,1.269 -0.388,0.626 -0.331,1.288 -0.135,1.999 0.225,0.806 0.911,1.462 1.701,1.656 1.055,0.259 2.417,-0.119 2.924,-1.237 0.298,-0.687 0.298,-1.283 0.119,-2 -0.207,-0.851 -1.282,-1.701 -2.386,-1.687"
   id="path2628"
   transform="translate(-72.706,-43.558777)" /><path
   clip-path="url(#SVGID_2_)"
   fill="#f882bf"
   d="m 72.706,54.894 c 1.902,0.085 5.782,-0.029 7.562,-0.081 0,-0.858 -0.26,-4.597 -1.596,-4.406 -1.548,0.222 -1.473,0.651 -3.928,0.059 -1.402,-0.339 -1.843,2.195 -2.038,4.428"
   id="path2630"
   transform="translate(-72.706,-43.558777)" /><path
   clip-path="url(#SVGID_2_)"
   fill="#f882bf"
   d="m 76.533,44.531 c -0.821,0.012 -1.775,0.522 -2.223,1.269 -0.388,0.626 -0.331,1.288 -0.135,1.999 0.225,0.806 0.911,1.462 1.701,1.656 1.055,0.259 2.417,-0.119 2.924,-1.237 0.298,-0.687 0.298,-1.283 0.119,-2 -0.207,-0.851 -1.282,-1.701 -2.386,-1.687"
   id="path967"
   transform="translate(-62.706,-43.558777)" /><path
   clip-path="url(#SVGID_2_)"
   fill="#f882bf"
   d="m 72.706,54.894 c 1.902,0.085 5.782,-0.029 7.562,-0.081 0,-0.858 -0.26,-4.597 -1.596,-4.406 -1.548,0.222 -1.473,0.651 -3.928,0.059 -1.402,-0.339 -1.843,2.195 -2.038,4.428"
   id="path969"
   transform="translate(-62.706,-43.558777)" /><path
   clip-path="url(#SVGID_2_)"
   fill="#f0047f"
   d="m 71.763,43.559 c -1.038,0.014 -2.245,0.661 -2.811,1.603 -0.49,0.793 -0.42,1.629 -0.17,2.528 0.283,1.019 1.15,1.849 2.15,2.094 1.334,0.327 3.056,-0.151 3.697,-1.565 0.377,-0.868 0.377,-1.623 0.15,-2.528 -0.262,-1.076 -1.62,-2.15 -3.016,-2.132"
   id="path971"
   transform="translate(-62.706,-43.558777)" /><path
   clip-path="url(#SVGID_2_)"
   fill="#f0047f"
   d="m 66.923,56.663 c 2.405,0.108 7.312,-0.036 9.562,-0.101 0,-1.086 -0.327,-5.814 -2.018,-5.572 -1.957,0.28 -1.862,0.822 -4.967,0.072 -1.773,-0.427 -2.33,2.778 -2.577,5.601"
   id="path973"
   transform="translate(-62.706,-43.558777)" /><path
   clip-path="url(#SVGID_2_)"
   fill="#f0047f"
   d="m 223.929,48.324 c 0.002,0.311 0.006,0.623 0.006,0.934 0,0.225 0.931,0.225 0.931,0 0,-0.311 -0.004,-0.623 -0.004,-0.934 -0.001,-0.226 -0.933,-0.226 -0.933,0"
   id="path981"
   transform="translate(-62.706,-43.558777)" /><path
   clip-path="url(#SVGID_2_)"
   fill="none"
   stroke="#f0047f"
   stroke-width="0.1262"
   stroke-miterlimit="10"
   d="m 223.929,48.324 c 0.002,0.311 0.006,0.623 0.006,0.934 0,0.225 0.931,0.225 0.931,0 0,-0.311 -0.004,-0.623 -0.004,-0.934 -0.001,-0.226 -0.933,-0.226 -0.933,0 z"
   id="path983"
   transform="translate(-62.706,-43.558777)" /><path
   clip-path="url(#SVGID_2_)"
   fill="#f0047f"
   d="m 223.917,49.647 v 0.912 c 0,0.226 0.933,0.226 0.933,0 v -0.912 c 0,-0.226 -0.933,-0.226 -0.933,0"
   id="path985"
   transform="translate(-62.706,-43.558777)" /><path
   clip-path="url(#SVGID_2_)"
   fill="none"
   stroke="#f0047f"
   stroke-width="0.1262"
   stroke-miterlimit="10"
   d="m 223.917,49.647 v 0.912 c 0,0.226 0.933,0.226 0.933,0 v -0.912 c 0,-0.226 -0.933,-0.226 -0.933,0 z"
   id="path987"
   transform="translate(-62.706,-43.558777)" /><path
   clip-path="url(#SVGID_2_)"
   fill="#f0047f"
   d="m 223.917,50.954 v 0.912 c 0,0.226 0.933,0.226 0.933,0 v -0.912 c 0,-0.226 -0.933,-0.226 -0.933,0"
   id="path989"
   transform="translate(-62.706,-43.558777)" /><path
   clip-path="url(#SVGID_2_)"
   fill="none"
   stroke="#f0047f"
   stroke-width="0.1262"
   stroke-miterlimit="10"
   d="m 223.917,50.954 v 0.912 c 0,0.226 0.933,0.226 0.933,0 v -0.912 c 0,-0.226 -0.933,-0.226 -0.933,0 z"
   id="path991"
   transform="translate(-62.706,-43.558777)" /><path
   clip-path="url(#SVGID_2_)"
   fill="#f0047f"
   d="m 223.917,52.26 v 0.912 c 0,0.226 0.933,0.226 0.933,0 V 52.26 c 0,-0.226 -0.933,-0.226 -0.933,0"
   id="path993"
   transform="translate(-62.706,-43.558777)" /><path
   clip-path="url(#SVGID_2_)"
   fill="none"
   stroke="#f0047f"
   stroke-width="0.1262"
   stroke-miterlimit="10"
   d="m 223.917,52.26 v 0.912 c 0,0.226 0.933,0.226 0.933,0 V 52.26 c 0,-0.226 -0.933,-0.226 -0.933,0 z"
   id="path995"
   transform="translate(-62.706,-43.558777)" /><path
   clip-path="url(#SVGID_2_)"
   fill="#f0047f"
   d="m 223.917,53.586 v 0.792 c 0,0.231 0.933,0.231 0.933,0 v -0.792 c 0,-0.232 -0.933,-0.232 -0.933,0"
   id="path997"
   transform="translate(-62.706,-43.558777)" /><path
   clip-path="url(#SVGID_2_)"
   fill="none"
   stroke="#f0047f"
   stroke-width="0.1262"
   stroke-miterlimit="10"
   d="m 223.917,53.586 v 0.792 c 0,0.231 0.933,0.231 0.933,0 v -0.792 c 0,-0.232 -0.933,-0.232 -0.933,0 z"
   id="path999"
   transform="translate(-62.706,-43.558777)" />
</svg>
