<?xml version="1.0" encoding="UTF-8" standalone="no"?>
<svg
   xmlns:dc="http://purl.org/dc/elements/1.1/"
   xmlns:cc="http://creativecommons.org/ns#"
   xmlns:rdf="http://www.w3.org/1999/02/22-rdf-syntax-ns#"
   xmlns:svg="http://www.w3.org/2000/svg"
   xmlns="http://www.w3.org/2000/svg"
   xmlns:xlink="http://www.w3.org/1999/xlink"
   xmlns:sodipodi="http://sodipodi.sourceforge.net/DTD/sodipodi-0.dtd"
   xmlns:inkscape="http://www.inkscape.org/namespaces/inkscape"
   version="1.1"
   id="Ebene_1"
   x="0px"
   y="0px"
   width="100%"
   viewBox="0 0 18.015272 16.113739"
   enable-background="new 0 0 170.08 113.39"
   xml:space="preserve"
   sodipodi:docname="dashboard.svg"
   inkscape:export-filename="/Users/jakobvicari/Dropbox/Arbeit/Journalismus2022/100eyesIcons2023/photos.png"
   inkscape:export-xdpi="300"
   inkscape:export-ydpi="300"
   inkscape:version="1.0.1 (c497b03c, 2020-09-10)"><metadata
   id="metadata1056"><rdf:RDF><cc:Work
       rdf:about=""><dc:format>image/svg+xml</dc:format><dc:type
         rdf:resource="http://purl.org/dc/dcmitype/StillImage" /><dc:title></dc:title></cc:Work></rdf:RDF></metadata><defs
   id="defs1054">
	<defs
   id="defs834">
		<rect
   id="SVGID_1_"
   x="4.9289999"
   y="16.558001"
   width="220"
   height="73.083" />
	</defs>
	<clipPath
   id="SVGID_2_">
		<use
   xlink:href="#SVGID_1_"
   overflow="visible"
   id="use836"
   x="0"
   y="0"
   width="100%"
   height="100%" />
	</clipPath>
	
	
	
	
	
	
	
	
	
	
	
	
	
	
	
	
	
	
	
	
	
	
	
	
	
	
	
	
	
	
	
	
	
	
	
	
	
	
	
	
	
	
	
	
	
	
	
	
	
	
	
	
	
	
	
	
	
		
	
		
	
		
	
		
	
	
	
	
	
	
	
	
	
	
	
	
	
	
	
	
	
	
	
	
	
	
	
	
	
	
	
	
	
	
	
	
	
	
	
	
	
	
	
	
	
	
	
	
	
</defs><sodipodi:namedview
   pagecolor="#ffffff"
   bordercolor="#666666"
   borderopacity="1"
   objecttolerance="10"
   gridtolerance="10"
   guidetolerance="10"
   inkscape:pageopacity="0"
   inkscape:pageshadow="2"
   inkscape:window-width="1309"
   inkscape:window-height="701"
   id="namedview1052"
   showgrid="false"
   inkscape:zoom="3.4101599"
   inkscape:cx="73.511996"
   inkscape:cy="26.092601"
   inkscape:window-x="0"
   inkscape:window-y="25"
   inkscape:window-maximized="0"
   inkscape:current-layer="Ebene_1"
   fit-margin-top="0"
   fit-margin-left="0"
   fit-margin-right="0"
   fit-margin-bottom="0" />
<path
   clip-path="url(#SVGID_2_)"
   fill="#f0047f"
   d="m 22.162,51.283 c 0.008,0.199 0.016,0.401 0.021,0.605 0.006,-0.509 -0.013,-1.021 -0.029,-1.53 -0.004,0.309 -0.004,0.617 0.008,0.925"
   id="path839"
   inkscape:export-xdpi="300"
   inkscape:export-ydpi="300"
   transform="translate(-4.9293427,-42.60334)" /><path
   clip-path="url(#SVGID_2_)"
   fill="#f0047f"
   d="m 6.442,44.361 c -0.456,0.429 -0.747,1.027 -0.777,1.865 -0.03,0.831 -0.029,1.673 -0.009,2.514 0.051,0.056 0.084,0.133 0.079,0.234 0.008,-1.749 -0.22,-3.536 0.707,-4.613"
   id="path841"
   inkscape:export-xdpi="300"
   inkscape:export-ydpi="300"
   transform="translate(-4.9293427,-42.60334)" /><path
   clip-path="url(#SVGID_2_)"
   fill="#f0047f"
   d="m 22.24,47.121 c 0.021,-0.628 0.005,-1.29 -0.123,-1.871 0.035,0.223 0.057,0.453 0.076,0.684 0.034,0.394 0.046,0.79 0.047,1.187"
   id="path843"
   inkscape:export-xdpi="300"
   inkscape:export-ydpi="300"
   transform="translate(-4.9293427,-42.60334)" /><path
   clip-path="url(#SVGID_2_)"
   fill="#f0047f"
   d="m 21.846,54.101 c -0.016,0.031 -0.034,0.059 -0.053,0.087 0.019,-0.027 0.036,-0.057 0.053,-0.087"
   id="path845"
   inkscape:export-xdpi="300"
   inkscape:export-ydpi="300"
   transform="translate(-4.9293427,-42.60334)" /><path
   clip-path="url(#SVGID_2_)"
   fill="#f0047f"
   d="m 21.984,53.755 c -0.033,0.1 -0.07,0.2 -0.113,0.297 0.046,-0.09 0.087,-0.187 0.113,-0.297"
   id="path847"
   inkscape:export-xdpi="300"
   inkscape:export-ydpi="300"
   transform="translate(-4.9293427,-42.60334)" /><path
   clip-path="url(#SVGID_2_)"
   fill="#f0047f"
   d="m 18.296,43.39 c -0.768,-0.021 -1.543,-0.012 -2.318,0.005 0.337,0.008 0.673,0.014 1.007,0.015 0.431,0.001 0.87,-0.012 1.311,-0.02"
   id="path849"
   inkscape:export-xdpi="300"
   inkscape:export-ydpi="300"
   transform="translate(-4.9293427,-42.60334)" /><path
   clip-path="url(#SVGID_2_)"
   fill="#f0047f"
   d="m 22.24,47.121 c 0.004,1.078 -0.074,2.159 -0.086,3.238 0.016,0.509 0.035,1.022 0.029,1.53 0.014,0.629 -0.007,1.272 -0.198,1.865 -0.027,0.111 -0.067,0.208 -0.113,0.298 -0.002,0.005 -0.004,0.011 -0.006,0.016 -0.005,0.011 -0.014,0.021 -0.02,0.033 -0.017,0.03 -0.034,0.06 -0.053,0.087 -0.02,0.03 -0.042,0.058 -0.066,0.084 -0.612,0.681 -2.408,0.515 -3.206,0.576 -2.283,0.172 -4.598,0.081 -6.886,0.076 C 10.456,54.921 9.276,54.917 8.096,54.899 6.97,54.882 5.969,54.79 5.883,53.425 5.854,52.97 5.823,52.511 5.794,52.05 5.765,51.575 5.739,51.097 5.725,50.62 5.703,50.141 5.683,49.66 5.669,49.179 5.664,49.033 5.659,48.886 5.656,48.74 5.636,47.899 5.635,47.057 5.665,46.226 c 0.03,-0.838 0.321,-1.438 0.777,-1.865 0.43,-0.5 1.109,-0.847 2.178,-0.966 2.411,-0.269 4.917,-0.06 7.359,0 0.774,-0.018 1.55,-0.025 2.318,-0.004 0.782,-0.014 1.57,-0.014 2.324,0.101 1.05,0.162 1.366,0.902 1.498,1.758 0.126,0.581 0.143,1.242 0.121,1.871 m 0.464,-2.507 c -0.546,-2.491 -3.831,-1.9 -5.718,-1.903 -1.81,-0.002 -3.618,-0.07 -5.428,-0.072 -1.417,-0.002 -3.193,-0.208 -4.524,0.393 -0.571,0.258 -0.983,0.591 -1.281,0.977 -0.413,0.449 -0.689,1.059 -0.759,1.892 -0.196,2.362 0.113,4.767 0.146,7.132 0.013,0.971 0.022,1.806 0.895,2.369 0.642,0.414 1.896,0.288 2.633,0.306 0.69,0.018 1.382,0.024 2.073,0.028 0.347,0.001 0.695,-10e-4 1.042,-0.004 0.347,-0.004 0.534,0.104 0.558,-0.109 h 0.012 c 0.081,1.166 -0.514,2.104 -1.709,2.407 -0.382,0.096 -0.303,0.695 0.092,0.687 2.253,-0.056 4.506,-0.108 6.758,-0.162 0.382,-0.01 0.492,-0.606 0.093,-0.687 -1.118,-0.223 -1.692,-1.094 -1.613,-2.178 1.222,-0.058 2.439,-0.051 3.665,-0.149 0.893,-0.072 2.118,0.076 2.671,-0.823 0.291,-0.475 0.426,-0.998 0.489,-1.537 0.087,-0.586 0.085,-1.239 0.064,-1.896 -0.073,-2.209 0.317,-4.496 -0.159,-6.671"
   id="path851"
   inkscape:export-xdpi="300"
   inkscape:export-ydpi="300"
   transform="translate(-4.9293427,-42.60334)" /><path
   clip-path="url(#SVGID_2_)"
   fill="#f0047f"
   d="m 20.327,45.274 c -0.543,0.812 -1.257,1.421 -1.937,2.098 -0.557,-0.673 -1.041,-1.406 -1.636,-2.046 -0.13,-0.14 -0.363,-0.131 -0.494,0 -0.661,0.661 -1.322,1.322 -1.984,1.983 -0.319,0.32 0.175,0.813 0.494,0.495 0.573,-0.573 1.145,-1.146 1.718,-1.718 0.568,0.665 1.052,1.4 1.634,2.054 0.125,0.139 0.368,0.131 0.495,0 0.8,-0.839 1.663,-1.542 2.313,-2.513 0.252,-0.376 -0.354,-0.725 -0.603,-0.353"
   id="path853"
   inkscape:export-xdpi="300"
   inkscape:export-ydpi="300"
   transform="translate(-4.9293427,-42.60334)" /><path
   clip-path="url(#SVGID_2_)"
   fill="#f0047f"
   d="m 14.235,48.809 c 0.005,1.16 0.058,2.319 0.062,3.479 10e-4,0.45 0.7,0.45 0.699,0 -0.004,-1.161 -0.056,-2.319 -0.061,-3.479 -0.003,-0.451 -0.702,-0.452 -0.7,0"
   id="path855"
   inkscape:export-xdpi="300"
   inkscape:export-ydpi="300"
   transform="translate(-4.9293427,-42.60334)" /><path
   clip-path="url(#SVGID_2_)"
   fill="#f0047f"
   d="m 16.127,47.649 c 0.008,1.546 0.116,3.093 0.061,4.639 -0.017,0.451 0.683,0.449 0.699,0 0.055,-1.546 -0.053,-3.093 -0.061,-4.639 -0.002,-0.451 -0.701,-0.451 -0.699,0"
   id="path857"
   inkscape:export-xdpi="300"
   inkscape:export-ydpi="300"
   transform="translate(-4.9293427,-42.60334)" /><path
   clip-path="url(#SVGID_2_)"
   fill="#f0047f"
   d="m 17.99,49.724 c -0.028,0.885 -10e-4,1.771 -0.031,2.656 -0.015,0.45 0.684,0.449 0.699,0 0.029,-0.885 0.002,-1.771 0.03,-2.656 0.015,-0.45 -0.685,-0.449 -0.698,0"
   id="path859"
   inkscape:export-xdpi="300"
   inkscape:export-ydpi="300"
   transform="translate(-4.9293427,-42.60334)" /><path
   clip-path="url(#SVGID_2_)"
   fill="#f0047f"
   d="m 19.852,48.076 c 0.002,1.414 0.029,2.83 0.091,4.243 0.02,0.449 0.719,0.45 0.699,0 -0.063,-1.413 -0.09,-2.829 -0.092,-4.243 0,-0.451 -0.699,-0.451 -0.698,0"
   id="path861"
   inkscape:export-xdpi="300"
   inkscape:export-ydpi="300"
   transform="translate(-4.9293427,-42.60334)" /><path
   clip-path="url(#SVGID_2_)"
   fill="#f0047f"
   d="m 7.198,51.569 c 1.548,0.046 3.092,-0.081 4.64,-0.092 0.45,-0.002 0.451,-0.701 0,-0.698 -1.547,0.01 -3.092,0.138 -4.64,0.092 -0.451,-0.015 -0.45,0.685 0,0.698"
   id="path863"
   inkscape:export-xdpi="300"
   inkscape:export-ydpi="300"
   transform="translate(-4.9293427,-42.60334)" /><path
   clip-path="url(#SVGID_2_)"
   fill="#f0047f"
   d="m 7.106,52.791 c 1.585,-0.163 3.172,-0.041 4.762,-0.031 0.451,0.002 0.451,-0.696 0,-0.699 -1.589,-0.011 -3.176,-0.132 -4.762,0.03 -0.444,0.046 -0.448,0.745 0,0.7"
   id="path865"
   inkscape:export-xdpi="300"
   inkscape:export-ydpi="300"
   transform="translate(-4.9293427,-42.60334)" /><path
   clip-path="url(#SVGID_2_)"
   fill="#f0047f"
   d="m 9.364,49.45 c 1.435,0.091 1.954,-0.488 2.381,-1.069 -0.183,-0.091 -2.564,-0.885 -2.655,-1.067 0.03,-0.794 0.03,-2.9 0.03,-2.9 -1.862,0.091 -2.32,1.893 -1.801,3.541 0.301,0.95 1.564,1.463 2.045,1.495"
   id="path867"
   inkscape:export-xdpi="300"
   inkscape:export-ydpi="300"
   transform="translate(-4.9293427,-42.60334)" /><path
   clip-path="url(#SVGID_2_)"
   fill="#f0047f"
   d="m 9.976,46.916 c 0.641,0.245 1.556,0.519 2.075,0.672 0.153,-1.312 0.244,-2.839 -2.075,-3.267 -0.031,0.55 0.03,1.985 0,2.595"
   id="path869"
   inkscape:export-xdpi="300"
   inkscape:export-ydpi="300"
   transform="translate(-4.9293427,-42.60334)" /><path
   clip-path="url(#SVGID_2_)"
   fill="#f0047f"
   d="m 19.639,45.493 c 0.463,-0.095 0.942,-0.104 1.397,-0.233 -0.143,-0.082 -0.286,-0.163 -0.43,-0.245 0.102,0.435 0.128,0.908 0.081,1.352 -0.048,0.448 0.651,0.443 0.699,0 0.054,-0.504 0.009,-1.045 -0.106,-1.538 -0.042,-0.184 -0.252,-0.294 -0.429,-0.245 -0.456,0.13 -0.935,0.139 -1.398,0.233 -0.441,0.093 -0.254,0.766 0.186,0.676"
   id="path871"
   inkscape:export-xdpi="300"
   inkscape:export-ydpi="300"
   transform="translate(-4.9293427,-42.60334)" /><path
   clip-path="url(#SVGID_2_)"
   fill="#f0047f"
   d="m 223.929,48.324 c 0.002,0.311 0.006,0.623 0.006,0.934 0,0.225 0.931,0.225 0.931,0 0,-0.311 -0.004,-0.623 -0.004,-0.934 -0.001,-0.226 -0.933,-0.226 -0.933,0"
   id="path981"
   transform="translate(-4.9293427,-42.60334)" /><path
   clip-path="url(#SVGID_2_)"
   fill="none"
   stroke="#f0047f"
   stroke-width="0.1262"
   stroke-miterlimit="10"
   d="m 223.929,48.324 c 0.002,0.311 0.006,0.623 0.006,0.934 0,0.225 0.931,0.225 0.931,0 0,-0.311 -0.004,-0.623 -0.004,-0.934 -0.001,-0.226 -0.933,-0.226 -0.933,0 z"
   id="path983"
   transform="translate(-4.9293427,-42.60334)" /><path
   clip-path="url(#SVGID_2_)"
   fill="#f0047f"
   d="m 223.917,49.647 v 0.912 c 0,0.226 0.933,0.226 0.933,0 v -0.912 c 0,-0.226 -0.933,-0.226 -0.933,0"
   id="path985"
   transform="translate(-4.9293427,-42.60334)" /><path
   clip-path="url(#SVGID_2_)"
   fill="none"
   stroke="#f0047f"
   stroke-width="0.1262"
   stroke-miterlimit="10"
   d="m 223.917,49.647 v 0.912 c 0,0.226 0.933,0.226 0.933,0 v -0.912 c 0,-0.226 -0.933,-0.226 -0.933,0 z"
   id="path987"
   transform="translate(-4.9293427,-42.60334)" /><path
   clip-path="url(#SVGID_2_)"
   fill="#f0047f"
   d="m 223.917,50.954 v 0.912 c 0,0.226 0.933,0.226 0.933,0 v -0.912 c 0,-0.226 -0.933,-0.226 -0.933,0"
   id="path989"
   transform="translate(-4.9293427,-42.60334)" /><path
   clip-path="url(#SVGID_2_)"
   fill="none"
   stroke="#f0047f"
   stroke-width="0.1262"
   stroke-miterlimit="10"
   d="m 223.917,50.954 v 0.912 c 0,0.226 0.933,0.226 0.933,0 v -0.912 c 0,-0.226 -0.933,-0.226 -0.933,0 z"
   id="path991"
   transform="translate(-4.9293427,-42.60334)" /><path
   clip-path="url(#SVGID_2_)"
   fill="#f0047f"
   d="m 223.917,52.26 v 0.912 c 0,0.226 0.933,0.226 0.933,0 V 52.26 c 0,-0.226 -0.933,-0.226 -0.933,0"
   id="path993"
   transform="translate(-4.9293427,-42.60334)" /><path
   clip-path="url(#SVGID_2_)"
   fill="none"
   stroke="#f0047f"
   stroke-width="0.1262"
   stroke-miterlimit="10"
   d="m 223.917,52.26 v 0.912 c 0,0.226 0.933,0.226 0.933,0 V 52.26 c 0,-0.226 -0.933,-0.226 -0.933,0 z"
   id="path995"
   transform="translate(-4.9293427,-42.60334)" /><path
   clip-path="url(#SVGID_2_)"
   fill="#f0047f"
   d="m 223.917,53.586 v 0.792 c 0,0.231 0.933,0.231 0.933,0 v -0.792 c 0,-0.232 -0.933,-0.232 -0.933,0"
   id="path997"
   transform="translate(-4.9293427,-42.60334)" /><path
   clip-path="url(#SVGID_2_)"
   fill="none"
   stroke="#f0047f"
   stroke-width="0.1262"
   stroke-miterlimit="10"
   d="m 223.917,53.586 v 0.792 c 0,0.231 0.933,0.231 0.933,0 v -0.792 c 0,-0.232 -0.933,-0.232 -0.933,0 z"
   id="path999"
   transform="translate(-4.9293427,-42.60334)" />
</svg>
