<?xml version="1.0" encoding="UTF-8" standalone="no"?>
<svg
   xmlns:dc="http://purl.org/dc/elements/1.1/"
   xmlns:cc="http://creativecommons.org/ns#"
   xmlns:rdf="http://www.w3.org/1999/02/22-rdf-syntax-ns#"
   xmlns:svg="http://www.w3.org/2000/svg"
   xmlns="http://www.w3.org/2000/svg"
   xmlns:sodipodi="http://sodipodi.sourceforge.net/DTD/sodipodi-0.dtd"
   xmlns:inkscape="http://www.inkscape.org/namespaces/inkscape"
   width="100%"
   viewBox="0 0 5.27213 4.2631011"
   version="1.1"
   id="svg13584"
   inkscape:version="1.0.1 (c497b03c, 2020-09-10)"
   sodipodi:docname="flyer_turq.svg">
  <defs
     id="defs13578" />
  <sodipodi:namedview
     id="base"
     pagecolor="#ffffff"
     bordercolor="#666666"
     borderopacity="1.0"
     inkscape:pageopacity="0.0"
     inkscape:pageshadow="2"
     inkscape:zoom="0.35"
     inkscape:cx="138.53451"
     inkscape:cy="773.77054"
     inkscape:document-units="mm"
     inkscape:current-layer="layer1"
     inkscape:document-rotation="0"
     showgrid="false"
     fit-margin-top="0"
     fit-margin-left="0"
     fit-margin-right="0"
     fit-margin-bottom="0"
     inkscape:window-width="1248"
     inkscape:window-height="943"
     inkscape:window-x="0"
     inkscape:window-y="25"
     inkscape:window-maximized="0" />
  <metadata
     id="metadata13581">
    <rdf:RDF>
      <cc:Work
         rdf:about="">
        <dc:format>image/svg+xml</dc:format>
        <dc:type
           rdf:resource="http://purl.org/dc/dcmitype/StillImage" />
        <dc:title></dc:title>
      </cc:Work>
    </rdf:RDF>
  </metadata>
  <g
     inkscape:label="Ebene 1"
     inkscape:groupmode="layer"
     id="layer1"
     transform="translate(-69.179411,56.560123)">
    <path
       style="fill:#a1e1cf;fill-opacity:1;fill-rule:nonzero;stroke:none;stroke-width:0.352777"
       d="m 70.481729,-53.857901 c 0.184658,0.377582 0.264583,0.790995 0.417544,1.179601 0.03859,0.09646 0.202572,0.125402 0.227376,0 0.08406,-0.438217 0.144695,-0.855762 0.489204,-1.153418 0.301791,-0.260449 0.600827,-0.525032 0.899859,-0.78824 0.592557,-0.523652 1.18098,-1.050064 1.772158,-1.573717 0.09922,-0.08819 -0.03443,-0.264583 -0.143316,-0.184658 -1.139638,0.830958 -2.429482,1.583366 -3.701412,2.199348 -0.135047,0.06615 -0.01654,0.268718 0.119892,0.202572 1.27055,-0.615982 2.560394,-1.36839 3.701411,-2.199347 -0.04823,-0.06201 -0.09509,-0.122647 -0.143316,-0.184658 -0.624254,0.552594 -1.24437,1.10794 -1.870001,1.660535 -0.290763,0.257694 -0.582909,0.514008 -0.87643,0.767567 -0.347268,0.299036 -0.389986,0.746898 -0.475425,1.190625 h 0.227376 c -0.16123,-0.40652 -0.248045,-0.839223 -0.440972,-1.234722 -0.06752,-0.136426 -0.268715,-0.01655 -0.203948,0.118512"
       id="path7414"
       inkscape:export-xdpi="300"
       inkscape:export-ydpi="300" />
    <path
       style="fill:#a1e1cf;fill-opacity:1;fill-rule:nonzero;stroke:none;stroke-width:0.352777"
       d="m 70.400424,-54.217569 c -0.354157,-0.135046 -0.711066,-0.261828 -1.044554,-0.445106 v 0.203948 c 1.642622,-0.700042 3.361038,-1.193381 5.014684,-1.865863 -0.04548,-0.05788 -0.08957,-0.115754 -0.133671,-0.172255 -0.598068,1.282954 -0.840603,2.676151 -1.138259,4.050055 0.05788,-0.02342 0.115753,-0.04685 0.172254,-0.07028 -0.604957,-0.40101 -1.259526,-0.71658 -1.876887,-1.099676 -0.129536,-0.07993 -0.246669,0.124026 -0.118512,0.203952 0.615982,0.383095 1.27193,0.697286 1.876887,1.099675 0.06201,0.03996 0.157096,0.0014 0.173634,-0.07028 0.292142,-1.353235 0.526411,-2.731273 1.114834,-3.994934 0.0372,-0.0813 -0.02618,-0.216351 -0.133671,-0.173633 -1.67156,0.680752 -3.409266,1.18098 -5.069801,1.889291 -0.08268,0.03583 -0.07166,0.165364 0,0.203948 0.351398,0.192927 0.726225,0.325218 1.101051,0.467155 0.141937,0.05375 0.202572,-0.17363 0.06201,-0.225997"
       id="path7416"
       inkscape:export-xdpi="300"
       inkscape:export-ydpi="300" />
    <path
       style="fill:#a1e1cf;fill-opacity:1;fill-rule:nonzero;stroke:none;stroke-width:0.352777"
       d="m 71.221737,-52.552898 c 0.345884,-0.143316 0.733114,-0.194303 1.099672,-0.267339 0.14883,-0.0303 0.08544,-0.256318 -0.06201,-0.227379 -0.366558,0.07304 -0.753788,0.124026 -1.099676,0.268718 -0.137802,0.05788 -0.07855,0.285256 0.06202,0.226"
       id="path7418"
       inkscape:export-xdpi="300"
       inkscape:export-ydpi="300" />
  </g>
</svg>
