<?xml version="1.0" encoding="UTF-8" standalone="no"?>
<svg
   xmlns:dc="http://purl.org/dc/elements/1.1/"
   xmlns:cc="http://creativecommons.org/ns#"
   xmlns:rdf="http://www.w3.org/1999/02/22-rdf-syntax-ns#"
   xmlns:svg="http://www.w3.org/2000/svg"
   xmlns="http://www.w3.org/2000/svg"
   xmlns:xlink="http://www.w3.org/1999/xlink"
   xmlns:sodipodi="http://sodipodi.sourceforge.net/DTD/sodipodi-0.dtd"
   xmlns:inkscape="http://www.inkscape.org/namespaces/inkscape"
   version="1.1"
   id="Ebene_1"
   x="0px"
   y="0px"
   width="100%"
   viewBox="0 0 15.369599 12.428491"
   enable-background="new 0 0 170.08 113.39"
   xml:space="preserve"
   sodipodi:docname="photos.svg"
   inkscape:export-filename="/Users/jakobvicari/Dropbox/Arbeit/Journalismus2022/100eyesIcons2023/photos.png"
   inkscape:export-xdpi="300"
   inkscape:export-ydpi="300"
   inkscape:version="1.0.1 (c497b03c, 2020-09-10)"><metadata
   id="metadata1056"><rdf:RDF><cc:Work
       rdf:about=""><dc:format>image/svg+xml</dc:format><dc:type
         rdf:resource="http://purl.org/dc/dcmitype/StillImage" /><dc:title></dc:title></cc:Work></rdf:RDF></metadata><defs
   id="defs1054">
	<defs
   id="defs834">
		<rect
   id="SVGID_1_"
   x="4.9289999"
   y="16.558001"
   width="220"
   height="73.083" />
	</defs>
	<clipPath
   id="SVGID_2_">
		<use
   xlink:href="#SVGID_1_"
   overflow="visible"
   id="use836"
   x="0"
   y="0"
   width="100%"
   height="100%" />
	</clipPath>
	
	
	
	
	
	
	
	
	
	
	
	
	
	
	
	
	
	
	
	
	
	
	
	
	
	
	
	
	
	
	
	
	
	
	
	
	
	
	
	
	
	
	
	
	
	
	
	
	
	
	
	
	
	
	
	
	
		
	
		
	
		
	
		
	
	
	
	
	
	
	
	
	
	
	
	
	
	
	
	
	
	
	
	
	
	
	
	
	
	
	
	
	
	
	
	
	
	
	
	
	
	
	
	
	
	
	
	
	
</defs><sodipodi:namedview
   pagecolor="#ffffff"
   bordercolor="#666666"
   borderopacity="1"
   objecttolerance="10"
   gridtolerance="10"
   guidetolerance="10"
   inkscape:pageopacity="0"
   inkscape:pageshadow="2"
   inkscape:window-width="1309"
   inkscape:window-height="701"
   id="namedview1052"
   showgrid="false"
   inkscape:zoom="3.4101599"
   inkscape:cx="-25.07287"
   inkscape:cy="10.927389"
   inkscape:window-x="0"
   inkscape:window-y="25"
   inkscape:window-maximized="0"
   inkscape:current-layer="Ebene_1"
   fit-margin-top="0"
   fit-margin-left="0"
   fit-margin-right="0"
   fit-margin-bottom="0" />
<path
   clip-path="url(#SVGID_2_)"
   fill="#f0047f"
   d="m 94.291,51.795 c 0.534,1.098 0.769,2.304 1.216,3.436 0.112,0.282 0.591,0.369 0.662,0 0.244,-1.277 0.423,-2.493 1.429,-3.36 0.88,-0.759 1.75,-1.529 2.621,-2.299 1.726,-1.526 3.441,-3.062 5.167,-4.589 0.289,-0.255 -0.101,-0.769 -0.415,-0.538 -3.327,2.424 -7.085,4.617 -10.792,6.412 -0.397,0.192 -0.05,0.783 0.346,0.592 3.708,-1.794 7.465,-3.987 10.792,-6.412 -0.14,-0.179 -0.277,-0.359 -0.416,-0.539 -1.82,1.611 -3.631,3.231 -5.451,4.841 -0.849,0.75 -1.699,1.497 -2.557,2.237 -1.014,0.875 -1.137,2.177 -1.386,3.473 h 0.662 c -0.472,-1.188 -0.725,-2.448 -1.286,-3.6 -0.195,-0.397 -0.785,-0.05 -0.592,0.346"
   id="path961"
   inkscape:export-xdpi="300"
   inkscape:export-ydpi="300"
   transform="translate(-90.492147,-43.918677)" /><path
   clip-path="url(#SVGID_2_)"
   fill="#f0047f"
   d="M 94.053,50.744 C 93.018,50.351 91.98,49.982 91.006,49.45 v 0.592 c 4.789,-2.042 9.801,-3.479 14.62,-5.439 -0.129,-0.167 -0.259,-0.335 -0.388,-0.504 -1.743,3.745 -2.451,7.804 -3.319,11.812 0.169,-0.067 0.337,-0.137 0.504,-0.204 -1.767,-1.172 -3.675,-2.089 -5.473,-3.206 -0.378,-0.235 -0.721,0.358 -0.347,0.592 1.798,1.117 3.706,2.034 5.474,3.206 0.179,0.119 0.457,0.005 0.503,-0.205 0.854,-3.944 1.534,-7.962 3.25,-11.648 0.11,-0.236 -0.077,-0.629 -0.389,-0.503 -4.873,1.984 -9.938,3.443 -14.781,5.509 -0.24,0.103 -0.207,0.479 0,0.592 1.026,0.562 2.119,0.95 3.21,1.363 0.414,0.155 0.591,-0.508 0.183,-0.663"
   id="path963"
   inkscape:export-xdpi="300"
   inkscape:export-ydpi="300"
   transform="translate(-90.492147,-43.918677)" /><path
   clip-path="url(#SVGID_2_)"
   fill="#f0047f"
   d="m 96.446,55.601 c 1.009,-0.42 2.139,-0.57 3.206,-0.782 0.433,-0.086 0.25,-0.747 -0.183,-0.661 -1.066,0.211 -2.197,0.362 -3.206,0.781 -0.402,0.168 -0.225,0.832 0.183,0.662"
   id="path965"
   inkscape:export-xdpi="300"
   inkscape:export-ydpi="300"
   transform="translate(-90.492147,-43.918677)" />
</svg>
