<svg style="display: none;" xmlns="http://www.w3.org/2000/svg" xmlns:xlink="http://www.w3.org/1999/xlink">
  <!-- Size: 24 -->
  <symbol id="nc-icon-search-glyph-24" viewBox="0 0 24 24"><title>search</title><g transform="translate(0, 0)"><path d="M10,19a9,9,0,1,1,9-9A9.011,9.011,0,0,1,10,19ZM10,3a7,7,0,1,0,7,7A7.008,7.008,0,0,0,10,3Z"/><path data-color="color-2" d="M7,10H5a5.006,5.006,0,0,1,5-5V7A3,3,0,0,0,7,10Z"/><path data-color="color-2" d="M22.707,21.293l-4.256-4.256a10.982,10.982,0,0,1-1.414,1.414l4.256,4.256a1,1,0,0,0,1.414-1.414Z"/></g></symbol>
  <symbol id="nc-icon-i-remove-glyph-24" viewBox="0 0 24 24"><title>i remove</title><g transform="translate(0, 0)"><polygon points="16.95 8.464 15.536 7.05 12 10.586 8.464 7.05 7.05 8.464 10.586 12 7.05 15.536 8.464 16.95 12 13.414 15.536 16.95 16.95 15.536 13.414 12 16.95 8.464"/></g></symbol>
  <symbol id="nc-icon-single-03-glyph-24" viewBox="0 0 24 24"><g transform="translate(0, 0)"><circle cx="12" cy="7" r="7"></circle><path d="M18.333,13.387C16.705,15,14.468,16,12,16s-4.705-1-6.333-2.613C2.291,15.267,0,18.869,0,23 v1h24v-1C24,18.869,21.709,15.267,18.333,13.387z"></path></g></symbol>
  <symbol id="nc-icon-a-chat-glyph-24" viewBox="0 0 24 24"><title>a chat</title><g transform="translate(0, 0)"><path d="M22,1H2A2,2,0,0,0,0,3V16a2,2,0,0,0,2,2H5v6l8-6h9a2,2,0,0,0,2-2V3A2,2,0,0,0,22,1Z" fill="currentColor"/></g></symbol>
  <symbol id="nc-icon-camera-glyph-24" viewBox="0 0 24 24"><title>camera</title><g transform="translate(0, 0)"><path d="M21,4H17L15,1H9L7,4H3A3,3,0,0,0,0,7V19a3,3,0,0,0,3,3H21a3,3,0,0,0,3-3V7A3,3,0,0,0,21,4ZM12,18a5,5,0,1,1,5-5A5,5,0,0,1,12,18Z"/></g></symbol>
  <symbol id="nc-icon-zoom-glyph-24" viewBox="0 0 24 24"><title>zoom</title><g transform="translate(0, 0)"><path d="M23.061,20.939l-5.733-5.733a9.028,9.028,0,1,0-2.122,2.122l5.733,5.733ZM3,10a7,7,0,1,1,7,7A7.008,7.008,0,0,1,3,10Z"/></g></symbol>
  <symbol id="nc-icon-small-down-glyph-24" viewBox="0 0 24 24"><g transform="translate(0, 0)"><path d="M12,15c-0.256,0-0.512-0.098-0.707-0.293L6.586,10L8,8.586l4,4l4-4L17.414,10l-4.707,4.707 C12.512,14.902,12.256,15,12,15z"></path></g></symbol>
  <symbol id="nc-icon-small-up-glyph-24" viewBox="0 0 24 24"><g transform="translate(0, 0)"><path d="M16,15.414l-4-4l-4,4L6.586,14l4.707-4.707c0.391-0.391,1.023-0.391,1.414,0L17.414,14L16,15.414z"></path></g></symbol>
  <symbol id="nc-icon-reply-arrow-glyph-24" viewBox="0 0 24 24"><g transform="translate(0, 0)"><path d="M11,7V0.6L0.6,11L11,21.4V15c6.3,0.1,8.7,1.4,11.1,5.5l1.9,3.2V20C24,9.1,15.6,7.2,11,7z"></path></g></symbol>
  <symbol id="nc-icon-t-warning-glyph-24" viewBox="0 0 24 24"><title>t warning</title><g transform="translate(0, 0)"><path d="M23.865,20.5l-11-19a1.04,1.04,0,0,0-1.73,0l-11,19A1,1,0,0,0,1,22H23a1,1,0,0,0,.865-1.5ZM13.206,8l-.473,6.6H11.267L10.821,8ZM12,19a1.467,1.467,0,1,1,1.467-1.467A1.467,1.467,0,0,1,12,19Z" fill="currentColor"/></g></symbol>
  <symbol id="nc-icon-scale-glyph-24" viewBox="0 0 24 24"><g transform="translate(0, 0)"><path d="M14,10c0,2.408,1.564,5,5,5s5-2.592,5-5c0-0.208-0.065-0.412-0.186-0.581l-4.991-6.987 c-0.104-0.149-0.249-0.273-0.429-0.351C18.259,2.022,18.125,2.007,17.978,2H6.022c-0.131,0.003-0.28,0.022-0.416,0.081 C5.426,2.158,5.28,2.282,5.177,2.432L0.186,9.419C0.065,9.588,0,9.792,0,10c0,2.408,1.564,5,5,5s5-2.592,5-5 c0-0.136-0.027-0.27-0.081-0.394L7.517,4H11v17H5c-0.552,0-1,0.447-1,1s0.448,1,1,1h14c0.552,0,1-0.447,1-1s-0.448-1-1-1h-6V4h3.483 l-2.402,5.606C14.027,9.73,14,9.864,14,10z M7.912,10H2.229l3.551-4.973L7.912,10z M18.219,5.027L21.771,10h-5.683L18.219,5.027z"></path></g></symbol>
  <symbol id="nc-icon-logo-github-glyph-24" viewBox="0 0 24 24"><g transform="translate(0, 0)"><path fill-rule="evenodd" clip-rule="evenodd" d="M12,0.3c-6.6,0-12,5.4-12,12c0,5.3,3.4,9.8,8.2,11.4 C8.8,23.8,9,23.4,9,23.1c0-0.3,0-1,0-2c-3.3,0.7-4-1.6-4-1.6c-0.5-1.4-1.3-1.8-1.3-1.8C2.5,17,3.7,17,3.7,17 c1.2,0.1,1.8,1.2,1.8,1.2c1.1,1.8,2.8,1.3,3.5,1c0.1-0.8,0.4-1.3,0.8-1.6c-2.7-0.3-5.5-1.3-5.5-5.9c0-1.3,0.5-2.4,1.2-3.2 C5.5,8.1,5,6.9,5.7,5.3c0,0,1-0.3,3.3,1.2c1-0.3,2-0.4,3-0.4c1,0,2,0.1,3,0.4c2.3-1.6,3.3-1.2,3.3-1.2c0.7,1.7,0.2,2.9,0.1,3.2 c0.8,0.8,1.2,1.9,1.2,3.2c0,4.6-2.8,5.6-5.5,5.9c0.4,0.4,0.8,1.1,0.8,2.2c0,1.6,0,2.9,0,3.3c0,0.3,0.2,0.7,0.8,0.6 c4.8-1.6,8.2-6.1,8.2-11.4C24,5.7,18.6,0.3,12,0.3z"></path></g></symbol>
  <symbol id="nc-icon-ungroup-glyph-24" viewBox="0 0 24 24"><g transform="translate(0, 0)"><path d="M22,7h-3v11c0,0.552-0.448,1-1,1H7v3c0,0.552,0.448,1,1,1h14c0.552,0,1-0.448,1-1V8 C23,7.448,22.552,7,22,7z"></path> <path d="M16,17H2c-0.553,0-1-0.447-1-1V2c0-0.552,0.447-1,1-1h14c0.553,0,1,0.448,1,1v14C17,16.553,16.553,17,16,17z "></path></g></symbol>
  <symbol id="nc-icon-f-check-glyph-24" viewBox="0 0 24 24"><g transform="translate(0, 0)"><polygon points="9 21 1 13 4 10 9 15 21 3 24 6 9 21"></polygon></g></symbol>
  <symbol id="nc-icon-shape-star-glyph-24" viewBox="0 0 24 24"><g transform="translate(0, 0)"><path d="M23.144,8.541,16.063,7.512,12.9,1.1a1.041,1.041,0,0,0-1.794,0L7.937,7.512.856,8.541A1,1,0,0,0,.3,10.246L5.425,15.24,4.216,22.293a1,1,0,0,0,1.451,1.054L12,20.018l6.333,3.329a1,1,0,0,0,1.451-1.054L18.575,15.24,23.7,10.246a1,1,0,0,0-.554-1.705Z"></path></g></symbol>
  <symbol id="nc-icon-d-remove-glyph-24" viewBox="0 0 24 24"><g transform="translate(0, 0)"><path d="M22.7,4.3l-3-3c-0.4-0.4-1-0.4-1.4,0L12,7.6L5.7,1.3c-0.4-0.4-1-0.4-1.4,0l-3,3c-0.4,0.4-0.4,1,0,1.4L7.6,12 l-6.3,6.3c-0.4,0.4-0.4,1,0,1.4l3,3c0.4,0.4,1,0.4,1.4,0l6.3-6.3l6.3,6.3c0.2,0.2,0.5,0.3,0.7,0.3s0.5-0.1,0.7-0.3l3-3 c0.4-0.4,0.4-1,0-1.4L16.4,12l6.3-6.3C23.1,5.3,23.1,4.7,22.7,4.3z"></path></g></symbol>
  <symbol id="nc-icon-direction-right-glyph-24" viewBox="0 0 24 24"><g transform="translate(0, 0)"><path d="M1,8C0.4,8,0,8.4,0,9v6c0,0.6,0.4,1,1,1s1-0.4,1-1V9C2,8.4,1.6,8,1,8z"></path> <path d="M23.6,12L11,1.9V8H5C4.4,8,4,8.4,4,9v6c0,0.6,0.4,1,1,1h6v6.1L23.6,12z"></path></g></symbol>
  <symbol id="nc-icon-add-glyph-24" viewBox="0 0 24 24"><g transform="translate(0, 0)"><path d="M12,0A12,12,0,1,0,24,12,12.035,12.035,0,0,0,12,0Zm6,13H13v5H11V13H6V11h5V6h2v5h5Z"></path></g></symbol>
  <!-- Size: 32 -->
  <!-- These icons contain hard-coded duo-tone styles, as applying them
       via CSS didn’t seem to work for some reason. -->
  <symbol id="nc-icon-community-glyph-32" viewbox="0 0 32 32"><g fill="#FF00A0" fill-rule="nonzero" transform="translate(0, 0)"><path d="M4.992 13c-1.623.103-3.03 1.29-2.991 2.986.04 1.737 1.39 3.003 3.08 3.014 1.638.01 2.76-1.21 2.906-2.78.165-1.785-1.295-3.149-2.995-3.22-.276-.011-.274.419 0 .43 1.473.061 2.448 1.081 2.568 2.517.118 1.426-.942 2.447-2.27 2.611-1.378.172-2.455-.76-2.78-2.055-.416-1.648.9-2.973 2.482-3.073.274-.017.276-.447 0-.43zM3.1 7.488c1.259 1.037 2.446 2.159 3.502 3.43.203.245.537-.115.335-.358C5.853 9.255 4.631 8.114 3.34 7.05c-.243-.199-.478.242-.24.438z"/><path d="M4.42 10.953c1.236-.817 2.34-1.75 3.506-2.628.225-.17-.114-.44-.339-.271-1.166.878-2.27 1.81-3.506 2.628-.238.157.102.427.339.271zM14.056 9.29c.38.451.684.974 1.063 1.428.312.374.497.36.85.054 1.111-.962 2.206-2.156 2.996-3.445.147-.24-.21-.463-.355-.225-.609.993-1.427 1.869-2.221 2.686-.187.192-.38.374-.578.553-.326.295-.377.1-.61-.198-.296-.378-.544-.802-.854-1.168-.18-.212-.47.104-.29.316zM25.104 7.447c1.34.95 2.413 2.27 3.49 3.476.205.228.547-.102.344-.33-1.109-1.24-2.21-2.57-3.588-3.548-.253-.179-.494.225-.246.402z"/><path d="M26.393 10.93c1.157-1.199 2.382-2.323 3.539-3.521.21-.218-.115-.557-.325-.339-1.157 1.199-2.382 2.323-3.539 3.521-.21.218.115.557.325.339zM1.22 24.949c2.849.126 5.713-.01 8.562-.097a.23.23 0 00.218-.235c-.01-1.403-.168-2.888-.614-4.211-.17-.506-.426-1.013-.873-1.285-.459-.281-1.141 0-1.605.122-.756.199-1.415.242-2.189.11-.737-.125-1.46-.52-2.155-.074-.571.368-.829 1.205-1.017 1.844-.34 1.15-.444 2.394-.546 3.59-.025.302.411.3.437 0 .12-1.419.152-4.26 1.471-5.109.39-.25 1.045.067 1.446.154.31.067.623.112.937.146.453.05.9 0 1.343-.106.484-.114 1.119-.417 1.61-.292.523.133.753 1.087.88 1.545.316 1.138.43 2.38.439 3.566l.218-.235c-2.85.087-5.713.223-8.563.097-.281-.012-.28.457 0 .47zM15.993 13c-1.624.103-3.031 1.29-2.992 2.986.04 1.737 1.39 3.003 3.08 3.014 1.637.01 2.761-1.21 2.906-2.78.165-1.785-1.295-3.149-2.994-3.22-.276-.011-.275.419 0 .43 1.472.061 2.447 1.081 2.567 2.517.118 1.426-.941 2.446-2.27 2.611-1.378.171-2.455-.76-2.78-2.055-.416-1.649.9-2.973 2.483-3.073.273-.017.275-.447 0-.43z"/><path d="M11.22 24.949c2.849.126 5.713-.01 8.562-.097a.23.23 0 00.218-.235c-.01-1.403-.168-2.888-.614-4.211-.17-.506-.426-1.013-.873-1.285-.46-.281-1.141 0-1.605.122-.756.199-1.415.242-2.189.11-.737-.125-1.461-.52-2.155-.074-.572.368-.829 1.205-1.017 1.844-.34 1.15-.444 2.394-.546 3.59-.025.302.411.3.437 0 .12-1.419.152-4.26 1.471-5.109.39-.25 1.045.067 1.445.154.31.067.624.112.938.146.453.05.9 0 1.343-.106.484-.114 1.119-.417 1.61-.292.522.133.753 1.087.88 1.545.316 1.138.43 2.38.438 3.566l.219-.235c-2.85.087-5.713.223-8.563.097-.281-.012-.28.457 0 .47zM27.992 13c-1.623.103-3.03 1.29-2.991 2.986.04 1.737 1.39 3.003 3.08 3.014 1.637.01 2.76-1.21 2.906-2.78.165-1.785-1.295-3.149-2.995-3.22-.275-.011-.274.419 0 .43 1.473.061 2.448 1.081 2.568 2.517.119 1.426-.942 2.447-2.27 2.611-1.378.172-2.455-.76-2.78-2.055-.416-1.648.9-2.973 2.482-3.073.274-.017.276-.447 0-.43z"/><path d="M23.22 24.949c2.849.126 5.713-.01 8.562-.097a.23.23 0 00.218-.235c-.01-1.403-.168-2.888-.614-4.211-.17-.506-.426-1.013-.873-1.285-.46-.281-1.141 0-1.606.122-.755.199-1.414.242-2.188.11-.737-.125-1.46-.52-2.155-.074-.571.368-.829 1.205-1.017 1.844-.34 1.15-.444 2.394-.546 3.59-.025.302.411.3.437 0 .12-1.419.152-4.26 1.471-5.109.39-.25 1.045.067 1.446.154.31.067.623.112.937.146.453.05.9 0 1.343-.106.484-.114 1.119-.417 1.61-.292.522.133.753 1.087.88 1.545.316 1.138.43 2.38.438 3.566l.219-.235c-2.85.087-5.713.223-8.563.097-.281-.012-.28.457 0 .47z"></path></g></symbol>
  <symbol id="nc-icon-r-chat-glyph-32" xmlns="http://www.w3.org/2000/svg" xmlns:xlink="http://www.w3.org/1999/xlink" viewBox="0 0 32 32"><g transform="translate(0, 0)"><path d="M28,1H4A4,4,0,0,0,0,5V9a2,2,0,0,0,2,2H12V7l7,6-7,6V15H2a2,2,0,0,0-2,2v3a4,4,0,0,0,4,4H7v8.044L17.343,24H28a4,4,0,0,0,4-4V5A4,4,0,0,0,28,1Z"></path></g></symbol>
  <symbol id="nc-icon-mobile-chat-glyph-32" viewBox="0 0 32 32"><g transform="translate(0, 0)"><path d="M30,0H15a2,2,0,0,0-2,2V17a1,1,0,0,0,1.6.8L18.333,15H30a2,2,0,0,0,2-2V2A2,2,0,0,0,30,0ZM22,11H17V9h5Zm6-5H17V4H28Z" fill="#5c9fcb" data-color="color-2"></path><path d="M21,17V27a1,1,0,0,1-1,1H5a1,1,0,0,1-1-1V7A1,1,0,0,1,5,6h6V2H5A3,3,0,0,0,2,5V29a3,3,0,0,0,3,3H20a3,3,0,0,0,3-3V17Z"></path></g></symbol>
  <symbol id="nc-icon-bullet-list-68-glyph-32" viewBox="0 0 32 32"><g transform="translate(0, 0)"><path d="M5,1C2.8,1,1,2.8,1,5s1.8,4,4,4s4-1.8,4-4S7.2,1,5,1z"></path><path d="M5,12c-2.2,0-4,1.8-4,4s1.8,4,4,4s4-1.8,4-4S7.2,12,5,12z"></path><path d="M5,23c-2.2,0-4,1.8-4,4s1.8,4,4,4s4-1.8,4-4S7.2,23,5,23z"></path><path fill="#5c9fcb" data-color="color-2" d="M30,3H13c-0.6,0-1,0.4-1,1v2c0,0.6,0.4,1,1,1h17c0.6,0,1-0.4,1-1V4C31,3.4,30.6,3,30,3z"></path><path fill="#5c9fcb" data-color="color-2" d="M30,14H13c-0.6,0-1,0.4-1,1v2c0,0.6,0.4,1,1,1h17c0.6,0,1-0.4,1-1v-2C31,14.4,30.6,14,30,14z"></path><path fill="#5c9fcb" data-color="color-2" d="M30,25H13c-0.6,0-1,0.4-1,1v2c0,0.6,0.4,1,1,1h17c0.6,0,1-0.4,1-1v-2C31,25.4,30.6,25,30,25z"></path></g></symbol>
  <symbol id="nc-icon-app-services-glyph-32" viewBox="0 0 32 32"><g transform="translate(0, 0)"><path d="M15.893,22H15V17H11.859a3.982,3.982,0,0,1-7.718,0H1V29a2,2,0,0,0,2,2H15V26h1a2,2,0,0,0,1.973-2.336A2.075,2.075,0,0,0,15.893,22Z" fill="#5c9fcb" data-color="color-2"></path><path d="M22,16.107V17H17v3.141a3.982,3.982,0,0,1,0,7.718V31H29a2,2,0,0,0,2-2V17H26V16a2,2,0,0,0-2.336-1.973A2.075,2.075,0,0,0,22,16.107Z"></path><path d="M16.107,10H17v5h3.141a3.982,3.982,0,0,1,7.718,0H31V3a2,2,0,0,0-2-2H17V6H16a2,2,0,0,0-1.973,2.336A2.075,2.075,0,0,0,16.107,10Z" fill="#5c9fcb" data-color="color-2"></path><path d="M12,8a3.991,3.991,0,0,1,3-3.859V1H3A2,2,0,0,0,1,3V15H6v.893a2.075,2.075,0,0,0,1.664,2.08A2,2,0,0,0,10,16V15h5V11.859A3.992,3.992,0,0,1,12,8Z"></path></g></symbol>
</svg>
