<svg style="display: none;" xmlns="http://www.w3.org/2000/svg" xmlns:xlink="http://www.w3.org/1999/xlink">
  <symbol id="nc-icon-telegram-glyph-24" viewBox="0 0 24 24"><title>telegram</title><g transform="translate(0, 0)"><path d="M23.953,2.527a.515.515,0,0,0-.349-.381,1.8,1.8,0,0,0-.945.067S1.63,9.772.429,10.609c-.258.18-.345.285-.388.408-.208.6.439.858.439.858L5.9,13.641a.59.59,0,0,0,.275-.016c1.232-.779,12.4-7.834,13.049-8.071.1-.03.177,0,.157.075-.258.905-9.909,9.478-9.962,9.53a.2.2,0,0,0-.072.177l-.506,5.292s-.212,1.647,1.435,0c1.168-1.169,2.289-2.137,2.849-2.608,1.864,1.287,3.869,2.71,4.734,3.455a1.506,1.506,0,0,0,1.1.423,1.236,1.236,0,0,0,1.051-.933S23.84,5.542,23.968,3.476c.013-.2.03-.332.032-.471A1.762,1.762,0,0,0,23.953,2.527Z" fill="currentColor"/></g></symbol>
  <symbol id="nc-icon-search-glyph-24" viewBox="0 0 24 24"><title>search</title><g transform="translate(0, 0)"><path d="M10,19a9,9,0,1,1,9-9A9.011,9.011,0,0,1,10,19ZM10,3a7,7,0,1,0,7,7A7.008,7.008,0,0,0,10,3Z" fill="currentColor"/><path data-color="color-2" d="M7,10H5a5.006,5.006,0,0,1,5-5V7A3,3,0,0,0,7,10Z"/><path data-color="color-2" d="M22.707,21.293l-4.256-4.256a10.982,10.982,0,0,1-1.414,1.414l4.256,4.256a1,1,0,0,0,1.414-1.414Z"/></g></symbol>
  <symbol id="nc-icon-mail-glyph-24" viewBox="0 0 24 24"><title>mail</title><g transform="translate(0, 0)"><path d="M21,2H3A3,3,0,0,0,0,5V19a3,3,0,0,0,3,3H21a3,3,0,0,0,3-3V5A3,3,0,0,0,21,2Zm-.3,4.8-8,7a1.854,1.854,0,0,1-.7.2,1.854,1.854,0,0,1-.7-.2l-8-7A.992.992,0,0,1,4.6,5.3l7.3,6.4,7.3-6.4a.972.972,0,0,1,1.4.1A.9.9,0,0,1,20.7,6.8Z" fill="currentColor"/></g></symbol></svg>
