<svg style="display: none;" xmlns="http://www.w3.org/2000/svg" xmlns:xlink="http://www.w3.org/1999/xlink">
  <symbol id="nc-icon-telegram-glyph-24" viewBox="0 0 24 24"><title>telegram</title><g transform="translate(0, 0)"><path d="M23.953,2.527a.515.515,0,0,0-.349-.381,1.8,1.8,0,0,0-.945.067S1.63,9.772.429,10.609c-.258.18-.345.285-.388.408-.208.6.439.858.439.858L5.9,13.641a.59.59,0,0,0,.275-.016c1.232-.779,12.4-7.834,13.049-8.071.1-.03.177,0,.157.075-.258.905-9.909,9.478-9.962,9.53a.2.2,0,0,0-.072.177l-.506,5.292s-.212,1.647,1.435,0c1.168-1.169,2.289-2.137,2.849-2.608,1.864,1.287,3.869,2.71,4.734,3.455a1.506,1.506,0,0,0,1.1.423,1.236,1.236,0,0,0,1.051-.933S23.84,5.542,23.968,3.476c.013-.2.03-.332.032-.471A1.762,1.762,0,0,0,23.953,2.527Z"/></g></symbol>
  <symbol id="nc-icon-search-glyph-24" viewBox="0 0 24 24"><title>search</title><g transform="translate(0, 0)"><path d="M10,19a9,9,0,1,1,9-9A9.011,9.011,0,0,1,10,19ZM10,3a7,7,0,1,0,7,7A7.008,7.008,0,0,0,10,3Z"/><path data-color="color-2" d="M7,10H5a5.006,5.006,0,0,1,5-5V7A3,3,0,0,0,7,10Z"/><path data-color="color-2" d="M22.707,21.293l-4.256-4.256a10.982,10.982,0,0,1-1.414,1.414l4.256,4.256a1,1,0,0,0,1.414-1.414Z"/></g></symbol>
  <symbol id="nc-icon-mail-glyph-24" viewBox="0 0 24 24"><title>mail</title><g transform="translate(0, 0)"><path d="M21,2H3A3,3,0,0,0,0,5V19a3,3,0,0,0,3,3H21a3,3,0,0,0,3-3V5A3,3,0,0,0,21,2Zm-.3,4.8-8,7a1.854,1.854,0,0,1-.7.2,1.854,1.854,0,0,1-.7-.2l-8-7A.992.992,0,0,1,4.6,5.3l7.3,6.4,7.3-6.4a.972.972,0,0,1,1.4.1A.9.9,0,0,1,20.7,6.8Z"/></g></symbol>
  <symbol id="nc-icon-i-remove-glyph-24" viewBox="0 0 24 24"><title>i remove</title><g transform="translate(0, 0)"><polygon points="16.95 8.464 15.536 7.05 12 10.586 8.464 7.05 7.05 8.464 10.586 12 7.05 15.536 8.464 16.95 12 13.414 15.536 16.95 16.95 15.536 13.414 12 16.95 8.464"/></g></symbol>
  <symbol id="nc-icon-users-ww-glyph-24" viewBox="0 0 24 24"><title>users ww</title><g transform="translate(0, 0)"><path d="M22.371,14.748l-3.742-1.5A1,1,0,0,1,18,12.323v-.451a7.18,7.18,0,0,0,3.248-1.115.988.988,0,0,0,.181-1.416A5.991,5.991,0,0,1,20,6.038a3.879,3.879,0,0,0-1.9-3.5,4.056,4.056,0,0,0-5.927,2.313A6.485,6.485,0,0,1,13,8.012a4.082,4.082,0,0,0,1,2.093,3.031,3.031,0,0,1,.616,2.3,2.964,2.964,0,0,1-1.212,1.987c-.066.048-.134.093-.2.138l.911.365A2.988,2.988,0,0,1,16,17.677V20a2.966,2.966,0,0,1-.184,1H22a1,1,0,0,0,1-1V15.677A1,1,0,0,0,22.371,14.748Z" data-color="color-2"/> <path d="M13.371,16.749l-3.742-1.5A1,1,0,0,1,9,14.323v-.451a7.18,7.18,0,0,0,3.248-1.115.988.988,0,0,0,.181-1.416A5.991,5.991,0,0,1,11,8.038a3.879,3.879,0,0,0-1.9-3.5A4.046,4.046,0,0,0,3,8a5.943,5.943,0,0,1-1.429,3.342.987.987,0,0,0,.181,1.415A7.18,7.18,0,0,0,5,13.872v.451a1,1,0,0,1-.629.928l-3.742,1.5A1,1,0,0,0,0,17.677V20a1,1,0,0,0,1,1H13a1,1,0,0,0,1-1V17.677A1,1,0,0,0,13.371,16.749Z"/></g></symbol>
  <symbol id="nc-icon-a-chat-glyph-24" viewBox="0 0 24 24"><title>a chat</title><g transform="translate(0, 0)"><path d="M22,1H2A2,2,0,0,0,0,3V16a2,2,0,0,0,2,2H5v6l8-6h9a2,2,0,0,0,2-2V3A2,2,0,0,0,22,1Z" fill="currentColor"/></g></symbol>
  <symbol id="nc-icon-camera-glyph-24" viewBox="0 0 24 24"><title>camera</title><g transform="translate(0, 0)"><path d="M21,4H17L15,1H9L7,4H3A3,3,0,0,0,0,7V19a3,3,0,0,0,3,3H21a3,3,0,0,0,3-3V7A3,3,0,0,0,21,4ZM12,18a5,5,0,1,1,5-5A5,5,0,0,1,12,18Z"/></g></symbol>
  <symbol id="nc-icon-zoom-glyph-24" viewBox="0 0 24 24"><title>zoom</title><g transform="translate(0, 0)"><path d="M23.061,20.939l-5.733-5.733a9.028,9.028,0,1,0-2.122,2.122l5.733,5.733ZM3,10a7,7,0,1,1,7,7A7.008,7.008,0,0,1,3,10Z"/></g></symbol>
  <symbol id="nc-icon-small-down-glyph-24" viewBox="0 0 24 24"><g transform="translate(0, 0)"><path d="M12,15c-0.256,0-0.512-0.098-0.707-0.293L6.586,10L8,8.586l4,4l4-4L17.414,10l-4.707,4.707 C12.512,14.902,12.256,15,12,15z"></path></g></symbol>
  <symbol id="nc-icon-small-up-glyph-24" viewBox="0 0 24 24"><g transform="translate(0, 0)"><path d="M16,15.414l-4-4l-4,4L6.586,14l4.707-4.707c0.391-0.391,1.023-0.391,1.414,0L17.414,14L16,15.414z"></path></g></symbol>
  <symbol id="nc-icon-reply-arrow-glyph-24" viewBox="0 0 24 24"><g transform="translate(0, 0)"><path d="M11,7V0.6L0.6,11L11,21.4V15c6.3,0.1,8.7,1.4,11.1,5.5l1.9,3.2V20C24,9.1,15.6,7.2,11,7z"></path></g></symbol>
  <symbol id="nc-icon-t-warning-glyph-24" viewBox="0 0 24 24"><title>t warning</title><g transform="translate(0, 0)"><path d="M23.865,20.5l-11-19a1.04,1.04,0,0,0-1.73,0l-11,19A1,1,0,0,0,1,22H23a1,1,0,0,0,.865-1.5ZM13.206,8l-.473,6.6H11.267L10.821,8ZM12,19a1.467,1.467,0,1,1,1.467-1.467A1.467,1.467,0,0,1,12,19Z" fill="currentColor"/></g></symbol>
  <symbol id="nc-icon-scale-glyph-24" viewBox="0 0 24 24"><g transform="translate(0, 0)"><path d="M14,10c0,2.408,1.564,5,5,5s5-2.592,5-5c0-0.208-0.065-0.412-0.186-0.581l-4.991-6.987 c-0.104-0.149-0.249-0.273-0.429-0.351C18.259,2.022,18.125,2.007,17.978,2H6.022c-0.131,0.003-0.28,0.022-0.416,0.081 C5.426,2.158,5.28,2.282,5.177,2.432L0.186,9.419C0.065,9.588,0,9.792,0,10c0,2.408,1.564,5,5,5s5-2.592,5-5 c0-0.136-0.027-0.27-0.081-0.394L7.517,4H11v17H5c-0.552,0-1,0.447-1,1s0.448,1,1,1h14c0.552,0,1-0.447,1-1s-0.448-1-1-1h-6V4h3.483 l-2.402,5.606C14.027,9.73,14,9.864,14,10z M7.912,10H2.229l3.551-4.973L7.912,10z M18.219,5.027L21.771,10h-5.683L18.219,5.027z"></path></g></symbol>
  <symbol id="nc-icon-logo-github-glyph-24" viewBox="0 0 24 24"><g transform="translate(0, 0)"><path fill-rule="evenodd" clip-rule="evenodd" d="M12,0.3c-6.6,0-12,5.4-12,12c0,5.3,3.4,9.8,8.2,11.4 C8.8,23.8,9,23.4,9,23.1c0-0.3,0-1,0-2c-3.3,0.7-4-1.6-4-1.6c-0.5-1.4-1.3-1.8-1.3-1.8C2.5,17,3.7,17,3.7,17 c1.2,0.1,1.8,1.2,1.8,1.2c1.1,1.8,2.8,1.3,3.5,1c0.1-0.8,0.4-1.3,0.8-1.6c-2.7-0.3-5.5-1.3-5.5-5.9c0-1.3,0.5-2.4,1.2-3.2 C5.5,8.1,5,6.9,5.7,5.3c0,0,1-0.3,3.3,1.2c1-0.3,2-0.4,3-0.4c1,0,2,0.1,3,0.4c2.3-1.6,3.3-1.2,3.3-1.2c0.7,1.7,0.2,2.9,0.1,3.2 c0.8,0.8,1.2,1.9,1.2,3.2c0,4.6-2.8,5.6-5.5,5.9c0.4,0.4,0.8,1.1,0.8,2.2c0,1.6,0,2.9,0,3.3c0,0.3,0.2,0.7,0.8,0.6 c4.8-1.6,8.2-6.1,8.2-11.4C24,5.7,18.6,0.3,12,0.3z"></path></g></symbol>
</svg>
