<svg style="display: none;" xmlns="http://www.w3.org/2000/svg" xmlns:xlink="http://www.w3.org/1999/xlink">
  <!-- Size: 24, nc-icons --> 
  <symbol id="icon-search-glyph-24" viewBox="0 0 24 24"><title>search</title><g transform="translate(0, 0)"><path d="M10,19a9,9,0,1,1,9-9A9.011,9.011,0,0,1,10,19ZM10,3a7,7,0,1,0,7,7A7.008,7.008,0,0,0,10,3Z"/><path data-color="color-2" d="M7,10H5a5.006,5.006,0,0,1,5-5V7A3,3,0,0,0,7,10Z"/><path data-color="color-2" d="M22.707,21.293l-4.256-4.256a10.982,10.982,0,0,1-1.414,1.414l4.256,4.256a1,1,0,0,0,1.414-1.414Z"/></g></symbol>
  <symbol id="icon-i-remove-glyph-24" viewBox="0 0 24 24"><title>i remove</title><g transform="translate(0, 0)"><polygon points="16.95 8.464 15.536 7.05 12 10.586 8.464 7.05 7.05 8.464 10.586 12 7.05 15.536 8.464 16.95 12 13.414 15.536 16.95 16.95 15.536 13.414 12 16.95 8.464"/></g></symbol>
  <symbol id="icon-single-03-glyph-24" viewBox="0 0 24 24"><g transform="translate(0, 0)"><circle cx="12" cy="7" r="7"></circle><path d="M18.333,13.387C16.705,15,14.468,16,12,16s-4.705-1-6.333-2.613C2.291,15.267,0,18.869,0,23 v1h24v-1C24,18.869,21.709,15.267,18.333,13.387z"></path></g></symbol>
  <symbol id="icon-a-chat-glyph-24" viewBox="0 0 24 24"><title>a chat</title><g transform="translate(0, 0)"><path d="M22,1H2A2,2,0,0,0,0,3V16a2,2,0,0,0,2,2H5v6l8-6h9a2,2,0,0,0,2-2V3A2,2,0,0,0,22,1Z" fill="currentColor"/></g></symbol>
  <symbol id="icon-camera-glyph-24" viewBox="0 0 24 24"><title>camera</title><g transform="translate(0, 0)"><path d="M21,4H17L15,1H9L7,4H3A3,3,0,0,0,0,7V19a3,3,0,0,0,3,3H21a3,3,0,0,0,3-3V7A3,3,0,0,0,21,4ZM12,18a5,5,0,1,1,5-5A5,5,0,0,1,12,18Z"/></g></symbol>
  <symbol id="icon-zoom-glyph-24" viewBox="0 0 24 24"><title>zoom</title><g transform="translate(0, 0)"><path d="M23.061,20.939l-5.733-5.733a9.028,9.028,0,1,0-2.122,2.122l5.733,5.733ZM3,10a7,7,0,1,1,7,7A7.008,7.008,0,0,1,3,10Z"/></g></symbol>
  <symbol id="icon-small-down-glyph-24" viewBox="0 0 24 24"><g transform="translate(0, 0)"><path d="M12,15c-0.256,0-0.512-0.098-0.707-0.293L6.586,10L8,8.586l4,4l4-4L17.414,10l-4.707,4.707 C12.512,14.902,12.256,15,12,15z"></path></g></symbol>
  <symbol id="icon-small-up-glyph-24" viewBox="0 0 24 24"><g transform="translate(0, 0)"><path d="M16,15.414l-4-4l-4,4L6.586,14l4.707-4.707c0.391-0.391,1.023-0.391,1.414,0L17.414,14L16,15.414z"></path></g></symbol>
  <symbol id="icon-reply-arrow-glyph-24" viewBox="0 0 24 24"><g transform="translate(0, 0)"><path d="M11,7V0.6L0.6,11L11,21.4V15c6.3,0.1,8.7,1.4,11.1,5.5l1.9,3.2V20C24,9.1,15.6,7.2,11,7z"></path></g></symbol>
  <symbol id="icon-t-warning-glyph-24" viewBox="0 0 24 24"><title>t warning</title><g transform="translate(0, 0)"><path d="M23.865,20.5l-11-19a1.04,1.04,0,0,0-1.73,0l-11,19A1,1,0,0,0,1,22H23a1,1,0,0,0,.865-1.5ZM13.206,8l-.473,6.6H11.267L10.821,8ZM12,19a1.467,1.467,0,1,1,1.467-1.467A1.467,1.467,0,0,1,12,19Z" fill="currentColor"/></g></symbol>
  <symbol id="icon-scale-glyph-24" viewBox="0 0 24 24"><g transform="translate(0, 0)"><path d="M14,10c0,2.408,1.564,5,5,5s5-2.592,5-5c0-0.208-0.065-0.412-0.186-0.581l-4.991-6.987 c-0.104-0.149-0.249-0.273-0.429-0.351C18.259,2.022,18.125,2.007,17.978,2H6.022c-0.131,0.003-0.28,0.022-0.416,0.081 C5.426,2.158,5.28,2.282,5.177,2.432L0.186,9.419C0.065,9.588,0,9.792,0,10c0,2.408,1.564,5,5,5s5-2.592,5-5 c0-0.136-0.027-0.27-0.081-0.394L7.517,4H11v17H5c-0.552,0-1,0.447-1,1s0.448,1,1,1h14c0.552,0,1-0.447,1-1s-0.448-1-1-1h-6V4h3.483 l-2.402,5.606C14.027,9.73,14,9.864,14,10z M7.912,10H2.229l3.551-4.973L7.912,10z M18.219,5.027L21.771,10h-5.683L18.219,5.027z"></path></g></symbol>
  <symbol id="icon-logo-github-glyph-24" viewBox="0 0 24 24"><g transform="translate(0, 0)"><path fill-rule="evenodd" clip-rule="evenodd" d="M12,0.3c-6.6,0-12,5.4-12,12c0,5.3,3.4,9.8,8.2,11.4 C8.8,23.8,9,23.4,9,23.1c0-0.3,0-1,0-2c-3.3,0.7-4-1.6-4-1.6c-0.5-1.4-1.3-1.8-1.3-1.8C2.5,17,3.7,17,3.7,17 c1.2,0.1,1.8,1.2,1.8,1.2c1.1,1.8,2.8,1.3,3.5,1c0.1-0.8,0.4-1.3,0.8-1.6c-2.7-0.3-5.5-1.3-5.5-5.9c0-1.3,0.5-2.4,1.2-3.2 C5.5,8.1,5,6.9,5.7,5.3c0,0,1-0.3,3.3,1.2c1-0.3,2-0.4,3-0.4c1,0,2,0.1,3,0.4c2.3-1.6,3.3-1.2,3.3-1.2c0.7,1.7,0.2,2.9,0.1,3.2 c0.8,0.8,1.2,1.9,1.2,3.2c0,4.6-2.8,5.6-5.5,5.9c0.4,0.4,0.8,1.1,0.8,2.2c0,1.6,0,2.9,0,3.3c0,0.3,0.2,0.7,0.8,0.6 c4.8-1.6,8.2-6.1,8.2-11.4C24,5.7,18.6,0.3,12,0.3z"></path></g></symbol>
  <symbol id="icon-ungroup-glyph-24" viewBox="0 0 24 24"><g transform="translate(0, 0)"><path d="M22,7h-3v11c0,0.552-0.448,1-1,1H7v3c0,0.552,0.448,1,1,1h14c0.552,0,1-0.448,1-1V8 C23,7.448,22.552,7,22,7z"></path> <path d="M16,17H2c-0.553,0-1-0.447-1-1V2c0-0.552,0.447-1,1-1h14c0.553,0,1,0.448,1,1v14C17,16.553,16.553,17,16,17z "></path></g></symbol>
  <symbol id="icon-f-check-glyph-24" viewBox="0 0 24 24"><g transform="translate(0, 0)"><polygon points="9 21 1 13 4 10 9 15 21 3 24 6 9 21"></polygon></g></symbol>
  <symbol id="icon-shape-star-glyph-24" viewBox="0 0 24 24"><g transform="translate(0, 0)"><path d="M23.144,8.541,16.063,7.512,12.9,1.1a1.041,1.041,0,0,0-1.794,0L7.937,7.512.856,8.541A1,1,0,0,0,.3,10.246L5.425,15.24,4.216,22.293a1,1,0,0,0,1.451,1.054L12,20.018l6.333,3.329a1,1,0,0,0,1.451-1.054L18.575,15.24,23.7,10.246a1,1,0,0,0-.554-1.705Z"></path></g></symbol>
  <symbol id="icon-d-remove-glyph-24" viewBox="0 0 24 24"><g transform="translate(0, 0)"><path d="M22.7,4.3l-3-3c-0.4-0.4-1-0.4-1.4,0L12,7.6L5.7,1.3c-0.4-0.4-1-0.4-1.4,0l-3,3c-0.4,0.4-0.4,1,0,1.4L7.6,12 l-6.3,6.3c-0.4,0.4-0.4,1,0,1.4l3,3c0.4,0.4,1,0.4,1.4,0l6.3-6.3l6.3,6.3c0.2,0.2,0.5,0.3,0.7,0.3s0.5-0.1,0.7-0.3l3-3 c0.4-0.4,0.4-1,0-1.4L16.4,12l6.3-6.3C23.1,5.3,23.1,4.7,22.7,4.3z"></path></g></symbol>
  <symbol id="icon-direction-right-glyph-24" viewBox="0 0 24 24"><g transform="translate(0, 0)"><path d="M1,8C0.4,8,0,8.4,0,9v6c0,0.6,0.4,1,1,1s1-0.4,1-1V9C2,8.4,1.6,8,1,8z"></path> <path d="M23.6,12L11,1.9V8H5C4.4,8,4,8.4,4,9v6c0,0.6,0.4,1,1,1h6v6.1L23.6,12z"></path></g></symbol>
  <symbol id="icon-add-glyph-24" viewBox="0 0 24 24"><g transform="translate(0, 0)"><path d="M12,0A12,12,0,1,0,24,12,12.035,12.035,0,0,0,12,0Zm6,13H13v5H11V13H6V11h5V6h2v5h5Z"></path></g></symbol>
  <symbol id="icon-f-remove-glyph-24" viewBox="0 0 24 24"><g transform="translate(0, 0)"><path d="M18 3l3 3-6 6 6 6-3 3-6-6-6 6-3-3 6-6-6-6 3-3 6 6z"/></g></symbol>
  <symbol id="icon-privacy-glyph-24" viewBox="0 0 24 24 "><g transform="translate(0, 0)"><path d="M21.217,3.023l-9-2a1.024,1.024,0,0,0-.434,0l-9,2A1,1,0,0,0,2,4V14a10,10,0,0,0,20,0V4A1,1,0,0,0,21.217,3.023ZM17,17a1,1,0,0,1-1,1H8a1,1,0,0,1-1-1V12a1,1,0,0,1,1-1H9V9a3,3,0,0,1,6,0v2h1a1,1,0,0,1,1,1Z"></path><path d="M12,8a1,1,0,0,0-1,1v2h2V9A1,1,0,0,0,12,8Z"></path></g></symbol>
  <symbol id="icon-attach-glyph-24" viewBox="0 0 24 24"><g transform="translate(0, 0)"><path d="M11.5,24C7.4,24,4,20.6,4,16.5v-11C4,2.5,6.5,0,9.5,0S15,2.5,15,5.5v10c0,1.9-1.6,3.5-3.5,3.5S8,17.4,8,15.5 V7c0-0.6,0.4-1,1-1s1,0.4,1,1v8.5c0,0.8,0.7,1.5,1.5,1.5s1.5-0.7,1.5-1.5v-10C13,3.6,11.4,2,9.5,2S6,3.6,6,5.5v11 c0,3,2.5,5.5,5.5,5.5s5.5-2.5,5.5-5.5V4c0-0.6,0.4-1,1-1s1,0.4,1,1v12.5C19,20.6,15.6,24,11.5,24z"></path></g></symbol>

  <!-- Size: 36, self-designed icons -->
  <symbol id="icon-community-glyph-36" viewBox="0 0 36 36"><g fill="#FF00A0" fill-rule="nonzero"><path d="M8.434 15.334c-1.396.09-2.607 1.146-2.573 2.654.034 1.543 1.195 2.67 2.65 2.679 1.408.009 2.374-1.076 2.5-2.472.142-1.586-1.115-2.798-2.577-2.861-.237-.01-.236.371 0 .382 1.267.054 2.106.96 2.209 2.237.102 1.267-.81 2.175-1.952 2.321-1.186.152-2.112-.676-2.393-1.827-.357-1.465.775-2.643 2.136-2.731.236-.016.237-.398 0-.382zM6.806 10.434c1.083.921 2.104 1.919 3.013 3.049.175.217.462-.102.288-.319-.932-1.16-1.983-2.174-3.095-3.119-.209-.177-.411.215-.206.389z"/><path d="M7.942 13.514c1.063-.727 2.013-1.555 3.016-2.336.194-.151-.098-.392-.292-.241-1.003.78-1.952 1.609-3.016 2.335-.205.14.088.38.292.242zM16.231 12.036c.328.4.588.865.914 1.269.269.332.428.32.732.048.955-.855 1.897-1.917 2.577-3.062.127-.214-.18-.412-.306-.2-.523.882-1.227 1.661-1.91 2.387-.16.17-.328.333-.497.492-.28.262-.325.089-.525-.176-.255-.336-.468-.713-.735-1.038-.154-.189-.404.092-.25.28zM25.735 10.397c1.153.845 2.075 2.018 3.002 3.09.176.203.47-.09.296-.293-.954-1.103-1.901-2.285-3.087-3.154-.217-.16-.425.2-.211.357z"/><path d="M26.843 13.493c.996-1.065 2.05-2.064 3.045-3.13.18-.193-.099-.494-.28-.3-.995 1.065-2.049 2.064-3.044 3.13-.18.193.098.494.28.3zM5.189 25.954c2.45.113 4.914-.008 7.365-.086a.201.201 0 0 0 .188-.208c-.008-1.248-.144-2.568-.528-3.744-.146-.45-.367-.9-.75-1.142-.396-.25-.983 0-1.382.11a4.09 4.09 0 0 1-1.883.097c-.634-.111-1.256-.463-1.853-.066-.492.327-.713 1.071-.875 1.638-.292 1.023-.383 2.129-.47 3.193-.022.267.354.265.375 0 .104-1.262.131-3.787 1.266-4.542.336-.223.899.059 1.244.136.266.06.536.1.806.13.39.044.775 0 1.156-.094.416-.101.962-.37 1.384-.26.45.119.648.967.757 1.374.272 1.011.37 2.116.378 3.17l.187-.21c-2.45.078-4.914.2-7.365.087-.243-.01-.242.406 0 .417zM17.897 15.334c-1.397.09-2.607 1.146-2.574 2.654.034 1.543 1.196 2.67 2.65 2.679 1.408.009 2.375-1.076 2.5-2.472.142-1.586-1.114-2.798-2.576-2.861-.237-.01-.236.371 0 .382 1.267.054 2.105.96 2.208 2.237.102 1.268-.81 2.175-1.952 2.321-1.186.152-2.112-.676-2.392-1.827-.357-1.465.774-2.643 2.136-2.731.235-.016.237-.398 0-.382z"/><path d="M13.79 25.954c2.452.113 4.916-.008 7.366-.086a.201.201 0 0 0 .188-.208c-.008-1.248-.144-2.568-.528-3.744-.146-.45-.367-.9-.75-1.142-.396-.25-.983 0-1.382.11a4.09 4.09 0 0 1-1.883.097c-.634-.111-1.256-.463-1.853-.066-.492.327-.713 1.071-.875 1.638-.292 1.023-.383 2.129-.47 3.193-.022.267.354.265.376 0 .103-1.262.13-3.787 1.265-4.542.336-.223.899.059 1.244.136.266.06.536.1.806.13.39.044.775 0 1.155-.094.417-.101.963-.37 1.385-.26.45.119.648.967.757 1.374.272 1.011.37 2.116.378 3.17l.187-.21c-2.45.078-4.914.2-7.365.087-.242-.01-.242.406 0 .417zM28.22 15.334c-1.397.09-2.608 1.146-2.574 2.654.034 1.543 1.195 2.67 2.65 2.679 1.408.009 2.374-1.076 2.5-2.472.142-1.586-1.114-2.798-2.577-2.861-.237-.01-.236.371 0 .382 1.267.054 2.106.96 2.209 2.237.102 1.267-.81 2.175-1.952 2.321-1.186.152-2.112-.676-2.393-1.827-.357-1.465.775-2.643 2.136-2.731.236-.016.237-.398 0-.382z"/><path d="M24.113 25.954c2.452.113 4.915-.008 7.366-.086a.201.201 0 0 0 .188-.208c-.009-1.248-.145-2.568-.528-3.744-.147-.45-.367-.9-.751-1.142-.395-.25-.982 0-1.382.11a4.089 4.089 0 0 1-1.882.097c-.634-.111-1.257-.463-1.854-.066-.491.327-.713 1.071-.875 1.638-.292 1.023-.382 2.129-.47 3.193-.021.267.354.265.376 0 .104-1.262.13-3.788 1.266-4.542.335-.223.899.059 1.243.136.267.06.536.1.807.13.39.044.774 0 1.155-.094.416-.101.962-.37 1.385-.26.45.119.648.967.757 1.374.272 1.011.37 2.116.377 3.17l.188-.21c-2.451.078-4.914.2-7.366.087-.242-.01-.241.406 0 .417z"/></g></symbol>
  <symbol id="icon-billing-glyph-36" viewBox="0 0 36 36"><g fill="#FF00A0" fill-rule="nonzero"><path d="M20.664 27.788a40.489 40.489 0 0 1 2.12 2.077.334.334 0 0 0 .468 0 80.911 80.911 0 0 1 1.635-1.57c.266-.25 1.901 1.425 2.094 1.613.201.196.574.06.565-.234-.14-4.916-.094-9.837-.084-14.753 0-.189-.152-.322-.332-.332-2.525-.142-5.06-.099-7.588-.17l.331.332c-.083-2.43-.084-4.861-.042-7.292a.333.333 0 0 0-.331-.331c-3.146.08-6.357.088-9.497-.127-.192-.014-.315.161-.33.331-.343 3.685-.071 7.376-.063 11.068.009 3.718-.198 7.524.105 11.23.024.296.339.43.565.235.75-.645 1.46-1.338 2.162-2.035h-.468c.672.539 1.282 1.147 1.907 1.739.1.095.28.139.402.051.764-.55 1.413-1.24 2.144-1.832h-.468c.735.621 1.487 1.223 2.204 1.865.102.092.28.143.401.052l2.502-1.865c.338-.252.008-.828-.335-.572l-2.185 1.63-.294.218c.312-.233-.116-.366-.433-.634-.461-.39-.93-.773-1.392-1.163-.15-.126-.319-.121-.468 0-.562.455-1.082.952-1.622 1.43-.329.293-1.6-1.151-1.895-1.388-.141-.113-.33-.138-.468 0-.703.697-1.412 1.39-2.162 2.035l.565.235c-.142-1.743-.022-3.496-.067-5.242-.048-1.832-.067-3.65-.04-5.482.056-3.864-.293-7.717.065-11.575l-.332.331c3.14.215 6.35.208 9.497.127l-.332-.331c-.042 2.43-.04 4.862.043 7.292a.336.336 0 0 0 .331.331c2.528.07 5.063.027 7.588.17l-.33-.332c-.01 4.917-.057 9.838.084 14.753l.565-.234c-.727-.71-1.507-1.342-2.313-1.96-.12-.091-.303-.04-.402.052a89.913 89.913 0 0 0-1.95 1.865h.469a40.489 40.489 0 0 0-2.12-2.077c-.316-.286-.786.181-.469.47z"/><path d="M19.265 7.694c2.785 2.228 5.06 5.003 7.63 7.46.31.296.779-.172.47-.468-2.57-2.458-4.847-5.233-7.631-7.46-.33-.265-.803.2-.469.468z"/></g></symbol>
  <symbol id="icon-mail-glyph-36" viewBox="0 0 36 36"><g fill="#FF00A0" fill-rule="nonzero"><path d="M16.198 14.798c2.038 1.8 3.93 3.797 5.923 5.66.115.108.302.148.413 0 1.552-2.068 3.343-4.242 5.502-5.47.337-.192.041-.767-.295-.576-2.204 1.254-4.038 3.466-5.62 5.575h.413c-1.992-1.864-3.885-3.86-5.923-5.66-.295-.26-.711.208-.413.471z"/><path d="M19.883 18.14c-1.46.874-2.713 2.254-3.806 3.641-.252.319.16.792.413.472 1.063-1.348 2.27-2.688 3.688-3.537.334-.2.038-.776-.295-.576zM24.055 18.526c1.331 1.244 2.649 2.507 3.702 4.074.226.336.734.005.504-.337-1.086-1.617-2.418-2.924-3.793-4.209-.289-.27-.704.199-.413.472zM5.283 14.62h4.835c.377 0 .377-.668 0-.668H5.283c-.377 0-.377.667 0 .667zM6.492 18.485c1.46-.017 2.942-.27 4.395-.011.368.065.526-.578.155-.644-1.511-.268-3.031-.03-4.55-.011-.377.004-.377.67 0 .666zM7.821 22.49h3.506c.377 0 .377-.668 0-.668H7.82c-.377 0-.377.667 0 .667z"/><path d="M15.92 11.191c-2.13.04-2.635 1.482-2.696 3.686-.08 2.873-.4 5.964-.03 8.824.07.53.162 1.15.548 1.508.763.707 2.61.603 3.544.659 3.073.184 6.189-.055 9.27.026 1.786.048 4.445.738 4.418-2.142-.03-3.21.162-6.416.136-9.625-.005-.711.155-1.46-.297-2.002-.544-.653-1.442-.859-2.182-.984-1.649-.28-3.437-.061-5.096-.035-2.537.04-5.077.119-7.615.085-.376-.005-.376.662 0 .667 3.438.046 6.88-.079 10.318-.126 1.255-.017 3.51-.352 4.283 1.03.211.38.009 1.79.01 2.274.002.82-.014 1.641-.034 2.462-.039 1.674-.099 3.346-.116 5.02-.01.942.285 2.637-.921 2.756-1.64.16-3.37-.061-5.016-.103-3.018-.076-6.084.304-9.083-.172-1.151-.182-1.482-.316-1.615-1.607-.129-1.243-.072-2.52-.048-3.767.032-1.687.072-3.373.119-5.06.047-1.7.489-2.677 2.103-2.707.377-.007.377-.674 0-.667z"/></g></symbol>
  <symbol id="icon-user-connection-glyph-36" viewBox="0 0 36 36"><g fill="#FF00A0" fill-rule="nonzero"><path d="M11.94 8.576c-2.068 2.843-2.636 6.28-3.927 9.457-.058.141.087.291.23.29a17.58 17.58 0 0 0 1.915-.104l-.239-.23c.034 1.332-.438 2.789.147 4.056.643 1.396 3.227 1.024 4.437 1.015l-.24-.23c-.007.998-.01 2.074-.47 2.993-.335.672-1.002 1.055-1.644 1.415-.85.478-2.361 1.843-.827 2.506 1.204.52 2.781.096 4.041.033 2.96-.147 5.97.134 8.935.14 1.112.002 3.42.5 3.046-1.316-.161-.785-1.007-1.491-1.59-1.989-.882-.752-1.83-1.356-2.24-2.472-.359-.977-.274-2.248-.228-3.269.062-1.394.593-2.373 1.22-3.592 1.019-1.981 1.277-4.175.599-6.296-.835-2.61-3.259-4.372-5.986-4.874-2.464-.454-5.635.532-7.179 2.467-.188.236.228.464.413.232 1.214-1.52 3.72-2.412 5.685-2.36 2.29.06 4.48 1.225 5.777 3.02 1.559 2.16 1.468 4.976.411 7.303-.423.932-1.01 1.72-1.245 2.723-.244 1.045-.219 2.154-.157 3.215.05.88.18 1.69.672 2.449.515.792 1.4 1.335 2.114 1.945a5.58 5.58 0 0 1 1.108 1.253c.314.494.087 1.122-.543 1.172-.228.018-.461.003-.69-.005a252.49 252.49 0 0 0-3.752-.095c-2.456-.047-4.95-.253-7.4-.024-.787.074-1.596.146-2.382.034-.486-.07-.989-.274-.729-.855.249-.557 1.064-.89 1.578-1.177 1.76-.98 1.927-2.778 1.942-4.576a.237.237 0 0 0-.239-.23c-1.374.01-3.783.408-4.185-1.276-.255-1.065.108-2.253.08-3.335-.003-.114-.107-.245-.24-.23-.638.073-1.272.103-1.914.105l.23.291c1.276-3.14 1.836-6.538 3.88-9.346.177-.244-.239-.474-.414-.233z"/><path d="M16.44 12.564c-.238-1.693-2.79-2.041-3.637-.447-1.082 2.038 2.805 3.143 4.273 4.009.101.06.273.018.328-.07.624-1.015 2.082-1.45 2.911-2.33.656-.697.908-1.786.109-2.496-1.55-1.378-4.218-.242-4.297 1.47l.41-.139-.166-.135c-.22-.18-.558.098-.34.277l.166.136c.153.124.402.03.41-.139.074-1.614 3.135-2.473 3.779-.684.63 1.751-2.601 2.548-3.396 3.842l.328-.07c-1.292-.762-3.022-1.216-3.952-2.327-1.305-1.558 2.292-3.043 2.595-.897.035.248.515.251.48 0z"/></g></symbol>
  <symbol id="icon-new-formats-glyph-36" viewBox="0 0 36 36"><g fill="#FF00A0" fill-rule="nonzero"><path d="M10.074 21.677c.837-.371 1.557-1.084 2.41-1.403.23-.086.132-.503-.1-.416-.856.32-1.573 1.032-2.41 1.403-.225.1-.128.517.1.416zM8.215 17.092c1.087.013 2.239.348 3.316-.017.282-.096.162-1-.118-.905-1.032.35-2.156-.003-3.198-.016-.287-.004-.287.934 0 .938zM9.972 11.908c.873.354 1.541 1.107 2.417 1.462.226.091.323-.265.101-.355-.874-.354-1.542-1.106-2.418-1.462-.225-.091-.322.265-.1.355zM12.64 7.285c.457 1.095.999 2.13 1.473 3.213.118.27.441.028.323-.242-.475-1.083-1.016-2.118-1.474-3.213-.114-.273-.436-.03-.323.242zM18.154 6.207c.009 1.09.2 2.191.016 3.28-.047.275.949.273.995 0 .184-1.089-.007-2.19-.016-3.28-.002-.276-.997-.276-.995 0zM22.41 7.035c-.526 1.044-.95 2.165-1.458 3.223-.128.266.202.508.329.243.507-1.058.931-2.18 1.457-3.223.133-.262-.197-.504-.328-.243zM27.032 11.571c-1.028.543-2.17.957-3.226 1.466-.263.126-.02.446.244.318 1.057-.508 2.198-.923 3.226-1.466.255-.134.014-.453-.244-.318zM28.1 16.227c-1.097.12-2.243-.295-3.329.106-.273.102-.157 1.004.115.904 1.043-.386 2.159.042 3.214-.073.276-.03.278-.968 0-.937zM26.375 21.344c-.791-.506-1.614-.962-2.405-1.467-.204-.13-.394.188-.19.318.79.505 1.613.961 2.403 1.466.205.131.395-.188.192-.317zM16.22 27.716c.021-1.725.455-3.566-.399-5.159-.377-.703-.904-1.309-1.275-2.023-.524-1.008-1.124-1.951-1.378-3.075-.941-4.155 3.568-7.865 7.407-5.94 1.714.859 2.766 2.977 2.706 4.85-.062 1.966-1.247 3.832-2.225 5.46-.794 1.321-.986 2.654-.862 4.17.074.906.047 1.904-.826 2.414-.999.583-2.596.142-3.176-.804-.142-.23-.503-.019-.36.213.807 1.316 2.868 1.665 4.095.72.496-.382.65-1.07.711-1.661.112-1.073-.173-2.062.063-3.146.239-1.096.926-2.02 1.465-2.981.527-.937.985-1.914 1.29-2.948.545-1.855.123-3.645-1.016-5.171-2.507-3.357-7.409-2.227-9.275 1.178-.859 1.568-.617 3.584.079 5.154.437.989.992 2.019 1.604 2.908.751 1.092 1.105 1.977 1.073 3.343-.02.833-.108 1.663-.118 2.498-.004.272.414.271.417 0z"/><path d="M14.67 24.63a19.462 19.462 0 0 0 3.327-.45c.275-.061.158-.698-.114-.637a18.83 18.83 0 0 1-3.213.426c-.277.013-.278.673 0 .66zM14.669 25.548c2.022.058 4.03-.508 6.047-.565.276-.008.277-.53 0-.521-2.017.056-4.025.622-6.047.565-.277-.008-.276.514 0 .521zM14.669 26.475c2.02-.051 4.029-.451 6.047-.56.275-.015.277-.545 0-.53-2.018.109-4.026.508-6.047.56-.276.007-.277.537 0 .53zM14.727 27.396c1.978-.3 3.997-.526 5.992-.62.272-.012.273-.48 0-.468-2.033.095-4.088.33-6.104.636-.27.041-.154.493.112.452zM18.371 28.32c1.084-.14 2.17-.271 3.257-.283.29-.003.291-.81 0-.806-1.087.011-2.173.143-3.257.283-.289.037-.29.844 0 .806zM17.233 29.253c.028.207.03.416.143.605.116.194.397.274.626.301.597.07 1.105-.297 1.074-.835-.014-.237-.435-.239-.421 0 .019.32-.226.49-.577.475-.399-.017-.387-.274-.425-.546-.032-.233-.453-.236-.42 0z"/></g></symbol>
  <symbol id="icon-chat-history-glyph-36" viewBox="0 0 36 36"><g fill="#FF00A0" fill-rule="nonzero"><path d="M6.584 12.597c.01-1.335-.475-3.031 1.158-3.822.97-.469 2.344-.307 3.419-.325 1.153-.02 2.307.013 3.46.037 1.649.035 3.603-.237 5.199.154 1.477.362 1.074 2.675 1.025 3.66-.049.97 0 1.935-.019 2.906-.01.57-.066 1.164-.332 1.694-.375.747-1.585.58-2.377.634-.908.062-1.819.094-2.728.142-.934.05-1.02.017-1.718.526-1.35.984-2.86 1.784-4.22 2.75l.454.16c-.12-1.058-.084-2.178-.058-3.242.003-.118-.123-.232-.266-.225-.783.035-1.804.046-2.538-.219-.564-.204-.355-1.37-.349-1.782.017-1.016-.172-2.031-.11-3.048.018-.29-.514-.289-.532 0-.078 1.279.085 2.591.111 3.874.012.581.046.978.612 1.345.624.404 2.076.313 2.806.28l-.266-.225c-.026 1.064-.062 2.184.058 3.241.022.202.269.29.454.16.804-.572 1.694-1.046 2.524-1.59.414-.271.823-.547 1.228-.829.292-.203.755-.706 1.163-.703 1.118.006 2.26-.09 3.374-.165.747-.05 1.68.054 2.33-.315.971-.55.914-2.007.917-2.859.004-1.358.078-2.723.045-4.08-.025-1.044-.18-2.126-1.447-2.525-.799-.251-1.77-.15-2.603-.156-1.277-.007-2.553-.012-3.83-.036-1.283-.025-2.563-.01-3.845.002-.918.008-2.02.106-2.73.66-1.296 1.008-.89 2.588-.9 3.921-.003.291.529.291.531 0z"/><path d="M14.764 18.099c.001 1.61-.004 3.22-.014 4.83-.006.975.209 1.955 1.437 2.237 1.452.333 3.211.045 4.7.07 1.018.016 1.45.645 2.208 1.128.809.516 1.562 1.089 2.378 1.598.176.11.385-.042.4-.193.09-.968.239-1.93.256-2.902l-.265.225c1.224-.005 3.384.318 4.035-.821.283-.493.214-1.123.223-1.652.017-1.03.055-2.054.042-3.083-.02-1.624-.122-3.097-2.163-3.762-.986-.322-1.987-.291-3.027-.246-1.308.056-2.628.088-3.938.098-.342.002-.342.451 0 .449 1.708-.013 3.414-.123 5.122-.134 1.12-.007 2.322.31 3.012 1.098.604.687.454 1.695.463 2.497a82.719 82.719 0 0 1-.055 3.792c-.03.86-.469 1.26-1.511 1.268-.735.005-1.468.043-2.203.047-.146 0-.263.102-.266.224-.017.972-.165 1.934-.257 2.902l.4-.194c-1.284-.803-2.407-1.768-3.663-2.587-.374-.244-.72-.19-1.19-.202-.83-.022-1.66.028-2.49.017-.685-.009-1.393.025-2.07-.07-1.132-.16-1.05-1.382-1.045-2.104.009-1.51.013-3.02.012-4.53 0-.29-.53-.29-.53 0zM12.374 11.418c.281-1.077 3.524-.133 1.572 1.158-.524.346-1.078.968-.707 1.558.166.264.644.03.478-.233-.376-.598.869-1.063 1.179-1.437.368-.445.387-1.088-.106-1.488-.739-.6-2.665-.772-2.95.32-.075.29.458.413.534.122zM13.375 15.16c-.12.139-.231.327-.14.523.075.159.238.177.378.15a.385.385 0 0 0 .287-.258c.073-.207-.103-.36-.25-.422-.18-.076-.426-.079-.526.142a.483.483 0 0 0 .142.566c.159.133.43.01.504-.18a.42.42 0 0 0-.158-.518c-.125-.076-.257-.059-.365.041-.116.107-.096.314-.052.452.041.131.153.217.28.179a.262.262 0 0 0 .158-.315.8.8 0 0 1-.022-.085c.003.039.004.045.003.019.001-.029 0-.018-.004.03-.013.067-.088.124-.117.133-.013.004-.119-.011-.073.005-.04-.02-.05-.025-.03-.013.02.014.012.007-.022-.02.017.014.038.056-.003-.012.011.023.007.012-.01-.032.006.026.005.013-.003-.037 0 .027.001.015.005-.035.018-.043.022-.052.01-.03.025-.032.029-.04.012-.02.028-.022.03-.026.009-.01-.026.015-.02.013.015-.004.042-.004.05-.005.027-.005.053 0 .068.015.094.04-.026-.026.029.056.002 0 .037.077.002-.04.012.053-.007-.065-.012.042-.003.006-.015.06-.05.087-.1.11.023-.006.017-.006-.02.001.053-.005-.05-.014.012 0l.072.02c.017.006.08.038.01.003.021.01.054.045-.006-.012a.315.315 0 0 1-.047-.14c.01-.058.012-.075.006-.051.022-.05.027-.066.016-.045.03-.042.039-.054.023-.037-.016.016-.006.007.03-.026a.184.184 0 0 1-.025.017c.074-.041.031-.015.009-.008-.07.023.048.002-.01.002-.048 0 .058.012.026.004-.02-.008-.008-.002.038.018-.019-.012-.008-.003.032.029a.257.257 0 0 1 .053.14c-.008.055-.01.07-.004.043.007-.023.003-.012-.012.032.007-.016.017-.031.026-.046-.04.062.02-.022.033-.035.206-.236-.116-.598-.322-.362z"/><path d="M18.478 20.681h.019c.343 0 .343-.547 0-.547h-.048c-.174 0-.302.175-.257.346.044.169.149.404.357.389.218-.016.311-.192.358-.389a.28.28 0 0 0-.186-.336c-.188-.064-.38-.088-.542.05-.162.137-.093.377.018.517.103.13.262.178.419.15.217-.037.288-.294.3-.483.008-.121-.087-.231-.195-.263-.225-.067-.462-.041-.551.212a.436.436 0 0 0 .01.246c.006.023.014.045.022.068.012.035.016.107.01.002.008.15.114.274.266.274.156 0 .252-.125.266-.274-.01.11-.051.162-.135.196l.036-.012a.347.347 0 0 0 .161-.1c.139-.18.074-.352-.054-.512-.092-.116-.282-.098-.377 0-.11.113-.092.27 0 .386-.011-.015-.01-.012.004.01-.012-.1-.02-.128-.024-.085l.037-.138a.264.264 0 0 1 .07-.07c.046-.019.056-.024.03-.014a1.197 1.197 0 0 0-.111.046c-.112.054-.159.177-.17.294h.533c-.004-.08-.028-.142-.05-.216l-.01-.041c.012.06.009.102-.054.179l-.087.053c-.048.005-.055.006-.023.006-.066 0 .04.011.059.017l-.196-.264c-.005.078.012-.053 0 .014a.387.387 0 0 1-.014.049.153.153 0 0 1 .105-.106c.057-.016.04-.011.096 0-.021-.005-.055-.026.028.013-.066-.03.04.046-.011-.008-.03-.032.041.06.017.023-.013-.019-.025-.058.01.032-.009-.024-.006-.06.003.04a.268.268 0 0 1-.061.145c-.008.01-.104.058-.077.05-.081.023-.038.005-.004.008-.078-.006-.012 0 .006.003.033.008.066.02.098.03l-.186-.335a1.142 1.142 0 0 1-.028.1c.004-.014.048-.063.017-.039l.118-.07c.096-.041.2.02.234.1-.012-.03-.02-.06-.028-.091l-.257.345h.048c.343 0 .343-.546 0-.546h-.019c-.344 0-.344.546 0 .546zM22.034 20.282c-.048.214-.062.383.106.556.122.125.374.097.457-.055.106-.194.096-.415-.062-.583-.101-.107-.264-.109-.393-.056-.11.045-.168.166-.202.266-.076.217.08.435.322.45.258.015.368-.254.374-.448.006-.149-.136-.27-.29-.271-.108-.001-.204-.004-.303.044-.121.059-.158.19-.197.301-.06.17.099.342.28.344.103 0 .224.014.315-.043.102-.063.136-.141.187-.238.063-.12.048-.309-.104-.371-.104-.042-.198-.074-.31-.043a.317.317 0 0 0-.148.087.375.375 0 0 0-.054.067c-.025.038-.005.02.062-.053-.132.082-.188.238-.105.372.077.122.266.18.398.097a.465.465 0 0 0 .085-.063.707.707 0 0 0 .055-.067c.06-.09-.033-.066-.277.071l-.104-.37c-.021.04-.038.082-.062.121a.239.239 0 0 1 .2-.109h-.033l-.105-.001.28.343.025-.072c.019-.053-.041.056-.044.059l-.102.057c-.058.006-.07.008-.036.008l.096.001-.29-.27c-.002.037-.002.04.001.01l-.006.023a.158.158 0 0 1 .086-.099c.188-.127.397.068.364.207a.884.884 0 0 0-.011.02c.03-.05.013-.037-.053.039l-.147.037c-.129.001-.19-.054-.201-.138.006.052-.003.015.006-.003l.457-.055c.016.017.02.1.024.045-.003.06.017-.061.02-.073a.274.274 0 0 0-.204-.334c-.145-.037-.325.045-.357.19zM25.344 20.39c-.11.222.052.484.28.452.1-.015.208-.052.254-.163a.513.513 0 0 0-.022-.402.278.278 0 0 0-.245-.167c-.116 0-.196.078-.26.177a.567.567 0 0 0-.1.278c.007.173.076.272.22.338.078.036.201-.004.254-.073.074-.097.183-.21.168-.35-.02-.186-.127-.246-.249-.348-.167-.142-.385.054-.392.247-.007.186.027.37.176.479.152.11.344.013.434-.137a.408.408 0 0 0-.034-.46c-.12-.146-.31-.134-.469-.096-.102.024-.205.157-.191.276.028.244.135.45.378.472a.444.444 0 0 0 .367-.17c.067-.09.108-.197.076-.316a.509.509 0 0 0-.235-.302c-.261-.125-.476.081-.52.364-.02.116.007.27.119.324.094.045.177.076.28.045a.31.31 0 0 0 .136-.092c.048-.053-.038.01.016-.015.13-.062.159-.27.093-.392-.078-.147-.226-.166-.357-.103a.313.313 0 0 0-.089.066c-.103.106.083-.053.184-.005l.12.324c0 .004.026-.105.006-.057-.033.083-.187.093-.248.033-.083-.081-.005-.205.043-.27-.039.052.041-.028.003-.002-.045.03.06-.022.009-.003s.064-.002.011-.001c.043-.001.074.019.105.048a.118.118 0 0 1 .03.057c-.006-.03-.008-.032-.005-.005l-.192.277c.034-.007.035-.008.004-.004a.322.322 0 0 1 .039-.003c.03.002.023 0-.022-.005.027.009.017.004-.029-.015-.064-.035-.087-.113-.093-.185 0 .029.002.013.006-.049-.007.044.033-.071.013-.033.034-.044.042-.057.026-.036-.019.019-.008.01.034-.029.08-.056.189-.03.256.037.02.02.054.129.038.054.005.044.006.048.003.013-.001-.028 0-.056.001-.083l-.392.247c.021.019.043.036.066.053.062.046 0 .027-.04-.055-.013-.048-.024-.097-.036-.145a.193.193 0 0 1 .046-.137l-.061.081.254-.074a.415.415 0 0 0-.02-.009l.182.2.001.024-.036.145.042-.09c.048-.102.028.021-.099.054h-.138l.007.003-.116-.074c-.043-.097-.058-.118-.043-.061.005.023.008.045.011.068l.026-.22-.004.008.094-.102.091-.026c.042.012.051.013.029.004l.156.131-.004-.006v.29l.004-.01c.16-.326-.29-.615-.45-.29z"/></g></symbol>
  <symbol id="icon-dsgvo-glyph-36" viewBox="0 0 36 36"><g fill="#FF00A0" fill-rule="nonzero"><path d="M12.562 9.123c-.03-.436-.055-.872 0-1.307l-.359.206c.297.207.561.419.808.683.075.08.196.086.289.038.414-.218.803-.454 1.25-.607l-.293-.293c-.069.459-.197.86-.335 1.295-.142.45.597 1.025.81 1.366l.141-.35c-.425.084-.86.03-1.288-.008-.08-.007-.168.05-.205.118-.191.35-.368.703-.586 1.036h.41c-.213-.387-.365-.742-.417-1.186-.02-.167-.136-.252-.301-.23-.397.055-.793-.068-1.18-.135l.057.435c.385-.257.704-.589 1.081-.856.248-.175.011-.588-.24-.41-.378.266-.697.598-1.081.855-.155.104-.163.397.056.435.484.084.942.203 1.433.136l-.301-.23c.062.53.226.961.483 1.427.09.163.316.144.41 0 .117-.178.394-.917.631-.897.393.035.777.046 1.165-.03.15-.03.22-.226.142-.35a6.263 6.263 0 0 0-.446-.644 8.976 8.976 0 0 0-.237-.286c-.146-.173-.095-.015-.05-.157.128-.406.243-.78.306-1.207.025-.163-.102-.358-.292-.293-.487.167-.91.417-1.363.655l.288.037a5.49 5.49 0 0 0-.904-.758c-.165-.115-.338.046-.358.206-.055.435-.03.87 0 1.306.02.304.496.306.476 0zM18.031 7.477c.19-.369.38-.743.638-1.07l-.373-.049c.147.333.26.647.336 1.003.022.107.128.169.23.175.466.026.92.03 1.38.127l-.105-.398c-.318.383-.681.666-1.03 1.01-.097.095-.066.223-.046.343.063.39.106.774.111 1.169l.302-.23c-.408-.148-.754-.421-1.1-.674-.067-.05-.172-.04-.24 0-.344.2-.678.412-1.037.584l.358.205c.017-.44.073-.82.257-1.23.048-.107.043-.271-.085-.326-.393-.17-.682-.478-1-.754l-.17.406c.464-.021.908-.14 1.369-.173.304-.022.306-.498 0-.476-.46.033-.907.152-1.368.173-.192.01-.335.262-.168.407.348.302.667.643 1.096.828l-.085-.326c-.219.489-.301.937-.322 1.472-.008.193.205.279.358.205.195-.094.804-.579 1-.436.318.232.64.44 1.01.574.147.053.304-.083.302-.23-.003-.23-.213-1.178-.048-1.321a7.25 7.25 0 0 0 .873-.864c.106-.127.085-.357-.105-.397-.504-.107-.995-.115-1.507-.144l.23.174a5.49 5.49 0 0 0-.385-1.116c-.058-.131-.284-.161-.374-.048-.285.361-.502.758-.712 1.166-.142.273.27.514.41.24zM23.486 8.823c.346-.229.694-.464 1.078-.623l-.301-.23a4.94 4.94 0 0 1-.193 1.037c-.033.105.02.213.109.27.396.252.791.47 1.147.784l.105-.398c-.464.18-.919.25-1.391.38-.336.092-.536 1.083-.68 1.35l.374-.05c-.284-.328-.453-.734-.633-1.125-.033-.073-.128-.119-.205-.117-.398.007-.792.029-1.19.005l.206.358c.23-.38.463-.687.825-.954.094-.069.17-.215.085-.325-.26-.34-.362-.749-.506-1.145l-.35.269c.415.206.861.319 1.28.514.276.13.518-.281.24-.41-.418-.196-.865-.309-1.28-.515-.17-.085-.426.056-.349.269.157.433.27.887.554 1.258l.086-.326c-.429.315-.721.672-.996 1.125-.1.162.03.347.205.358.215.013.989-.114 1.09.105.164.357.344.696.602.994.099.114.304.08.373-.049.082-.15.47-1.151.506-1.16.435-.12.851-.183 1.28-.35.155-.059.253-.268.106-.397-.385-.34-.813-.585-1.244-.86l.11.27c.12-.39.173-.76.21-1.165.013-.143-.164-.286-.301-.23-.425.177-.809.418-1.192.672-.254.169-.016.581.24.411zM27.563 12.63c.435-.047.87-.09 1.306-.053l-.206-.358a4.956 4.956 0 0 1-.648.836.24.24 0 0 0-.037.289c.235.406.488.782.66 1.222l.229-.301c-.477-.052-.887-.198-1.347-.295-.341-.072-.998.72-1.23.878l.349.142c-.101-.423-.067-.857-.046-1.287a.233.233 0 0 0-.118-.205c-.357-.177-.717-.338-1.06-.543v.41c.396-.24.77-.406 1.23-.478.137-.022.188-.177.167-.293-.074-.416.036-.836.09-1.248l-.443.12c.273.375.618.68.9 1.046.183.24.597.003.41-.24-.281-.366-.626-.672-.899-1.046-.147-.2-.412-.117-.443.12-.061.465-.157.907-.074 1.374l.166-.293c-.506.08-.908.263-1.343.528a.24.24 0 0 0 0 .41c.172.104.94.364.929.59-.019.392-.017.78.075 1.162.034.143.224.228.35.142.217-.148.424-.303.626-.47.094-.08.187-.164.277-.248.162-.149.011-.104.152-.066.43.117.834.218 1.282.266.145.016.282-.165.23-.301-.187-.479-.452-.894-.708-1.337l-.037.289c.285-.289.504-.592.722-.933.105-.163-.036-.344-.205-.358-.437-.037-.87.006-1.305.053-.302.032-.306.509 0 .476zM29.333 18.167c.368.192.741.383 1.067.643l.048-.374a4.929 4.929 0 0 1-1.003.332c-.108.022-.17.128-.175.23-.029.465-.034.92-.133 1.38l.398-.105c-.382-.32-.663-.684-1.005-1.035-.236-.242-1.223.058-1.514.06l.23.302c.15-.407.425-.752.679-1.098.05-.067.039-.172 0-.24-.199-.345-.409-.68-.58-1.04l-.206.359c.453.02.813.074 1.23.262.107.048.27.042.326-.085.17-.392.48-.68.757-.997l-.406-.169c.02.464.137.907.169 1.369.02.305.497.306.476 0-.032-.46-.149-.907-.169-1.369-.008-.193-.261-.334-.406-.168-.303.347-.646.665-.832 1.093l.325-.085c-.484-.22-.94-.304-1.47-.327-.194-.009-.278.205-.205.358.093.197.575.805.43 1.001-.233.317-.44.639-.577 1.009-.054.146.084.302.23.301.231-.002 1.178-.208 1.321-.042.274.319.534.604.86.877.128.106.357.084.398-.106.109-.503.119-.994.15-1.506l-.175.229a5.528 5.528 0 0 0 1.118-.38c.132-.058.16-.284.048-.374-.36-.286-.757-.505-1.164-.717-.272-.14-.513.27-.24.412zM28.121 23.554c.25.36.495.72.672 1.12l.205-.357a4.934 4.934 0 0 1-1.041-.17.24.24 0 0 0-.269.11c-.244.4-.454.802-.759 1.164l.398.105c-.19-.46-.269-.914-.41-1.383-.095-.32-1.122-.53-1.36-.653l.048.374c.323-.291.724-.47 1.111-.658a.233.233 0 0 0 .118-.205c-.016-.398-.046-.792-.03-1.19l-.358.206c.383.222.699.447.972.803.1.13.244.153.374.048.314-.252.716-.352 1.085-.494l-.269-.35c-.197.42-.3.867-.487 1.29-.122.278.288.52.411.24.187-.422.29-.871.487-1.29.079-.167-.053-.433-.269-.35-.455.177-.91.308-1.295.618l.374.048c-.324-.422-.685-.708-1.143-.974-.161-.093-.351.027-.359.205-.008.21.134.992-.077 1.094-.353.172-.69.36-.981.623-.11.099-.085.305.048.373.172.089 1.166.449 1.175.478.129.433.2.848.376 1.274.061.148.27.257.398.105.33-.392.568-.825.833-1.261l-.268.11c.391.112.763.157 1.168.186.198.014.271-.209.205-.358-.177-.402-.422-.762-.671-1.121-.174-.25-.587-.013-.412.24zM24.132 27.834c.044.435.086.87.047 1.306l.358-.206a4.952 4.952 0 0 1-.834-.651.24.24 0 0 0-.288-.037c-.407.233-.784.484-1.225.654l.301.229c.053-.477.202-.886.3-1.345.073-.34-.717-1.002-.874-1.235l-.142.35c.424-.1.858-.063 1.288-.041a.233.233 0 0 0 .205-.118c.178-.356.341-.716.547-1.056h-.41c.238.396.403.77.473 1.232.021.137.178.186.293.166.397-.07.792.034 1.184.087l-.057-.435c-.375.272-.682.615-1.049.895-.24.184-.004.597.24.411.368-.28.675-.624 1.05-.895.143-.103.171-.404-.057-.435-.484-.065-.95-.172-1.437-.087l.292.166c-.077-.506-.259-.909-.522-1.345a.24.24 0 0 0-.41 0c-.105.173-.367.937-.593.925-.393-.02-.78-.019-1.163.071-.144.034-.227.224-.142.35.147.218.301.425.467.628.081.095.163.187.248.278.148.163.103.012.064.152-.119.43-.22.833-.27 1.281-.017.147.165.282.3.23.48-.184.896-.448 1.34-.702l-.29-.037c.289.286.591.506.93.726.165.106.344-.038.359-.206.039-.437-.003-.87-.047-1.305-.032-.303-.508-.306-.476 0zM18.695 29.525c-.157.388-.317.768-.545 1.12h.411a4.944 4.944 0 0 1-.433-.965c-.03-.1-.121-.179-.23-.175-.49.016-.96.059-1.45 0l.205.358c.271-.396.592-.694.896-1.053.224-.266-.16-1.204-.19-1.494l-.301.23c.42.11.789.342 1.16.563.067.04.173.048.24 0 .323-.231.636-.473.978-.678l-.358-.205c.025.464-.003.862-.155 1.309-.043.126.049.254.167.292.403.131.721.424 1.06.666l.057-.435c-.459.065-.89.225-1.346.3-.302.051-.173.51.127.46.456-.076.887-.236 1.345-.3.228-.033.202-.332.057-.436-.378-.27-.725-.568-1.174-.714l.166.293c.165-.485.199-.924.172-1.435-.01-.176-.197-.303-.359-.206-.164.099-.77.658-.953.55-.337-.2-.678-.384-1.058-.484-.137-.035-.318.072-.301.23.028.263.065.518.117.777.048.237.174.431.07.54a7.617 7.617 0 0 0-.827.99c-.114.165.043.338.205.358.49.059.96.016 1.45 0l-.229-.175c.12.388.283.725.481 1.078.091.163.317.146.411 0 .25-.384.422-.808.593-1.232.115-.285-.346-.408-.46-.127zM13.303 28.299c-.359.25-.718.497-1.118.676l.358.206c.024-.36.066-.695.165-1.043a.24.24 0 0 0-.11-.268c-.402-.243-.804-.45-1.167-.754l-.105.398c.46-.192.912-.273 1.38-.415.323-.098.526-1.123.648-1.363l-.374.048c.293.322.473.722.663 1.108a.233.233 0 0 0 .205.118c.398-.018.792-.05 1.19-.036l-.206-.358c-.23.402-.477.727-.847 1.014-.11.085-.073.246 0 .337.254.313.356.713.5 1.082l.35-.269c-.42-.196-.87-.297-1.292-.481-.279-.122-.521.288-.24.41.423.185.872.287 1.291.482.167.078.434-.053.35-.268-.178-.454-.311-.91-.622-1.293v.337c.405-.314.668-.67.921-1.11.093-.161-.026-.352-.205-.359-.208-.007-.992.138-1.095-.072-.173-.352-.362-.687-.626-.978-.1-.11-.306-.086-.374.048-.087.17-.444 1.169-.472 1.177-.432.131-.847.205-1.272.382-.147.061-.259.27-.105.398.393.329.826.564 1.264.828l-.11-.269c-.11.392-.154.764-.181 1.169-.013.198.208.273.358.205.4-.178.76-.425 1.118-.676.25-.175.012-.588-.24-.411zM9.058 24.396c-.435.042-.869.08-1.305.038l.205.359c.198-.303.4-.574.658-.83a.24.24 0 0 0 .037-.288c-.23-.409-.479-.788-.645-1.23l-.23.301c.476.057.885.209 1.344.31.336.075 1.008-.713 1.24-.866l-.35-.142c.096.423.056.858.032 1.287a.233.233 0 0 0 .118.206c.354.18.713.346 1.053.554v-.41c-.399.235-.774.397-1.236.465-.138.02-.185.177-.166.292.066.397-.041.792-.097 1.184l.435-.057c-.269-.377-.61-.686-.887-1.056-.182-.242-.596-.005-.411.24.277.37.619.68.887 1.056.104.145.403.17.435-.057.069-.483.178-.948.097-1.436l-.167.292c.508-.074.911-.253 1.35-.513a.24.24 0 0 0 0-.41c-.174-.107-.934-.372-.92-.6.022-.393.023-.78-.064-1.163-.033-.145-.225-.226-.35-.143-.22.146-.426.299-.631.464a9.27 9.27 0 0 0-.28.245c-.164.148-.012.102-.153.062a8.059 8.059 0 0 0-1.279-.28c-.146-.017-.28.167-.229.302.18.48.442.898.693 1.343l.037-.288c-.289.286-.51.587-.732.925-.108.164.039.342.206.358.436.042.87.004 1.305-.038.303-.03.306-.506 0-.476zM7.483 18.92c-.37-.186-.747-.372-1.076-.626l-.048.374c.331-.151.642-.269.998-.347.106-.024.17-.128.175-.23.022-.47.02-.918.112-1.382l-.398.105c.387.314.673.674 1.02 1.02.098.098.222.062.343.044.392-.056.772-.115 1.169-.124l-.23-.301c-.144.41-.413.758-.663 1.107-.048.067-.04.172 0 .24.204.342.419.673.595 1.03l.206-.357c-.441-.013-.821-.063-1.234-.243-.154-.067-.286-.01-.35.142-.155.37-.463.65-.719.951l.407.169c-.027-.463-.15-.906-.188-1.366-.025-.304-.501-.306-.476 0 .038.46.161.903.188 1.366.01.19.261.338.406.168.316-.372.65-.705.841-1.162l-.35.143c.492.214.94.292 1.475.308.191.005.281-.204.205-.358-.094-.192-.587-.8-.449-.995.23-.32.434-.645.565-1.017.052-.145-.082-.305-.23-.301-.179.004-1.234.16-1.255.138-.32-.319-.582-.649-.94-.94-.126-.102-.358-.086-.397.106-.1.503-.105.998-.129 1.509l.175-.23a5.497 5.497 0 0 0-1.113.395c-.129.06-.163.285-.048.374.364.281.763.494 1.173.701.274.138.515-.272.24-.41zM8.782 13.395c-.223-.35-.45-.702-.602-1.09l-.23.3c.362.041.688.1 1.034.215.105.035.211-.024.268-.11.26-.39.489-.782.808-1.13l-.398-.105c.17.467.232.923.353 1.398.083.33 1.08.557 1.339.703l-.048-.374c-.334.277-.746.438-1.139.61-.074.033-.118.13-.118.206 0 .398.015.793-.017 1.19l.358-.205c-.375-.239-.676-.479-.936-.846-.068-.097-.215-.167-.326-.085-.344.254-.756.347-1.154.483l.269.35c.214-.41.335-.855.539-1.27.134-.274-.276-.516-.411-.24-.204.415-.325.858-.54 1.27-.09.172.06.42.27.349.436-.149.891-.254 1.268-.531l-.326-.086c.307.435.66.733 1.107 1.016.163.104.344-.035.358-.205.017-.22-.097-.986.13-1.085.361-.158.7-.332 1.004-.584.119-.099.077-.303-.048-.374-.155-.087-1.138-.488-1.149-.53-.11-.437-.166-.854-.324-1.287-.058-.158-.268-.247-.398-.105-.346.38-.598.802-.882 1.228l.27-.11a5.52 5.52 0 0 0-1.16-.23c-.146-.017-.283.165-.23.3.168.43.403.817.65 1.204.164.258.576.02.41-.24zM17.193 16.439c.115-.798-.285-1.975.536-2.494.528-.333 1.311-.24 1.555.369.254.637.15 1.442.1 2.107l.237-.238c-.886-.07-1.77-.048-2.658-.046-.307.001-.307.477 0 .476.889-.002 1.772-.023 2.658.046.137.01.23-.117.238-.238.061-.817.144-1.725-.226-2.485-.306-.628-1.02-.69-1.629-.59-.647.106-1.07.596-1.213 1.21-.135.583.027 1.174-.057 1.756-.043.3.415.43.459.127z"/><path d="M15.4 16.781c-.017-1.053-.136-2.037.333-3.02.492-1.027 1.446-1.727 2.582-1.832.925-.086 1.833.294 2.465.956.963 1.008.807 2.66.856 3.94.005.143.105.222.238.239 1.685.216 1.147 2.607 1.1 3.803-.036.894.283 2.578-.93 2.738-1.127.15-2.4.086-3.537.044-1.121-.04-2.252-.004-3.373.025-.407.01-.864.047-1.11-.34-.252-.395-.276-1.008-.333-1.458-.086-.67-.078-1.34-.058-2.012.02-.65-.01-1.335.121-1.973.14-.676.831-.829 1.407-.872.305-.023.307-.499 0-.476-.988.074-1.705.442-1.917 1.469-.231 1.124-.163 2.533-.05 3.682.075.76.108 1.888.86 2.314.368.209.907.146 1.307.136a85.039 85.039 0 0 1 2.831-.025c.805.007 1.606.006 2.41-.012.681-.014 1.444.088 2.085-.181.951-.4.725-1.96.751-2.753.054-1.624.662-4.3-1.565-4.585l.239.238c-.058-1.511.007-3.044-.996-4.278-.664-.817-1.792-1.12-2.802-1.095-1.178.027-2.138.763-2.779 1.698-.762 1.112-.632 2.352-.612 3.63.006.307.482.307.477 0z"/><path d="M17.717 20.082c-.52-.584-2.15-1.445-2.121.007.016.854 1.422 1.888 2.058 2.303.093.06.211.032.289-.037.776-.695 1.538-1.408 2.22-2.198.394-.454 1.035-1.16.757-1.807-.61-1.419-3.123 1.389-3.494 1.822l.374.048-.045-.09c-.138-.275-.548-.034-.411.24l.045.09c.065.131.277.16.373.048.504-.588 1.04-1.157 1.665-1.62.279-.207 1.37-.714.992.094-.233.499-.654.92-1.023 1.32a21.9 21.9 0 0 1-1.069 1.059c-.17.161-.345.319-.52.477-.15.09-.143.124.02.1a4.593 4.593 0 0 1-.268-.219 14.162 14.162 0 0 1-1.004-.955 3.506 3.506 0 0 1-.437-.523c.037-.547.263-.666.678-.357.226.145.42.323.585.534.205.23.54-.108.336-.336z"/></g></symbol>
  <symbol id="icon-data-protection-glyph-36" viewBox="0 0 36 36"><g fill="#FF00A0" fill-rule="nonzero"><path d="M9 13.733c.135 5.366 1.793 10.806 6.02 14.358.824.691 1.95 1.608 3.001 1.897.337.093.84-.374 1.1-.534.59-.363 1.14-.791 1.672-1.232 2.066-1.71 3.632-4.006 4.756-6.421 1-2.151 1.61-4.508 1.682-6.882.03-1.038.012-1.269-.89-1.753-.908-.49-1.927-.773-2.926-1.004-4.248-.98-9.737-1.024-13.711.982a6.416 6.416 0 0 0-.554.326c-.328.21-.024.736.307.525 3.421-2.188 8.51-2.06 12.37-1.51.99.141 4.748.625 4.795 1.896.08 2.15-.475 4.304-1.248 6.292-.899 2.315-2.297 4.441-4.029 6.214a14.62 14.62 0 0 1-2.815 2.217c-.922.567-2.649-1.08-3.333-1.656-3.979-3.342-5.464-8.705-5.59-13.716-.01-.39-.617-.391-.607 0zM13.504 10.59c-.34-2.576 1.85-3.913 4.17-3.976 2.419-.067 4.212 1.576 4.272 3.976.01.391.617.392.607 0-.067-2.694-1.948-4.393-4.577-4.577-2.724-.19-5.467 1.642-5.08 4.577.05.383.659.388.608 0z"/><path d="M14.08 21.703c1.117.11 2.283-.148 2.87-1.189.451-.796.315-1.833-.164-2.579-.55-.856-1.542-1.133-2.5-.934-.689.143-.638.762-.63 1.359.013 1.014.107 2.026.12 3.04.005.391.613.392.607 0-.007-.55-.048-1.098-.074-1.646-.033-.708-.182-1.56.044-2.237-.067.202.245.035.42.02.217-.021.43.01.64.068.348.095.642.348.848.637.403.562.47 1.348.166 1.966-.429.872-1.494.972-2.347.888-.39-.038-.386.57 0 .607zM21.37 16.697c-.795.076-1.521.003-2.307-.115-.176-.026-.407.076-.385.293.143 1.417.126 2.85.126 4.273 0 .129.092.266.223.293.837.172 1.62.147 2.469.137.391-.005.391-.612 0-.608-.795.01-1.521.047-2.308-.115l.223.293c0-1.422.017-2.856-.125-4.273l-.385.293c.841.126 1.615.218 2.469.136.386-.037.39-.644 0-.607z"/><path d="M19.152 19.304a6.747 6.747 0 0 0 2.173 0c.386-.06.221-.646-.162-.585-.624.099-1.225.099-1.85 0-.382-.061-.546.524-.16.585z"/></g></symbol>
  <symbol id="icon-support-glyph-36" viewBox="0 0 36 36"><g fill="#FF00A0" fill-rule="nonzero"><path d="M17.81 6c-4.737.136-9.519 3.167-11.257 7.637-.992 2.551-.489 5.467.26 8.007.653 2.217 2.164 4.26 4.019 5.622 3.66 2.687 8.579 2.862 12.646.997 4.603-2.112 6.689-7.264 5.984-12.121-.42-2.89-1.476-5.146-3.69-7.088C23.59 7.14 20.712 6.01 17.81 6c-.343-.001-.343.532 0 .533 3.023.01 5.85 1.285 8.054 3.319 2.236 2.063 3.051 4.794 3.197 7.766.146 2.964-.884 6.053-2.966 8.185-1.764 1.806-4.263 2.773-6.73 3.082-5.557.696-10.747-2.592-12.224-8.043-.86-3.178-.86-6.307 1.014-9.122 1.56-2.341 4.178-3.947 6.829-4.746.918-.277 1.87-.413 2.826-.44.343-.01.344-.544 0-.534z"/><path d="M17.817 11.411c-3.288.143-6.275 2.707-6.074 6.127.2 3.404 2.714 5.978 6.137 6.02 3.26.038 5.682-2.26 6.013-5.445.377-3.628-2.492-6.63-6.076-6.702-.344-.007-.343.526 0 .533 1.516.03 2.858.631 3.979 1.639 1.204 1.084 1.566 2.616 1.58 4.182.03 3.15-2.535 5.176-5.496 5.26-2.981.083-4.977-2.12-5.523-4.877-.663-3.355 2.247-6.065 5.46-6.204.342-.015.343-.548 0-.533z"/><path d="M7.712 12.244c1.332 1.278 3.033 2.088 4.36 3.374.246.239.623-.138.376-.377-1.327-1.286-3.028-2.097-4.359-3.374-.248-.238-.625.139-.377.377zM12.259 8.04c.833 1.46 2.006 2.689 2.84 4.15.17.299.63.03.46-.269-.835-1.461-2.007-2.69-2.84-4.15-.17-.3-.631-.03-.46.268zM19.76 12.213c1.533-1.123 2.59-2.707 3.985-3.974.255-.231-.122-.607-.376-.377-1.36 1.234-2.386 2.798-3.879 3.89-.274.201-.008.664.27.46zM23.716 15.914c.711-.57 1.515-.984 2.194-1.6.661-.6 1.246-1.294 2.078-1.665.313-.139.042-.598-.269-.46-.787.35-1.385.983-1.998 1.57-.725.698-1.603 1.153-2.381 1.778-.268.216.111.59.376.377zM19.727 23.24c1.34 1.352 2.59 2.796 3.527 4.46.169.3.63.032.46-.268-.958-1.703-2.24-3.186-3.61-4.569-.242-.244-.618.133-.377.377zM23.15 20.109c1.367 1.358 3.337 1.814 4.733 3.13.25.236.627-.14.377-.376-1.398-1.318-3.371-1.778-4.733-3.131-.244-.243-.62.134-.377.377zM12.3 19.732c-1.516 1.241-2.935 2.597-4.433 3.859-.263.221.115.596.377.377 1.498-1.262 2.917-2.618 4.433-3.86.266-.217-.113-.592-.377-.376zM15.65 23.009c-1.251 1.505-2.138 3.276-3.35 4.805-.21.266.164.646.377.377 1.212-1.53 2.099-3.3 3.35-4.805.217-.263-.157-.642-.377-.377z"/><path d="M8.303 12.054c.04-.118.064-.24.073-.365h-.513c.106.328.238.628.39.938.113.23.526.129.497-.135-.034-.299-.017-.573 0-.874l-.497.135c.196.383.334.774.484 1.174.12.324.57.197.513-.142-.09-.535-.21-1.064-.291-1.601l-.487.205c.263.575.466 1.172.728 1.747.133.29.542.074.487-.205-.144-.73-.33-1.449-.427-2.187l-.523.071c.29.86.602 1.71.946 2.55.13.315.575.2.514-.142a38.976 38.976 0 0 0-.583-2.622l-.514.142c.354.941.666 1.898 1.02 2.84.122.324.568.196.514-.142-.165-1.04-.425-2.051-.729-3.059l-.513.142c.357 1.023.68 2.056 1.092 3.058.129.313.584.203.514-.141-.252-1.238-.641-2.437-1.02-3.641l-.513.141c.58 1.376.9 2.84 1.456 4.224.126.314.584.2.514-.142-.313-1.524-.839-2.993-1.165-4.515l-.514.142c.647 1.786 1.054 3.648 1.847 5.38.136.296.532.069.487-.205-.311-1.892-.739-3.752-1.456-5.535-.125-.31-.627-.19-.514.142.573 1.68 1.033 3.398 1.775 5.015.135.295.533.07.486-.205-.313-1.858-1.165-3.549-1.602-5.374l-.513.141a75.315 75.315 0 0 1 1.82 4.865c.11.328.577.194.514-.142-.319-1.705-.864-3.35-1.31-5.024l-.515.141a80.982 80.982 0 0 1 1.53 4.88c.077.28.558.234.523-.072-.189-1.643-.78-3.188-1.102-4.804l-.487.206c.726 1.47 1.033 3.083 1.648 4.596.103.253.56.254.523-.07-.184-1.678-.78-3.246-1.174-4.877l-.487.205c.539 1.203.859 2.479 1.284 3.723.11.322.61.191.513-.142-.384-1.337-.859-2.645-1.165-4.005l-.514.142a62.21 62.21 0 0 0 1.702 3.704c.14.282.55.078.487-.205-.244-1.1-.638-2.146-1.02-3.204l-.513.142c.428 1.185.752 2.404 1.238 3.568.107.256.537.255.523-.071-.036-.853-.224-1.652-.447-2.474l-.513.142c.278.825.47 1.67.828 2.466.112.251.497.115.496-.134a9.617 9.617 0 0 0-.073-1.238l-.523.07c.124.413.224.83.364 1.239.095.278.523.24.523-.071v-.655l-.496.134.218.437c.129.257.476.107.496-.135l.037-.23c.186-.29-.276-.557-.46-.268-.095.15-.095.327-.11.498l.497-.134-.218-.437c-.122-.244-.497-.12-.497.135v.655l.524-.071c-.14-.408-.24-.826-.364-1.238-.083-.277-.564-.237-.523.07.054.415.07.82.072 1.239l.497-.135c-.338-.753-.512-1.56-.775-2.34-.109-.322-.604-.192-.513.143.208.772.393 1.528.427 2.332l.524-.071c-.486-1.164-.81-2.383-1.239-3.568-.115-.32-.63-.182-.513.142.382 1.057.776 2.104 1.02 3.204l.486-.206A60.208 60.208 0 0 1 12.38 8.49c-.129-.31-.591-.203-.514.142.307 1.359.781 2.667 1.166 4.005l.513-.142c-.44-1.289-.78-2.604-1.337-3.85-.128-.286-.555-.077-.487.205.382 1.583.976 3.108 1.156 4.735l.523-.071c-.633-1.556-.955-3.212-1.702-4.724-.141-.286-.542-.076-.487.205.312 1.567.9 3.07 1.083 4.663l.523-.071a80.924 80.924 0 0 0-1.529-4.88c-.11-.321-.603-.193-.514.142.447 1.674.993 3.32 1.311 5.025l.514-.142a75.143 75.143 0 0 0-1.82-4.864c-.129-.31-.597-.202-.514.141.436 1.826 1.288 3.517 1.602 5.375l.486-.206c-.722-1.574-1.163-3.252-1.72-4.888l-.514.142c.718 1.782 1.145 3.643 1.456 5.535l.487-.206c-.773-1.689-1.162-3.511-1.793-5.252-.117-.321-.587-.197-.514.141.327 1.522.852 2.99 1.165 4.515l.514-.141c-.556-1.385-.877-2.848-1.457-4.224-.128-.306-.62-.196-.513.142.378 1.203.768 2.402 1.02 3.64l.513-.14c-.413-1.003-.735-2.036-1.093-3.06-.112-.32-.613-.19-.513.142.303 1.008.563 2.019.728 3.059l.514-.142c-.354-.941-.666-1.898-1.02-2.84-.119-.316-.598-.197-.514.142.218.87.426 1.739.583 2.622l.514-.142a42.944 42.944 0 0 1-.947-2.549c-.09-.268-.564-.242-.523.071.103.786.293 1.551.446 2.328l.487-.205c-.262-.575-.465-1.173-.728-1.747-.136-.299-.528-.067-.487.205.081.537.202 1.066.292 1.602l.513-.142c-.165-.443-.32-.88-.537-1.301-.128-.25-.482-.114-.496.134-.017.3-.033.575 0 .874l.496-.135a4.486 4.486 0 0 1-.337-.81c-.073-.228-.47-.28-.513 0a1.48 1.48 0 0 1-.073.364c-.095.332.42.472.513.143zM20.437 12.044l.177-.237-.418-.054c.089.112.162.233.218.364.1.19.454.168.487-.063l.073-.51h-.514l.218.655c.1.299.491.223.524-.07l.073-.656-.524.071c.094.244.197.484.292.728.104.269.523.248.523-.07v-1.166l-.523.07c.179.485.312.98.51 1.457.104.251.558.256.523-.07a22.867 22.867 0 0 1-.146-2.112l-.523.07c.201.893.307 1.802.51 2.695.066.295.529.228.523-.071-.02-.876-.127-1.746-.146-2.621h-.533c.154 1.328.357 2.646.738 3.93.084.284.53.235.523-.071-.03-1.444-.34-2.857-.437-4.296l-.523.07c.239 1.703.66 3.364 1.092 5.025.088.335.58.192.514-.142-.352-1.785-.636-3.577-.791-5.39l-.524.07c.426 1.917.665 3.872 1.238 5.753.085.278.549.24.523-.07-.168-2.029-.632-4.016-.8-6.044l-.524.07c.36 1.876.726 3.75 1.165 5.608.07.294.53.229.524-.07-.048-1.908-.691-3.718-.874-5.608l-.524.07c.621 1.548.822 3.2 1.239 4.807.086.334.585.192.513-.142a66.192 66.192 0 0 1-.937-5.405l-.523.07c.741 1.821.869 3.825 1.701 5.613.14.3.524.065.487-.205a51.635 51.635 0 0 0-1.165-5.855l-.514.142c.635 1.684.82 3.494 1.384 5.199.11.333.565.192.514-.142-.239-1.545-.644-3.055-.947-4.587l-.513.141c.499 1.414.811 2.883 1.31 4.297.096.27.538.245.523-.071-.058-1.244-.535-2.405-.655-3.641l-.496.134c.568 1.153.792 2.422 1.138 3.65.094.333.583.193.514-.141-.221-1.066-.475-2.12-.573-3.206l-.497.134c.409.924.686 1.854.848 2.85.048.3.531.224.523-.071-.022-.755-.124-1.503-.146-2.258l-.523.071c.193.598.299 1.21.437 1.82.067.298.523.226.523-.07v-1.384l-.523.071c.13.383.213.768.29 1.165.05.252.471.26.514 0 .025-.145.05-.291.073-.437h-.513c.067.191.11.383.145.583.06.337.573.194.514-.142a3.63 3.63 0 0 0-.146-.583c-.078-.224-.466-.282-.513 0-.025.146-.05.292-.073.438h.513a8.863 8.863 0 0 0-.29-1.166c-.095-.278-.524-.24-.524.071v1.384l.523-.071c-.137-.612-.244-1.223-.437-1.82-.09-.28-.532-.24-.523.07.022.755.124 1.503.146 2.258l.523-.071a12.051 12.051 0 0 0-.9-2.976c-.107-.24-.52-.123-.497.134.102 1.134.361 2.234.592 3.348l.514-.142c-.36-1.276-.602-2.58-1.192-3.777-.114-.232-.522-.129-.497.134.12 1.234.598 2.402.656 3.641l.523-.07c-.5-1.414-.812-2.884-1.31-4.297-.115-.324-.581-.196-.514.141.303 1.533.708 3.043.946 4.588l.514-.142c-.565-1.705-.75-3.514-1.384-5.199-.12-.316-.6-.197-.514.142a51.776 51.776 0 0 1 1.166 5.855l.486-.206c-.812-1.743-.925-3.708-1.647-5.485-.103-.252-.565-.253-.524.071.24 1.862.563 3.711.957 5.547l.513-.142c-.416-1.606-.617-3.258-1.238-4.806-.102-.255-.555-.253-.523.071.182 1.89.827 3.703.874 5.608l.523-.071c-.44-1.859-.804-3.733-1.165-5.608-.057-.294-.548-.228-.523.071.168 2.028.632 4.016.8 6.044l.524-.071c-.573-1.882-.812-3.837-1.238-5.753-.065-.29-.549-.23-.523.071.159 1.86.45 3.7.81 5.532l.514-.141c-.433-1.662-.854-3.322-1.092-5.025-.042-.297-.544-.226-.523.071.096 1.439.405 2.853.436 4.297l.524-.071c-.368-1.24-.57-2.507-.719-3.789-.039-.332-.54-.351-.533 0 .02.876.127 1.746.146 2.621l.523-.07c-.202-.893-.308-1.802-.51-2.695-.066-.296-.528-.227-.523.071.011.708.07 1.408.146 2.112l.523-.071c-.197-.477-.33-.973-.51-1.457-.1-.272-.523-.244-.523.071v1.166l.523-.071c-.094-.244-.197-.484-.29-.728-.112-.288-.49-.232-.524.07l-.073.656.523-.071-.218-.655c-.075-.225-.474-.282-.514 0l-.073.51.487-.064a1.59 1.59 0 0 0-.218-.364c-.089-.126-.304-.2-.419-.054a6.713 6.713 0 0 0-.26.345c-.196.283.266.548.46.268zM8.071 23.925c.046.367.134.417.37.713.15.19.455.026.454-.188a5.29 5.29 0 0 0-.082-.887l-.487.205c.253.53.475 1.071.702 1.612.107.255.54.256.523-.071-.034-.685-.188-1.354-.218-2.039l-.524.071c.282.978.453 1.983 1.047 2.83.142.204.506.15.496-.134-.036-1.006-.268-1.985-.364-2.986l-.524.071c.358 1.15.662 2.316 1.02 3.466.089.287.52.235.523-.07.018-1.409-.565-2.667-.728-4.049l-.523.07c.553 1.548.757 3.187 1.31 4.734.1.277.52.242.524-.07.019-1.8-.624-3.493-.956-5.242l-.514.142c.511 1.902 1.019 3.804 1.847 5.598.113.244.505.12.497-.135-.065-1.868-.914-3.566-1.248-5.386l-.514.142c.574 1.593.82 3.293 1.63 4.796.127.239.493.124.496-.134.02-2.04-.741-3.95-1.248-5.896l-.514.141a57.967 57.967 0 0 1 1.772 5.098c.097.333.578.192.513-.142-.357-1.835-1.353-3.462-1.698-5.301l-.487.205c.971 1.618 1.643 3.38 2.328 5.133.123.316.586.2.514-.142-.413-1.944-1.559-3.633-1.918-5.59l-.487.206c.733 1.59 1.2 3.277 2.039 4.82.125.23.507.13.496-.134-.07-1.733-.893-3.387-1.393-5.023-.1-.327-.61-.189-.513.142.489 1.664.95 3.374 1.701 4.942.12.25.491.115.497-.134.022-1.025-.268-1.983-.447-2.984l-.487.206c.302.687.595 1.375.947 2.038.13.248.482.116.496-.134.036-.643-.066-1.257-.155-1.891l-.514.141c.2.547.307 1.11.437 1.675.069.297.524.227.523-.07a10.437 10.437 0 0 0-.073-1.311l-.496.134.219.364c.139.231.487.129.496-.134l.063-.44-.445.118.218.219c.244.243.62-.134.377-.377l-.218-.219a.269.269 0 0 0-.445.118c-.072.256-.074.304-.083.58l.496-.134-.218-.364c-.126-.209-.532-.142-.496.135.056.438.07.869.073 1.31l.523-.07c-.13-.566-.236-1.129-.437-1.675-.12-.329-.56-.195-.514.141.083.589.17 1.156.136 1.75l.497-.134c-.352-.664-.645-1.352-.947-2.04-.13-.295-.536-.07-.487.206.17.953.449 1.863.428 2.842l.496-.135c-.73-1.525-1.172-3.197-1.648-4.815l-.513.142c.483 1.583 1.306 3.206 1.373 4.88l.497-.134c-.837-1.541-1.306-3.233-2.04-4.82-.134-.293-.537-.072-.486.205.36 1.958 1.505 3.645 1.918 5.59l.514-.142c-.701-1.794-1.387-3.604-2.382-5.26-.162-.27-.541-.084-.487.205.345 1.84 1.34 3.467 1.699 5.301l.513-.141a57.76 57.76 0 0 0-1.771-5.098c-.124-.312-.602-.198-.514.142.494 1.899 1.248 3.765 1.229 5.755l.496-.135c-.786-1.46-1.017-3.121-1.575-4.67-.117-.324-.576-.196-.514.142.325 1.77 1.166 3.43 1.229 5.245l.496-.134c-.808-1.75-1.295-3.615-1.793-5.47-.09-.336-.578-.192-.514.14.323 1.702.955 3.35.937 5.1l.523-.07c-.553-1.547-.758-3.187-1.31-4.734-.095-.264-.561-.245-.524.07.162 1.376.746 2.652.728 4.05l.524-.071c-.358-1.15-.662-2.316-1.02-3.467-.086-.275-.553-.24-.523.071.096 1 .329 1.981.364 2.986l.497-.135c-.566-.807-.725-1.773-.993-2.703-.082-.284-.537-.236-.523.07.03.687.184 1.355.218 2.04l.523-.071c-.244-.584-.482-1.168-.755-1.739-.14-.293-.533-.07-.487.205a4.5 4.5 0 0 1 .064.745l.454-.188a.595.595 0 0 1-.213-.336c-.042-.336-.575-.34-.533 0zM20.755 23.413c.04-.228.066-.451.083-.682l-.455.189c.361.455.653.951.978 1.431.142.21.501.145.497-.134-.011-.637-.062-1.272-.073-1.908l-.524.07c.36 1.02.358 2.17.901 3.123.124.218.523.137.496-.135-.113-1.149-.403-2.268-.592-3.406l-.513.142c.31 1.46.812 2.848 1.41 4.214.108.248.505.118.496-.134-.054-1.52-.618-2.941-.8-4.442l-.524.07c.417 1.798.678 3.628 1.238 5.39.088.274.55.24.523-.072-.167-2.028-.627-4.017-.8-6.044l-.524.071c.644 2.02.888 4.133 1.384 6.19.07.288.546.231.523-.071-.18-2.306-.84-4.54-1.02-6.845l-.523.07c.323 2.188.616 4.411 1.384 6.496.101.276.516.242.523-.07.046-2.148-.59-4.264-.884-6.378l-.486.206c.92 1.9.813 4.106 1.502 6.082.093.266.563.244.523-.07-.188-1.504-.813-2.923-.874-4.443l-.496.135c.718 1.063.913 2.396 1.211 3.62.082.336.584.193.514-.141-.38-1.813-1.248-3.514-1.474-5.36l-.496.134c.923 1.669 1.27 3.67 1.747 5.499.087.333.594.192.514-.142-.34-1.427-.747-2.86-.864-4.327l-.524.07c.516 1.252.778 2.582 1.166 3.875.099.33.584.193.513-.142-.268-1.26-.54-2.531-.645-3.818l-.497.135c.495 1.032.52 2.228.847 3.315.085.283.533.236.523-.071-.03-1.014-.26-2.004-.446-2.998l-.487.205c.381.875.455 1.847.702 2.762.077.288.533.233.523-.07-.032-.977-.258-1.93-.364-2.899l-.524.07c.316.803.428 1.663.656 2.491.079.289.53.233.523-.07-.012-.54-.06-1.078-.073-1.617l-.523.07c.107.352.237.678.39 1.01.115.25.497.116.497-.134V22.76l-.523.071c.077.352.17.68.291 1.02.099.275.523.243.523-.071v-.729l-.454.189.114.173.365-.365-.01-.008c-.276-.205-.542.257-.27.46a.342.342 0 0 0 .01.008c.233.173.475-.15.365-.364a.931.931 0 0 0-.198-.28c-.163-.169-.455-.042-.455.188v.728l.523-.07a8.07 8.07 0 0 1-.29-1.02c-.066-.299-.524-.225-.524.07v1.166l.496-.135a4.483 4.483 0 0 1-.337-.883c-.086-.283-.53-.237-.523.071.014.54.06 1.077.073 1.616l.523-.07c-.228-.829-.34-1.688-.655-2.49-.101-.257-.559-.252-.523.07.106.968.332 1.923.364 2.898l.523-.07c-.26-.965-.353-1.967-.755-2.89-.128-.294-.539-.071-.487.205.178.948.398 1.89.427 2.857l.524-.07c-.342-1.137-.383-2.362-.901-3.443-.113-.235-.518-.126-.496.135.11 1.334.386 2.651.664 3.959l.514-.142c-.388-1.293-.65-2.622-1.165-3.874-.105-.254-.55-.255-.523.071.121 1.517.532 2.994.883 4.469l.514-.142c-.49-1.877-.854-3.912-1.801-5.625-.12-.219-.53-.137-.496.134.23 1.898 1.102 3.64 1.492 5.502l.514-.142c-.31-1.271-.52-2.643-1.265-3.748-.14-.207-.508-.147-.497.134.06 1.527.685 2.936.874 4.443l.524-.071c-.706-2.024-.613-4.26-1.557-6.21-.143-.297-.524-.067-.486.205.287 2.068.91 4.135.864 6.236l.523-.07c-.768-2.086-1.06-4.31-1.384-6.496-.043-.298-.546-.227-.523.07.18 2.306.84 4.54 1.02 6.845l.523-.07c-.496-2.057-.74-4.17-1.384-6.19-.087-.275-.55-.24-.523.07.174 2.028.634 4.017.801 6.045l.524-.071c-.56-1.762-.822-3.592-1.238-5.389-.067-.288-.56-.23-.524.071.183 1.498.747 2.928.801 4.442l.497-.134c-.58-1.325-1.055-2.672-1.357-4.087-.072-.34-.569-.191-.513.141.18 1.09.464 2.164.572 3.265l.497-.135c-.516-.905-.505-2.024-.847-2.995-.097-.274-.528-.243-.523.071.01.636.062 1.271.073 1.908l.496-.135c-.351-.518-.672-1.048-1.061-1.54-.159-.2-.44-.015-.455.19-.01.181-.03.361-.063.54-.058.336.455.48.513.141z"/></g></symbol>
  <symbol id="icon-download-glyph-36" viewBox="0 0 36 36"><g fill="#FF00A0" fill-rule="nonzero"><path d="M11.122 25.428c-3.175-.074-5.76-2.283-5.553-5.815.2-3.391 3.043-5.469 6.072-5.209.127.01.219-.097.26-.21 1.23-3.34 4.338-4.867 7.585-4.595 1.597.134 3.574 1.025 4.54 2.429.955 1.384 1.319 3.018 1.536 4.69.02.158.203.234.33.2 1.901-.503 3.657-.092 4.645 1.812.741 1.428.88 3.509-.09 4.84-1.545 2.122-4.917 1.858-7.188 1.858H11.122c-.347 0-.347.571 0 .571h13.025c3.02 0 7.282-.447 7.51-4.493.081-1.435-.417-2.936-1.278-4.028-1.152-1.46-3.015-1.538-4.629-1.111l.33.2c-.223-1.727-.615-3.76-1.776-5.096-1.134-1.305-2.884-2.219-4.545-2.412-3.36-.39-6.964 1.15-8.263 4.675-.022.06-2.321.313-2.597.406-.723.245-1.363.692-1.934 1.213-1.167 1.064-1.775 2.67-1.933 4.26-.382 3.842 2.76 6.31 6.09 6.387.347.008.346-.564 0-.572z"/><path d="M18.128 13.408c.124 1.98.023 3.938 0 5.916-.004.37.534.369.538 0 .023-1.978.124-3.936 0-5.916-.022-.366-.56-.368-.538 0z"/><path d="M16.054 17.87c.734.722 1.473 1.428 2.153 2.209.093.107.288.116.38 0a20.644 20.644 0 0 1 1.931-2.13c.259-.247-.123-.65-.38-.404a20.643 20.643 0 0 0-1.931 2.13h.38c-.679-.782-1.418-1.488-2.152-2.21-.255-.25-.636.154-.38.405zM14.463 21.977c2.716.134 5.448.003 8.166 0 .347 0 .347-.573 0-.572-2.718.003-5.45.135-8.166 0-.348-.018-.346.554 0 .572z"/></g></symbol>
</svg>
