<?xml version="1.0" encoding="UTF-8" standalone="no"?>
<svg
   xmlns:dc="http://purl.org/dc/elements/1.1/"
   xmlns:cc="http://creativecommons.org/ns#"
   xmlns:rdf="http://www.w3.org/1999/02/22-rdf-syntax-ns#"
   xmlns:svg="http://www.w3.org/2000/svg"
   xmlns="http://www.w3.org/2000/svg"
   xmlns:sodipodi="http://sodipodi.sourceforge.net/DTD/sodipodi-0.dtd"
   xmlns:inkscape="http://www.inkscape.org/namespaces/inkscape"
   width="100%"
   viewBox="0 0 5.336298 3.9013679"
   version="1.1"
   id="svg12966"
   inkscape:version="1.0.1 (c497b03c, 2020-09-10)"
   sodipodi:docname="letter_turq.svg">
  <defs
     id="defs12960" />
  <sodipodi:namedview
     id="base"
     pagecolor="#ffffff"
     bordercolor="#666666"
     borderopacity="1.0"
     inkscape:pageopacity="0.0"
     inkscape:pageshadow="2"
     inkscape:zoom="0.35"
     inkscape:cx="-792.7733"
     inkscape:cy="738.80116"
     inkscape:document-units="mm"
     inkscape:current-layer="layer1"
     inkscape:document-rotation="0"
     showgrid="false"
     fit-margin-top="0"
     fit-margin-left="0"
     fit-margin-right="0"
     fit-margin-bottom="0"
     inkscape:window-width="1248"
     inkscape:window-height="943"
     inkscape:window-x="0"
     inkscape:window-y="25"
     inkscape:window-maximized="0" />
  <metadata
     id="metadata12963">
    <rdf:RDF>
      <cc:Work
         rdf:about="">
        <dc:format>image/svg+xml</dc:format>
        <dc:type
           rdf:resource="http://purl.org/dc/dcmitype/StillImage" />
        <dc:title></dc:title>
      </cc:Work>
    </rdf:RDF>
  </metadata>
  <g
     inkscape:label="Ebene 1"
     inkscape:groupmode="layer"
     id="layer1"
     transform="translate(-315.58794,47.307807)">
    <path
       style="fill:#a1e1cf;fill-opacity:1;fill-rule:nonzero;stroke:none;stroke-width:0.352777"
       d="m 316.56102,-46.29147 c 0.58842,0.453372 1.13413,0.957735 1.70739,1.427646 0.0331,0.02755 0.0882,0.03721 0.11989,0 0.44648,-0.520898 0.96325,-1.070734 1.58474,-1.379414 0.0978,-0.04961 0.0124,-0.194303 -0.0841,-0.146075 -0.63527,0.31695 -1.16444,0.875055 -1.62057,1.40698 h 0.11989 c -0.57464,-0.469914 -1.12035,-0.974273 -1.70739,-1.429029 -0.0854,-0.06477 -0.20533,0.05375 -0.11989,0.119892"
       id="path7442"
       inkscape:export-xdpi="300"
       inkscape:export-ydpi="300" />
    <path
       style="fill:none;stroke:#a1e1cf;stroke-width:0.115006;stroke-linecap:butt;stroke-linejoin:miter;stroke-miterlimit:4;stroke-opacity:1"
       d="m 316.56102,-46.29147 c 0.58842,0.453372 1.13413,0.957735 1.70739,1.427646 0.0331,0.02755 0.0882,0.03721 0.11989,0 0.44648,-0.520898 0.96325,-1.070734 1.58474,-1.379414 0.0978,-0.04961 0.0124,-0.194303 -0.0841,-0.146075 -0.63527,0.31695 -1.16444,0.875055 -1.62057,1.40698 h 0.11989 c -0.57464,-0.469914 -1.12035,-0.974273 -1.70739,-1.429029 -0.0854,-0.06477 -0.20533,0.05375 -0.11989,0.119892 z m 0,0"
       id="path7444"
       inkscape:export-xdpi="300"
       inkscape:export-ydpi="300" />
    <path
       style="fill:#a1e1cf;fill-opacity:1;fill-rule:nonzero;stroke:none;stroke-width:0.352777"
       d="m 317.62349,-45.448112 c -0.4203,0.220486 -0.78135,0.569129 -1.09692,0.919152 -0.0717,0.07992 0.0469,0.199817 0.11851,0.118512 0.3073,-0.340374 0.65595,-0.677997 1.06384,-0.892969 0.0965,-0.04961 0.011,-0.195682 -0.0854,-0.144695"
       id="path7446"
       inkscape:export-xdpi="300"
       inkscape:export-ydpi="300" />
    <path
       style="fill:none;stroke:#a1e1cf;stroke-width:0.115006;stroke-linecap:butt;stroke-linejoin:miter;stroke-miterlimit:4;stroke-opacity:1"
       d="m 317.62349,-45.448112 c -0.4203,0.220486 -0.78135,0.569129 -1.09692,0.919152 -0.0717,0.07992 0.0469,0.199817 0.11851,0.118512 0.3073,-0.340374 0.65595,-0.677997 1.06384,-0.892969 0.0965,-0.04961 0.011,-0.195682 -0.0854,-0.144695 z m 0,0"
       id="path7448"
       inkscape:export-xdpi="300"
       inkscape:export-ydpi="300" />
    <path
       style="fill:#a1e1cf;fill-opacity:1;fill-rule:nonzero;stroke:none;stroke-width:0.352777"
       d="m 318.82651,-45.351649 c 0.3831,0.314195 0.76344,0.6339 1.06661,1.029395 0.0648,0.08406 0.21221,0 0.14607,-0.08544 -0.31419,-0.407899 -0.69729,-0.738629 -1.09416,-1.062468 -0.0827,-0.0689 -0.20258,0.05099 -0.11852,0.118512"
       id="path7450"
       inkscape:export-xdpi="300"
       inkscape:export-ydpi="300" />
    <path
       style="fill:none;stroke:#a1e1cf;stroke-width:0.115006;stroke-linecap:butt;stroke-linejoin:miter;stroke-miterlimit:4;stroke-opacity:1"
       d="m 318.82651,-45.351649 c 0.3831,0.314195 0.76344,0.6339 1.06661,1.029395 0.0648,0.08406 0.21221,0 0.14607,-0.08544 -0.31419,-0.407899 -0.69729,-0.738629 -1.09416,-1.062468 -0.0827,-0.0689 -0.20258,0.05099 -0.11852,0.118513 z m 0,0"
       id="path7452"
       inkscape:export-xdpi="300"
       inkscape:export-ydpi="300" />
    <path
       style="fill:#a1e1cf;fill-opacity:1;fill-rule:nonzero;stroke:none;stroke-width:0.352777"
       d="m 316.48109,-47.202353 c -0.61322,0.0096 -0.7593,0.374827 -0.77721,0.930176 -0.0221,0.724846 -0.11438,1.504816 -0.008,2.22691 0.0207,0.133668 0.0469,0.290763 0.15847,0.380337 0.21911,0.179144 0.75241,0.152961 1.02113,0.166744 0.88608,0.04685 1.78318,-0.01379 2.67201,0.0069 0.51401,0.01238 1.28158,0.186033 1.27331,-0.540192 -0.008,-0.810288 0.0468,-1.619197 0.04,-2.429482 -0.003,-0.180523 0.0441,-0.367936 -0.0868,-0.505738 -0.1571,-0.163989 -0.41479,-0.216356 -0.62839,-0.248049 -0.47542,-0.07028 -0.99081,-0.01517 -1.46899,-0.0083 -0.73036,0.0097 -1.46347,0.02893 -2.19521,0.02067 -0.10749,-0.0014 -0.10749,0.168119 0,0.168119 0.99218,0.01242 1.983,-0.0193 2.9738,-0.03168 0.36243,-0.0041 1.01286,-0.08819 1.23473,0.260449 0.062,0.09508 0.003,0.451996 0.004,0.573264 0,0.208082 -0.005,0.414789 -0.011,0.621495 -0.011,0.423055 -0.0275,0.844737 -0.0331,1.267796 -0.003,0.23702 0.0827,0.665589 -0.26596,0.694531 -0.47267,0.04134 -0.97152,-0.01517 -1.44556,-0.02618 -0.86955,-0.01792 -1.75287,0.07717 -2.61828,-0.04272 -0.33072,-0.04547 -0.42719,-0.07993 -0.46577,-0.405141 -0.0358,-0.314195 -0.0193,-0.636655 -0.0124,-0.950849 0.008,-0.425814 0.0207,-0.851627 0.0331,-1.27744 0.0138,-0.428569 0.14194,-0.675238 0.60633,-0.683507 0.10887,-0.0014 0.10887,-0.1695 0,-0.16812"
       id="path7454"
       inkscape:export-xdpi="300"
       inkscape:export-ydpi="300" />
    <path
       style="fill:none;stroke:#a1e1cf;stroke-width:0.115006;stroke-linecap:butt;stroke-linejoin:miter;stroke-miterlimit:4;stroke-opacity:1"
       d="m 316.48109,-47.202353 c -0.61322,0.0096 -0.7593,0.374827 -0.77721,0.930176 -0.0221,0.724846 -0.11438,1.504816 -0.008,2.22691 0.0207,0.133668 0.0469,0.290763 0.15847,0.380337 0.21911,0.179144 0.75241,0.152961 1.02113,0.166744 0.88608,0.04685 1.78318,-0.01379 2.67201,0.0069 0.51401,0.01242 1.28158,0.186033 1.27331,-0.540192 -0.008,-0.810288 0.0468,-1.619197 0.04,-2.429482 -0.003,-0.180523 0.0441,-0.367936 -0.0868,-0.505742 -0.1571,-0.163985 -0.41479,-0.216352 -0.62839,-0.248045 -0.47542,-0.07028 -0.99081,-0.01517 -1.46899,-0.0083 -0.73036,0.0097 -1.46347,0.02893 -2.19521,0.02067 -0.10749,-0.0014 -0.10749,0.168119 0,0.168119 0.99218,0.01242 1.983,-0.0193 2.9738,-0.03168 0.36243,-0.0041 1.01286,-0.08819 1.23473,0.260449 0.062,0.09508 0.003,0.451996 0.004,0.573264 0,0.208082 -0.005,0.414789 -0.011,0.621495 -0.011,0.423055 -0.0275,0.844737 -0.0331,1.267796 -0.003,0.23702 0.0827,0.665589 -0.26596,0.694531 -0.47267,0.04134 -0.97152,-0.01517 -1.44556,-0.02618 -0.86955,-0.01792 -1.75287,0.07717 -2.61828,-0.04272 -0.33072,-0.04547 -0.42718,-0.07993 -0.46577,-0.405141 -0.0358,-0.314195 -0.0193,-0.636655 -0.0124,-0.950849 0.008,-0.425814 0.0207,-0.851627 0.0331,-1.27744 0.0138,-0.428569 0.14194,-0.675238 0.60633,-0.683507 0.10887,-0.0014 0.10887,-0.1695 0,-0.16812 z m 0,0"
       id="path7456"
       inkscape:export-xdpi="300"
       inkscape:export-ydpi="300" />
  </g>
</svg>
