<?xml version="1.0" encoding="UTF-8" standalone="no"?>
<svg
   xmlns:dc="http://purl.org/dc/elements/1.1/"
   xmlns:cc="http://creativecommons.org/ns#"
   xmlns:rdf="http://www.w3.org/1999/02/22-rdf-syntax-ns#"
   xmlns:svg="http://www.w3.org/2000/svg"
   xmlns="http://www.w3.org/2000/svg"
   xmlns:xlink="http://www.w3.org/1999/xlink"
   xmlns:sodipodi="http://sodipodi.sourceforge.net/DTD/sodipodi-0.dtd"
   xmlns:inkscape="http://www.inkscape.org/namespaces/inkscape"
   version="1.1"
   id="Ebene_1"
   x="0px"
   y="0px"
   width="100%"
   viewBox="0 0 15.405128 11.796701"
   enable-background="new 0 0 170.08 113.39"
   xml:space="preserve"
   sodipodi:docname="logout.svg"
   inkscape:export-filename="/Users/jakobvicari/Dropbox/Arbeit/Journalismus2022/100eyesIcons2023/photos.png"
   inkscape:export-xdpi="300"
   inkscape:export-ydpi="300"
   inkscape:version="1.0.1 (c497b03c, 2020-09-10)"><metadata
   id="metadata1056"><rdf:RDF><cc:Work
       rdf:about=""><dc:format>image/svg+xml</dc:format><dc:type
         rdf:resource="http://purl.org/dc/dcmitype/StillImage" /><dc:title></dc:title></cc:Work></rdf:RDF></metadata><defs
   id="defs1054">
	<defs
   id="defs834">
		<rect
   id="SVGID_1_"
   x="4.9289999"
   y="16.558001"
   width="220"
   height="73.083" />
	</defs>
	<clipPath
   id="SVGID_2_">
		<use
   xlink:href="#SVGID_1_"
   overflow="visible"
   id="use836"
   x="0"
   y="0"
   width="100%"
   height="100%" />
	</clipPath>
	</defs><sodipodi:namedview
   pagecolor="#ffffff"
   bordercolor="#666666"
   borderopacity="1"
   objecttolerance="10"
   gridtolerance="10"
   guidetolerance="10"
   inkscape:pageopacity="0"
   inkscape:pageshadow="2"
   inkscape:window-width="1398"
   inkscape:window-height="878"
   id="namedview1052"
   showgrid="false"
   inkscape:zoom="3.4101599"
   inkscape:cx="-29.795425"
   inkscape:cy="-24.234034"
   inkscape:window-x="0"
   inkscape:window-y="25"
   inkscape:window-maximized="0"
   inkscape:current-layer="Ebene_1"
   fit-margin-top="0"
   fit-margin-left="0"
   fit-margin-right="0"
   fit-margin-bottom="0" />
<path
   clip-path="url(#SVGID_2_)"
   fill="#ff00a0"
   d="m 131.23,78.521 c -0.005,-1.05 -0.019,-2.098 -0.022,-3.146 0,-0.345 -0.306,-0.51 -0.61,-0.467 -2.705,0.389 -5.407,0.021 -8.117,0.242 -0.268,0.022 -0.476,0.204 -0.482,0.482 -0.097,3.526 0.058,7.057 0.064,10.582 10e-4,0.262 0.219,0.485 0.483,0.484 2.795,-0.026 5.58,-0.3 8.374,-0.325 0.265,-0.003 0.481,-0.219 0.484,-0.483 0.009,-1.108 0.02,-2.204 -0.065,-3.31 -0.048,-0.618 -1.014,-0.622 -0.967,0 0.085,1.105 0.074,2.201 0.065,3.31 0.161,-0.16 0.321,-0.321 0.482,-0.482 -2.794,0.024 -5.579,0.299 -8.374,0.323 0.161,0.162 0.322,0.322 0.482,0.483 -0.007,-3.525 -0.16,-7.056 -0.065,-10.582 -0.16,0.162 -0.321,0.323 -0.482,0.484 2.798,-0.229 5.581,0.124 8.374,-0.277 -0.205,-0.155 -0.408,-0.31 -0.612,-0.465 0.003,1.048 0.019,2.096 0.021,3.146 0.004,0.624 0.969,0.624 0.967,0.001"
   id="path1005"
   inkscape:export-xdpi="300"
   inkscape:export-ydpi="300"
   transform="translate(-121.96716,-74.901302)" /><path
   clip-path="url(#SVGID_2_)"
   fill="#ff00a0"
   d="m 125.271,81.262 c 3.78,-0.268 7.575,-0.212 11.362,-0.21 0.623,0 0.623,-0.966 0,-0.966 -3.787,-0.003 -7.582,-0.059 -11.362,0.21 -0.618,0.044 -0.622,1.01 0,0.966"
   id="path1007"
   inkscape:export-xdpi="300"
   inkscape:export-ydpi="300"
   transform="translate(-121.96716,-74.901302)" /><path
   clip-path="url(#SVGID_2_)"
   fill="#ff00a0"
   d="m 132.241,78.104 c 1.398,1.048 2.849,2.021 4.408,2.816 v -0.835 c -1.438,0.966 -2.833,1.984 -4.188,3.062 -0.487,0.387 0.2,1.066 0.683,0.683 1.291,-1.025 2.624,-1.991 3.993,-2.91 0.283,-0.189 0.343,-0.66 0,-0.835 -1.56,-0.793 -3.009,-1.767 -4.407,-2.816 -0.5,-0.373 -0.981,0.466 -0.489,0.835"
   id="path1009"
   inkscape:export-xdpi="300"
   inkscape:export-ydpi="300"
   transform="translate(-121.96716,-74.901302)" />
</svg>
