<?xml version="1.0" encoding="UTF-8" standalone="no"?>
<svg
   xmlns:dc="http://purl.org/dc/elements/1.1/"
   xmlns:cc="http://creativecommons.org/ns#"
   xmlns:rdf="http://www.w3.org/1999/02/22-rdf-syntax-ns#"
   xmlns:svg="http://www.w3.org/2000/svg"
   xmlns="http://www.w3.org/2000/svg"
   width="100%"
   viewBox="0 0 5.9826207 3.0884569"
   version="1.1"
   id="svg17685">
  <defs
     id="defs17679" />
  <metadata
     id="metadata17682">
    <rdf:RDF>
      <cc:Work
         rdf:about="">
        <dc:format>image/svg+xml</dc:format>
        <dc:type
           rdf:resource="http://purl.org/dc/dcmitype/StillImage" />
        <dc:title></dc:title>
      </cc:Work>
    </rdf:RDF>
  </metadata>
  <g
     id="layer1"
     transform="translate(-102.85911,-146.62244)">
    <g
       id="g16775"
       transform="matrix(0.35277777,0,0,-0.35277777,102.98356,147.14502)">
      <path
         d="m 0,0 c -0.024,-0.6 -0.04,-1.201 -0.043,-1.801 -0.001,-0.136 0.121,-0.2 0.241,-0.183 0.645,0.088 1.432,-0.09 1.46,-0.869 0.026,-0.747 -0.847,-0.985 -1.426,-0.986 -0.08,0 -0.167,-0.057 -0.183,-0.139 -0.197,-0.964 -0.397,-2.319 0.763,-2.736 0.628,-0.226 1.32,-0.237 1.979,-0.261 1.401,-0.054 2.804,-0.053 4.206,-0.043 1.369,0.01 2.737,0.036 4.107,0.043 1.117,0.006 2.24,-0.075 3.357,-0.014 0.496,0.027 1.209,0.111 1.506,0.577 0.385,0.604 0.171,1.499 0.191,2.176 0.004,0.112 -0.089,0.179 -0.19,0.19 -0.661,0.074 -1.315,0.43 -1.149,1.191 0.132,0.606 0.774,0.826 1.321,0.777 0.105,-0.009 0.189,0.094 0.19,0.19 0.025,1.3 0.258,2.876 -1.513,3.007 C 12.763,1.271 10.623,1.059 8.567,0.979 6.342,0.892 4.188,1.078 1.974,1.218 0.993,1.28 0.074,1.144 0,0 -0.016,-0.245 0.364,-0.243 0.38,0 0.457,1.203 1.992,0.846 2.821,0.77 4.743,0.592 6.636,0.521 8.567,0.599 c 1.761,0.071 3.523,0.116 5.285,0.15 0.82,0.016 1.843,0.074 2.115,-0.888 0.157,-0.557 -0.006,-1.182 -0.017,-1.749 0.064,0.064 0.127,0.127 0.19,0.19 -0.779,0.069 -1.621,-0.37 -1.719,-1.218 -0.11,-0.958 0.708,-1.417 1.547,-1.51 -0.063,0.063 -0.126,0.127 -0.19,0.19 -0.015,-0.493 0.009,-0.986 0.005,-1.48 -0.005,-0.668 -0.588,-0.812 -1.138,-0.878 -1.347,-0.162 -2.77,0.005 -4.125,-0.005 C 8.85,-6.611 7.18,-6.645 5.51,-6.643 4.192,-6.642 2.826,-6.688 1.517,-6.501 0.589,-6.368 0.228,-5.875 0.279,-4.95 c 0.005,0.085 0.039,0.732 0.137,0.732 0.18,0 0.361,0.038 0.535,0.08 0.327,0.078 0.617,0.282 0.825,0.541 0.336,0.418 0.33,0.995 0.052,1.437 C 1.462,-1.58 0.702,-1.535 0.096,-1.618 0.177,-1.679 0.257,-1.74 0.337,-1.801 0.34,-1.201 0.356,-0.6 0.38,0 0.39,0.245 0.01,0.244 0,0"
         style="fill:#ec008c;fill-opacity:1;fill-rule:nonzero;stroke:none"
         id="path16777" />
    </g>
    <g
       id="g16779"
       transform="matrix(0.35277777,0,0,-0.35277777,102.98356,147.14502)">
      <path
         d="M 0,0 C -0.024,-0.6 -0.04,-1.201 -0.043,-1.801 -0.044,-1.937 0.03279249,-2.2722451 0.15279249,-2.2552451 0.79779249,-2.1672451 1.63,-2.074 1.658,-2.853 1.684,-3.6 0.811,-3.838 0.232,-3.839 c -0.08,0 -0.167,-0.057 -0.183,-0.139 -0.197,-0.964 -0.397,-2.319 0.763,-2.736 0.628,-0.226 1.32,-0.237 1.979,-0.261 1.401,-0.054 2.804,-0.053 4.206,-0.043 1.369,0.01 2.737,0.036 4.107,0.043 1.117,0.006 2.24,-0.075 3.357,-0.014 0.496,0.027 1.209,0.111 1.506,0.577 0.385,0.604 0.171,1.499 0.191,2.176 0.004,0.112 -1.047528,0.056811 -0.38,0 -0.661,0.074 -1.125,0.62 -0.959,1.381 0.132,0.606 0.774,0.826 1.321,0.777 0.105,-0.009 0.189,0.094 0.19,0.19 0.025,1.3 0.258,2.876 -1.513,3.007 C 12.763,1.271 10.623,1.059 8.567,0.979 6.342,0.892 4.188,1.078 1.974,1.218 0.993,1.28 0.074,1.144 0,0 -0.016,-0.245 0.364,-0.243 0.38,0 0.457,1.203 1.992,0.846 2.821,0.77 4.743,0.592 6.636,0.521 8.567,0.599 c 1.761,0.071 3.523,0.116 5.285,0.15 0.82,0.016 1.843,0.074 2.115,-0.888 0.157,-0.557 -0.006,-0.3682648 -0.017,-0.9352648 L 16.14,-1.698 c -0.779,0.069 -1.621,-0.37 -1.719,-1.218 -0.11,-0.958 0.518,-1.227 1.357,-1.32 -0.063,0.063 -0.772339,0.1404338 0,0 -0.015,-0.493 0.009,-0.986 0.005,-1.48 -0.005,-0.668 -0.588,-0.812 -1.138,-0.878 -1.347,-0.162 -2.77,0.005 -4.125,-0.005 C 8.85,-6.611 7.18,-6.645 5.51,-6.643 4.192,-6.642 2.826,-6.688 1.517,-6.501 0.589,-6.368 0.228,-5.875 0.279,-4.95 c 0.005,0.085 0.039,0.732 0.137,0.732 0.18,0 0.361,0.038 0.535,0.08 0.327,0.078 0.617,0.282 0.825,0.541 0.336,0.418 0.33,0.995 0.052,1.437 -0.366,0.58 -0.885,0.442 -1.491,0.359 0.081,-0.061 -0.08,0.061 0,0 C 0.34,-1.201 0.356,-0.6 0.38,0 0.39,0.245 0.01,0.244 0,0 Z"
         style="fill:none;stroke:#ff00a0;stroke-width:0.5;stroke-linecap:butt;stroke-linejoin:miter;stroke-miterlimit:10;stroke-dasharray:none;stroke-opacity:1"
         id="path16781" />
    </g>
    <g
       id="g16783"
       transform="matrix(0.35277777,0,0,-0.35277777,107.19802,146.88816)">
      <path
         d="m 0,0 c 0,-0.338 0.002,-0.677 0.002,-1.015 0,-0.245 0.38,-0.245 0.38,0 C 0.382,-0.677 0.38,-0.338 0.38,0 0.38,0.245 0,0.245 0,0"
         style="fill:#ec008c;fill-opacity:1;fill-rule:nonzero;stroke:none"
         id="path16785" />
    </g>
    <g
       id="g16787"
       transform="matrix(0.35277777,0,0,-0.35277777,107.19802,146.88816)">
      <path
         d="m 0,0 c 0,-0.338 0.002,-0.677 0.002,-1.015 0,-0.245 0.38,-0.245 0.38,0 C 0.382,-0.677 0.38,-0.338 0.38,0 0.38,0.245 0,0.245 0,0 Z"
         style="fill:none;stroke:#ff00a0;stroke-width:0.5;stroke-linecap:butt;stroke-linejoin:miter;stroke-miterlimit:10;stroke-dasharray:none;stroke-opacity:1"
         id="path16789" />
    </g>
    <g
       id="g16791"
       transform="matrix(0.35277777,0,0,-0.35277777,107.19392,147.46432)">
      <path
         d="m 0,0 v -0.988 c 0,-0.245 0.38,-0.245 0.38,0 V 0 C 0.38,0.245 0,0.245 0,0"
         style="fill:#ec008c;fill-opacity:1;fill-rule:nonzero;stroke:none"
         id="path16793" />
    </g>
    <g
       id="g16795"
       transform="matrix(0.35277777,0,0,-0.35277777,107.19392,147.46432)">
      <path
         d="m 0,0 v -0.988 c 0,-0.245 0.38,-0.245 0.38,0 V 0 C 0.38,0.245 0,0.245 0,0 Z"
         style="fill:none;stroke:#ff00a0;stroke-width:0.5;stroke-linecap:butt;stroke-linejoin:miter;stroke-miterlimit:10;stroke-dasharray:none;stroke-opacity:1"
         id="path16797" />
    </g>
    <g
       id="g16799"
       transform="matrix(0.35277777,0,0,-0.35277777,107.19392,148.04432)">
      <path
         d="m 0,0 v -0.988 c 0,-0.245 0.38,-0.245 0.38,0 V 0 C 0.38,0.245 0,0.245 0,0"
         style="fill:#ec008c;fill-opacity:1;fill-rule:nonzero;stroke:none"
         id="path16801" />
    </g>
    <g
       id="g16803"
       transform="matrix(0.35277777,0,0,-0.35277777,107.19392,148.04432)">
      <path
         d="m 0,0 v -0.988 c 0,-0.245 0.38,-0.245 0.38,0 V 0 C 0.38,0.245 0,0.245 0,0 Z"
         style="fill:none;stroke:#ff00a0;stroke-width:0.5;stroke-linecap:butt;stroke-linejoin:miter;stroke-miterlimit:10;stroke-dasharray:none;stroke-opacity:1"
         id="path16805" />
    </g>
    <g
       id="g16807"
       transform="matrix(0.35277777,0,0,-0.35277777,107.19392,148.63456)">
      <path
         d="m 0,0 v -0.988 c 0,-0.245 0.38,-0.245 0.38,0 V 0 C 0.38,0.245 0,0.245 0,0"
         style="fill:#ec008c;fill-opacity:1;fill-rule:nonzero;stroke:none"
         id="path16809" />
    </g>
    <g
       id="g16811"
       transform="matrix(0.35277777,0,0,-0.35277777,107.19392,148.63456)">
      <path
         d="m 0,0 v -0.988 c 0,-0.245 0.38,-0.245 0.38,0 V 0 C 0.38,0.245 0,0.245 0,0 Z"
         style="fill:none;stroke:#ff00a0;stroke-width:0.5;stroke-linecap:butt;stroke-linejoin:miter;stroke-miterlimit:10;stroke-dasharray:none;stroke-opacity:1"
         id="path16813" />
    </g>
    <g
       id="g16815"
       transform="matrix(0.35277777,0,0,-0.35277777,107.19392,149.2044)">
      <path
         d="m 0,0 v -0.836 c 0,-0.245 0.38,-0.245 0.38,0 V 0 C 0.38,0.245 0,0.245 0,0"
         style="fill:#ec008c;fill-opacity:1;fill-rule:nonzero;stroke:none"
         id="path16817" />
    </g>
    <g
       id="g16819"
       transform="matrix(0.35277777,0,0,-0.35277777,107.19392,149.2044)">
      <path
         d="m 0,0 v -0.836 c 0,-0.245 0.38,-0.245 0.38,0 V 0 C 0.38,0.245 0,0.245 0,0 Z"
         style="fill:none;stroke:#ff00a0;stroke-width:0.5;stroke-linecap:butt;stroke-linejoin:miter;stroke-miterlimit:10;stroke-dasharray:none;stroke-opacity:1"
         id="path16821" />
    </g>
    <g
       id="g16823"
       transform="matrix(0.35277777,0,0,-0.35277777,104.68028,147.88519)">
      <path
         d="M 0,0 C 0.209,0.455 0.419,0.909 0.633,1.361 0.517,1.376 0.401,1.391 0.285,1.407 0.396,0.976 0.563,0.567 0.688,0.141 0.71,0.066 0.787,-0.007 0.871,0.002 1.432,0.061 1.993,0.101 2.552,0.181 2.49,0.287 2.428,0.393 2.367,0.499 1.983,0.103 1.589,-0.282 1.197,-0.671 1.149,-0.719 1.131,-0.791 1.148,-0.856 1.292,-1.39 1.32,-1.951 1.532,-2.466 c 0.106,0.061 0.211,0.123 0.317,0.184 -0.492,0.417 -1.164,0.978 -1.867,0.842 -0.566,-0.109 -0.874,-0.556 -1.335,-0.85 0.087,-0.087 0.173,-0.174 0.26,-0.26 0.248,0.577 0.417,1.176 0.598,1.777 0.025,0.083 -0.016,0.17 -0.088,0.214 -0.402,0.25 -0.656,0.64 -0.972,0.981 C -1.616,0.316 -1.678,0.21 -1.74,0.105 c 0.523,-0.093 1.05,-0.13 1.576,-0.199 0.242,-0.032 0.239,0.349 0,0.38 C -0.656,0.35 -1.15,0.385 -1.638,0.471 -1.823,0.504 -1.959,0.3 -1.823,0.153 c 0.282,-0.305 0.523,-0.637 0.843,-0.906 0.215,-0.181 -0.349,-1.391 -0.441,-1.606 -0.068,-0.159 0.082,-0.373 0.26,-0.259 0.277,0.177 0.5,0.419 0.763,0.613 0.687,0.506 1.45,-0.098 1.979,-0.545 0.128,-0.109 0.397,-0.009 0.317,0.184 C 1.71,-1.907 1.662,-1.411 1.562,-0.929 1.511,-0.685 2.472,0.061 2.635,0.23 2.779,0.378 2.629,0.573 2.451,0.547 2.007,0.484 1.563,0.447 1.117,0.408 0.875,0.386 0.696,1.334 0.652,1.508 0.613,1.658 0.377,1.705 0.305,1.553 0.09,1.101 -0.119,0.647 -0.328,0.192 -0.43,-0.029 -0.102,-0.223 0,0"
         style="fill:#ec008c;fill-opacity:1;fill-rule:nonzero;stroke:none"
         id="path16825" />
    </g>
    <g
       id="g16827"
       transform="matrix(0.35277777,0,0,-0.35277777,104.68028,147.88519)">
      <path
         d="M 0,0 C 0.209,0.455 0.071,0.955 0.285,1.407 0.169,1.422 0.57925081,1.2675956 0.46325081,1.2835956 0.57425081,0.85259559 0.563,0.567 0.688,0.141 0.71,0.066 0.787,-0.007 0.871,0.002 1.432,0.061 1.808,0.419 2.367,0.499 2.305,0.605 2.613,0.075 2.552,0.181 2.168,-0.215 1.589,-0.282 1.197,-0.671 1.149,-0.719 1.131,-0.791 1.148,-0.856 1.292,-1.39 1.1646019,-1.548793 1.3766019,-2.063793 1.4826019,-2.002793 1.426,-2.527 1.532,-2.466 c -0.492,0.417 -0.847,1.162 -1.55,1.026 -0.566,-0.109 -0.33010649,-0.4143135 -0.79110649,-0.7083135 0.087,-0.087 -0.27491231,0.5801381 -0.1879123,0.4941381 0.248,0.577 0.32101879,0.2801754 0.50201879,0.8811754 0.025,0.083 -0.016,0.17 -0.088,0.214 -0.402,0.25 -0.6468589,0.29263944 -0.9628589,0.63363944 -0.061,-0.106 0.2015079,0.35931671 0.1395079,0.25431671 C -0.88335104,0.23595615 -0.69,-0.025 -0.164,-0.094 c 0.242,-0.032 0.239,0.349 0,0.38 C -0.656,0.35 -1.15,0.385 -1.638,0.471 -1.823,0.504 -1.959,0.3 -1.823,0.153 c 0.282,-0.305 0.523,-0.637 0.843,-0.906 0.215,-0.181 -0.349,-1.391 -0.441,-1.606 -0.068,-0.159 0.082,-0.373 0.26,-0.259 0.277,0.177 0.5,0.419 0.763,0.613 0.687,0.506 1.45,-0.098 1.979,-0.545 0.128,-0.109 0.397,-0.009 0.317,0.184 C 1.71,-1.907 1.662,-1.411 1.562,-0.929 1.511,-0.685 2.472,0.061 2.635,0.23 2.779,0.378 2.629,0.573 2.451,0.547 2.007,0.484 1.563,0.447 1.117,0.408 0.875,0.386 0.696,1.334 0.652,1.508 0.613,1.658 0.377,1.705 0.305,1.553 0.09,1.101 -0.119,0.647 -0.328,0.192 -0.43,-0.029 -0.102,-0.223 0,0 Z"
         style="fill:none;stroke:#ff00a0;stroke-width:0.5;stroke-linecap:butt;stroke-linejoin:miter;stroke-miterlimit:10;stroke-dasharray:none;stroke-opacity:1"
         id="path16829" />
    </g>
  </g>
</svg>
