<?xml version="1.0" encoding="UTF-8" standalone="no"?>
<svg
   xmlns:dc="http://purl.org/dc/elements/1.1/"
   xmlns:cc="http://creativecommons.org/ns#"
   xmlns:rdf="http://www.w3.org/1999/02/22-rdf-syntax-ns#"
   xmlns:svg="http://www.w3.org/2000/svg"
   xmlns="http://www.w3.org/2000/svg"
   xmlns:xlink="http://www.w3.org/1999/xlink"
   xmlns:sodipodi="http://sodipodi.sourceforge.net/DTD/sodipodi-0.dtd"
   xmlns:inkscape="http://www.inkscape.org/namespaces/inkscape"
   version="1.1"
   id="Ebene_1"
   x="0px"
   y="0px"
   width="100%"
   viewBox="0 0 20.747183 10.82732"
   enable-background="new 0 0 170.08 113.39"
   xml:space="preserve"
   sodipodi:docname="onboarding-ticket.svg"
   inkscape:version="1.0.1 (c497b03c, 2020-09-10)"><metadata
   id="metadata1056"><rdf:RDF><cc:Work
       rdf:about=""><dc:format>image/svg+xml</dc:format><dc:type
         rdf:resource="http://purl.org/dc/dcmitype/StillImage" /><dc:title></dc:title></cc:Work></rdf:RDF></metadata><defs
   id="defs1054">
	<defs
   id="defs834">
		<rect
   id="SVGID_1_"
   x="4.9289999"
   y="16.558001"
   width="220"
   height="73.083" />
	</defs>
	<clipPath
   id="SVGID_2_">
		<use
   xlink:href="#SVGID_1_"
   overflow="visible"
   id="use836"
   x="0"
   y="0"
   width="100%"
   height="100%" />
	</clipPath>
</defs><sodipodi:namedview
   pagecolor="#ffffff"
   bordercolor="#666666"
   borderopacity="1"
   objecttolerance="10"
   gridtolerance="10"
   guidetolerance="10"
   inkscape:pageopacity="0"
   inkscape:pageshadow="2"
   inkscape:window-width="1309"
   inkscape:window-height="701"
   id="namedview1052"
   showgrid="false"
   inkscape:zoom="3.4101599"
   inkscape:cx="-56.783088"
   inkscape:cy="11.423953"
   inkscape:window-x="0"
   inkscape:window-y="25"
   inkscape:window-maximized="0"
   inkscape:current-layer="Ebene_1"
   fit-margin-top="0"
   fit-margin-left="0"
   fit-margin-right="0"
   fit-margin-bottom="0" />
<path
   clip-path="url(#SVGID_2_)"
   fill="#f0047f"
   d="m 147.09,46.93 c -0.03,0.778 -0.051,1.556 -0.053,2.336 -0.002,0.176 0.15,0.259 0.3,0.237 0.81,-0.115 1.795,0.116 1.83,1.127 0.034,0.967 -1.062,1.275 -1.787,1.277 -0.101,0 -0.209,0.074 -0.229,0.18 -0.246,1.25 -0.497,3.007 0.957,3.547 0.788,0.293 1.655,0.307 2.479,0.34 1.756,0.068 3.514,0.067 5.271,0.055 1.715,-0.014 3.431,-0.046 5.147,-0.056 1.398,-0.009 2.808,0.098 4.207,0.019 0.621,-0.035 1.514,-0.145 1.886,-0.749 0.482,-0.783 0.214,-1.944 0.24,-2.821 0.004,-0.145 -0.112,-0.231 -0.238,-0.247 -0.828,-0.095 -1.647,-0.558 -1.441,-1.543 0.166,-0.787 0.972,-1.071 1.657,-1.009 0.131,0.012 0.234,-0.121 0.238,-0.246 0.03,-1.685 0.321,-3.729 -1.896,-3.899 -2.575,-0.197 -5.256,0.079 -7.833,0.182 -2.787,0.112 -5.487,-0.129 -8.263,-0.31 -1.227,-0.079 -2.38,0.097 -2.472,1.58 -0.02,0.318 0.456,0.315 0.476,0 0.099,-1.56 2.021,-1.097 3.059,-0.997 2.409,0.229 4.781,0.322 7.201,0.221 2.206,-0.092 4.416,-0.151 6.623,-0.195 1.026,-0.02 2.309,-0.094 2.649,1.152 0.196,0.722 -0.007,1.532 -0.021,2.268 0.079,-0.082 0.159,-0.164 0.238,-0.246 -0.977,-0.09 -2.031,0.479 -2.153,1.579 -0.14,1.242 0.885,1.837 1.938,1.958 -0.079,-0.082 -0.159,-0.164 -0.238,-0.246 -0.02,0.639 0.013,1.279 0.007,1.918 -0.007,0.866 -0.738,1.053 -1.427,1.139 -1.687,0.21 -3.471,-0.007 -5.168,0.006 -2.093,0.016 -4.187,0.059 -6.279,0.057 -1.651,-0.002 -3.364,0.06 -5.004,-0.185 -1.162,-0.172 -1.614,-0.811 -1.551,-2.01 0.006,-0.11 0.048,-0.949 0.172,-0.949 0.224,0 0.454,-0.051 0.671,-0.105 0.41,-0.101 0.771,-0.366 1.033,-0.701 0.421,-0.542 0.413,-1.29 0.065,-1.862 -0.459,-0.752 -1.411,-0.811 -2.171,-0.703 0.101,0.079 0.201,0.158 0.302,0.238 0.004,-0.78 0.023,-1.558 0.054,-2.336 0.011,-0.318 -0.463,-0.317 -0.476,-10e-4"
   id="path977"
   style="fill:#f0047f"
   transform="translate(-146.89896,-45.271046)" /><path
   clip-path="url(#SVGID_2_)"
   fill="none"
   stroke="#f0047f"
   stroke-width="0.1262"
   stroke-miterlimit="10"
   d="m 147.09,46.93 c -0.03,0.778 -0.051,1.556 -0.053,2.336 -0.002,0.176 0.15,0.259 0.3,0.237 0.81,-0.115 1.795,0.116 1.83,1.127 0.034,0.967 -1.062,1.275 -1.787,1.277 -0.101,0 -0.209,0.074 -0.229,0.18 -0.246,1.25 -0.497,3.007 0.957,3.547 0.788,0.293 1.655,0.307 2.479,0.34 1.756,0.068 3.514,0.067 5.271,0.055 1.715,-0.014 3.431,-0.046 5.147,-0.056 1.398,-0.009 2.808,0.098 4.207,0.019 0.621,-0.035 1.514,-0.145 1.886,-0.749 0.482,-0.783 0.214,-1.944 0.24,-2.821 0.004,-0.145 -0.112,-0.231 -0.238,-0.247 -0.828,-0.095 -1.647,-0.558 -1.441,-1.543 0.166,-0.787 0.972,-1.071 1.657,-1.009 0.131,0.012 0.234,-0.121 0.238,-0.246 0.03,-1.685 0.321,-3.729 -1.896,-3.899 -2.575,-0.197 -5.256,0.079 -7.833,0.182 -2.787,0.112 -5.487,-0.129 -8.263,-0.31 -1.227,-0.079 -2.38,0.097 -2.472,1.58 -0.02,0.318 0.456,0.315 0.476,0 0.099,-1.56 2.021,-1.097 3.059,-0.997 2.409,0.229 4.781,0.322 7.201,0.221 2.206,-0.092 4.416,-0.151 6.623,-0.195 1.026,-0.02 2.309,-0.094 2.649,1.152 0.196,0.722 -0.007,1.532 -0.021,2.268 0.079,-0.082 0.159,-0.164 0.238,-0.246 -0.977,-0.09 -2.031,0.479 -2.153,1.579 -0.14,1.242 0.885,1.837 1.938,1.958 -0.079,-0.082 -0.159,-0.164 -0.238,-0.246 -0.02,0.639 0.013,1.279 0.007,1.918 -0.007,0.866 -0.738,1.053 -1.427,1.139 -1.687,0.21 -3.471,-0.007 -5.168,0.006 -2.093,0.016 -4.187,0.059 -6.279,0.057 -1.651,-0.002 -3.364,0.06 -5.004,-0.185 -1.162,-0.172 -1.614,-0.811 -1.551,-2.01 0.006,-0.11 0.048,-0.949 0.172,-0.949 0.224,0 0.454,-0.051 0.671,-0.105 0.41,-0.101 0.771,-0.366 1.033,-0.701 0.421,-0.542 0.413,-1.29 0.065,-1.862 -0.459,-0.752 -1.411,-0.811 -2.171,-0.703 0.101,0.079 0.201,0.158 0.302,0.238 0.004,-0.78 0.023,-1.558 0.054,-2.336 0.011,-0.318 -0.463,-0.317 -0.476,-10e-4 z"
   id="path979"
   style="fill:#f0047f"
   transform="translate(-146.89896,-45.271046)" /><path
   clip-path="url(#SVGID_2_)"
   fill="#f0047f"
   d="m 223.929,48.324 c 0.002,0.311 0.006,0.623 0.006,0.934 0,0.225 0.931,0.225 0.931,0 0,-0.311 -0.004,-0.623 -0.004,-0.934 -0.001,-0.226 -0.933,-0.226 -0.933,0"
   id="path981"
   transform="translate(-146.89896,-45.271046)" /><path
   clip-path="url(#SVGID_2_)"
   fill="none"
   stroke="#f0047f"
   stroke-width="0.1262"
   stroke-miterlimit="10"
   d="m 223.929,48.324 c 0.002,0.311 0.006,0.623 0.006,0.934 0,0.225 0.931,0.225 0.931,0 0,-0.311 -0.004,-0.623 -0.004,-0.934 -0.001,-0.226 -0.933,-0.226 -0.933,0 z"
   id="path983"
   transform="translate(-146.89896,-45.271046)" /><path
   clip-path="url(#SVGID_2_)"
   fill="#f0047f"
   d="m 223.917,49.647 v 0.912 c 0,0.226 0.933,0.226 0.933,0 v -0.912 c 0,-0.226 -0.933,-0.226 -0.933,0"
   id="path985"
   transform="translate(-146.89896,-45.271046)" /><path
   clip-path="url(#SVGID_2_)"
   fill="none"
   stroke="#f0047f"
   stroke-width="0.1262"
   stroke-miterlimit="10"
   d="m 223.917,49.647 v 0.912 c 0,0.226 0.933,0.226 0.933,0 v -0.912 c 0,-0.226 -0.933,-0.226 -0.933,0 z"
   id="path987"
   transform="translate(-146.89896,-45.271046)" /><path
   clip-path="url(#SVGID_2_)"
   fill="#f0047f"
   d="m 223.917,50.954 v 0.912 c 0,0.226 0.933,0.226 0.933,0 v -0.912 c 0,-0.226 -0.933,-0.226 -0.933,0"
   id="path989"
   transform="translate(-146.89896,-45.271046)" /><path
   clip-path="url(#SVGID_2_)"
   fill="none"
   stroke="#f0047f"
   stroke-width="0.1262"
   stroke-miterlimit="10"
   d="m 223.917,50.954 v 0.912 c 0,0.226 0.933,0.226 0.933,0 v -0.912 c 0,-0.226 -0.933,-0.226 -0.933,0 z"
   id="path991"
   transform="translate(-146.89896,-45.271046)" /><path
   clip-path="url(#SVGID_2_)"
   fill="#f0047f"
   d="m 223.917,52.26 v 0.912 c 0,0.226 0.933,0.226 0.933,0 V 52.26 c 0,-0.226 -0.933,-0.226 -0.933,0"
   id="path993"
   transform="translate(-146.89896,-45.271046)" /><path
   clip-path="url(#SVGID_2_)"
   fill="none"
   stroke="#f0047f"
   stroke-width="0.1262"
   stroke-miterlimit="10"
   d="m 223.917,52.26 v 0.912 c 0,0.226 0.933,0.226 0.933,0 V 52.26 c 0,-0.226 -0.933,-0.226 -0.933,0 z"
   id="path995"
   transform="translate(-146.89896,-45.271046)" /><path
   clip-path="url(#SVGID_2_)"
   fill="#f0047f"
   d="m 223.917,53.586 v 0.792 c 0,0.231 0.933,0.231 0.933,0 v -0.792 c 0,-0.232 -0.933,-0.232 -0.933,0"
   id="path997"
   transform="translate(-146.89896,-45.271046)" /><path
   clip-path="url(#SVGID_2_)"
   fill="none"
   stroke="#f0047f"
   stroke-width="0.1262"
   stroke-miterlimit="10"
   d="m 223.917,53.586 v 0.792 c 0,0.231 0.933,0.231 0.933,0 v -0.792 c 0,-0.232 -0.933,-0.232 -0.933,0 z"
   id="path999"
   transform="translate(-146.89896,-45.271046)" /><path
   clip-path="url(#SVGID_2_)"
   fill="#f0047f"
   d="m 153.291,49.683 c 0.275,-0.627 0.552,-1.251 0.832,-1.874 -0.151,-0.021 -0.304,-0.042 -0.455,-0.062 0.143,0.593 0.363,1.156 0.527,1.742 0.028,0.103 0.131,0.204 0.24,0.192 0.737,-0.082 1.474,-0.137 2.208,-0.248 -0.081,-0.146 -0.162,-0.291 -0.243,-0.437 -0.504,0.545 -1.021,1.076 -1.535,1.611 -0.065,0.065 -0.089,0.164 -0.065,0.254 0.188,0.736 0.226,1.507 0.503,2.217 0.14,-0.085 0.279,-0.17 0.417,-0.254 -0.646,-0.573 -1.527,-1.346 -2.451,-1.159 -0.744,0.15 -1.148,0.766 -1.752,1.171 0.112,0.119 0.226,0.238 0.341,0.358 0.325,-0.794 0.547,-1.62 0.784,-2.446 0.033,-0.115 -0.021,-0.235 -0.115,-0.296 -0.528,-0.344 -0.861,-0.88 -1.276,-1.351 -0.08,0.146 -0.161,0.292 -0.242,0.438 0.687,0.127 1.379,0.179 2.068,0.273 0.317,0.043 0.314,-0.48 0,-0.522 -0.645,-0.089 -1.293,-0.137 -1.937,-0.255 -0.241,-0.044 -0.42,0.235 -0.243,0.437 0.372,0.42 0.688,0.879 1.109,1.248 0.28,0.25 -0.46,1.916 -0.58,2.21 -0.09,0.219 0.108,0.514 0.341,0.357 0.364,-0.244 0.657,-0.578 1.004,-0.844 0.9,-0.696 1.903,0.135 2.598,0.751 0.168,0.149 0.521,0.012 0.417,-0.254 -0.247,-0.631 -0.311,-1.314 -0.443,-1.979 -0.065,-0.335 1.196,-1.362 1.411,-1.595 0.189,-0.204 -0.009,-0.472 -0.243,-0.437 -0.581,0.087 -1.166,0.138 -1.751,0.192 -0.317,0.029 -0.553,-1.276 -0.61,-1.515 -0.052,-0.207 -0.362,-0.271 -0.456,-0.062 -0.281,0.624 -0.557,1.249 -0.83,1.874 -0.136,0.305 0.295,0.57 0.427,0.265"
   id="path1001"
   style="fill:#f0047f"
   transform="translate(-146.89896,-45.271046)" /><path
   clip-path="url(#SVGID_2_)"
   fill="none"
   stroke="#f0047f"
   stroke-width="0.1262"
   stroke-miterlimit="10"
   d="m 153.291,49.683 c 0.275,-0.627 0.552,-1.251 0.832,-1.874 -0.151,-0.021 -0.304,-0.042 -0.455,-0.062 0.143,0.593 0.363,1.156 0.527,1.742 0.028,0.103 0.131,0.204 0.24,0.192 0.737,-0.082 1.474,-0.137 2.208,-0.248 -0.081,-0.146 -0.162,-0.291 -0.243,-0.437 -0.504,0.545 -1.021,1.076 -1.535,1.611 -0.065,0.065 -0.089,0.164 -0.065,0.254 0.188,0.736 0.226,1.507 0.503,2.217 0.14,-0.085 0.279,-0.17 0.417,-0.254 -0.646,-0.573 -1.527,-1.346 -2.451,-1.159 -0.744,0.15 -1.148,0.766 -1.752,1.171 0.112,0.119 0.226,0.238 0.341,0.358 0.325,-0.794 0.547,-1.62 0.784,-2.446 0.033,-0.115 -0.021,-0.235 -0.115,-0.296 -0.528,-0.344 -0.861,-0.88 -1.276,-1.351 -0.08,0.146 -0.161,0.292 -0.242,0.438 0.687,0.127 1.379,0.179 2.068,0.273 0.317,0.043 0.314,-0.48 0,-0.522 -0.645,-0.089 -1.293,-0.137 -1.937,-0.255 -0.241,-0.044 -0.42,0.235 -0.243,0.437 0.372,0.42 0.688,0.879 1.109,1.248 0.28,0.25 -0.46,1.916 -0.58,2.21 -0.09,0.219 0.108,0.514 0.341,0.357 0.364,-0.244 0.657,-0.578 1.004,-0.844 0.9,-0.696 1.903,0.135 2.598,0.751 0.168,0.149 0.521,0.012 0.417,-0.254 -0.247,-0.631 -0.311,-1.314 -0.443,-1.979 -0.065,-0.335 1.196,-1.362 1.411,-1.595 0.189,-0.204 -0.009,-0.472 -0.243,-0.437 -0.581,0.087 -1.166,0.138 -1.751,0.192 -0.317,0.029 -0.553,-1.276 -0.61,-1.515 -0.052,-0.207 -0.362,-0.271 -0.456,-0.062 -0.281,0.624 -0.557,1.249 -0.83,1.874 -0.136,0.305 0.295,0.57 0.427,0.265 z"
   id="path1003"
   style="fill:#f0047f"
   transform="translate(-146.89896,-45.271046)" />
</svg>
