<?xml version="1.0" encoding="UTF-8" standalone="no"?>
<svg
   xmlns:dc="http://purl.org/dc/elements/1.1/"
   xmlns:cc="http://creativecommons.org/ns#"
   xmlns:rdf="http://www.w3.org/1999/02/22-rdf-syntax-ns#"
   xmlns:svg="http://www.w3.org/2000/svg"
   xmlns="http://www.w3.org/2000/svg"
   xmlns:sodipodi="http://sodipodi.sourceforge.net/DTD/sodipodi-0.dtd"
   xmlns:inkscape="http://www.inkscape.org/namespaces/inkscape"
   width="100%"
   viewBox="0 0 0.93922496 0.96547657"
   version="1.1"
   id="svg12349"
   inkscape:version="1.0.1 (c497b03c, 2020-09-10)"
   sodipodi:docname="percent_turq.svg">
  <defs
     id="defs12343" />
  <sodipodi:namedview
     id="base"
     pagecolor="#ffffff"
     bordercolor="#666666"
     borderopacity="1.0"
     inkscape:pageopacity="0.0"
     inkscape:pageshadow="2"
     inkscape:zoom="0.35"
     inkscape:cx="-181.08223"
     inkscape:cy="376.11024"
     inkscape:document-units="mm"
     inkscape:current-layer="layer1"
     inkscape:document-rotation="0"
     showgrid="false"
     fit-margin-top="0"
     fit-margin-left="0"
     fit-margin-right="0"
     fit-margin-bottom="0"
     inkscape:window-width="1248"
     inkscape:window-height="943"
     inkscape:window-x="0"
     inkscape:window-y="25"
     inkscape:window-maximized="0" />
  <metadata
     id="metadata12346">
    <rdf:RDF>
      <cc:Work
         rdf:about="">
        <dc:format>image/svg+xml</dc:format>
        <dc:type
           rdf:resource="http://purl.org/dc/dcmitype/StillImage" />
        <dc:title></dc:title>
      </cc:Work>
    </rdf:RDF>
  </metadata>
  <g
     inkscape:label="Ebene 1"
     inkscape:groupmode="layer"
     id="layer1"
     transform="translate(-153.74467,-48.654166)">
    <g
       style="fill:#a1e1cf;fill-opacity:1"
       id="g7902"
       transform="matrix(0.3527778,0,0,0.3527778,-76.909554,-62.194562)">
      <g
         id="use7900"
         transform="matrix(0.26458333,0,0,0.26458333,653.70721,316.91229)">
        <path
           style="stroke:none"
           d="m 1.6875,0 h 1.359375 l 6.21875,-10.03125 h -1.375 z m 0.109375,-7.859375 c 0,-0.53125 0.421875,-0.96875 0.96875,-0.96875 0.515625,0 0.953125,0.4375 0.953125,0.96875 0,0.53125 -0.4375,0.953125 -0.953125,0.953125 -0.546875,0 -0.96875,-0.421875 -0.96875,-0.953125 z M 10.5,-2.171875 C 10.5,-3.4375 9.46875,-4.46875 8.1875,-4.46875 c -1.296875,0 -2.328125,1.03125 -2.328125,2.296875 0,1.296875 1.03125,2.328125 2.328125,2.328125 1.28125,0 2.3125,-1.03125 2.3125,-2.328125 z m -5.421875,-5.6875 c 0,-1.28125 -1.03125,-2.328125 -2.3125,-2.328125 -1.296875,0 -2.328125,1.046875 -2.328125,2.328125 0,1.28125 1.03125,2.3125 2.328125,2.3125 1.28125,0 2.3125,-1.03125 2.3125,-2.3125 z m 4.0625,5.6875 c 0,0.546875 -0.421875,0.984375 -0.953125,0.984375 -0.546875,0 -0.984375,-0.4375 -0.984375,-0.984375 0,-0.515625 0.4375,-0.953125 0.984375,-0.953125 0.53125,0 0.953125,0.4375 0.953125,0.953125 z m 0,0"
           id="path12922" />
      </g>
    </g>
  </g>
</svg>
