<svg height="256" width="256" xmlns="http://www.w3.org/2000/svg"><path d="M 0 0 L 9 0 L 9 9 L 0 9 Z" fill="#000000" transform="matrix(1,0,0,1,0,0)"/><path d="M 0 0 L 9 0 L 9 9 L 0 9 Z" fill="#000000" transform="matrix(1,0,0,1,9,0)"/><path d="M 0 0 L 8 0 L 8 9 L 0 9 Z" fill="#000000" transform="matrix(1,0,0,1,18,0)"/><path d="M 0 0 L 9 0 L 9 9 L 0 9 Z" fill="#000000" transform="matrix(1,0,0,1,26,0)"/><path d="M 0 0 L 9 0 L 9 9 L 0 9 Z" fill="#000000" transform="matrix(1,0,0,1,35,0)"/><path d="M 0 0 L 9 0 L 9 9 L 0 9 Z" fill="#000000" transform="matrix(1,0,0,1,44,0)"/><path d="M 0 0 L 9 0 L 9 9 L 0 9 Z" fill="#000000" transform="matrix(1,0,0,1,53,0)"/><path d="M 0 0 L 9 0 L 9 9 L 0 9 Z" fill="#FFFFFF" transform="matrix(1,0,0,1,62,0)"/><path d="M 0 0 L 8 0 L 8 9 L 0 9 Z" fill="#FFFFFF" transform="matrix(1,0,0,1,71,0)"/><path d="M 0 0 L 9 0 L 9 9 L 0 9 Z" fill="#000000" transform="matrix(1,0,0,1,79,0)"/><path d="M 0 0 L 9 0 L 9 9 L 0 9 Z" fill="#FFFFFF" transform="matrix(1,0,0,1,88,0)"/><path d="M 0 0 L 9 0 L 9 9 L 0 9 Z" fill="#000000" transform="matrix(1,0,0,1,97,0)"/><path d="M 0 0 L 9 0 L 9 9 L 0 9 Z" fill="#FFFFFF" transform="matrix(1,0,0,1,106,0)"/><path d="M 0 0 L 9 0 L 9 9 L 0 9 Z" fill="#FFFFFF" transform="matrix(1,0,0,1,115,0)"/><path d="M 0 0 L 8 0 L 8 9 L 0 9 Z" fill="#FFFFFF" transform="matrix(1,0,0,1,124,0)"/><path d="M 0 0 L 9 0 L 9 9 L 0 9 Z" fill="#000000" transform="matrix(1,0,0,1,132,0)"/><path d="M 0 0 L 9 0 L 9 9 L 0 9 Z" fill="#000000" transform="matrix(1,0,0,1,141,0)"/><path d="M 0 0 L 9 0 L 9 9 L 0 9 Z" fill="#000000" transform="matrix(1,0,0,1,150,0)"/><path d="M 0 0 L 9 0 L 9 9 L 0 9 Z" fill="#FFFFFF" transform="matrix(1,0,0,1,159,0)"/><path d="M 0 0 L 9 0 L 9 9 L 0 9 Z" fill="#000000" transform="matrix(1,0,0,1,168,0)"/><path d="M 0 0 L 8 0 L 8 9 L 0 9 Z" fill="#000000" transform="matrix(1,0,0,1,177,0)"/><path d="M 0 0 L 9 0 L 9 9 L 0 9 Z" fill="#FFFFFF" transform="matrix(1,0,0,1,185,0)"/><path d="M 0 0 L 9 0 L 9 9 L 0 9 Z" fill="#000000" transform="matrix(1,0,0,1,194,0)"/><path d="M 0 0 L 9 0 L 9 9 L 0 9 Z" fill="#000000" transform="matrix(1,0,0,1,203,0)"/><path d="M 0 0 L 9 0 L 9 9 L 0 9 Z" fill="#000000" transform="matrix(1,0,0,1,212,0)"/><path d="M 0 0 L 9 0 L 9 9 L 0 9 Z" fill="#000000" transform="matrix(1,0,0,1,221,0)"/><path d="M 0 0 L 8 0 L 8 9 L 0 9 Z" fill="#000000" transform="matrix(1,0,0,1,230,0)"/><path d="M 0 0 L 9 0 L 9 9 L 0 9 Z" fill="#000000" transform="matrix(1,0,0,1,238,0)"/><path d="M 0 0 L 9 0 L 9 9 L 0 9 Z" fill="#000000" transform="matrix(1,0,0,1,247,0)"/><path d="M 0 0 L 9 0 L 9 9 L 0 9 Z" fill="#000000" transform="matrix(1,0,0,1,0,9)"/><path d="M 0 0 L 9 0 L 9 9 L 0 9 Z" fill="#FFFFFF" transform="matrix(1,0,0,1,9,9)"/><path d="M 0 0 L 8 0 L 8 9 L 0 9 Z" fill="#FFFFFF" transform="matrix(1,0,0,1,18,9)"/><path d="M 0 0 L 9 0 L 9 9 L 0 9 Z" fill="#FFFFFF" transform="matrix(1,0,0,1,26,9)"/><path d="M 0 0 L 9 0 L 9 9 L 0 9 Z" fill="#FFFFFF" transform="matrix(1,0,0,1,35,9)"/><path d="M 0 0 L 9 0 L 9 9 L 0 9 Z" fill="#FFFFFF" transform="matrix(1,0,0,1,44,9)"/><path d="M 0 0 L 9 0 L 9 9 L 0 9 Z" fill="#000000" transform="matrix(1,0,0,1,53,9)"/><path d="M 0 0 L 9 0 L 9 9 L 0 9 Z" fill="#FFFFFF" transform="matrix(1,0,0,1,62,9)"/><path d="M 0 0 L 8 0 L 8 9 L 0 9 Z" fill="#FFFFFF" transform="matrix(1,0,0,1,71,9)"/><path d="M 0 0 L 9 0 L 9 9 L 0 9 Z" fill="#000000" transform="matrix(1,0,0,1,79,9)"/><path d="M 0 0 L 9 0 L 9 9 L 0 9 Z" fill="#FFFFFF" transform="matrix(1,0,0,1,88,9)"/><path d="M 0 0 L 9 0 L 9 9 L 0 9 Z" fill="#000000" transform="matrix(1,0,0,1,97,9)"/><path d="M 0 0 L 9 0 L 9 9 L 0 9 Z" fill="#FFFFFF" transform="matrix(1,0,0,1,106,9)"/><path d="M 0 0 L 9 0 L 9 9 L 0 9 Z" fill="#FFFFFF" transform="matrix(1,0,0,1,115,9)"/><path d="M 0 0 L 8 0 L 8 9 L 0 9 Z" fill="#FFFFFF" transform="matrix(1,0,0,1,124,9)"/><path d="M 0 0 L 9 0 L 9 9 L 0 9 Z" fill="#000000" transform="matrix(1,0,0,1,132,9)"/><path d="M 0 0 L 9 0 L 9 9 L 0 9 Z" fill="#000000" transform="matrix(1,0,0,1,141,9)"/><path d="M 0 0 L 9 0 L 9 9 L 0 9 Z" fill="#000000" transform="matrix(1,0,0,1,150,9)"/><path d="M 0 0 L 9 0 L 9 9 L 0 9 Z" fill="#FFFFFF" transform="matrix(1,0,0,1,159,9)"/><path d="M 0 0 L 9 0 L 9 9 L 0 9 Z" fill="#000000" transform="matrix(1,0,0,1,168,9)"/><path d="M 0 0 L 8 0 L 8 9 L 0 9 Z" fill="#FFFFFF" transform="matrix(1,0,0,1,177,9)"/><path d="M 0 0 L 9 0 L 9 9 L 0 9 Z" fill="#FFFFFF" transform="matrix(1,0,0,1,185,9)"/><path d="M 0 0 L 9 0 L 9 9 L 0 9 Z" fill="#000000" transform="matrix(1,0,0,1,194,9)"/><path d="M 0 0 L 9 0 L 9 9 L 0 9 Z" fill="#FFFFFF" transform="matrix(1,0,0,1,203,9)"/><path d="M 0 0 L 9 0 L 9 9 L 0 9 Z" fill="#FFFFFF" transform="matrix(1,0,0,1,212,9)"/><path d="M 0 0 L 9 0 L 9 9 L 0 9 Z" fill="#FFFFFF" transform="matrix(1,0,0,1,221,9)"/><path d="M 0 0 L 8 0 L 8 9 L 0 9 Z" fill="#FFFFFF" transform="matrix(1,0,0,1,230,9)"/><path d="M 0 0 L 9 0 L 9 9 L 0 9 Z" fill="#FFFFFF" transform="matrix(1,0,0,1,238,9)"/><path d="M 0 0 L 9 0 L 9 9 L 0 9 Z" fill="#000000" transform="matrix(1,0,0,1,247,9)"/><path d="M 0 0 L 9 0 L 9 8 L 0 8 Z" fill="#000000" transform="matrix(1,0,0,1,0,18)"/><path d="M 0 0 L 9 0 L 9 8 L 0 8 Z" fill="#FFFFFF" transform="matrix(1,0,0,1,9,18)"/><path d="M 0 0 L 8 0 L 8 8 L 0 8 Z" fill="#000000" transform="matrix(1,0,0,1,18,18)"/><path d="M 0 0 L 9 0 L 9 8 L 0 8 Z" fill="#000000" transform="matrix(1,0,0,1,26,18)"/><path d="M 0 0 L 9 0 L 9 8 L 0 8 Z" fill="#000000" transform="matrix(1,0,0,1,35,18)"/><path d="M 0 0 L 9 0 L 9 8 L 0 8 Z" fill="#FFFFFF" transform="matrix(1,0,0,1,44,18)"/><path d="M 0 0 L 9 0 L 9 8 L 0 8 Z" fill="#000000" transform="matrix(1,0,0,1,53,18)"/><path d="M 0 0 L 9 0 L 9 8 L 0 8 Z" fill="#FFFFFF" transform="matrix(1,0,0,1,62,18)"/><path d="M 0 0 L 8 0 L 8 8 L 0 8 Z" fill="#000000" transform="matrix(1,0,0,1,71,18)"/><path d="M 0 0 L 9 0 L 9 8 L 0 8 Z" fill="#FFFFFF" transform="matrix(1,0,0,1,79,18)"/><path d="M 0 0 L 9 0 L 9 8 L 0 8 Z" fill="#FFFFFF" transform="matrix(1,0,0,1,88,18)"/><path d="M 0 0 L 9 0 L 9 8 L 0 8 Z" fill="#000000" transform="matrix(1,0,0,1,97,18)"/><path d="M 0 0 L 9 0 L 9 8 L 0 8 Z" fill="#FFFFFF" transform="matrix(1,0,0,1,106,18)"/><path d="M 0 0 L 9 0 L 9 8 L 0 8 Z" fill="#FFFFFF" transform="matrix(1,0,0,1,115,18)"/><path d="M 0 0 L 8 0 L 8 8 L 0 8 Z" fill="#000000" transform="matrix(1,0,0,1,124,18)"/><path d="M 0 0 L 9 0 L 9 8 L 0 8 Z" fill="#FFFFFF" transform="matrix(1,0,0,1,132,18)"/><path d="M 0 0 L 9 0 L 9 8 L 0 8 Z" fill="#FFFFFF" transform="matrix(1,0,0,1,141,18)"/><path d="M 0 0 L 9 0 L 9 8 L 0 8 Z" fill="#FFFFFF" transform="matrix(1,0,0,1,150,18)"/><path d="M 0 0 L 9 0 L 9 8 L 0 8 Z" fill="#000000" transform="matrix(1,0,0,1,159,18)"/><path d="M 0 0 L 9 0 L 9 8 L 0 8 Z" fill="#FFFFFF" transform="matrix(1,0,0,1,168,18)"/><path d="M 0 0 L 8 0 L 8 8 L 0 8 Z" fill="#000000" transform="matrix(1,0,0,1,177,18)"/><path d="M 0 0 L 9 0 L 9 8 L 0 8 Z" fill="#FFFFFF" transform="matrix(1,0,0,1,185,18)"/><path d="M 0 0 L 9 0 L 9 8 L 0 8 Z" fill="#000000" transform="matrix(1,0,0,1,194,18)"/><path d="M 0 0 L 9 0 L 9 8 L 0 8 Z" fill="#FFFFFF" transform="matrix(1,0,0,1,203,18)"/><path d="M 0 0 L 9 0 L 9 8 L 0 8 Z" fill="#000000" transform="matrix(1,0,0,1,212,18)"/><path d="M 0 0 L 9 0 L 9 8 L 0 8 Z" fill="#000000" transform="matrix(1,0,0,1,221,18)"/><path d="M 0 0 L 8 0 L 8 8 L 0 8 Z" fill="#000000" transform="matrix(1,0,0,1,230,18)"/><path d="M 0 0 L 9 0 L 9 8 L 0 8 Z" fill="#FFFFFF" transform="matrix(1,0,0,1,238,18)"/><path d="M 0 0 L 9 0 L 9 8 L 0 8 Z" fill="#000000" transform="matrix(1,0,0,1,247,18)"/><path d="M 0 0 L 9 0 L 9 9 L 0 9 Z" fill="#000000" transform="matrix(1,0,0,1,0,26)"/><path d="M 0 0 L 9 0 L 9 9 L 0 9 Z" fill="#FFFFFF" transform="matrix(1,0,0,1,9,26)"/><path d="M 0 0 L 8 0 L 8 9 L 0 9 Z" fill="#000000" transform="matrix(1,0,0,1,18,26)"/><path d="M 0 0 L 9 0 L 9 9 L 0 9 Z" fill="#000000" transform="matrix(1,0,0,1,26,26)"/><path d="M 0 0 L 9 0 L 9 9 L 0 9 Z" fill="#000000" transform="matrix(1,0,0,1,35,26)"/><path d="M 0 0 L 9 0 L 9 9 L 0 9 Z" fill="#FFFFFF" transform="matrix(1,0,0,1,44,26)"/><path d="M 0 0 L 9 0 L 9 9 L 0 9 Z" fill="#000000" transform="matrix(1,0,0,1,53,26)"/><path d="M 0 0 L 9 0 L 9 9 L 0 9 Z" fill="#FFFFFF" transform="matrix(1,0,0,1,62,26)"/><path d="M 0 0 L 8 0 L 8 9 L 0 9 Z" fill="#FFFFFF" transform="matrix(1,0,0,1,71,26)"/><path d="M 0 0 L 9 0 L 9 9 L 0 9 Z" fill="#000000" transform="matrix(1,0,0,1,79,26)"/><path d="M 0 0 L 9 0 L 9 9 L 0 9 Z" fill="#FFFFFF" transform="matrix(1,0,0,1,88,26)"/><path d="M 0 0 L 9 0 L 9 9 L 0 9 Z" fill="#FFFFFF" transform="matrix(1,0,0,1,97,26)"/><path d="M 0 0 L 9 0 L 9 9 L 0 9 Z" fill="#FFFFFF" transform="matrix(1,0,0,1,106,26)"/><path d="M 0 0 L 9 0 L 9 9 L 0 9 Z" fill="#FFFFFF" transform="matrix(1,0,0,1,115,26)"/><path d="M 0 0 L 8 0 L 8 9 L 0 9 Z" fill="#FFFFFF" transform="matrix(1,0,0,1,124,26)"/><path d="M 0 0 L 9 0 L 9 9 L 0 9 Z" fill="#000000" transform="matrix(1,0,0,1,132,26)"/><path d="M 0 0 L 9 0 L 9 9 L 0 9 Z" fill="#FFFFFF" transform="matrix(1,0,0,1,141,26)"/><path d="M 0 0 L 9 0 L 9 9 L 0 9 Z" fill="#FFFFFF" transform="matrix(1,0,0,1,150,26)"/><path d="M 0 0 L 9 0 L 9 9 L 0 9 Z" fill="#FFFFFF" transform="matrix(1,0,0,1,159,26)"/><path d="M 0 0 L 9 0 L 9 9 L 0 9 Z" fill="#FFFFFF" transform="matrix(1,0,0,1,168,26)"/><path d="M 0 0 L 8 0 L 8 9 L 0 9 Z" fill="#000000" transform="matrix(1,0,0,1,177,26)"/><path d="M 0 0 L 9 0 L 9 9 L 0 9 Z" fill="#FFFFFF" transform="matrix(1,0,0,1,185,26)"/><path d="M 0 0 L 9 0 L 9 9 L 0 9 Z" fill="#000000" transform="matrix(1,0,0,1,194,26)"/><path d="M 0 0 L 9 0 L 9 9 L 0 9 Z" fill="#FFFFFF" transform="matrix(1,0,0,1,203,26)"/><path d="M 0 0 L 9 0 L 9 9 L 0 9 Z" fill="#000000" transform="matrix(1,0,0,1,212,26)"/><path d="M 0 0 L 9 0 L 9 9 L 0 9 Z" fill="#000000" transform="matrix(1,0,0,1,221,26)"/><path d="M 0 0 L 8 0 L 8 9 L 0 9 Z" fill="#000000" transform="matrix(1,0,0,1,230,26)"/><path d="M 0 0 L 9 0 L 9 9 L 0 9 Z" fill="#FFFFFF" transform="matrix(1,0,0,1,238,26)"/><path d="M 0 0 L 9 0 L 9 9 L 0 9 Z" fill="#000000" transform="matrix(1,0,0,1,247,26)"/><path d="M 0 0 L 9 0 L 9 9 L 0 9 Z" fill="#000000" transform="matrix(1,0,0,1,0,35)"/><path d="M 0 0 L 9 0 L 9 9 L 0 9 Z" fill="#FFFFFF" transform="matrix(1,0,0,1,9,35)"/><path d="M 0 0 L 8 0 L 8 9 L 0 9 Z" fill="#000000" transform="matrix(1,0,0,1,18,35)"/><path d="M 0 0 L 9 0 L 9 9 L 0 9 Z" fill="#000000" transform="matrix(1,0,0,1,26,35)"/><path d="M 0 0 L 9 0 L 9 9 L 0 9 Z" fill="#000000" transform="matrix(1,0,0,1,35,35)"/><path d="M 0 0 L 9 0 L 9 9 L 0 9 Z" fill="#FFFFFF" transform="matrix(1,0,0,1,44,35)"/><path d="M 0 0 L 9 0 L 9 9 L 0 9 Z" fill="#000000" transform="matrix(1,0,0,1,53,35)"/><path d="M 0 0 L 9 0 L 9 9 L 0 9 Z" fill="#FFFFFF" transform="matrix(1,0,0,1,62,35)"/><path d="M 0 0 L 8 0 L 8 9 L 0 9 Z" fill="#FFFFFF" transform="matrix(1,0,0,1,71,35)"/><path d="M 0 0 L 9 0 L 9 9 L 0 9 Z" fill="#000000" transform="matrix(1,0,0,1,79,35)"/><path d="M 0 0 L 9 0 L 9 9 L 0 9 Z" fill="#000000" transform="matrix(1,0,0,1,88,35)"/><path d="M 0 0 L 9 0 L 9 9 L 0 9 Z" fill="#000000" transform="matrix(1,0,0,1,97,35)"/><path d="M 0 0 L 9 0 L 9 9 L 0 9 Z" fill="#FFFFFF" transform="matrix(1,0,0,1,106,35)"/><path d="M 0 0 L 9 0 L 9 9 L 0 9 Z" fill="#FFFFFF" transform="matrix(1,0,0,1,115,35)"/><path d="M 0 0 L 8 0 L 8 9 L 0 9 Z" fill="#FFFFFF" transform="matrix(1,0,0,1,124,35)"/><path d="M 0 0 L 9 0 L 9 9 L 0 9 Z" fill="#000000" transform="matrix(1,0,0,1,132,35)"/><path d="M 0 0 L 9 0 L 9 9 L 0 9 Z" fill="#000000" transform="matrix(1,0,0,1,141,35)"/><path d="M 0 0 L 9 0 L 9 9 L 0 9 Z" fill="#000000" transform="matrix(1,0,0,1,150,35)"/><path d="M 0 0 L 9 0 L 9 9 L 0 9 Z" fill="#FFFFFF" transform="matrix(1,0,0,1,159,35)"/><path d="M 0 0 L 9 0 L 9 9 L 0 9 Z" fill="#000000" transform="matrix(1,0,0,1,168,35)"/><path d="M 0 0 L 8 0 L 8 9 L 0 9 Z" fill="#000000" transform="matrix(1,0,0,1,177,35)"/><path d="M 0 0 L 9 0 L 9 9 L 0 9 Z" fill="#FFFFFF" transform="matrix(1,0,0,1,185,35)"/><path d="M 0 0 L 9 0 L 9 9 L 0 9 Z" fill="#000000" transform="matrix(1,0,0,1,194,35)"/><path d="M 0 0 L 9 0 L 9 9 L 0 9 Z" fill="#FFFFFF" transform="matrix(1,0,0,1,203,35)"/><path d="M 0 0 L 9 0 L 9 9 L 0 9 Z" fill="#000000" transform="matrix(1,0,0,1,212,35)"/><path d="M 0 0 L 9 0 L 9 9 L 0 9 Z" fill="#000000" transform="matrix(1,0,0,1,221,35)"/><path d="M 0 0 L 8 0 L 8 9 L 0 9 Z" fill="#000000" transform="matrix(1,0,0,1,230,35)"/><path d="M 0 0 L 9 0 L 9 9 L 0 9 Z" fill="#FFFFFF" transform="matrix(1,0,0,1,238,35)"/><path d="M 0 0 L 9 0 L 9 9 L 0 9 Z" fill="#000000" transform="matrix(1,0,0,1,247,35)"/><path d="M 0 0 L 9 0 L 9 9 L 0 9 Z" fill="#000000" transform="matrix(1,0,0,1,0,44)"/><path d="M 0 0 L 9 0 L 9 9 L 0 9 Z" fill="#FFFFFF" transform="matrix(1,0,0,1,9,44)"/><path d="M 0 0 L 8 0 L 8 9 L 0 9 Z" fill="#FFFFFF" transform="matrix(1,0,0,1,18,44)"/><path d="M 0 0 L 9 0 L 9 9 L 0 9 Z" fill="#FFFFFF" transform="matrix(1,0,0,1,26,44)"/><path d="M 0 0 L 9 0 L 9 9 L 0 9 Z" fill="#FFFFFF" transform="matrix(1,0,0,1,35,44)"/><path d="M 0 0 L 9 0 L 9 9 L 0 9 Z" fill="#FFFFFF" transform="matrix(1,0,0,1,44,44)"/><path d="M 0 0 L 9 0 L 9 9 L 0 9 Z" fill="#000000" transform="matrix(1,0,0,1,53,44)"/><path d="M 0 0 L 9 0 L 9 9 L 0 9 Z" fill="#FFFFFF" transform="matrix(1,0,0,1,62,44)"/><path d="M 0 0 L 8 0 L 8 9 L 0 9 Z" fill="#FFFFFF" transform="matrix(1,0,0,1,71,44)"/><path d="M 0 0 L 9 0 L 9 9 L 0 9 Z" fill="#FFFFFF" transform="matrix(1,0,0,1,79,44)"/><path d="M 0 0 L 9 0 L 9 9 L 0 9 Z" fill="#000000" transform="matrix(1,0,0,1,88,44)"/><path d="M 0 0 L 9 0 L 9 9 L 0 9 Z" fill="#000000" transform="matrix(1,0,0,1,97,44)"/><path d="M 0 0 L 9 0 L 9 9 L 0 9 Z" fill="#FFFFFF" transform="matrix(1,0,0,1,106,44)"/><path d="M 0 0 L 9 0 L 9 9 L 0 9 Z" fill="#000000" transform="matrix(1,0,0,1,115,44)"/><path d="M 0 0 L 8 0 L 8 9 L 0 9 Z" fill="#FFFFFF" transform="matrix(1,0,0,1,124,44)"/><path d="M 0 0 L 9 0 L 9 9 L 0 9 Z" fill="#000000" transform="matrix(1,0,0,1,132,44)"/><path d="M 0 0 L 9 0 L 9 9 L 0 9 Z" fill="#FFFFFF" transform="matrix(1,0,0,1,141,44)"/><path d="M 0 0 L 9 0 L 9 9 L 0 9 Z" fill="#000000" transform="matrix(1,0,0,1,150,44)"/><path d="M 0 0 L 9 0 L 9 9 L 0 9 Z" fill="#FFFFFF" transform="matrix(1,0,0,1,159,44)"/><path d="M 0 0 L 9 0 L 9 9 L 0 9 Z" fill="#000000" transform="matrix(1,0,0,1,168,44)"/><path d="M 0 0 L 8 0 L 8 9 L 0 9 Z" fill="#000000" transform="matrix(1,0,0,1,177,44)"/><path d="M 0 0 L 9 0 L 9 9 L 0 9 Z" fill="#FFFFFF" transform="matrix(1,0,0,1,185,44)"/><path d="M 0 0 L 9 0 L 9 9 L 0 9 Z" fill="#000000" transform="matrix(1,0,0,1,194,44)"/><path d="M 0 0 L 9 0 L 9 9 L 0 9 Z" fill="#FFFFFF" transform="matrix(1,0,0,1,203,44)"/><path d="M 0 0 L 9 0 L 9 9 L 0 9 Z" fill="#FFFFFF" transform="matrix(1,0,0,1,212,44)"/><path d="M 0 0 L 9 0 L 9 9 L 0 9 Z" fill="#FFFFFF" transform="matrix(1,0,0,1,221,44)"/><path d="M 0 0 L 8 0 L 8 9 L 0 9 Z" fill="#FFFFFF" transform="matrix(1,0,0,1,230,44)"/><path d="M 0 0 L 9 0 L 9 9 L 0 9 Z" fill="#FFFFFF" transform="matrix(1,0,0,1,238,44)"/><path d="M 0 0 L 9 0 L 9 9 L 0 9 Z" fill="#000000" transform="matrix(1,0,0,1,247,44)"/><path d="M 0 0 L 9 0 L 9 9 L 0 9 Z" fill="#000000" transform="matrix(1,0,0,1,0,53)"/><path d="M 0 0 L 9 0 L 9 9 L 0 9 Z" fill="#000000" transform="matrix(1,0,0,1,9,53)"/><path d="M 0 0 L 8 0 L 8 9 L 0 9 Z" fill="#000000" transform="matrix(1,0,0,1,18,53)"/><path d="M 0 0 L 9 0 L 9 9 L 0 9 Z" fill="#000000" transform="matrix(1,0,0,1,26,53)"/><path d="M 0 0 L 9 0 L 9 9 L 0 9 Z" fill="#000000" transform="matrix(1,0,0,1,35,53)"/><path d="M 0 0 L 9 0 L 9 9 L 0 9 Z" fill="#000000" transform="matrix(1,0,0,1,44,53)"/><path d="M 0 0 L 9 0 L 9 9 L 0 9 Z" fill="#000000" transform="matrix(1,0,0,1,53,53)"/><path d="M 0 0 L 9 0 L 9 9 L 0 9 Z" fill="#FFFFFF" transform="matrix(1,0,0,1,62,53)"/><path d="M 0 0 L 8 0 L 8 9 L 0 9 Z" fill="#000000" transform="matrix(1,0,0,1,71,53)"/><path d="M 0 0 L 9 0 L 9 9 L 0 9 Z" fill="#FFFFFF" transform="matrix(1,0,0,1,79,53)"/><path d="M 0 0 L 9 0 L 9 9 L 0 9 Z" fill="#000000" transform="matrix(1,0,0,1,88,53)"/><path d="M 0 0 L 9 0 L 9 9 L 0 9 Z" fill="#FFFFFF" transform="matrix(1,0,0,1,97,53)"/><path d="M 0 0 L 9 0 L 9 9 L 0 9 Z" fill="#000000" transform="matrix(1,0,0,1,106,53)"/><path d="M 0 0 L 9 0 L 9 9 L 0 9 Z" fill="#FFFFFF" transform="matrix(1,0,0,1,115,53)"/><path d="M 0 0 L 8 0 L 8 9 L 0 9 Z" fill="#000000" transform="matrix(1,0,0,1,124,53)"/><path d="M 0 0 L 9 0 L 9 9 L 0 9 Z" fill="#FFFFFF" transform="matrix(1,0,0,1,132,53)"/><path d="M 0 0 L 9 0 L 9 9 L 0 9 Z" fill="#000000" transform="matrix(1,0,0,1,141,53)"/><path d="M 0 0 L 9 0 L 9 9 L 0 9 Z" fill="#FFFFFF" transform="matrix(1,0,0,1,150,53)"/><path d="M 0 0 L 9 0 L 9 9 L 0 9 Z" fill="#000000" transform="matrix(1,0,0,1,159,53)"/><path d="M 0 0 L 9 0 L 9 9 L 0 9 Z" fill="#FFFFFF" transform="matrix(1,0,0,1,168,53)"/><path d="M 0 0 L 8 0 L 8 9 L 0 9 Z" fill="#000000" transform="matrix(1,0,0,1,177,53)"/><path d="M 0 0 L 9 0 L 9 9 L 0 9 Z" fill="#FFFFFF" transform="matrix(1,0,0,1,185,53)"/><path d="M 0 0 L 9 0 L 9 9 L 0 9 Z" fill="#000000" transform="matrix(1,0,0,1,194,53)"/><path d="M 0 0 L 9 0 L 9 9 L 0 9 Z" fill="#000000" transform="matrix(1,0,0,1,203,53)"/><path d="M 0 0 L 9 0 L 9 9 L 0 9 Z" fill="#000000" transform="matrix(1,0,0,1,212,53)"/><path d="M 0 0 L 9 0 L 9 9 L 0 9 Z" fill="#000000" transform="matrix(1,0,0,1,221,53)"/><path d="M 0 0 L 8 0 L 8 9 L 0 9 Z" fill="#000000" transform="matrix(1,0,0,1,230,53)"/><path d="M 0 0 L 9 0 L 9 9 L 0 9 Z" fill="#000000" transform="matrix(1,0,0,1,238,53)"/><path d="M 0 0 L 9 0 L 9 9 L 0 9 Z" fill="#000000" transform="matrix(1,0,0,1,247,53)"/><path d="M 0 0 L 9 0 L 9 9 L 0 9 Z" fill="#FFFFFF" transform="matrix(1,0,0,1,0,62)"/><path d="M 0 0 L 9 0 L 9 9 L 0 9 Z" fill="#FFFFFF" transform="matrix(1,0,0,1,9,62)"/><path d="M 0 0 L 8 0 L 8 9 L 0 9 Z" fill="#FFFFFF" transform="matrix(1,0,0,1,18,62)"/><path d="M 0 0 L 9 0 L 9 9 L 0 9 Z" fill="#FFFFFF" transform="matrix(1,0,0,1,26,62)"/><path d="M 0 0 L 9 0 L 9 9 L 0 9 Z" fill="#FFFFFF" transform="matrix(1,0,0,1,35,62)"/><path d="M 0 0 L 9 0 L 9 9 L 0 9 Z" fill="#FFFFFF" transform="matrix(1,0,0,1,44,62)"/><path d="M 0 0 L 9 0 L 9 9 L 0 9 Z" fill="#FFFFFF" transform="matrix(1,0,0,1,53,62)"/><path d="M 0 0 L 9 0 L 9 9 L 0 9 Z" fill="#FFFFFF" transform="matrix(1,0,0,1,62,62)"/><path d="M 0 0 L 8 0 L 8 9 L 0 9 Z" fill="#000000" transform="matrix(1,0,0,1,71,62)"/><path d="M 0 0 L 9 0 L 9 9 L 0 9 Z" fill="#FFFFFF" transform="matrix(1,0,0,1,79,62)"/><path d="M 0 0 L 9 0 L 9 9 L 0 9 Z" fill="#FFFFFF" transform="matrix(1,0,0,1,88,62)"/><path d="M 0 0 L 9 0 L 9 9 L 0 9 Z" fill="#FFFFFF" transform="matrix(1,0,0,1,97,62)"/><path d="M 0 0 L 9 0 L 9 9 L 0 9 Z" fill="#000000" transform="matrix(1,0,0,1,106,62)"/><path d="M 0 0 L 9 0 L 9 9 L 0 9 Z" fill="#000000" transform="matrix(1,0,0,1,115,62)"/><path d="M 0 0 L 8 0 L 8 9 L 0 9 Z" fill="#FFFFFF" transform="matrix(1,0,0,1,124,62)"/><path d="M 0 0 L 9 0 L 9 9 L 0 9 Z" fill="#FFFFFF" transform="matrix(1,0,0,1,132,62)"/><path d="M 0 0 L 9 0 L 9 9 L 0 9 Z" fill="#000000" transform="matrix(1,0,0,1,141,62)"/><path d="M 0 0 L 9 0 L 9 9 L 0 9 Z" fill="#000000" transform="matrix(1,0,0,1,150,62)"/><path d="M 0 0 L 9 0 L 9 9 L 0 9 Z" fill="#FFFFFF" transform="matrix(1,0,0,1,159,62)"/><path d="M 0 0 L 9 0 L 9 9 L 0 9 Z" fill="#FFFFFF" transform="matrix(1,0,0,1,168,62)"/><path d="M 0 0 L 8 0 L 8 9 L 0 9 Z" fill="#FFFFFF" transform="matrix(1,0,0,1,177,62)"/><path d="M 0 0 L 9 0 L 9 9 L 0 9 Z" fill="#FFFFFF" transform="matrix(1,0,0,1,185,62)"/><path d="M 0 0 L 9 0 L 9 9 L 0 9 Z" fill="#FFFFFF" transform="matrix(1,0,0,1,194,62)"/><path d="M 0 0 L 9 0 L 9 9 L 0 9 Z" fill="#FFFFFF" transform="matrix(1,0,0,1,203,62)"/><path d="M 0 0 L 9 0 L 9 9 L 0 9 Z" fill="#FFFFFF" transform="matrix(1,0,0,1,212,62)"/><path d="M 0 0 L 9 0 L 9 9 L 0 9 Z" fill="#FFFFFF" transform="matrix(1,0,0,1,221,62)"/><path d="M 0 0 L 8 0 L 8 9 L 0 9 Z" fill="#FFFFFF" transform="matrix(1,0,0,1,230,62)"/><path d="M 0 0 L 9 0 L 9 9 L 0 9 Z" fill="#FFFFFF" transform="matrix(1,0,0,1,238,62)"/><path d="M 0 0 L 9 0 L 9 9 L 0 9 Z" fill="#FFFFFF" transform="matrix(1,0,0,1,247,62)"/><path d="M 0 0 L 9 0 L 9 8 L 0 8 Z" fill="#000000" transform="matrix(1,0,0,1,0,71)"/><path d="M 0 0 L 9 0 L 9 8 L 0 8 Z" fill="#000000" transform="matrix(1,0,0,1,9,71)"/><path d="M 0 0 L 8 0 L 8 8 L 0 8 Z" fill="#000000" transform="matrix(1,0,0,1,18,71)"/><path d="M 0 0 L 9 0 L 9 8 L 0 8 Z" fill="#FFFFFF" transform="matrix(1,0,0,1,26,71)"/><path d="M 0 0 L 9 0 L 9 8 L 0 8 Z" fill="#000000" transform="matrix(1,0,0,1,35,71)"/><path d="M 0 0 L 9 0 L 9 8 L 0 8 Z" fill="#000000" transform="matrix(1,0,0,1,44,71)"/><path d="M 0 0 L 9 0 L 9 8 L 0 8 Z" fill="#000000" transform="matrix(1,0,0,1,53,71)"/><path d="M 0 0 L 9 0 L 9 8 L 0 8 Z" fill="#000000" transform="matrix(1,0,0,1,62,71)"/><path d="M 0 0 L 8 0 L 8 8 L 0 8 Z" fill="#000000" transform="matrix(1,0,0,1,71,71)"/><path d="M 0 0 L 9 0 L 9 8 L 0 8 Z" fill="#FFFFFF" transform="matrix(1,0,0,1,79,71)"/><path d="M 0 0 L 9 0 L 9 8 L 0 8 Z" fill="#FFFFFF" transform="matrix(1,0,0,1,88,71)"/><path d="M 0 0 L 9 0 L 9 8 L 0 8 Z" fill="#000000" transform="matrix(1,0,0,1,97,71)"/><path d="M 0 0 L 9 0 L 9 8 L 0 8 Z" fill="#000000" transform="matrix(1,0,0,1,106,71)"/><path d="M 0 0 L 9 0 L 9 8 L 0 8 Z" fill="#000000" transform="matrix(1,0,0,1,115,71)"/><path d="M 0 0 L 8 0 L 8 8 L 0 8 Z" fill="#FFFFFF" transform="matrix(1,0,0,1,124,71)"/><path d="M 0 0 L 9 0 L 9 8 L 0 8 Z" fill="#000000" transform="matrix(1,0,0,1,132,71)"/><path d="M 0 0 L 9 0 L 9 8 L 0 8 Z" fill="#000000" transform="matrix(1,0,0,1,141,71)"/><path d="M 0 0 L 9 0 L 9 8 L 0 8 Z" fill="#000000" transform="matrix(1,0,0,1,150,71)"/><path d="M 0 0 L 9 0 L 9 8 L 0 8 Z" fill="#000000" transform="matrix(1,0,0,1,159,71)"/><path d="M 0 0 L 9 0 L 9 8 L 0 8 Z" fill="#FFFFFF" transform="matrix(1,0,0,1,168,71)"/><path d="M 0 0 L 8 0 L 8 8 L 0 8 Z" fill="#FFFFFF" transform="matrix(1,0,0,1,177,71)"/><path d="M 0 0 L 9 0 L 9 8 L 0 8 Z" fill="#000000" transform="matrix(1,0,0,1,185,71)"/><path d="M 0 0 L 9 0 L 9 8 L 0 8 Z" fill="#000000" transform="matrix(1,0,0,1,194,71)"/><path d="M 0 0 L 9 0 L 9 8 L 0 8 Z" fill="#FFFFFF" transform="matrix(1,0,0,1,203,71)"/><path d="M 0 0 L 9 0 L 9 8 L 0 8 Z" fill="#FFFFFF" transform="matrix(1,0,0,1,212,71)"/><path d="M 0 0 L 9 0 L 9 8 L 0 8 Z" fill="#FFFFFF" transform="matrix(1,0,0,1,221,71)"/><path d="M 0 0 L 8 0 L 8 8 L 0 8 Z" fill="#000000" transform="matrix(1,0,0,1,230,71)"/><path d="M 0 0 L 9 0 L 9 8 L 0 8 Z" fill="#FFFFFF" transform="matrix(1,0,0,1,238,71)"/><path d="M 0 0 L 9 0 L 9 8 L 0 8 Z" fill="#FFFFFF" transform="matrix(1,0,0,1,247,71)"/><path d="M 0 0 L 9 0 L 9 9 L 0 9 Z" fill="#FFFFFF" transform="matrix(1,0,0,1,0,79)"/><path d="M 0 0 L 9 0 L 9 9 L 0 9 Z" fill="#FFFFFF" transform="matrix(1,0,0,1,9,79)"/><path d="M 0 0 L 8 0 L 8 9 L 0 9 Z" fill="#FFFFFF" transform="matrix(1,0,0,1,18,79)"/><path d="M 0 0 L 9 0 L 9 9 L 0 9 Z" fill="#000000" transform="matrix(1,0,0,1,26,79)"/><path d="M 0 0 L 9 0 L 9 9 L 0 9 Z" fill="#000000" transform="matrix(1,0,0,1,35,79)"/><path d="M 0 0 L 9 0 L 9 9 L 0 9 Z" fill="#FFFFFF" transform="matrix(1,0,0,1,44,79)"/><path d="M 0 0 L 9 0 L 9 9 L 0 9 Z" fill="#FFFFFF" transform="matrix(1,0,0,1,53,79)"/><path d="M 0 0 L 9 0 L 9 9 L 0 9 Z" fill="#FFFFFF" transform="matrix(1,0,0,1,62,79)"/><path d="M 0 0 L 8 0 L 8 9 L 0 9 Z" fill="#000000" transform="matrix(1,0,0,1,71,79)"/><path d="M 0 0 L 9 0 L 9 9 L 0 9 Z" fill="#000000" transform="matrix(1,0,0,1,79,79)"/><path d="M 0 0 L 9 0 L 9 9 L 0 9 Z" fill="#FFFFFF" transform="matrix(1,0,0,1,88,79)"/><path d="M 0 0 L 9 0 L 9 9 L 0 9 Z" fill="#FFFFFF" transform="matrix(1,0,0,1,97,79)"/><path d="M 0 0 L 9 0 L 9 9 L 0 9 Z" fill="#000000" transform="matrix(1,0,0,1,106,79)"/><path d="M 0 0 L 9 0 L 9 9 L 0 9 Z" fill="#FFFFFF" transform="matrix(1,0,0,1,115,79)"/><path d="M 0 0 L 8 0 L 8 9 L 0 9 Z" fill="#FFFFFF" transform="matrix(1,0,0,1,124,79)"/><path d="M 0 0 L 9 0 L 9 9 L 0 9 Z" fill="#FFFFFF" transform="matrix(1,0,0,1,132,79)"/><path d="M 0 0 L 9 0 L 9 9 L 0 9 Z" fill="#000000" transform="matrix(1,0,0,1,141,79)"/><path d="M 0 0 L 9 0 L 9 9 L 0 9 Z" fill="#000000" transform="matrix(1,0,0,1,150,79)"/><path d="M 0 0 L 9 0 L 9 9 L 0 9 Z" fill="#000000" transform="matrix(1,0,0,1,159,79)"/><path d="M 0 0 L 9 0 L 9 9 L 0 9 Z" fill="#FFFFFF" transform="matrix(1,0,0,1,168,79)"/><path d="M 0 0 L 8 0 L 8 9 L 0 9 Z" fill="#FFFFFF" transform="matrix(1,0,0,1,177,79)"/><path d="M 0 0 L 9 0 L 9 9 L 0 9 Z" fill="#000000" transform="matrix(1,0,0,1,185,79)"/><path d="M 0 0 L 9 0 L 9 9 L 0 9 Z" fill="#000000" transform="matrix(1,0,0,1,194,79)"/><path d="M 0 0 L 9 0 L 9 9 L 0 9 Z" fill="#FFFFFF" transform="matrix(1,0,0,1,203,79)"/><path d="M 0 0 L 9 0 L 9 9 L 0 9 Z" fill="#FFFFFF" transform="matrix(1,0,0,1,212,79)"/><path d="M 0 0 L 9 0 L 9 9 L 0 9 Z" fill="#000000" transform="matrix(1,0,0,1,221,79)"/><path d="M 0 0 L 8 0 L 8 9 L 0 9 Z" fill="#FFFFFF" transform="matrix(1,0,0,1,230,79)"/><path d="M 0 0 L 9 0 L 9 9 L 0 9 Z" fill="#FFFFFF" transform="matrix(1,0,0,1,238,79)"/><path d="M 0 0 L 9 0 L 9 9 L 0 9 Z" fill="#000000" transform="matrix(1,0,0,1,247,79)"/><path d="M 0 0 L 9 0 L 9 9 L 0 9 Z" fill="#000000" transform="matrix(1,0,0,1,0,88)"/><path d="M 0 0 L 9 0 L 9 9 L 0 9 Z" fill="#FFFFFF" transform="matrix(1,0,0,1,9,88)"/><path d="M 0 0 L 8 0 L 8 9 L 0 9 Z" fill="#000000" transform="matrix(1,0,0,1,18,88)"/><path d="M 0 0 L 9 0 L 9 9 L 0 9 Z" fill="#FFFFFF" transform="matrix(1,0,0,1,26,88)"/><path d="M 0 0 L 9 0 L 9 9 L 0 9 Z" fill="#000000" transform="matrix(1,0,0,1,35,88)"/><path d="M 0 0 L 9 0 L 9 9 L 0 9 Z" fill="#000000" transform="matrix(1,0,0,1,44,88)"/><path d="M 0 0 L 9 0 L 9 9 L 0 9 Z" fill="#000000" transform="matrix(1,0,0,1,53,88)"/><path d="M 0 0 L 9 0 L 9 9 L 0 9 Z" fill="#FFFFFF" transform="matrix(1,0,0,1,62,88)"/><path d="M 0 0 L 8 0 L 8 9 L 0 9 Z" fill="#FFFFFF" transform="matrix(1,0,0,1,71,88)"/><path d="M 0 0 L 9 0 L 9 9 L 0 9 Z" fill="#FFFFFF" transform="matrix(1,0,0,1,79,88)"/><path d="M 0 0 L 9 0 L 9 9 L 0 9 Z" fill="#000000" transform="matrix(1,0,0,1,88,88)"/><path d="M 0 0 L 9 0 L 9 9 L 0 9 Z" fill="#FFFFFF" transform="matrix(1,0,0,1,97,88)"/><path d="M 0 0 L 9 0 L 9 9 L 0 9 Z" fill="#FFFFFF" transform="matrix(1,0,0,1,106,88)"/><path d="M 0 0 L 9 0 L 9 9 L 0 9 Z" fill="#FFFFFF" transform="matrix(1,0,0,1,115,88)"/><path d="M 0 0 L 8 0 L 8 9 L 0 9 Z" fill="#000000" transform="matrix(1,0,0,1,124,88)"/><path d="M 0 0 L 9 0 L 9 9 L 0 9 Z" fill="#FFFFFF" transform="matrix(1,0,0,1,132,88)"/><path d="M 0 0 L 9 0 L 9 9 L 0 9 Z" fill="#FFFFFF" transform="matrix(1,0,0,1,141,88)"/><path d="M 0 0 L 9 0 L 9 9 L 0 9 Z" fill="#000000" transform="matrix(1,0,0,1,150,88)"/><path d="M 0 0 L 9 0 L 9 9 L 0 9 Z" fill="#FFFFFF" transform="matrix(1,0,0,1,159,88)"/><path d="M 0 0 L 9 0 L 9 9 L 0 9 Z" fill="#FFFFFF" transform="matrix(1,0,0,1,168,88)"/><path d="M 0 0 L 8 0 L 8 9 L 0 9 Z" fill="#000000" transform="matrix(1,0,0,1,177,88)"/><path d="M 0 0 L 9 0 L 9 9 L 0 9 Z" fill="#000000" transform="matrix(1,0,0,1,185,88)"/><path d="M 0 0 L 9 0 L 9 9 L 0 9 Z" fill="#000000" transform="matrix(1,0,0,1,194,88)"/><path d="M 0 0 L 9 0 L 9 9 L 0 9 Z" fill="#000000" transform="matrix(1,0,0,1,203,88)"/><path d="M 0 0 L 9 0 L 9 9 L 0 9 Z" fill="#000000" transform="matrix(1,0,0,1,212,88)"/><path d="M 0 0 L 9 0 L 9 9 L 0 9 Z" fill="#FFFFFF" transform="matrix(1,0,0,1,221,88)"/><path d="M 0 0 L 8 0 L 8 9 L 0 9 Z" fill="#000000" transform="matrix(1,0,0,1,230,88)"/><path d="M 0 0 L 9 0 L 9 9 L 0 9 Z" fill="#000000" transform="matrix(1,0,0,1,238,88)"/><path d="M 0 0 L 9 0 L 9 9 L 0 9 Z" fill="#000000" transform="matrix(1,0,0,1,247,88)"/><path d="M 0 0 L 9 0 L 9 9 L 0 9 Z" fill="#000000" transform="matrix(1,0,0,1,0,97)"/><path d="M 0 0 L 9 0 L 9 9 L 0 9 Z" fill="#000000" transform="matrix(1,0,0,1,9,97)"/><path d="M 0 0 L 8 0 L 8 9 L 0 9 Z" fill="#FFFFFF" transform="matrix(1,0,0,1,18,97)"/><path d="M 0 0 L 9 0 L 9 9 L 0 9 Z" fill="#FFFFFF" transform="matrix(1,0,0,1,26,97)"/><path d="M 0 0 L 9 0 L 9 9 L 0 9 Z" fill="#000000" transform="matrix(1,0,0,1,35,97)"/><path d="M 0 0 L 9 0 L 9 9 L 0 9 Z" fill="#000000" transform="matrix(1,0,0,1,44,97)"/><path d="M 0 0 L 9 0 L 9 9 L 0 9 Z" fill="#FFFFFF" transform="matrix(1,0,0,1,53,97)"/><path d="M 0 0 L 9 0 L 9 9 L 0 9 Z" fill="#000000" transform="matrix(1,0,0,1,62,97)"/><path d="M 0 0 L 8 0 L 8 9 L 0 9 Z" fill="#FFFFFF" transform="matrix(1,0,0,1,71,97)"/><path d="M 0 0 L 9 0 L 9 9 L 0 9 Z" fill="#000000" transform="matrix(1,0,0,1,79,97)"/><path d="M 0 0 L 9 0 L 9 9 L 0 9 Z" fill="#000000" transform="matrix(1,0,0,1,88,97)"/><path d="M 0 0 L 9 0 L 9 9 L 0 9 Z" fill="#000000" transform="matrix(1,0,0,1,97,97)"/><path d="M 0 0 L 9 0 L 9 9 L 0 9 Z" fill="#000000" transform="matrix(1,0,0,1,106,97)"/><path d="M 0 0 L 9 0 L 9 9 L 0 9 Z" fill="#000000" transform="matrix(1,0,0,1,115,97)"/><path d="M 0 0 L 8 0 L 8 9 L 0 9 Z" fill="#000000" transform="matrix(1,0,0,1,124,97)"/><path d="M 0 0 L 9 0 L 9 9 L 0 9 Z" fill="#000000" transform="matrix(1,0,0,1,132,97)"/><path d="M 0 0 L 9 0 L 9 9 L 0 9 Z" fill="#FFFFFF" transform="matrix(1,0,0,1,141,97)"/><path d="M 0 0 L 9 0 L 9 9 L 0 9 Z" fill="#000000" transform="matrix(1,0,0,1,150,97)"/><path d="M 0 0 L 9 0 L 9 9 L 0 9 Z" fill="#FFFFFF" transform="matrix(1,0,0,1,159,97)"/><path d="M 0 0 L 9 0 L 9 9 L 0 9 Z" fill="#FFFFFF" transform="matrix(1,0,0,1,168,97)"/><path d="M 0 0 L 8 0 L 8 9 L 0 9 Z" fill="#FFFFFF" transform="matrix(1,0,0,1,177,97)"/><path d="M 0 0 L 9 0 L 9 9 L 0 9 Z" fill="#FFFFFF" transform="matrix(1,0,0,1,185,97)"/><path d="M 0 0 L 9 0 L 9 9 L 0 9 Z" fill="#FFFFFF" transform="matrix(1,0,0,1,194,97)"/><path d="M 0 0 L 9 0 L 9 9 L 0 9 Z" fill="#FFFFFF" transform="matrix(1,0,0,1,203,97)"/><path d="M 0 0 L 9 0 L 9 9 L 0 9 Z" fill="#000000" transform="matrix(1,0,0,1,212,97)"/><path d="M 0 0 L 9 0 L 9 9 L 0 9 Z" fill="#FFFFFF" transform="matrix(1,0,0,1,221,97)"/><path d="M 0 0 L 8 0 L 8 9 L 0 9 Z" fill="#FFFFFF" transform="matrix(1,0,0,1,230,97)"/><path d="M 0 0 L 9 0 L 9 9 L 0 9 Z" fill="#000000" transform="matrix(1,0,0,1,238,97)"/><path d="M 0 0 L 9 0 L 9 9 L 0 9 Z" fill="#FFFFFF" transform="matrix(1,0,0,1,247,97)"/><path d="M 0 0 L 9 0 L 9 9 L 0 9 Z" fill="#000000" transform="matrix(1,0,0,1,0,106)"/><path d="M 0 0 L 9 0 L 9 9 L 0 9 Z" fill="#000000" transform="matrix(1,0,0,1,9,106)"/><path d="M 0 0 L 8 0 L 8 9 L 0 9 Z" fill="#000000" transform="matrix(1,0,0,1,18,106)"/><path d="M 0 0 L 9 0 L 9 9 L 0 9 Z" fill="#000000" transform="matrix(1,0,0,1,26,106)"/><path d="M 0 0 L 9 0 L 9 9 L 0 9 Z" fill="#000000" transform="matrix(1,0,0,1,35,106)"/><path d="M 0 0 L 9 0 L 9 9 L 0 9 Z" fill="#FFFFFF" transform="matrix(1,0,0,1,44,106)"/><path d="M 0 0 L 9 0 L 9 9 L 0 9 Z" fill="#000000" transform="matrix(1,0,0,1,53,106)"/><path d="M 0 0 L 9 0 L 9 9 L 0 9 Z" fill="#000000" transform="matrix(1,0,0,1,62,106)"/><path d="M 0 0 L 8 0 L 8 9 L 0 9 Z" fill="#FFFFFF" transform="matrix(1,0,0,1,71,106)"/><path d="M 0 0 L 9 0 L 9 9 L 0 9 Z" fill="#FFFFFF" transform="matrix(1,0,0,1,79,106)"/><path d="M 0 0 L 9 0 L 9 9 L 0 9 Z" fill="#000000" transform="matrix(1,0,0,1,88,106)"/><path d="M 0 0 L 9 0 L 9 9 L 0 9 Z" fill="#FFFFFF" transform="matrix(1,0,0,1,97,106)"/><path d="M 0 0 L 9 0 L 9 9 L 0 9 Z" fill="#FFFFFF" transform="matrix(1,0,0,1,106,106)"/><path d="M 0 0 L 9 0 L 9 9 L 0 9 Z" fill="#000000" transform="matrix(1,0,0,1,115,106)"/><path d="M 0 0 L 8 0 L 8 9 L 0 9 Z" fill="#FFFFFF" transform="matrix(1,0,0,1,124,106)"/><path d="M 0 0 L 9 0 L 9 9 L 0 9 Z" fill="#000000" transform="matrix(1,0,0,1,132,106)"/><path d="M 0 0 L 9 0 L 9 9 L 0 9 Z" fill="#000000" transform="matrix(1,0,0,1,141,106)"/><path d="M 0 0 L 9 0 L 9 9 L 0 9 Z" fill="#000000" transform="matrix(1,0,0,1,150,106)"/><path d="M 0 0 L 9 0 L 9 9 L 0 9 Z" fill="#000000" transform="matrix(1,0,0,1,159,106)"/><path d="M 0 0 L 9 0 L 9 9 L 0 9 Z" fill="#FFFFFF" transform="matrix(1,0,0,1,168,106)"/><path d="M 0 0 L 8 0 L 8 9 L 0 9 Z" fill="#FFFFFF" transform="matrix(1,0,0,1,177,106)"/><path d="M 0 0 L 9 0 L 9 9 L 0 9 Z" fill="#FFFFFF" transform="matrix(1,0,0,1,185,106)"/><path d="M 0 0 L 9 0 L 9 9 L 0 9 Z" fill="#000000" transform="matrix(1,0,0,1,194,106)"/><path d="M 0 0 L 9 0 L 9 9 L 0 9 Z" fill="#FFFFFF" transform="matrix(1,0,0,1,203,106)"/><path d="M 0 0 L 9 0 L 9 9 L 0 9 Z" fill="#FFFFFF" transform="matrix(1,0,0,1,212,106)"/><path d="M 0 0 L 9 0 L 9 9 L 0 9 Z" fill="#000000" transform="matrix(1,0,0,1,221,106)"/><path d="M 0 0 L 8 0 L 8 9 L 0 9 Z" fill="#FFFFFF" transform="matrix(1,0,0,1,230,106)"/><path d="M 0 0 L 9 0 L 9 9 L 0 9 Z" fill="#000000" transform="matrix(1,0,0,1,238,106)"/><path d="M 0 0 L 9 0 L 9 9 L 0 9 Z" fill="#000000" transform="matrix(1,0,0,1,247,106)"/><path d="M 0 0 L 9 0 L 9 9 L 0 9 Z" fill="#000000" transform="matrix(1,0,0,1,0,115)"/><path d="M 0 0 L 9 0 L 9 9 L 0 9 Z" fill="#FFFFFF" transform="matrix(1,0,0,1,9,115)"/><path d="M 0 0 L 8 0 L 8 9 L 0 9 Z" fill="#FFFFFF" transform="matrix(1,0,0,1,18,115)"/><path d="M 0 0 L 9 0 L 9 9 L 0 9 Z" fill="#FFFFFF" transform="matrix(1,0,0,1,26,115)"/><path d="M 0 0 L 9 0 L 9 9 L 0 9 Z" fill="#000000" transform="matrix(1,0,0,1,35,115)"/><path d="M 0 0 L 9 0 L 9 9 L 0 9 Z" fill="#000000" transform="matrix(1,0,0,1,44,115)"/><path d="M 0 0 L 9 0 L 9 9 L 0 9 Z" fill="#FFFFFF" transform="matrix(1,0,0,1,53,115)"/><path d="M 0 0 L 9 0 L 9 9 L 0 9 Z" fill="#FFFFFF" transform="matrix(1,0,0,1,62,115)"/><path d="M 0 0 L 8 0 L 8 9 L 0 9 Z" fill="#000000" transform="matrix(1,0,0,1,71,115)"/><path d="M 0 0 L 9 0 L 9 9 L 0 9 Z" fill="#FFFFFF" transform="matrix(1,0,0,1,79,115)"/><path d="M 0 0 L 9 0 L 9 9 L 0 9 Z" fill="#000000" transform="matrix(1,0,0,1,88,115)"/><path d="M 0 0 L 9 0 L 9 9 L 0 9 Z" fill="#FFFFFF" transform="matrix(1,0,0,1,97,115)"/><path d="M 0 0 L 9 0 L 9 9 L 0 9 Z" fill="#000000" transform="matrix(1,0,0,1,106,115)"/><path d="M 0 0 L 9 0 L 9 9 L 0 9 Z" fill="#FFFFFF" transform="matrix(1,0,0,1,115,115)"/><path d="M 0 0 L 8 0 L 8 9 L 0 9 Z" fill="#FFFFFF" transform="matrix(1,0,0,1,124,115)"/><path d="M 0 0 L 9 0 L 9 9 L 0 9 Z" fill="#FFFFFF" transform="matrix(1,0,0,1,132,115)"/><path d="M 0 0 L 9 0 L 9 9 L 0 9 Z" fill="#000000" transform="matrix(1,0,0,1,141,115)"/><path d="M 0 0 L 9 0 L 9 9 L 0 9 Z" fill="#FFFFFF" transform="matrix(1,0,0,1,150,115)"/><path d="M 0 0 L 9 0 L 9 9 L 0 9 Z" fill="#000000" transform="matrix(1,0,0,1,159,115)"/><path d="M 0 0 L 9 0 L 9 9 L 0 9 Z" fill="#FFFFFF" transform="matrix(1,0,0,1,168,115)"/><path d="M 0 0 L 8 0 L 8 9 L 0 9 Z" fill="#FFFFFF" transform="matrix(1,0,0,1,177,115)"/><path d="M 0 0 L 9 0 L 9 9 L 0 9 Z" fill="#000000" transform="matrix(1,0,0,1,185,115)"/><path d="M 0 0 L 9 0 L 9 9 L 0 9 Z" fill="#000000" transform="matrix(1,0,0,1,194,115)"/><path d="M 0 0 L 9 0 L 9 9 L 0 9 Z" fill="#FFFFFF" transform="matrix(1,0,0,1,203,115)"/><path d="M 0 0 L 9 0 L 9 9 L 0 9 Z" fill="#FFFFFF" transform="matrix(1,0,0,1,212,115)"/><path d="M 0 0 L 9 0 L 9 9 L 0 9 Z" fill="#000000" transform="matrix(1,0,0,1,221,115)"/><path d="M 0 0 L 8 0 L 8 9 L 0 9 Z" fill="#FFFFFF" transform="matrix(1,0,0,1,230,115)"/><path d="M 0 0 L 9 0 L 9 9 L 0 9 Z" fill="#FFFFFF" transform="matrix(1,0,0,1,238,115)"/><path d="M 0 0 L 9 0 L 9 9 L 0 9 Z" fill="#000000" transform="matrix(1,0,0,1,247,115)"/><path d="M 0 0 L 9 0 L 9 8 L 0 8 Z" fill="#000000" transform="matrix(1,0,0,1,0,124)"/><path d="M 0 0 L 9 0 L 9 8 L 0 8 Z" fill="#FFFFFF" transform="matrix(1,0,0,1,9,124)"/><path d="M 0 0 L 8 0 L 8 8 L 0 8 Z" fill="#FFFFFF" transform="matrix(1,0,0,1,18,124)"/><path d="M 0 0 L 9 0 L 9 8 L 0 8 Z" fill="#000000" transform="matrix(1,0,0,1,26,124)"/><path d="M 0 0 L 9 0 L 9 8 L 0 8 Z" fill="#FFFFFF" transform="matrix(1,0,0,1,35,124)"/><path d="M 0 0 L 9 0 L 9 8 L 0 8 Z" fill="#FFFFFF" transform="matrix(1,0,0,1,44,124)"/><path d="M 0 0 L 9 0 L 9 8 L 0 8 Z" fill="#000000" transform="matrix(1,0,0,1,53,124)"/><path d="M 0 0 L 9 0 L 9 8 L 0 8 Z" fill="#000000" transform="matrix(1,0,0,1,62,124)"/><path d="M 0 0 L 8 0 L 8 8 L 0 8 Z" fill="#FFFFFF" transform="matrix(1,0,0,1,71,124)"/><path d="M 0 0 L 9 0 L 9 8 L 0 8 Z" fill="#FFFFFF" transform="matrix(1,0,0,1,79,124)"/><path d="M 0 0 L 9 0 L 9 8 L 0 8 Z" fill="#000000" transform="matrix(1,0,0,1,88,124)"/><path d="M 0 0 L 9 0 L 9 8 L 0 8 Z" fill="#FFFFFF" transform="matrix(1,0,0,1,97,124)"/><path d="M 0 0 L 9 0 L 9 8 L 0 8 Z" fill="#000000" transform="matrix(1,0,0,1,106,124)"/><path d="M 0 0 L 9 0 L 9 8 L 0 8 Z" fill="#FFFFFF" transform="matrix(1,0,0,1,115,124)"/><path d="M 0 0 L 8 0 L 8 8 L 0 8 Z" fill="#FFFFFF" transform="matrix(1,0,0,1,124,124)"/><path d="M 0 0 L 9 0 L 9 8 L 0 8 Z" fill="#FFFFFF" transform="matrix(1,0,0,1,132,124)"/><path d="M 0 0 L 9 0 L 9 8 L 0 8 Z" fill="#FFFFFF" transform="matrix(1,0,0,1,141,124)"/><path d="M 0 0 L 9 0 L 9 8 L 0 8 Z" fill="#000000" transform="matrix(1,0,0,1,150,124)"/><path d="M 0 0 L 9 0 L 9 8 L 0 8 Z" fill="#FFFFFF" transform="matrix(1,0,0,1,159,124)"/><path d="M 0 0 L 9 0 L 9 8 L 0 8 Z" fill="#FFFFFF" transform="matrix(1,0,0,1,168,124)"/><path d="M 0 0 L 8 0 L 8 8 L 0 8 Z" fill="#FFFFFF" transform="matrix(1,0,0,1,177,124)"/><path d="M 0 0 L 9 0 L 9 8 L 0 8 Z" fill="#000000" transform="matrix(1,0,0,1,185,124)"/><path d="M 0 0 L 9 0 L 9 8 L 0 8 Z" fill="#FFFFFF" transform="matrix(1,0,0,1,194,124)"/><path d="M 0 0 L 9 0 L 9 8 L 0 8 Z" fill="#FFFFFF" transform="matrix(1,0,0,1,203,124)"/><path d="M 0 0 L 9 0 L 9 8 L 0 8 Z" fill="#FFFFFF" transform="matrix(1,0,0,1,212,124)"/><path d="M 0 0 L 9 0 L 9 8 L 0 8 Z" fill="#000000" transform="matrix(1,0,0,1,221,124)"/><path d="M 0 0 L 8 0 L 8 8 L 0 8 Z" fill="#FFFFFF" transform="matrix(1,0,0,1,230,124)"/><path d="M 0 0 L 9 0 L 9 8 L 0 8 Z" fill="#000000" transform="matrix(1,0,0,1,238,124)"/><path d="M 0 0 L 9 0 L 9 8 L 0 8 Z" fill="#000000" transform="matrix(1,0,0,1,247,124)"/><path d="M 0 0 L 9 0 L 9 9 L 0 9 Z" fill="#000000" transform="matrix(1,0,0,1,0,132)"/><path d="M 0 0 L 9 0 L 9 9 L 0 9 Z" fill="#FFFFFF" transform="matrix(1,0,0,1,9,132)"/><path d="M 0 0 L 8 0 L 8 9 L 0 9 Z" fill="#FFFFFF" transform="matrix(1,0,0,1,18,132)"/><path d="M 0 0 L 9 0 L 9 9 L 0 9 Z" fill="#FFFFFF" transform="matrix(1,0,0,1,26,132)"/><path d="M 0 0 L 9 0 L 9 9 L 0 9 Z" fill="#000000" transform="matrix(1,0,0,1,35,132)"/><path d="M 0 0 L 9 0 L 9 9 L 0 9 Z" fill="#FFFFFF" transform="matrix(1,0,0,1,44,132)"/><path d="M 0 0 L 9 0 L 9 9 L 0 9 Z" fill="#FFFFFF" transform="matrix(1,0,0,1,53,132)"/><path d="M 0 0 L 9 0 L 9 9 L 0 9 Z" fill="#FFFFFF" transform="matrix(1,0,0,1,62,132)"/><path d="M 0 0 L 8 0 L 8 9 L 0 9 Z" fill="#FFFFFF" transform="matrix(1,0,0,1,71,132)"/><path d="M 0 0 L 9 0 L 9 9 L 0 9 Z" fill="#FFFFFF" transform="matrix(1,0,0,1,79,132)"/><path d="M 0 0 L 9 0 L 9 9 L 0 9 Z" fill="#000000" transform="matrix(1,0,0,1,88,132)"/><path d="M 0 0 L 9 0 L 9 9 L 0 9 Z" fill="#FFFFFF" transform="matrix(1,0,0,1,97,132)"/><path d="M 0 0 L 9 0 L 9 9 L 0 9 Z" fill="#000000" transform="matrix(1,0,0,1,106,132)"/><path d="M 0 0 L 9 0 L 9 9 L 0 9 Z" fill="#000000" transform="matrix(1,0,0,1,115,132)"/><path d="M 0 0 L 8 0 L 8 9 L 0 9 Z" fill="#000000" transform="matrix(1,0,0,1,124,132)"/><path d="M 0 0 L 9 0 L 9 9 L 0 9 Z" fill="#FFFFFF" transform="matrix(1,0,0,1,132,132)"/><path d="M 0 0 L 9 0 L 9 9 L 0 9 Z" fill="#000000" transform="matrix(1,0,0,1,141,132)"/><path d="M 0 0 L 9 0 L 9 9 L 0 9 Z" fill="#000000" transform="matrix(1,0,0,1,150,132)"/><path d="M 0 0 L 9 0 L 9 9 L 0 9 Z" fill="#000000" transform="matrix(1,0,0,1,159,132)"/><path d="M 0 0 L 9 0 L 9 9 L 0 9 Z" fill="#000000" transform="matrix(1,0,0,1,168,132)"/><path d="M 0 0 L 8 0 L 8 9 L 0 9 Z" fill="#000000" transform="matrix(1,0,0,1,177,132)"/><path d="M 0 0 L 9 0 L 9 9 L 0 9 Z" fill="#FFFFFF" transform="matrix(1,0,0,1,185,132)"/><path d="M 0 0 L 9 0 L 9 9 L 0 9 Z" fill="#000000" transform="matrix(1,0,0,1,194,132)"/><path d="M 0 0 L 9 0 L 9 9 L 0 9 Z" fill="#FFFFFF" transform="matrix(1,0,0,1,203,132)"/><path d="M 0 0 L 9 0 L 9 9 L 0 9 Z" fill="#000000" transform="matrix(1,0,0,1,212,132)"/><path d="M 0 0 L 9 0 L 9 9 L 0 9 Z" fill="#000000" transform="matrix(1,0,0,1,221,132)"/><path d="M 0 0 L 8 0 L 8 9 L 0 9 Z" fill="#FFFFFF" transform="matrix(1,0,0,1,230,132)"/><path d="M 0 0 L 9 0 L 9 9 L 0 9 Z" fill="#000000" transform="matrix(1,0,0,1,238,132)"/><path d="M 0 0 L 9 0 L 9 9 L 0 9 Z" fill="#FFFFFF" transform="matrix(1,0,0,1,247,132)"/><path d="M 0 0 L 9 0 L 9 9 L 0 9 Z" fill="#000000" transform="matrix(1,0,0,1,0,141)"/><path d="M 0 0 L 9 0 L 9 9 L 0 9 Z" fill="#FFFFFF" transform="matrix(1,0,0,1,9,141)"/><path d="M 0 0 L 8 0 L 8 9 L 0 9 Z" fill="#FFFFFF" transform="matrix(1,0,0,1,18,141)"/><path d="M 0 0 L 9 0 L 9 9 L 0 9 Z" fill="#FFFFFF" transform="matrix(1,0,0,1,26,141)"/><path d="M 0 0 L 9 0 L 9 9 L 0 9 Z" fill="#FFFFFF" transform="matrix(1,0,0,1,35,141)"/><path d="M 0 0 L 9 0 L 9 9 L 0 9 Z" fill="#FFFFFF" transform="matrix(1,0,0,1,44,141)"/><path d="M 0 0 L 9 0 L 9 9 L 0 9 Z" fill="#000000" transform="matrix(1,0,0,1,53,141)"/><path d="M 0 0 L 9 0 L 9 9 L 0 9 Z" fill="#000000" transform="matrix(1,0,0,1,62,141)"/><path d="M 0 0 L 8 0 L 8 9 L 0 9 Z" fill="#FFFFFF" transform="matrix(1,0,0,1,71,141)"/><path d="M 0 0 L 9 0 L 9 9 L 0 9 Z" fill="#000000" transform="matrix(1,0,0,1,79,141)"/><path d="M 0 0 L 9 0 L 9 9 L 0 9 Z" fill="#FFFFFF" transform="matrix(1,0,0,1,88,141)"/><path d="M 0 0 L 9 0 L 9 9 L 0 9 Z" fill="#FFFFFF" transform="matrix(1,0,0,1,97,141)"/><path d="M 0 0 L 9 0 L 9 9 L 0 9 Z" fill="#000000" transform="matrix(1,0,0,1,106,141)"/><path d="M 0 0 L 9 0 L 9 9 L 0 9 Z" fill="#000000" transform="matrix(1,0,0,1,115,141)"/><path d="M 0 0 L 8 0 L 8 9 L 0 9 Z" fill="#FFFFFF" transform="matrix(1,0,0,1,124,141)"/><path d="M 0 0 L 9 0 L 9 9 L 0 9 Z" fill="#000000" transform="matrix(1,0,0,1,132,141)"/><path d="M 0 0 L 9 0 L 9 9 L 0 9 Z" fill="#000000" transform="matrix(1,0,0,1,141,141)"/><path d="M 0 0 L 9 0 L 9 9 L 0 9 Z" fill="#000000" transform="matrix(1,0,0,1,150,141)"/><path d="M 0 0 L 9 0 L 9 9 L 0 9 Z" fill="#FFFFFF" transform="matrix(1,0,0,1,159,141)"/><path d="M 0 0 L 9 0 L 9 9 L 0 9 Z" fill="#FFFFFF" transform="matrix(1,0,0,1,168,141)"/><path d="M 0 0 L 8 0 L 8 9 L 0 9 Z" fill="#FFFFFF" transform="matrix(1,0,0,1,177,141)"/><path d="M 0 0 L 9 0 L 9 9 L 0 9 Z" fill="#FFFFFF" transform="matrix(1,0,0,1,185,141)"/><path d="M 0 0 L 9 0 L 9 9 L 0 9 Z" fill="#000000" transform="matrix(1,0,0,1,194,141)"/><path d="M 0 0 L 9 0 L 9 9 L 0 9 Z" fill="#FFFFFF" transform="matrix(1,0,0,1,203,141)"/><path d="M 0 0 L 9 0 L 9 9 L 0 9 Z" fill="#FFFFFF" transform="matrix(1,0,0,1,212,141)"/><path d="M 0 0 L 9 0 L 9 9 L 0 9 Z" fill="#000000" transform="matrix(1,0,0,1,221,141)"/><path d="M 0 0 L 8 0 L 8 9 L 0 9 Z" fill="#FFFFFF" transform="matrix(1,0,0,1,230,141)"/><path d="M 0 0 L 9 0 L 9 9 L 0 9 Z" fill="#000000" transform="matrix(1,0,0,1,238,141)"/><path d="M 0 0 L 9 0 L 9 9 L 0 9 Z" fill="#000000" transform="matrix(1,0,0,1,247,141)"/><path d="M 0 0 L 9 0 L 9 9 L 0 9 Z" fill="#FFFFFF" transform="matrix(1,0,0,1,0,150)"/><path d="M 0 0 L 9 0 L 9 9 L 0 9 Z" fill="#FFFFFF" transform="matrix(1,0,0,1,9,150)"/><path d="M 0 0 L 8 0 L 8 9 L 0 9 Z" fill="#FFFFFF" transform="matrix(1,0,0,1,18,150)"/><path d="M 0 0 L 9 0 L 9 9 L 0 9 Z" fill="#FFFFFF" transform="matrix(1,0,0,1,26,150)"/><path d="M 0 0 L 9 0 L 9 9 L 0 9 Z" fill="#000000" transform="matrix(1,0,0,1,35,150)"/><path d="M 0 0 L 9 0 L 9 9 L 0 9 Z" fill="#000000" transform="matrix(1,0,0,1,44,150)"/><path d="M 0 0 L 9 0 L 9 9 L 0 9 Z" fill="#FFFFFF" transform="matrix(1,0,0,1,53,150)"/><path d="M 0 0 L 9 0 L 9 9 L 0 9 Z" fill="#000000" transform="matrix(1,0,0,1,62,150)"/><path d="M 0 0 L 8 0 L 8 9 L 0 9 Z" fill="#000000" transform="matrix(1,0,0,1,71,150)"/><path d="M 0 0 L 9 0 L 9 9 L 0 9 Z" fill="#000000" transform="matrix(1,0,0,1,79,150)"/><path d="M 0 0 L 9 0 L 9 9 L 0 9 Z" fill="#000000" transform="matrix(1,0,0,1,88,150)"/><path d="M 0 0 L 9 0 L 9 9 L 0 9 Z" fill="#FFFFFF" transform="matrix(1,0,0,1,97,150)"/><path d="M 0 0 L 9 0 L 9 9 L 0 9 Z" fill="#000000" transform="matrix(1,0,0,1,106,150)"/><path d="M 0 0 L 9 0 L 9 9 L 0 9 Z" fill="#000000" transform="matrix(1,0,0,1,115,150)"/><path d="M 0 0 L 8 0 L 8 9 L 0 9 Z" fill="#FFFFFF" transform="matrix(1,0,0,1,124,150)"/><path d="M 0 0 L 9 0 L 9 9 L 0 9 Z" fill="#FFFFFF" transform="matrix(1,0,0,1,132,150)"/><path d="M 0 0 L 9 0 L 9 9 L 0 9 Z" fill="#000000" transform="matrix(1,0,0,1,141,150)"/><path d="M 0 0 L 9 0 L 9 9 L 0 9 Z" fill="#000000" transform="matrix(1,0,0,1,150,150)"/><path d="M 0 0 L 9 0 L 9 9 L 0 9 Z" fill="#000000" transform="matrix(1,0,0,1,159,150)"/><path d="M 0 0 L 9 0 L 9 9 L 0 9 Z" fill="#FFFFFF" transform="matrix(1,0,0,1,168,150)"/><path d="M 0 0 L 8 0 L 8 9 L 0 9 Z" fill="#FFFFFF" transform="matrix(1,0,0,1,177,150)"/><path d="M 0 0 L 9 0 L 9 9 L 0 9 Z" fill="#FFFFFF" transform="matrix(1,0,0,1,185,150)"/><path d="M 0 0 L 9 0 L 9 9 L 0 9 Z" fill="#000000" transform="matrix(1,0,0,1,194,150)"/><path d="M 0 0 L 9 0 L 9 9 L 0 9 Z" fill="#000000" transform="matrix(1,0,0,1,203,150)"/><path d="M 0 0 L 9 0 L 9 9 L 0 9 Z" fill="#FFFFFF" transform="matrix(1,0,0,1,212,150)"/><path d="M 0 0 L 9 0 L 9 9 L 0 9 Z" fill="#000000" transform="matrix(1,0,0,1,221,150)"/><path d="M 0 0 L 8 0 L 8 9 L 0 9 Z" fill="#000000" transform="matrix(1,0,0,1,230,150)"/><path d="M 0 0 L 9 0 L 9 9 L 0 9 Z" fill="#FFFFFF" transform="matrix(1,0,0,1,238,150)"/><path d="M 0 0 L 9 0 L 9 9 L 0 9 Z" fill="#000000" transform="matrix(1,0,0,1,247,150)"/><path d="M 0 0 L 9 0 L 9 9 L 0 9 Z" fill="#000000" transform="matrix(1,0,0,1,0,159)"/><path d="M 0 0 L 9 0 L 9 9 L 0 9 Z" fill="#FFFFFF" transform="matrix(1,0,0,1,9,159)"/><path d="M 0 0 L 8 0 L 8 9 L 0 9 Z" fill="#000000" transform="matrix(1,0,0,1,18,159)"/><path d="M 0 0 L 9 0 L 9 9 L 0 9 Z" fill="#FFFFFF" transform="matrix(1,0,0,1,26,159)"/><path d="M 0 0 L 9 0 L 9 9 L 0 9 Z" fill="#000000" transform="matrix(1,0,0,1,35,159)"/><path d="M 0 0 L 9 0 L 9 9 L 0 9 Z" fill="#000000" transform="matrix(1,0,0,1,44,159)"/><path d="M 0 0 L 9 0 L 9 9 L 0 9 Z" fill="#000000" transform="matrix(1,0,0,1,53,159)"/><path d="M 0 0 L 9 0 L 9 9 L 0 9 Z" fill="#000000" transform="matrix(1,0,0,1,62,159)"/><path d="M 0 0 L 8 0 L 8 9 L 0 9 Z" fill="#FFFFFF" transform="matrix(1,0,0,1,71,159)"/><path d="M 0 0 L 9 0 L 9 9 L 0 9 Z" fill="#000000" transform="matrix(1,0,0,1,79,159)"/><path d="M 0 0 L 9 0 L 9 9 L 0 9 Z" fill="#000000" transform="matrix(1,0,0,1,88,159)"/><path d="M 0 0 L 9 0 L 9 9 L 0 9 Z" fill="#FFFFFF" transform="matrix(1,0,0,1,97,159)"/><path d="M 0 0 L 9 0 L 9 9 L 0 9 Z" fill="#FFFFFF" transform="matrix(1,0,0,1,106,159)"/><path d="M 0 0 L 9 0 L 9 9 L 0 9 Z" fill="#FFFFFF" transform="matrix(1,0,0,1,115,159)"/><path d="M 0 0 L 8 0 L 8 9 L 0 9 Z" fill="#000000" transform="matrix(1,0,0,1,124,159)"/><path d="M 0 0 L 9 0 L 9 9 L 0 9 Z" fill="#FFFFFF" transform="matrix(1,0,0,1,132,159)"/><path d="M 0 0 L 9 0 L 9 9 L 0 9 Z" fill="#000000" transform="matrix(1,0,0,1,141,159)"/><path d="M 0 0 L 9 0 L 9 9 L 0 9 Z" fill="#FFFFFF" transform="matrix(1,0,0,1,150,159)"/><path d="M 0 0 L 9 0 L 9 9 L 0 9 Z" fill="#FFFFFF" transform="matrix(1,0,0,1,159,159)"/><path d="M 0 0 L 9 0 L 9 9 L 0 9 Z" fill="#FFFFFF" transform="matrix(1,0,0,1,168,159)"/><path d="M 0 0 L 8 0 L 8 9 L 0 9 Z" fill="#FFFFFF" transform="matrix(1,0,0,1,177,159)"/><path d="M 0 0 L 9 0 L 9 9 L 0 9 Z" fill="#FFFFFF" transform="matrix(1,0,0,1,185,159)"/><path d="M 0 0 L 9 0 L 9 9 L 0 9 Z" fill="#000000" transform="matrix(1,0,0,1,194,159)"/><path d="M 0 0 L 9 0 L 9 9 L 0 9 Z" fill="#000000" transform="matrix(1,0,0,1,203,159)"/><path d="M 0 0 L 9 0 L 9 9 L 0 9 Z" fill="#000000" transform="matrix(1,0,0,1,212,159)"/><path d="M 0 0 L 9 0 L 9 9 L 0 9 Z" fill="#FFFFFF" transform="matrix(1,0,0,1,221,159)"/><path d="M 0 0 L 8 0 L 8 9 L 0 9 Z" fill="#FFFFFF" transform="matrix(1,0,0,1,230,159)"/><path d="M 0 0 L 9 0 L 9 9 L 0 9 Z" fill="#000000" transform="matrix(1,0,0,1,238,159)"/><path d="M 0 0 L 9 0 L 9 9 L 0 9 Z" fill="#000000" transform="matrix(1,0,0,1,247,159)"/><path d="M 0 0 L 9 0 L 9 9 L 0 9 Z" fill="#FFFFFF" transform="matrix(1,0,0,1,0,168)"/><path d="M 0 0 L 9 0 L 9 9 L 0 9 Z" fill="#000000" transform="matrix(1,0,0,1,9,168)"/><path d="M 0 0 L 8 0 L 8 9 L 0 9 Z" fill="#000000" transform="matrix(1,0,0,1,18,168)"/><path d="M 0 0 L 9 0 L 9 9 L 0 9 Z" fill="#000000" transform="matrix(1,0,0,1,26,168)"/><path d="M 0 0 L 9 0 L 9 9 L 0 9 Z" fill="#FFFFFF" transform="matrix(1,0,0,1,35,168)"/><path d="M 0 0 L 9 0 L 9 9 L 0 9 Z" fill="#000000" transform="matrix(1,0,0,1,44,168)"/><path d="M 0 0 L 9 0 L 9 9 L 0 9 Z" fill="#FFFFFF" transform="matrix(1,0,0,1,53,168)"/><path d="M 0 0 L 9 0 L 9 9 L 0 9 Z" fill="#000000" transform="matrix(1,0,0,1,62,168)"/><path d="M 0 0 L 8 0 L 8 9 L 0 9 Z" fill="#000000" transform="matrix(1,0,0,1,71,168)"/><path d="M 0 0 L 9 0 L 9 9 L 0 9 Z" fill="#FFFFFF" transform="matrix(1,0,0,1,79,168)"/><path d="M 0 0 L 9 0 L 9 9 L 0 9 Z" fill="#FFFFFF" transform="matrix(1,0,0,1,88,168)"/><path d="M 0 0 L 9 0 L 9 9 L 0 9 Z" fill="#000000" transform="matrix(1,0,0,1,97,168)"/><path d="M 0 0 L 9 0 L 9 9 L 0 9 Z" fill="#000000" transform="matrix(1,0,0,1,106,168)"/><path d="M 0 0 L 9 0 L 9 9 L 0 9 Z" fill="#000000" transform="matrix(1,0,0,1,115,168)"/><path d="M 0 0 L 8 0 L 8 9 L 0 9 Z" fill="#000000" transform="matrix(1,0,0,1,124,168)"/><path d="M 0 0 L 9 0 L 9 9 L 0 9 Z" fill="#FFFFFF" transform="matrix(1,0,0,1,132,168)"/><path d="M 0 0 L 9 0 L 9 9 L 0 9 Z" fill="#FFFFFF" transform="matrix(1,0,0,1,141,168)"/><path d="M 0 0 L 9 0 L 9 9 L 0 9 Z" fill="#000000" transform="matrix(1,0,0,1,150,168)"/><path d="M 0 0 L 9 0 L 9 9 L 0 9 Z" fill="#FFFFFF" transform="matrix(1,0,0,1,159,168)"/><path d="M 0 0 L 9 0 L 9 9 L 0 9 Z" fill="#000000" transform="matrix(1,0,0,1,168,168)"/><path d="M 0 0 L 8 0 L 8 9 L 0 9 Z" fill="#000000" transform="matrix(1,0,0,1,177,168)"/><path d="M 0 0 L 9 0 L 9 9 L 0 9 Z" fill="#FFFFFF" transform="matrix(1,0,0,1,185,168)"/><path d="M 0 0 L 9 0 L 9 9 L 0 9 Z" fill="#FFFFFF" transform="matrix(1,0,0,1,194,168)"/><path d="M 0 0 L 9 0 L 9 9 L 0 9 Z" fill="#000000" transform="matrix(1,0,0,1,203,168)"/><path d="M 0 0 L 9 0 L 9 9 L 0 9 Z" fill="#FFFFFF" transform="matrix(1,0,0,1,212,168)"/><path d="M 0 0 L 9 0 L 9 9 L 0 9 Z" fill="#000000" transform="matrix(1,0,0,1,221,168)"/><path d="M 0 0 L 8 0 L 8 9 L 0 9 Z" fill="#FFFFFF" transform="matrix(1,0,0,1,230,168)"/><path d="M 0 0 L 9 0 L 9 9 L 0 9 Z" fill="#000000" transform="matrix(1,0,0,1,238,168)"/><path d="M 0 0 L 9 0 L 9 9 L 0 9 Z" fill="#FFFFFF" transform="matrix(1,0,0,1,247,168)"/><path d="M 0 0 L 9 0 L 9 8 L 0 8 Z" fill="#000000" transform="matrix(1,0,0,1,0,177)"/><path d="M 0 0 L 9 0 L 9 8 L 0 8 Z" fill="#FFFFFF" transform="matrix(1,0,0,1,9,177)"/><path d="M 0 0 L 8 0 L 8 8 L 0 8 Z" fill="#FFFFFF" transform="matrix(1,0,0,1,18,177)"/><path d="M 0 0 L 9 0 L 9 8 L 0 8 Z" fill="#000000" transform="matrix(1,0,0,1,26,177)"/><path d="M 0 0 L 9 0 L 9 8 L 0 8 Z" fill="#FFFFFF" transform="matrix(1,0,0,1,35,177)"/><path d="M 0 0 L 9 0 L 9 8 L 0 8 Z" fill="#000000" transform="matrix(1,0,0,1,44,177)"/><path d="M 0 0 L 9 0 L 9 8 L 0 8 Z" fill="#000000" transform="matrix(1,0,0,1,53,177)"/><path d="M 0 0 L 9 0 L 9 8 L 0 8 Z" fill="#000000" transform="matrix(1,0,0,1,62,177)"/><path d="M 0 0 L 8 0 L 8 8 L 0 8 Z" fill="#000000" transform="matrix(1,0,0,1,71,177)"/><path d="M 0 0 L 9 0 L 9 8 L 0 8 Z" fill="#000000" transform="matrix(1,0,0,1,79,177)"/><path d="M 0 0 L 9 0 L 9 8 L 0 8 Z" fill="#FFFFFF" transform="matrix(1,0,0,1,88,177)"/><path d="M 0 0 L 9 0 L 9 8 L 0 8 Z" fill="#000000" transform="matrix(1,0,0,1,97,177)"/><path d="M 0 0 L 9 0 L 9 8 L 0 8 Z" fill="#000000" transform="matrix(1,0,0,1,106,177)"/><path d="M 0 0 L 9 0 L 9 8 L 0 8 Z" fill="#000000" transform="matrix(1,0,0,1,115,177)"/><path d="M 0 0 L 8 0 L 8 8 L 0 8 Z" fill="#FFFFFF" transform="matrix(1,0,0,1,124,177)"/><path d="M 0 0 L 9 0 L 9 8 L 0 8 Z" fill="#000000" transform="matrix(1,0,0,1,132,177)"/><path d="M 0 0 L 9 0 L 9 8 L 0 8 Z" fill="#000000" transform="matrix(1,0,0,1,141,177)"/><path d="M 0 0 L 9 0 L 9 8 L 0 8 Z" fill="#000000" transform="matrix(1,0,0,1,150,177)"/><path d="M 0 0 L 9 0 L 9 8 L 0 8 Z" fill="#FFFFFF" transform="matrix(1,0,0,1,159,177)"/><path d="M 0 0 L 9 0 L 9 8 L 0 8 Z" fill="#FFFFFF" transform="matrix(1,0,0,1,168,177)"/><path d="M 0 0 L 8 0 L 8 8 L 0 8 Z" fill="#000000" transform="matrix(1,0,0,1,177,177)"/><path d="M 0 0 L 9 0 L 9 8 L 0 8 Z" fill="#000000" transform="matrix(1,0,0,1,185,177)"/><path d="M 0 0 L 9 0 L 9 8 L 0 8 Z" fill="#000000" transform="matrix(1,0,0,1,194,177)"/><path d="M 0 0 L 9 0 L 9 8 L 0 8 Z" fill="#000000" transform="matrix(1,0,0,1,203,177)"/><path d="M 0 0 L 9 0 L 9 8 L 0 8 Z" fill="#000000" transform="matrix(1,0,0,1,212,177)"/><path d="M 0 0 L 9 0 L 9 8 L 0 8 Z" fill="#FFFFFF" transform="matrix(1,0,0,1,221,177)"/><path d="M 0 0 L 8 0 L 8 8 L 0 8 Z" fill="#FFFFFF" transform="matrix(1,0,0,1,230,177)"/><path d="M 0 0 L 9 0 L 9 8 L 0 8 Z" fill="#FFFFFF" transform="matrix(1,0,0,1,238,177)"/><path d="M 0 0 L 9 0 L 9 8 L 0 8 Z" fill="#FFFFFF" transform="matrix(1,0,0,1,247,177)"/><path d="M 0 0 L 9 0 L 9 9 L 0 9 Z" fill="#FFFFFF" transform="matrix(1,0,0,1,0,185)"/><path d="M 0 0 L 9 0 L 9 9 L 0 9 Z" fill="#FFFFFF" transform="matrix(1,0,0,1,9,185)"/><path d="M 0 0 L 8 0 L 8 9 L 0 9 Z" fill="#FFFFFF" transform="matrix(1,0,0,1,18,185)"/><path d="M 0 0 L 9 0 L 9 9 L 0 9 Z" fill="#FFFFFF" transform="matrix(1,0,0,1,26,185)"/><path d="M 0 0 L 9 0 L 9 9 L 0 9 Z" fill="#FFFFFF" transform="matrix(1,0,0,1,35,185)"/><path d="M 0 0 L 9 0 L 9 9 L 0 9 Z" fill="#FFFFFF" transform="matrix(1,0,0,1,44,185)"/><path d="M 0 0 L 9 0 L 9 9 L 0 9 Z" fill="#FFFFFF" transform="matrix(1,0,0,1,53,185)"/><path d="M 0 0 L 9 0 L 9 9 L 0 9 Z" fill="#FFFFFF" transform="matrix(1,0,0,1,62,185)"/><path d="M 0 0 L 8 0 L 8 9 L 0 9 Z" fill="#000000" transform="matrix(1,0,0,1,71,185)"/><path d="M 0 0 L 9 0 L 9 9 L 0 9 Z" fill="#000000" transform="matrix(1,0,0,1,79,185)"/><path d="M 0 0 L 9 0 L 9 9 L 0 9 Z" fill="#000000" transform="matrix(1,0,0,1,88,185)"/><path d="M 0 0 L 9 0 L 9 9 L 0 9 Z" fill="#FFFFFF" transform="matrix(1,0,0,1,97,185)"/><path d="M 0 0 L 9 0 L 9 9 L 0 9 Z" fill="#FFFFFF" transform="matrix(1,0,0,1,106,185)"/><path d="M 0 0 L 9 0 L 9 9 L 0 9 Z" fill="#000000" transform="matrix(1,0,0,1,115,185)"/><path d="M 0 0 L 8 0 L 8 9 L 0 9 Z" fill="#FFFFFF" transform="matrix(1,0,0,1,124,185)"/><path d="M 0 0 L 9 0 L 9 9 L 0 9 Z" fill="#FFFFFF" transform="matrix(1,0,0,1,132,185)"/><path d="M 0 0 L 9 0 L 9 9 L 0 9 Z" fill="#000000" transform="matrix(1,0,0,1,141,185)"/><path d="M 0 0 L 9 0 L 9 9 L 0 9 Z" fill="#000000" transform="matrix(1,0,0,1,150,185)"/><path d="M 0 0 L 9 0 L 9 9 L 0 9 Z" fill="#FFFFFF" transform="matrix(1,0,0,1,159,185)"/><path d="M 0 0 L 9 0 L 9 9 L 0 9 Z" fill="#FFFFFF" transform="matrix(1,0,0,1,168,185)"/><path d="M 0 0 L 8 0 L 8 9 L 0 9 Z" fill="#000000" transform="matrix(1,0,0,1,177,185)"/><path d="M 0 0 L 9 0 L 9 9 L 0 9 Z" fill="#FFFFFF" transform="matrix(1,0,0,1,185,185)"/><path d="M 0 0 L 9 0 L 9 9 L 0 9 Z" fill="#FFFFFF" transform="matrix(1,0,0,1,194,185)"/><path d="M 0 0 L 9 0 L 9 9 L 0 9 Z" fill="#FFFFFF" transform="matrix(1,0,0,1,203,185)"/><path d="M 0 0 L 9 0 L 9 9 L 0 9 Z" fill="#000000" transform="matrix(1,0,0,1,212,185)"/><path d="M 0 0 L 9 0 L 9 9 L 0 9 Z" fill="#FFFFFF" transform="matrix(1,0,0,1,221,185)"/><path d="M 0 0 L 8 0 L 8 9 L 0 9 Z" fill="#000000" transform="matrix(1,0,0,1,230,185)"/><path d="M 0 0 L 9 0 L 9 9 L 0 9 Z" fill="#000000" transform="matrix(1,0,0,1,238,185)"/><path d="M 0 0 L 9 0 L 9 9 L 0 9 Z" fill="#000000" transform="matrix(1,0,0,1,247,185)"/><path d="M 0 0 L 9 0 L 9 9 L 0 9 Z" fill="#000000" transform="matrix(1,0,0,1,0,194)"/><path d="M 0 0 L 9 0 L 9 9 L 0 9 Z" fill="#000000" transform="matrix(1,0,0,1,9,194)"/><path d="M 0 0 L 8 0 L 8 9 L 0 9 Z" fill="#000000" transform="matrix(1,0,0,1,18,194)"/><path d="M 0 0 L 9 0 L 9 9 L 0 9 Z" fill="#000000" transform="matrix(1,0,0,1,26,194)"/><path d="M 0 0 L 9 0 L 9 9 L 0 9 Z" fill="#000000" transform="matrix(1,0,0,1,35,194)"/><path d="M 0 0 L 9 0 L 9 9 L 0 9 Z" fill="#000000" transform="matrix(1,0,0,1,44,194)"/><path d="M 0 0 L 9 0 L 9 9 L 0 9 Z" fill="#000000" transform="matrix(1,0,0,1,53,194)"/><path d="M 0 0 L 9 0 L 9 9 L 0 9 Z" fill="#FFFFFF" transform="matrix(1,0,0,1,62,194)"/><path d="M 0 0 L 8 0 L 8 9 L 0 9 Z" fill="#000000" transform="matrix(1,0,0,1,71,194)"/><path d="M 0 0 L 9 0 L 9 9 L 0 9 Z" fill="#000000" transform="matrix(1,0,0,1,79,194)"/><path d="M 0 0 L 9 0 L 9 9 L 0 9 Z" fill="#000000" transform="matrix(1,0,0,1,88,194)"/><path d="M 0 0 L 9 0 L 9 9 L 0 9 Z" fill="#FFFFFF" transform="matrix(1,0,0,1,97,194)"/><path d="M 0 0 L 9 0 L 9 9 L 0 9 Z" fill="#FFFFFF" transform="matrix(1,0,0,1,106,194)"/><path d="M 0 0 L 9 0 L 9 9 L 0 9 Z" fill="#000000" transform="matrix(1,0,0,1,115,194)"/><path d="M 0 0 L 8 0 L 8 9 L 0 9 Z" fill="#FFFFFF" transform="matrix(1,0,0,1,124,194)"/><path d="M 0 0 L 9 0 L 9 9 L 0 9 Z" fill="#FFFFFF" transform="matrix(1,0,0,1,132,194)"/><path d="M 0 0 L 9 0 L 9 9 L 0 9 Z" fill="#FFFFFF" transform="matrix(1,0,0,1,141,194)"/><path d="M 0 0 L 9 0 L 9 9 L 0 9 Z" fill="#FFFFFF" transform="matrix(1,0,0,1,150,194)"/><path d="M 0 0 L 9 0 L 9 9 L 0 9 Z" fill="#FFFFFF" transform="matrix(1,0,0,1,159,194)"/><path d="M 0 0 L 9 0 L 9 9 L 0 9 Z" fill="#000000" transform="matrix(1,0,0,1,168,194)"/><path d="M 0 0 L 8 0 L 8 9 L 0 9 Z" fill="#000000" transform="matrix(1,0,0,1,177,194)"/><path d="M 0 0 L 9 0 L 9 9 L 0 9 Z" fill="#FFFFFF" transform="matrix(1,0,0,1,185,194)"/><path d="M 0 0 L 9 0 L 9 9 L 0 9 Z" fill="#000000" transform="matrix(1,0,0,1,194,194)"/><path d="M 0 0 L 9 0 L 9 9 L 0 9 Z" fill="#FFFFFF" transform="matrix(1,0,0,1,203,194)"/><path d="M 0 0 L 9 0 L 9 9 L 0 9 Z" fill="#000000" transform="matrix(1,0,0,1,212,194)"/><path d="M 0 0 L 9 0 L 9 9 L 0 9 Z" fill="#000000" transform="matrix(1,0,0,1,221,194)"/><path d="M 0 0 L 8 0 L 8 9 L 0 9 Z" fill="#FFFFFF" transform="matrix(1,0,0,1,230,194)"/><path d="M 0 0 L 9 0 L 9 9 L 0 9 Z" fill="#000000" transform="matrix(1,0,0,1,238,194)"/><path d="M 0 0 L 9 0 L 9 9 L 0 9 Z" fill="#000000" transform="matrix(1,0,0,1,247,194)"/><path d="M 0 0 L 9 0 L 9 9 L 0 9 Z" fill="#000000" transform="matrix(1,0,0,1,0,203)"/><path d="M 0 0 L 9 0 L 9 9 L 0 9 Z" fill="#FFFFFF" transform="matrix(1,0,0,1,9,203)"/><path d="M 0 0 L 8 0 L 8 9 L 0 9 Z" fill="#FFFFFF" transform="matrix(1,0,0,1,18,203)"/><path d="M 0 0 L 9 0 L 9 9 L 0 9 Z" fill="#FFFFFF" transform="matrix(1,0,0,1,26,203)"/><path d="M 0 0 L 9 0 L 9 9 L 0 9 Z" fill="#FFFFFF" transform="matrix(1,0,0,1,35,203)"/><path d="M 0 0 L 9 0 L 9 9 L 0 9 Z" fill="#FFFFFF" transform="matrix(1,0,0,1,44,203)"/><path d="M 0 0 L 9 0 L 9 9 L 0 9 Z" fill="#000000" transform="matrix(1,0,0,1,53,203)"/><path d="M 0 0 L 9 0 L 9 9 L 0 9 Z" fill="#FFFFFF" transform="matrix(1,0,0,1,62,203)"/><path d="M 0 0 L 8 0 L 8 9 L 0 9 Z" fill="#000000" transform="matrix(1,0,0,1,71,203)"/><path d="M 0 0 L 9 0 L 9 9 L 0 9 Z" fill="#000000" transform="matrix(1,0,0,1,79,203)"/><path d="M 0 0 L 9 0 L 9 9 L 0 9 Z" fill="#FFFFFF" transform="matrix(1,0,0,1,88,203)"/><path d="M 0 0 L 9 0 L 9 9 L 0 9 Z" fill="#000000" transform="matrix(1,0,0,1,97,203)"/><path d="M 0 0 L 9 0 L 9 9 L 0 9 Z" fill="#000000" transform="matrix(1,0,0,1,106,203)"/><path d="M 0 0 L 9 0 L 9 9 L 0 9 Z" fill="#000000" transform="matrix(1,0,0,1,115,203)"/><path d="M 0 0 L 8 0 L 8 9 L 0 9 Z" fill="#000000" transform="matrix(1,0,0,1,124,203)"/><path d="M 0 0 L 9 0 L 9 9 L 0 9 Z" fill="#000000" transform="matrix(1,0,0,1,132,203)"/><path d="M 0 0 L 9 0 L 9 9 L 0 9 Z" fill="#000000" transform="matrix(1,0,0,1,141,203)"/><path d="M 0 0 L 9 0 L 9 9 L 0 9 Z" fill="#000000" transform="matrix(1,0,0,1,150,203)"/><path d="M 0 0 L 9 0 L 9 9 L 0 9 Z" fill="#000000" transform="matrix(1,0,0,1,159,203)"/><path d="M 0 0 L 9 0 L 9 9 L 0 9 Z" fill="#000000" transform="matrix(1,0,0,1,168,203)"/><path d="M 0 0 L 8 0 L 8 9 L 0 9 Z" fill="#000000" transform="matrix(1,0,0,1,177,203)"/><path d="M 0 0 L 9 0 L 9 9 L 0 9 Z" fill="#FFFFFF" transform="matrix(1,0,0,1,185,203)"/><path d="M 0 0 L 9 0 L 9 9 L 0 9 Z" fill="#FFFFFF" transform="matrix(1,0,0,1,194,203)"/><path d="M 0 0 L 9 0 L 9 9 L 0 9 Z" fill="#FFFFFF" transform="matrix(1,0,0,1,203,203)"/><path d="M 0 0 L 9 0 L 9 9 L 0 9 Z" fill="#000000" transform="matrix(1,0,0,1,212,203)"/><path d="M 0 0 L 9 0 L 9 9 L 0 9 Z" fill="#000000" transform="matrix(1,0,0,1,221,203)"/><path d="M 0 0 L 8 0 L 8 9 L 0 9 Z" fill="#FFFFFF" transform="matrix(1,0,0,1,230,203)"/><path d="M 0 0 L 9 0 L 9 9 L 0 9 Z" fill="#FFFFFF" transform="matrix(1,0,0,1,238,203)"/><path d="M 0 0 L 9 0 L 9 9 L 0 9 Z" fill="#000000" transform="matrix(1,0,0,1,247,203)"/><path d="M 0 0 L 9 0 L 9 9 L 0 9 Z" fill="#000000" transform="matrix(1,0,0,1,0,212)"/><path d="M 0 0 L 9 0 L 9 9 L 0 9 Z" fill="#FFFFFF" transform="matrix(1,0,0,1,9,212)"/><path d="M 0 0 L 8 0 L 8 9 L 0 9 Z" fill="#000000" transform="matrix(1,0,0,1,18,212)"/><path d="M 0 0 L 9 0 L 9 9 L 0 9 Z" fill="#000000" transform="matrix(1,0,0,1,26,212)"/><path d="M 0 0 L 9 0 L 9 9 L 0 9 Z" fill="#000000" transform="matrix(1,0,0,1,35,212)"/><path d="M 0 0 L 9 0 L 9 9 L 0 9 Z" fill="#FFFFFF" transform="matrix(1,0,0,1,44,212)"/><path d="M 0 0 L 9 0 L 9 9 L 0 9 Z" fill="#000000" transform="matrix(1,0,0,1,53,212)"/><path d="M 0 0 L 9 0 L 9 9 L 0 9 Z" fill="#FFFFFF" transform="matrix(1,0,0,1,62,212)"/><path d="M 0 0 L 8 0 L 8 9 L 0 9 Z" fill="#000000" transform="matrix(1,0,0,1,71,212)"/><path d="M 0 0 L 9 0 L 9 9 L 0 9 Z" fill="#000000" transform="matrix(1,0,0,1,79,212)"/><path d="M 0 0 L 9 0 L 9 9 L 0 9 Z" fill="#000000" transform="matrix(1,0,0,1,88,212)"/><path d="M 0 0 L 9 0 L 9 9 L 0 9 Z" fill="#FFFFFF" transform="matrix(1,0,0,1,97,212)"/><path d="M 0 0 L 9 0 L 9 9 L 0 9 Z" fill="#000000" transform="matrix(1,0,0,1,106,212)"/><path d="M 0 0 L 9 0 L 9 9 L 0 9 Z" fill="#000000" transform="matrix(1,0,0,1,115,212)"/><path d="M 0 0 L 8 0 L 8 9 L 0 9 Z" fill="#FFFFFF" transform="matrix(1,0,0,1,124,212)"/><path d="M 0 0 L 9 0 L 9 9 L 0 9 Z" fill="#000000" transform="matrix(1,0,0,1,132,212)"/><path d="M 0 0 L 9 0 L 9 9 L 0 9 Z" fill="#FFFFFF" transform="matrix(1,0,0,1,141,212)"/><path d="M 0 0 L 9 0 L 9 9 L 0 9 Z" fill="#000000" transform="matrix(1,0,0,1,150,212)"/><path d="M 0 0 L 9 0 L 9 9 L 0 9 Z" fill="#FFFFFF" transform="matrix(1,0,0,1,159,212)"/><path d="M 0 0 L 9 0 L 9 9 L 0 9 Z" fill="#FFFFFF" transform="matrix(1,0,0,1,168,212)"/><path d="M 0 0 L 8 0 L 8 9 L 0 9 Z" fill="#000000" transform="matrix(1,0,0,1,177,212)"/><path d="M 0 0 L 9 0 L 9 9 L 0 9 Z" fill="#000000" transform="matrix(1,0,0,1,185,212)"/><path d="M 0 0 L 9 0 L 9 9 L 0 9 Z" fill="#000000" transform="matrix(1,0,0,1,194,212)"/><path d="M 0 0 L 9 0 L 9 9 L 0 9 Z" fill="#000000" transform="matrix(1,0,0,1,203,212)"/><path d="M 0 0 L 9 0 L 9 9 L 0 9 Z" fill="#000000" transform="matrix(1,0,0,1,212,212)"/><path d="M 0 0 L 9 0 L 9 9 L 0 9 Z" fill="#FFFFFF" transform="matrix(1,0,0,1,221,212)"/><path d="M 0 0 L 8 0 L 8 9 L 0 9 Z" fill="#FFFFFF" transform="matrix(1,0,0,1,230,212)"/><path d="M 0 0 L 9 0 L 9 9 L 0 9 Z" fill="#FFFFFF" transform="matrix(1,0,0,1,238,212)"/><path d="M 0 0 L 9 0 L 9 9 L 0 9 Z" fill="#000000" transform="matrix(1,0,0,1,247,212)"/><path d="M 0 0 L 9 0 L 9 9 L 0 9 Z" fill="#000000" transform="matrix(1,0,0,1,0,221)"/><path d="M 0 0 L 9 0 L 9 9 L 0 9 Z" fill="#FFFFFF" transform="matrix(1,0,0,1,9,221)"/><path d="M 0 0 L 8 0 L 8 9 L 0 9 Z" fill="#000000" transform="matrix(1,0,0,1,18,221)"/><path d="M 0 0 L 9 0 L 9 9 L 0 9 Z" fill="#000000" transform="matrix(1,0,0,1,26,221)"/><path d="M 0 0 L 9 0 L 9 9 L 0 9 Z" fill="#000000" transform="matrix(1,0,0,1,35,221)"/><path d="M 0 0 L 9 0 L 9 9 L 0 9 Z" fill="#FFFFFF" transform="matrix(1,0,0,1,44,221)"/><path d="M 0 0 L 9 0 L 9 9 L 0 9 Z" fill="#000000" transform="matrix(1,0,0,1,53,221)"/><path d="M 0 0 L 9 0 L 9 9 L 0 9 Z" fill="#FFFFFF" transform="matrix(1,0,0,1,62,221)"/><path d="M 0 0 L 8 0 L 8 9 L 0 9 Z" fill="#FFFFFF" transform="matrix(1,0,0,1,71,221)"/><path d="M 0 0 L 9 0 L 9 9 L 0 9 Z" fill="#000000" transform="matrix(1,0,0,1,79,221)"/><path d="M 0 0 L 9 0 L 9 9 L 0 9 Z" fill="#FFFFFF" transform="matrix(1,0,0,1,88,221)"/><path d="M 0 0 L 9 0 L 9 9 L 0 9 Z" fill="#FFFFFF" transform="matrix(1,0,0,1,97,221)"/><path d="M 0 0 L 9 0 L 9 9 L 0 9 Z" fill="#000000" transform="matrix(1,0,0,1,106,221)"/><path d="M 0 0 L 9 0 L 9 9 L 0 9 Z" fill="#FFFFFF" transform="matrix(1,0,0,1,115,221)"/><path d="M 0 0 L 8 0 L 8 9 L 0 9 Z" fill="#FFFFFF" transform="matrix(1,0,0,1,124,221)"/><path d="M 0 0 L 9 0 L 9 9 L 0 9 Z" fill="#FFFFFF" transform="matrix(1,0,0,1,132,221)"/><path d="M 0 0 L 9 0 L 9 9 L 0 9 Z" fill="#FFFFFF" transform="matrix(1,0,0,1,141,221)"/><path d="M 0 0 L 9 0 L 9 9 L 0 9 Z" fill="#FFFFFF" transform="matrix(1,0,0,1,150,221)"/><path d="M 0 0 L 9 0 L 9 9 L 0 9 Z" fill="#000000" transform="matrix(1,0,0,1,159,221)"/><path d="M 0 0 L 9 0 L 9 9 L 0 9 Z" fill="#FFFFFF" transform="matrix(1,0,0,1,168,221)"/><path d="M 0 0 L 8 0 L 8 9 L 0 9 Z" fill="#FFFFFF" transform="matrix(1,0,0,1,177,221)"/><path d="M 0 0 L 9 0 L 9 9 L 0 9 Z" fill="#000000" transform="matrix(1,0,0,1,185,221)"/><path d="M 0 0 L 9 0 L 9 9 L 0 9 Z" fill="#FFFFFF" transform="matrix(1,0,0,1,194,221)"/><path d="M 0 0 L 9 0 L 9 9 L 0 9 Z" fill="#000000" transform="matrix(1,0,0,1,203,221)"/><path d="M 0 0 L 9 0 L 9 9 L 0 9 Z" fill="#000000" transform="matrix(1,0,0,1,212,221)"/><path d="M 0 0 L 9 0 L 9 9 L 0 9 Z" fill="#FFFFFF" transform="matrix(1,0,0,1,221,221)"/><path d="M 0 0 L 8 0 L 8 9 L 0 9 Z" fill="#000000" transform="matrix(1,0,0,1,230,221)"/><path d="M 0 0 L 9 0 L 9 9 L 0 9 Z" fill="#FFFFFF" transform="matrix(1,0,0,1,238,221)"/><path d="M 0 0 L 9 0 L 9 9 L 0 9 Z" fill="#000000" transform="matrix(1,0,0,1,247,221)"/><path d="M 0 0 L 9 0 L 9 8 L 0 8 Z" fill="#000000" transform="matrix(1,0,0,1,0,230)"/><path d="M 0 0 L 9 0 L 9 8 L 0 8 Z" fill="#FFFFFF" transform="matrix(1,0,0,1,9,230)"/><path d="M 0 0 L 8 0 L 8 8 L 0 8 Z" fill="#000000" transform="matrix(1,0,0,1,18,230)"/><path d="M 0 0 L 9 0 L 9 8 L 0 8 Z" fill="#000000" transform="matrix(1,0,0,1,26,230)"/><path d="M 0 0 L 9 0 L 9 8 L 0 8 Z" fill="#000000" transform="matrix(1,0,0,1,35,230)"/><path d="M 0 0 L 9 0 L 9 8 L 0 8 Z" fill="#FFFFFF" transform="matrix(1,0,0,1,44,230)"/><path d="M 0 0 L 9 0 L 9 8 L 0 8 Z" fill="#000000" transform="matrix(1,0,0,1,53,230)"/><path d="M 0 0 L 9 0 L 9 8 L 0 8 Z" fill="#FFFFFF" transform="matrix(1,0,0,1,62,230)"/><path d="M 0 0 L 8 0 L 8 8 L 0 8 Z" fill="#000000" transform="matrix(1,0,0,1,71,230)"/><path d="M 0 0 L 9 0 L 9 8 L 0 8 Z" fill="#000000" transform="matrix(1,0,0,1,79,230)"/><path d="M 0 0 L 9 0 L 9 8 L 0 8 Z" fill="#FFFFFF" transform="matrix(1,0,0,1,88,230)"/><path d="M 0 0 L 9 0 L 9 8 L 0 8 Z" fill="#FFFFFF" transform="matrix(1,0,0,1,97,230)"/><path d="M 0 0 L 9 0 L 9 8 L 0 8 Z" fill="#000000" transform="matrix(1,0,0,1,106,230)"/><path d="M 0 0 L 9 0 L 9 8 L 0 8 Z" fill="#FFFFFF" transform="matrix(1,0,0,1,115,230)"/><path d="M 0 0 L 8 0 L 8 8 L 0 8 Z" fill="#000000" transform="matrix(1,0,0,1,124,230)"/><path d="M 0 0 L 9 0 L 9 8 L 0 8 Z" fill="#FFFFFF" transform="matrix(1,0,0,1,132,230)"/><path d="M 0 0 L 9 0 L 9 8 L 0 8 Z" fill="#000000" transform="matrix(1,0,0,1,141,230)"/><path d="M 0 0 L 9 0 L 9 8 L 0 8 Z" fill="#FFFFFF" transform="matrix(1,0,0,1,150,230)"/><path d="M 0 0 L 9 0 L 9 8 L 0 8 Z" fill="#000000" transform="matrix(1,0,0,1,159,230)"/><path d="M 0 0 L 9 0 L 9 8 L 0 8 Z" fill="#FFFFFF" transform="matrix(1,0,0,1,168,230)"/><path d="M 0 0 L 8 0 L 8 8 L 0 8 Z" fill="#000000" transform="matrix(1,0,0,1,177,230)"/><path d="M 0 0 L 9 0 L 9 8 L 0 8 Z" fill="#000000" transform="matrix(1,0,0,1,185,230)"/><path d="M 0 0 L 9 0 L 9 8 L 0 8 Z" fill="#FFFFFF" transform="matrix(1,0,0,1,194,230)"/><path d="M 0 0 L 9 0 L 9 8 L 0 8 Z" fill="#000000" transform="matrix(1,0,0,1,203,230)"/><path d="M 0 0 L 9 0 L 9 8 L 0 8 Z" fill="#000000" transform="matrix(1,0,0,1,212,230)"/><path d="M 0 0 L 9 0 L 9 8 L 0 8 Z" fill="#000000" transform="matrix(1,0,0,1,221,230)"/><path d="M 0 0 L 8 0 L 8 8 L 0 8 Z" fill="#FFFFFF" transform="matrix(1,0,0,1,230,230)"/><path d="M 0 0 L 9 0 L 9 8 L 0 8 Z" fill="#FFFFFF" transform="matrix(1,0,0,1,238,230)"/><path d="M 0 0 L 9 0 L 9 8 L 0 8 Z" fill="#000000" transform="matrix(1,0,0,1,247,230)"/><path d="M 0 0 L 9 0 L 9 9 L 0 9 Z" fill="#000000" transform="matrix(1,0,0,1,0,238)"/><path d="M 0 0 L 9 0 L 9 9 L 0 9 Z" fill="#FFFFFF" transform="matrix(1,0,0,1,9,238)"/><path d="M 0 0 L 8 0 L 8 9 L 0 9 Z" fill="#FFFFFF" transform="matrix(1,0,0,1,18,238)"/><path d="M 0 0 L 9 0 L 9 9 L 0 9 Z" fill="#FFFFFF" transform="matrix(1,0,0,1,26,238)"/><path d="M 0 0 L 9 0 L 9 9 L 0 9 Z" fill="#FFFFFF" transform="matrix(1,0,0,1,35,238)"/><path d="M 0 0 L 9 0 L 9 9 L 0 9 Z" fill="#FFFFFF" transform="matrix(1,0,0,1,44,238)"/><path d="M 0 0 L 9 0 L 9 9 L 0 9 Z" fill="#000000" transform="matrix(1,0,0,1,53,238)"/><path d="M 0 0 L 9 0 L 9 9 L 0 9 Z" fill="#FFFFFF" transform="matrix(1,0,0,1,62,238)"/><path d="M 0 0 L 8 0 L 8 9 L 0 9 Z" fill="#000000" transform="matrix(1,0,0,1,71,238)"/><path d="M 0 0 L 9 0 L 9 9 L 0 9 Z" fill="#000000" transform="matrix(1,0,0,1,79,238)"/><path d="M 0 0 L 9 0 L 9 9 L 0 9 Z" fill="#000000" transform="matrix(1,0,0,1,88,238)"/><path d="M 0 0 L 9 0 L 9 9 L 0 9 Z" fill="#FFFFFF" transform="matrix(1,0,0,1,97,238)"/><path d="M 0 0 L 9 0 L 9 9 L 0 9 Z" fill="#000000" transform="matrix(1,0,0,1,106,238)"/><path d="M 0 0 L 9 0 L 9 9 L 0 9 Z" fill="#000000" transform="matrix(1,0,0,1,115,238)"/><path d="M 0 0 L 8 0 L 8 9 L 0 9 Z" fill="#000000" transform="matrix(1,0,0,1,124,238)"/><path d="M 0 0 L 9 0 L 9 9 L 0 9 Z" fill="#000000" transform="matrix(1,0,0,1,132,238)"/><path d="M 0 0 L 9 0 L 9 9 L 0 9 Z" fill="#000000" transform="matrix(1,0,0,1,141,238)"/><path d="M 0 0 L 9 0 L 9 9 L 0 9 Z" fill="#000000" transform="matrix(1,0,0,1,150,238)"/><path d="M 0 0 L 9 0 L 9 9 L 0 9 Z" fill="#FFFFFF" transform="matrix(1,0,0,1,159,238)"/><path d="M 0 0 L 9 0 L 9 9 L 0 9 Z" fill="#FFFFFF" transform="matrix(1,0,0,1,168,238)"/><path d="M 0 0 L 8 0 L 8 9 L 0 9 Z" fill="#000000" transform="matrix(1,0,0,1,177,238)"/><path d="M 0 0 L 9 0 L 9 9 L 0 9 Z" fill="#FFFFFF" transform="matrix(1,0,0,1,185,238)"/><path d="M 0 0 L 9 0 L 9 9 L 0 9 Z" fill="#FFFFFF" transform="matrix(1,0,0,1,194,238)"/><path d="M 0 0 L 9 0 L 9 9 L 0 9 Z" fill="#FFFFFF" transform="matrix(1,0,0,1,203,238)"/><path d="M 0 0 L 9 0 L 9 9 L 0 9 Z" fill="#000000" transform="matrix(1,0,0,1,212,238)"/><path d="M 0 0 L 9 0 L 9 9 L 0 9 Z" fill="#FFFFFF" transform="matrix(1,0,0,1,221,238)"/><path d="M 0 0 L 8 0 L 8 9 L 0 9 Z" fill="#FFFFFF" transform="matrix(1,0,0,1,230,238)"/><path d="M 0 0 L 9 0 L 9 9 L 0 9 Z" fill="#000000" transform="matrix(1,0,0,1,238,238)"/><path d="M 0 0 L 9 0 L 9 9 L 0 9 Z" fill="#FFFFFF" transform="matrix(1,0,0,1,247,238)"/><path d="M 0 0 L 9 0 L 9 9 L 0 9 Z" fill="#000000" transform="matrix(1,0,0,1,0,247)"/><path d="M 0 0 L 9 0 L 9 9 L 0 9 Z" fill="#000000" transform="matrix(1,0,0,1,9,247)"/><path d="M 0 0 L 8 0 L 8 9 L 0 9 Z" fill="#000000" transform="matrix(1,0,0,1,18,247)"/><path d="M 0 0 L 9 0 L 9 9 L 0 9 Z" fill="#000000" transform="matrix(1,0,0,1,26,247)"/><path d="M 0 0 L 9 0 L 9 9 L 0 9 Z" fill="#000000" transform="matrix(1,0,0,1,35,247)"/><path d="M 0 0 L 9 0 L 9 9 L 0 9 Z" fill="#000000" transform="matrix(1,0,0,1,44,247)"/><path d="M 0 0 L 9 0 L 9 9 L 0 9 Z" fill="#000000" transform="matrix(1,0,0,1,53,247)"/><path d="M 0 0 L 9 0 L 9 9 L 0 9 Z" fill="#FFFFFF" transform="matrix(1,0,0,1,62,247)"/><path d="M 0 0 L 8 0 L 8 9 L 0 9 Z" fill="#000000" transform="matrix(1,0,0,1,71,247)"/><path d="M 0 0 L 9 0 L 9 9 L 0 9 Z" fill="#000000" transform="matrix(1,0,0,1,79,247)"/><path d="M 0 0 L 9 0 L 9 9 L 0 9 Z" fill="#FFFFFF" transform="matrix(1,0,0,1,88,247)"/><path d="M 0 0 L 9 0 L 9 9 L 0 9 Z" fill="#000000" transform="matrix(1,0,0,1,97,247)"/><path d="M 0 0 L 9 0 L 9 9 L 0 9 Z" fill="#000000" transform="matrix(1,0,0,1,106,247)"/><path d="M 0 0 L 9 0 L 9 9 L 0 9 Z" fill="#000000" transform="matrix(1,0,0,1,115,247)"/><path d="M 0 0 L 8 0 L 8 9 L 0 9 Z" fill="#FFFFFF" transform="matrix(1,0,0,1,124,247)"/><path d="M 0 0 L 9 0 L 9 9 L 0 9 Z" fill="#FFFFFF" transform="matrix(1,0,0,1,132,247)"/><path d="M 0 0 L 9 0 L 9 9 L 0 9 Z" fill="#FFFFFF" transform="matrix(1,0,0,1,141,247)"/><path d="M 0 0 L 9 0 L 9 9 L 0 9 Z" fill="#000000" transform="matrix(1,0,0,1,150,247)"/><path d="M 0 0 L 9 0 L 9 9 L 0 9 Z" fill="#FFFFFF" transform="matrix(1,0,0,1,159,247)"/><path d="M 0 0 L 9 0 L 9 9 L 0 9 Z" fill="#FFFFFF" transform="matrix(1,0,0,1,168,247)"/><path d="M 0 0 L 8 0 L 8 9 L 0 9 Z" fill="#000000" transform="matrix(1,0,0,1,177,247)"/><path d="M 0 0 L 9 0 L 9 9 L 0 9 Z" fill="#FFFFFF" transform="matrix(1,0,0,1,185,247)"/><path d="M 0 0 L 9 0 L 9 9 L 0 9 Z" fill="#000000" transform="matrix(1,0,0,1,194,247)"/><path d="M 0 0 L 9 0 L 9 9 L 0 9 Z" fill="#000000" transform="matrix(1,0,0,1,203,247)"/><path d="M 0 0 L 9 0 L 9 9 L 0 9 Z" fill="#000000" transform="matrix(1,0,0,1,212,247)"/><path d="M 0 0 L 9 0 L 9 9 L 0 9 Z" fill="#000000" transform="matrix(1,0,0,1,221,247)"/><path d="M 0 0 L 8 0 L 8 9 L 0 9 Z" fill="#FFFFFF" transform="matrix(1,0,0,1,230,247)"/><path d="M 0 0 L 9 0 L 9 9 L 0 9 Z" fill="#000000" transform="matrix(1,0,0,1,238,247)"/><path d="M 0 0 L 9 0 L 9 9 L 0 9 Z" fill="#000000" transform="matrix(1,0,0,1,247,247)"/></svg>