<svg xmlns="http://www.w3.org/2000/svg" viewBox="0 0 292 584" aria-hidden="true">
  <path id="device-frame" fill-rule="evenodd" d="m273.6 4.8a32.7 32.7 0 0113.6 13.6c3.1 5.9 4.8 11.7 4.8 27.7v491.9c0 16-1.7 21.8-4.8 27.7a32.7 32.7 0 01-13.6 13.6c-5.9 3.1-11.7 4.8-27.7 4.8h-199.9c-16 0-21.8-1.7-27.7-4.8a32.7 32.7 0 01-13.6-13.6c-2.9-5.9-4.7-11.7-4.7-27.2v-492.5c0-16 1.7-21.8 4.8-27.7a32.7 32.7 0 0113.6-13.5c5.8-3 11.6-4.8 27.1-4.8h200.5c16 0 21.8 1.7 27.7 4.8zm-205.6 1.2h-22.3c-13.7 0-18.7 1.4-23.7 4.1c-5 2.7-9 6.7-11.8 11.8c-2.7 5-4.1 10-4.1 23.8v491.6c-.1 13.7 1.3 18.7 4 23.7c2.7 5 6.7 9 11.8 11.8c5 2.7 10 4.1 23.8 4.1h200.6c13.8 0 18.8-1.4 23.8-4.1c5-2.7 9-6.7 11.8-11.8c2.7-5 4.1-10 4.1-23.8v-491.5c0-13.8-1.4-18.8-4.1-23.8c-2.7-5-6.7-9-11.8-11.8c-5-2.7-10-4.1-23.8-4.1h-22.3v7.9c0 4.9-.5 6.7-1.5 8.5a10 10 0 01-4.1 4.1c-1.8 1-3.6 1.5-8.5 1.5h-127.8c-4.9 0-6.7-.5-8.5-1.5a10 10 0 01-4.1-4.1c-1-1.8-1.5-3.6-1.5-8.5v-7.9zm114 558a2 2 0 010 4h-71a2 2 0 010-4h71z"/>
  <defs>
    <clipPath id="device-clip-path" clipPathUnits="objectBoundingBox">
      <path fill-rule="evenodd" d="M 0.7671 0.0103 L 0.7671 0.0238 L 0.7671 0.0252 L 0.7671 0.0252 L 0.7671 0.0265 L 0.7671 0.0265 L 0.767 0.0277 C 0.767 0.0279 0.7669 0.0281 0.7669 0.0282 L 0.7668 0.0293 C 0.7664 0.0317 0.7658 0.0335 0.7649 0.0349 L 0.7645 0.0356 C 0.7644 0.0358 0.7642 0.036 0.7641 0.0361 L 0.7636 0.0367 C 0.7636 0.0368 0.7635 0.0369 0.7634 0.037 L 0.7629 0.0375 L 0.7629 0.0375 L 0.7624 0.038 C 0.7623 0.0381 0.7622 0.0382 0.7621 0.0383 C 0.7588 0.0414 0.754 0.0438 0.7479 0.0454 L 0.7468 0.0457 C 0.7466 0.0457 0.7464 0.0458 0.7463 0.0458 L 0.7452 0.0461 L 0.7452 0.0461 L 0.7441 0.0463 C 0.7435 0.0464 0.743 0.0465 0.7424 0.0466 L 0.7411 0.0468 C 0.7384 0.0473 0.7351 0.0476 0.7309 0.0477 L 0.7288 0.0478 C 0.7281 0.0478 0.7273 0.0479 0.7266 0.0479 L 0.7242 0.0479 L 0.7242 0.0479 L 0.7216 0.0479 L 0.7216 0.0479 L 0.7188 0.0479 L 0.7188 0.0479 L 0.2812 0.0479 C 0.2802 0.0479 0.2793 0.0479 0.2784 0.0479 L 0.2758 0.0479 L 0.2758 0.0479 L 0.2734 0.0479 C 0.273 0.0479 0.2727 0.0479 0.2723 0.0478 L 0.2702 0.0478 C 0.2654 0.0476 0.2618 0.0473 0.2589 0.0468 L 0.2576 0.0466 C 0.2572 0.0466 0.2569 0.0465 0.2565 0.0464 L 0.2554 0.0462 C 0.2552 0.0462 0.255 0.0461 0.2548 0.0461 L 0.2537 0.0458 L 0.2537 0.0458 L 0.2527 0.0456 C 0.2525 0.0455 0.2523 0.0455 0.2521 0.0454 C 0.246 0.0438 0.2412 0.0414 0.2379 0.0383 L 0.2374 0.0378 C 0.2373 0.0377 0.2372 0.0376 0.2371 0.0375 L 0.2366 0.037 L 0.2366 0.037 L 0.2361 0.0364 C 0.2359 0.0361 0.2357 0.0359 0.2355 0.0356 L 0.2351 0.0349 C 0.2343 0.0336 0.2337 0.032 0.2333 0.0298 L 0.2331 0.0288 C 0.2331 0.0284 0.2331 0.0281 0.233 0.0277 L 0.2329 0.0265 L 0.2329 0.0265 L 0.2329 0.0252 L 0.2329 0.0252 L 0.2329 0.0238 L 0.2329 0.0238 L 0.2329 0.0103 L 0.1546 0.0103 L 0.1546 0.0103 L 0.1506 0.0103 C 0.1499 0.0103 0.1492 0.0103 0.1486 0.0103 L 0.1448 0.0103 L 0.1448 0.0103 L 0.1411 0.0104 L 0.1411 0.0104 L 0.1376 0.0104 L 0.1376 0.0104 L 0.1342 0.0105 L 0.1342 0.0105 L 0.131 0.0106 L 0.131 0.0106 L 0.1278 0.0107 L 0.1278 0.0107 L 0.1248 0.0108 L 0.1248 0.0108 L 0.1219 0.0109 C 0.1215 0.0109 0.121 0.0109 0.1205 0.011 L 0.1178 0.0111 L 0.1178 0.0111 L 0.1152 0.0113 L 0.1152 0.0113 L 0.1126 0.0114 C 0.1118 0.0115 0.111 0.0115 0.1102 0.0116 L 0.1078 0.0118 C 0.1067 0.0119 0.1056 0.012 0.1045 0.0121 L 0.1023 0.0123 L 0.1023 0.0123 L 0.1003 0.0125 L 0.1003 0.0125 L 0.0983 0.0128 L 0.0983 0.0128 L 0.0963 0.013 L 0.0963 0.013 L 0.0944 0.0133 L 0.0944 0.0133 L 0.0926 0.0136 C 0.092 0.0137 0.0914 0.0138 0.0909 0.0139 L 0.0891 0.0142 C 0.0888 0.0142 0.0886 0.0143 0.0883 0.0143 L 0.0866 0.0146 L 0.0866 0.0146 L 0.085 0.015 L 0.085 0.015 L 0.0834 0.0153 L 0.0834 0.0153 L 0.0818 0.0156 L 0.0818 0.0156 L 0.0802 0.016 L 0.0802 0.016 L 0.0787 0.0164 L 0.0787 0.0164 L 0.0771 0.0168 L 0.0771 0.0168 L 0.0756 0.0172 L 0.0756 0.0172 L 0.0749 0.0174 C 0.0576 0.022 0.044 0.0288 0.0347 0.0374 L 0.0339 0.0382 L 0.0339 0.0382 L 0.0332 0.0389 L 0.0332 0.0389 L 0.0324 0.0397 L 0.0324 0.0397 L 0.0317 0.0405 L 0.0317 0.0405 L 0.031 0.0412 L 0.031 0.0412 L 0.0303 0.042 L 0.0303 0.042 L 0.0296 0.0428 L 0.0296 0.0428 L 0.029 0.0436 L 0.029 0.0436 L 0.0284 0.0445 C 0.0281 0.0449 0.0278 0.0453 0.0275 0.0457 L 0.0269 0.0466 L 0.0269 0.0466 L 0.0264 0.0475 C 0.0262 0.0478 0.0261 0.0481 0.0259 0.0485 L 0.0254 0.0494 L 0.0254 0.0494 L 0.0249 0.0504 L 0.0249 0.0504 L 0.0245 0.0515 C 0.0244 0.0516 0.0243 0.0518 0.0243 0.052 L 0.0239 0.0531 C 0.0238 0.0532 0.0237 0.0534 0.0237 0.0536 L 0.0233 0.0548 C 0.0232 0.055 0.0232 0.0552 0.0231 0.0554 L 0.0228 0.0566 C 0.0227 0.0568 0.0227 0.057 0.0226 0.0572 L 0.0223 0.0585 L 0.0223 0.0585 L 0.022 0.0598 C 0.022 0.06 0.0219 0.0603 0.0219 0.0605 L 0.0217 0.0619 L 0.0217 0.0619 L 0.0214 0.0634 C 0.0214 0.0636 0.0214 0.0639 0.0213 0.0641 L 0.0212 0.0657 L 0.0212 0.0657 L 0.021 0.0673 C 0.021 0.0675 0.0209 0.0678 0.0209 0.0681 L 0.0207 0.0707 L 0.0207 0.0707 L 0.0207 0.0725 L 0.0207 0.0725 L 0.0206 0.0744 L 0.0206 0.0744 L 0.0206 0.0763 C 0.0206 0.0766 0.0206 0.077 0.0206 0.0773 L 0.0206 0.921 L 0.0206 0.921 L 0.0206 0.923 L 0.0206 0.923 L 0.0206 0.9249 L 0.0206 0.9249 L 0.0207 0.9267 C 0.0207 0.927 0.0207 0.9273 0.0207 0.9276 L 0.0209 0.9302 L 0.0209 0.9302 L 0.0211 0.9318 L 0.0211 0.9318 L 0.0212 0.9334 C 0.0213 0.9337 0.0213 0.9339 0.0213 0.9342 L 0.0215 0.9357 L 0.0215 0.9357 L 0.0218 0.9371 C 0.0218 0.9373 0.0219 0.9376 0.0219 0.9378 L 0.0222 0.9392 C 0.0222 0.9394 0.0223 0.9396 0.0223 0.9398 L 0.0226 0.9411 L 0.0226 0.9411 L 0.0229 0.9423 C 0.0231 0.9427 0.0232 0.9431 0.0233 0.9435 L 0.0237 0.9447 L 0.0237 0.9447 L 0.0241 0.9458 C 0.0242 0.9461 0.0243 0.9465 0.0245 0.9468 L 0.0249 0.9479 L 0.0249 0.9479 L 0.0254 0.9489 L 0.0254 0.9489 L 0.0259 0.9498 C 0.0261 0.9501 0.0262 0.9505 0.0264 0.9508 L 0.0269 0.9517 L 0.0269 0.9517 L 0.0275 0.9526 C 0.0277 0.9528 0.0279 0.9531 0.0281 0.9534 L 0.0287 0.9543 C 0.0288 0.9544 0.0289 0.9545 0.029 0.9547 L 0.0296 0.9555 L 0.0296 0.9555 L 0.0303 0.9563 L 0.0303 0.9563 L 0.031 0.9571 L 0.031 0.9571 L 0.032 0.9582 L 0.032 0.9582 L 0.0328 0.959 L 0.0328 0.959 L 0.0339 0.9601 L 0.0339 0.9601 L 0.0347 0.9609 L 0.0347 0.9609 C 0.044 0.9695 0.0576 0.9763 0.0749 0.9809 L 0.0764 0.9813 L 0.0764 0.9813 L 0.0779 0.9817 L 0.0779 0.9817 L 0.0794 0.9821 L 0.0794 0.9821 L 0.0809 0.9824 L 0.0809 0.9824 L 0.0825 0.9828 L 0.0825 0.9828 L 0.084 0.9831 L 0.084 0.9831 L 0.0856 0.9835 L 0.0856 0.9835 L 0.0872 0.9838 L 0.0872 0.9838 L 0.0889 0.9841 C 0.0897 0.9842 0.0906 0.9844 0.0915 0.9845 L 0.0932 0.9848 L 0.0932 0.9848 L 0.0951 0.9851 C 0.0957 0.9852 0.0963 0.9853 0.0969 0.9853 L 0.0988 0.9856 L 0.0988 0.9856 L 0.1008 0.9858 L 0.1008 0.9858 L 0.1029 0.986 C 0.1033 0.9861 0.1036 0.9861 0.104 0.9862 L 0.1061 0.9864 C 0.1065 0.9864 0.1069 0.9864 0.1072 0.9865 L 0.1095 0.9866 C 0.1099 0.9867 0.1103 0.9867 0.1107 0.9867 L 0.1131 0.9869 C 0.1135 0.9869 0.114 0.987 0.1144 0.987 L 0.1169 0.9871 L 0.1169 0.9871 L 0.1196 0.9873 C 0.12 0.9873 0.1205 0.9873 0.121 0.9873 L 0.1238 0.9875 L 0.1238 0.9875 L 0.1267 0.9876 C 0.1272 0.9876 0.1277 0.9876 0.1282 0.9876 L 0.1313 0.9877 L 0.1313 0.9877 L 0.1345 0.9878 C 0.1351 0.9878 0.1356 0.9878 0.1362 0.9878 L 0.1414 0.9879 L 0.1414 0.9879 L 0.145 0.988 L 0.145 0.988 L 0.1487 0.988 L 0.1487 0.988 L 0.1526 0.988 L 0.1526 0.988 L 0.1566 0.988 L 0.8454 0.988 L 0.8454 0.988 L 0.8494 0.988 L 0.8494 0.988 L 0.8532 0.988 L 0.8532 0.988 L 0.8569 0.9879 C 0.8575 0.9879 0.8581 0.9879 0.8586 0.9879 L 0.8638 0.9878 L 0.8638 0.9878 L 0.8671 0.9878 L 0.8671 0.9878 L 0.8703 0.9877 C 0.8708 0.9877 0.8713 0.9876 0.8718 0.9876 L 0.8748 0.9875 L 0.8748 0.9875 L 0.8776 0.9874 C 0.8781 0.9874 0.8786 0.9874 0.879 0.9873 L 0.8817 0.9872 C 0.8822 0.9872 0.8826 0.9872 0.8831 0.9871 L 0.8856 0.987 L 0.8856 0.987 L 0.8881 0.9868 C 0.8889 0.9868 0.8897 0.9867 0.8905 0.9866 L 0.8928 0.9865 L 0.8928 0.9865 L 0.895 0.9863 C 0.8957 0.9862 0.8964 0.9861 0.8971 0.986 L 0.8992 0.9858 L 0.8992 0.9858 L 0.9012 0.9856 L 0.9012 0.9856 L 0.9031 0.9853 C 0.9037 0.9853 0.9043 0.9852 0.9049 0.9851 L 0.9068 0.9848 L 0.9068 0.9848 L 0.9085 0.9845 C 0.9091 0.9844 0.9097 0.9843 0.9102 0.9842 L 0.9119 0.9839 C 0.9122 0.9839 0.9125 0.9838 0.9128 0.9838 L 0.9144 0.9835 L 0.9144 0.9835 L 0.916 0.9831 L 0.916 0.9831 L 0.9175 0.9828 L 0.9175 0.9828 L 0.9198 0.9823 L 0.9198 0.9823 L 0.9214 0.9819 L 0.9214 0.9819 L 0.9236 0.9813 L 0.9236 0.9813 L 0.9251 0.9809 L 0.9251 0.9809 C 0.9424 0.9763 0.956 0.9695 0.9653 0.9609 L 0.9661 0.9601 L 0.9661 0.9601 L 0.9668 0.9594 L 0.9668 0.9594 L 0.9676 0.9586 L 0.9676 0.9586 L 0.9683 0.9578 L 0.9683 0.9578 L 0.969 0.9571 L 0.969 0.9571 L 0.9697 0.9563 L 0.9697 0.9563 L 0.9704 0.9555 L 0.9704 0.9555 L 0.971 0.9547 L 0.971 0.9547 L 0.9716 0.9538 C 0.9719 0.9534 0.9722 0.953 0.9725 0.9526 L 0.9731 0.9517 L 0.9731 0.9517 L 0.9736 0.9508 C 0.9738 0.9505 0.9739 0.9501 0.9741 0.9498 L 0.9746 0.9489 L 0.9746 0.9489 L 0.9751 0.9479 L 0.9751 0.9479 L 0.9755 0.9468 C 0.9756 0.9467 0.9757 0.9465 0.9757 0.9463 L 0.9761 0.9452 C 0.9762 0.945 0.9763 0.9449 0.9763 0.9447 L 0.9767 0.9435 C 0.9768 0.9433 0.9768 0.9431 0.9769 0.9429 L 0.9772 0.9417 C 0.9773 0.9415 0.9773 0.9413 0.9774 0.9411 L 0.9777 0.9398 L 0.9777 0.9398 L 0.978 0.9385 C 0.978 0.9383 0.9781 0.938 0.9781 0.9378 L 0.9783 0.9364 L 0.9783 0.9364 L 0.9786 0.9349 C 0.9786 0.9347 0.9786 0.9344 0.9787 0.9342 L 0.9788 0.9326 L 0.9788 0.9326 L 0.979 0.931 C 0.979 0.9307 0.9791 0.9305 0.9791 0.9302 L 0.9793 0.9276 L 0.9793 0.9276 L 0.9793 0.9258 L 0.9793 0.9258 L 0.9794 0.9239 L 0.9794 0.9239 L 0.9794 0.922 L 0.9794 0.922 L 0.9795 0.92 L 0.9795 0.0773 L 0.9795 0.0773 L 0.9794 0.0753 L 0.9794 0.0753 L 0.9794 0.0734 L 0.9794 0.0734 L 0.9793 0.0716 C 0.9793 0.0713 0.9793 0.071 0.9793 0.0707 L 0.9791 0.0681 L 0.9791 0.0681 L 0.9789 0.0665 L 0.9789 0.0665 L 0.9788 0.0649 C 0.9787 0.0646 0.9787 0.0644 0.9787 0.0641 L 0.9785 0.0626 L 0.9785 0.0626 L 0.9782 0.0612 C 0.9782 0.0609 0.9781 0.0607 0.9781 0.0605 L 0.9778 0.0591 C 0.9778 0.0589 0.9777 0.0587 0.9777 0.0585 L 0.9774 0.0572 L 0.9774 0.0572 L 0.9771 0.056 C 0.9769 0.0556 0.9768 0.0552 0.9767 0.0548 L 0.9763 0.0536 L 0.9763 0.0536 L 0.9759 0.0525 C 0.9758 0.0522 0.9757 0.0518 0.9755 0.0515 L 0.9751 0.0504 L 0.9751 0.0504 L 0.9746 0.0494 L 0.9746 0.0494 L 0.9741 0.0485 C 0.9739 0.0481 0.9738 0.0478 0.9736 0.0475 L 0.9731 0.0466 L 0.9731 0.0466 L 0.9725 0.0457 C 0.9723 0.0454 0.9721 0.0452 0.9719 0.0449 L 0.9713 0.044 C 0.9712 0.0439 0.9711 0.0438 0.971 0.0436 L 0.9704 0.0428 L 0.9704 0.0428 L 0.9697 0.042 L 0.9697 0.042 L 0.969 0.0412 L 0.969 0.0412 L 0.968 0.0401 L 0.968 0.0401 L 0.9672 0.0393 L 0.9672 0.0393 L 0.9661 0.0382 L 0.9661 0.0382 L 0.9653 0.0374 L 0.9653 0.0374 C 0.956 0.0288 0.9424 0.022 0.9251 0.0174 L 0.9236 0.017 L 0.9236 0.017 L 0.9221 0.0166 L 0.9221 0.0166 L 0.9206 0.0162 L 0.9206 0.0162 L 0.9191 0.0158 L 0.9191 0.0158 L 0.9175 0.0155 L 0.9175 0.0155 L 0.916 0.0151 L 0.916 0.0151 L 0.9144 0.0148 L 0.9144 0.0148 L 0.9128 0.0145 L 0.9128 0.0145 L 0.9111 0.0142 C 0.9103 0.014 0.9094 0.0139 0.9085 0.0137 L 0.9068 0.0135 L 0.9068 0.0135 L 0.9049 0.0132 C 0.9043 0.0131 0.9037 0.013 0.9031 0.0129 L 0.9012 0.0127 L 0.9012 0.0127 L 0.8992 0.0125 L 0.8992 0.0125 L 0.8971 0.0122 C 0.8967 0.0122 0.8964 0.0122 0.896 0.0121 L 0.8939 0.0119 C 0.8935 0.0119 0.8931 0.0119 0.8928 0.0118 L 0.8905 0.0116 C 0.8901 0.0116 0.8897 0.0116 0.8893 0.0116 L 0.8869 0.0114 C 0.8865 0.0114 0.886 0.0113 0.8856 0.0113 L 0.8831 0.0112 L 0.8831 0.0112 L 0.8804 0.011 C 0.88 0.011 0.8795 0.011 0.879 0.011 L 0.8762 0.0108 L 0.8762 0.0108 L 0.8733 0.0107 C 0.8728 0.0107 0.8723 0.0107 0.8718 0.0107 L 0.8687 0.0106 L 0.8687 0.0106 L 0.8655 0.0105 C 0.8649 0.0105 0.8644 0.0105 0.8638 0.0105 L 0.8586 0.0104 L 0.8586 0.0104 L 0.855 0.0103 L 0.855 0.0103 L 0.8513 0.0103 L 0.8513 0.0103 L 0.8474 0.0103 C 0.8467 0.0103 0.8461 0.0103 0.8454 0.0103 L 0.7671 0.0103 Z"/>
    </clipPath>
  </defs>
</svg>
