<svg xmlns="http://www.w3.org/2000/svg" viewBox="0 0 560 539"><path d="M421 89.1c-32 1.8-71.2 2.7-74.3-38.9 2.2-19.5-9.8-3.5-10.3-25.2-16 10.6-12.9 27.4 5 33.2 17.3 33.6 44.9 38 79.6 31z"/><path d="M348 55c-.4-2.3-.9-4.6-.9-6.9 1.3-17.7-9-2.7-9.9-23.1-17.1 12.2-8.6 31.3 10.8 30z"/><path d="M345 51.9c-.4-1.8-.8-3.6-.8-5.3.8-14-6.7-2.2-8-17.6-12 9.7-5.3 24.6 8.8 22.9z"/><path d="M343 47.8c-.4-1.2-.9-2.5-.9-3.8 0-10.5-5.8-1.2-7.2-13-9.9 7.6-3.6 18.5 8.1 16.8zM421 89.6c-25.1-2.2-55.5-5.7-53.8-39 4-15.5-7.3-4-5.2-21.6-13.8 6.6-13 20.6.5 26.8 9.5 29.4 30.8 36 58.5 33.8z"/><path d="M366.5 52c0-1.6-.4-2.9 0-4.5 2.7-12.4-6.7-3-5.3-16.5-13.8 6.2-9 20.2 5.3 21z"/><path d="M366 52c0-1.4-.5-2.8-.5-4.2 2-11-5.7-2.3-5.2-14.8-11 6.5-6.7 19 5.7 19z"/><path d="M362 48c0-.9-.4-2.2-.4-3 1.2-8.4-3.5-1.8-3.5-11-7.4 4.8-4 14 3.9 14z"/><path d="M366.5 52c0-1.6-.4-2.9 0-4.5 2.7-12.4-6.7-3-5.3-16.5-13.8 6.2-9 20.2 5.3 21z"/><path d="M366 52c0-1.4-.5-2.8-.5-4.2 2-11-5.7-2.3-5.2-14.8-11 6.5-6.7 19 5.7 19z"/><path d="M362 48c0-.9-.4-2.2-.4-3 1.2-8.4-3.5-1.8-3.5-11-7.4 4.8-4 14 3.9 14zM421 89c-19.7-4.4-43.4-10-38.6-36 4.4-11.3-5.3-3.4-2.2-17-11.4 4-12.3 14.5-2.2 21 4.8 23.7 21 30.7 43 32z"/><path d="M425 87c-14.4-3-31.6-6.7-28-24.3 3.2-8-4-2.5-1.3-11.7-8.1 2.5-9 10-1.8 14.2 3.1 16.4 14.9 21 31.1 21.8z"/><path d="M338.4 291.2c39.4 19 97.7 14.1 135-8 36.8-22 69.2-73.6 81.5-124.3 9.2-38.8 8.8-87.3-25.8-113.3-22.4-17.2-78-33-104-6.2a55.8 55.8 0 00-15.3 30.9 40.2 40.2 0 0011.4 35.3l4 45.8 15.8-39.7c9.6-9.7 15.7-18 18-27.3 2.1-9.3 1.2-18-4-32.6 31.1-4 51.7 7.9 62.2 27.3a75.3 75.3 0 017.5 49c-12.3 64.8-74.5 55.5-118.8 31.7a80 80 0 00-71.5 1.8c-58.3 31.7-56 101 4 129.6zM384.6 58c0-1.4 0-2.8.5-4.2 3.5-10.2-5-2.8-2.5-14.8-13 4.2-10.5 16.7 2 19z"/><path d="M381.5 55v-3c2.2-8-3.5-2.3-2.2-11-8.2 3.5-6.5 12.7 2.2 14z"/><path d="M379.7 53v-2.8c1.5-6.4-2.8-1.8-2-9.2-6 3.7-4.3 11.5 2 12zM394.1 66c0-1 0-1.8.4-2.8 2-6.4-2.7-1.8-1.1-9.2-6.5 2.8-5.4 10.6.7 12z"/><path d="M392.8 63v-1.6c1-4.4-1.7-1.2-1-6.4-4.3 1.6-3.3 7.2 1 8z"/><path d="M393.8 63v-1.9c.9-4.2-1.6-1-1.2-6.1-4.2 2.8-3 7.5 1.2 8zM102.2 316.5c24.3 4 48.2-17 62.8-33-4.9.9-8.8.9-13.7.4-18.6-2.1-49.5-25.6-68-3.4-5.4 6-5.4 14.3-1.8 21.2 3.5 7 10.6 13 20.7 14.8z"/><path d="M106.5 312.6c19.9 3.5 39.4-14.5 51.5-28.2-3.9 1-7.4 1-11.3.5-15.6-1.8-41.1-21.5-56.3-3-4.3 5.2-4.3 11.8-1.3 18a22 22 0 0017.4 12.7z"/><path d="M106.6 311.7c16.3 2.7 32.6-12.2 42.4-23.8-3 .4-6 .9-9 .4-12.8-1.3-33.8-18.4-46.2-2.7a15 15 0 00-1.3 15.3c2.1 5.4 7.3 9.4 14.1 10.8zM279.9 313c16.9-16.4 14.2-46.3 9.8-67-1.8 4-4 7.5-7.1 10.6-12.5 13.2-48.4 23.3-41.8 50.2 1.8 7.5 8 12.3 15.6 13.6 7.5 1.8 16.4-.4 23.5-7.5z"/><path d="M280 309.4c14.2-13.6 12-39.2 8-56.4a31.7 31.7 0 01-6.2 8.8c-10.2 11-40.9 19.8-35 42.3 1.2 6.2 6.6 10.2 13.2 11.5 6.2 1.3 13.8-.5 20-6.2z"/><path d="M277.2 307.1c11.6-11.5 9.4-32.4 6.4-47.1-1.3 2.7-3 5.3-4.7 7.6-8.2 9.3-32.7 16.4-28.4 35.5 1.3 5.4 5.6 8.5 10.8 9.8 5.1.5 11.1-.9 15.9-5.8zM201.8 190c16.9 15.6 46.3 11.7 66.2 6-3.9-1.7-7.4-3.9-10.8-6.5-13.4-11.3-25.1-46.2-51.5-38.4-7 2.2-11.7 8.3-12.5 16.2a27.2 27.2 0 008.6 22.6z"/><path d="M208.5 190c14 12.8 39 9.4 55.5 5.1a29 29 0 01-9.1-5.5c-11.3-9.4-21.2-38-43.3-31.7-6 1.7-10 6.9-10.4 13.3a21.3 21.3 0 007.3 18.8z"/><path d="M210.4 190.3c11.8 11 32.5 8 46.6 4.4a22 22 0 01-7.5-4.8c-9.7-8-18-32.8-36.5-27-4.8 1.3-8.4 6.2-8.8 11.5-.9 4.8 1.3 11 6.2 15.9zM313.5 486.6c26.2-22.2 24.4-67 19.6-97.6-3 5.7-6.5 10.5-11.3 14.8-19.2 18.8-72.5 30.5-65.1 70.6a28.1 28.1 0 0021.8 21.4 38 38 0 0035-9.2z"/><path d="M314 479.1c22-18.8 20.6-56.8 16.7-82.1a54 54 0 01-9.7 12.7c-16.3 15.7-61.6 25.7-55.4 59.8a23.5 23.5 0 0018.4 18 36 36 0 0030-8.4z"/><path d="M312.6 475.8c18-15.6 16.8-46.5 13.3-67.8-2.1 4-4.7 7.4-7.7 10.4-13.3 13-49.9 21.3-44.7 49.2 1.3 7.8 7.3 13 15 14.8a27 27 0 0024.1-6.6zM185.4 476.3C220.6 456 228.7 404 230 368a75.5 75.5 0 01-16.5 15C187.2 400 122 402.3 122 450.3c0 13.2 8.5 23.8 20.5 29a48.3 48.3 0 0042.9-3z"/><path d="M187 464.4c29.5-17 36.1-59.8 37-90.4-4 4.8-8.4 8.7-13.7 12.2-22 14.4-75.9 16.2-76.3 56.3 0 11 7 20.1 17.2 24.5a40.4 40.4 0 0035.7-2.6z"/><path d="M186.4 460.4c24.4-13.9 30.2-49.6 30.6-74.4a50 50 0 01-11.5 10c-18.2 11.8-63.5 13.5-63.5 46.6 0 9.1 5.8 16.5 14.2 20a35.6 35.6 0 0030.2-2.2zM55.4 523.2C92 510.2 108.6 463 116 429a60 60 0 01-18.3 10.9C70.2 451.6 9.2 442.5.5 487.6A31 31 0 0014.8 519c10 7 24.9 9.6 40.6 4.3z"/><path d="M60.3 514.7c30.3-10.9 44.2-51 50.7-79.7-4.8 4-9.5 7-15.2 9.1-23 10-74 2.2-81.4 40.1-1.8 10.5 3 20 11.7 26.2a37.4 37.4 0 0034.2 4.3z"/><path d="M60.2 510.8c25.6-9.2 37.5-42.6 42.8-66.8-4 3.5-8 5.7-12.8 8-19.4 8.3-62.6 1.7-68.8 33.8-1.8 8.8 2.6 16.7 10.1 22 7 5.2 17.7 7 28.7 3zM154.8 537.2c23.7-8.6 34.5-39.2 39.2-61.2a66 66 0 01-11.6 7.3c-18.2 7.8-57.4 1.7-63 31-1.7 8.2 2.6 15.5 9 20.3 6.5 4.3 16.4 6 26.3 2.6z"/><path d="M159.8 533.4c20.7-7 30.1-33.6 34.2-52.4a40 40 0 01-10.4 6.1c-15.7 6.6-50.4 1.3-55.3 26.7-1.4 7 2.2 13 8 17a27 27 0 0023.5 2.6z"/><path d="M157.5 529.6c16.6-6.2 24.4-28.2 27.5-43.6-2.6 2.2-5.2 4-8.3 5.3-12.7 5.3-40.6 1.3-44.5 22a15 15 0 006.5 14.5c4.8 3.1 11.8 4.4 18.8 1.8zM112.2 506.2c10.9-4 15.6-18.4 17.8-29.2a36 36 0 01-5.2 3.6c-8.2 3.6-26.4.9-28.6 14.8-.9 3.6 1.3 7.2 4.3 9.5 2.6 2.2 7 2.7 11.7 1.3z"/><path d="M113.1 502.3c9.6-3.1 13.6-15.7 15.9-24.3a9.4 9.4 0 01-4.5 2.7c-7.3 3.2-23.1.5-25.4 12.2-.5 3.1.9 6.3 3.6 8.1 2.3 1.8 6.4 2.7 10.4 1.3z"/><path d="M114.9 501.3c7.7-2.6 11.3-12.5 13.1-19.3-1.4.9-2.3 1.7-4 2.1-6 2.6-19.1.5-21 9.9-.4 2.5 1 4.7 3.3 6.4 1.8 1.7 5 2.1 8.6.9zM240.2 523c10.9-4 15.6-18.3 17.8-29a36 36 0 01-5.2 3.6c-8.2 3.6-26.4.9-28.6 14.7-.9 3.6 1.3 7.2 4.3 9.4 2.6 2.2 7.4 3.1 11.7 1.3z"/><path d="M241.1 521.2c9.6-3.1 13.6-15.7 15.9-24.2a9.4 9.4 0 01-4.5 2.7c-7.3 3.1-23.1.4-25.4 12.5-.5 3.2.9 6.3 3.6 8.1 2.7 1.8 6.4 2.3 10.4 1z"/><path d="M239.9 519.5c7.7-2.6 11.3-12.6 13.1-19.5-1.4.9-2.3 1.7-4 2.2-6 2.6-19.1.4-21 10-.4 2.6 1 4.7 3.3 6.5 1.8 1.3 5.4 1.7 8.6.8zM313.1 399.3c27-33.7 14.2-88 .9-124.3a72.4 72.4 0 01-10.6 21c-19.5 27.1-83 54.7-63.9 102 5.4 13.1 17.8 20.1 32 21 14.1.4 30-5.7 41.6-19.7z"/><path d="M309.8 388c22.4-28.8 11.9-75 .9-106a77 77 0 01-8.8 18.2c-16.2 23-68.8 46.6-53 87a28.8 28.8 0 0026.7 17.7c11.4.9 24.6-4.4 34.2-16.9z"/><path d="M308.2 385c18.1-23.4 10-60.8.8-86-1.7 5.7-3.9 10-7.3 14.8-13 18.7-56.3 37.8-43.3 70.9 3.5 9 12.1 13.9 21.6 14.3 9.6 0 20.4-4 28.2-14zM272.1 153c18.7-14.3 48.4-6.6 67.9 1-4.4 1.3-8 3.1-11.5 5.3-15.1 10.3-30.6 44.4-56.4 33.6-7-3.1-11-9.8-11-17.4-.5-8.1 3-16.6 11-22.4z"/><path d="M275.7 153.7c16.2-12 42.2-5.5 59.3.8-4 1.3-7 2.6-10.1 4.7-13.2 8.5-26.8 37-49.2 28a15.9 15.9 0 01-9.7-14.8 24 24 0 019.7-18.7z"/><path d="M281.9 154.8c13.5-10.4 35.2-4.8 49.1.9-3 .9-5.7 2.2-8.3 3.9-10.8 7.4-22.1 31.7-40.8 23.9-5.2-2.2-7.9-7-7.9-12.6a18.7 18.7 0 017.9-16z"/><path d="M285.6 155.3c12.5-9.4 32-4.5 45.4.5-2.7.8-5.3 1.7-7.6 3.5-10.2 6.7-20.4 29.5-37.8 22.3-4.4-1.8-7.1-6.7-7.6-11.6-.4-5.3 2.3-10.7 7.6-14.7zM30.7 396.7c6.1-36.3 47.7-59.5 78.3-71.7a70.3 70.3 0 00-7.4 18.8c-6.2 27.6 12.2 83-28.5 98.4-10.9 4.4-22.7.4-31.5-7.9a42.4 42.4 0 01-10.9-37.6z"/><path d="M34.6 394.6C39.8 362.6 76 342 103 331c-3 5.3-5.2 10.5-6.5 16.7-5.6 24.5 10.8 73.2-25.1 86.9-9.6 3.5-20 .4-27.3-7a37.9 37.9 0 01-9.5-33z"/><path d="M41.4 388.2c4.4-26.6 35.4-44 57.6-53.2a38.5 38.5 0 00-5.2 14c-4.8 20.4 9.1 61.4-21 72.7-8.2 3-17 .5-23-6a31.5 31.5 0 01-8.4-27.5z"/><path d="M42.5 384c4-24.2 31.8-39.6 52.5-48-2.2 4-4 8-4.9 12.8-4.4 18.5 8.4 55.5-19 66-7.4 2.7-15.4.5-21.1-5.2a28.7 28.7 0 01-7.5-25.6zM222.7 233.4c12.9-25.9 49.6-34.2 75.3-36.4-4 3.5-7 7.5-9.7 12.3-11.1 19.3-9.3 65-43.9 67.6-9.3.9-17.7-4.8-22.1-13.2-4-8.3-4.9-19.7.4-30.3z"/><path d="M228.1 229.5c11-22.4 43-29.3 65.9-31.5a39.7 39.7 0 00-8.3 10.8c-9.7 16.8-8.4 56-38.2 58.2-8.4.4-15.4-4-19.4-11.2a29 29 0 010-26.3z"/><path d="M232.8 229.6c9.2-18.9 36.4-24.5 55.2-26.6a28 28 0 00-7 9c-7.9 14.2-7 47.3-32 49-7 .4-12.7-3.5-16.2-9.5-3.5-5.6-4-13.7 0-21.9z"/><path d="M236.4 227c8.5-17 33.1-22.7 50.6-24-2.7 2.6-5 5.3-6.7 8.3-7.6 12.7-6.3 43.3-29.6 44.7-6.2.4-11.6-3.1-14.7-8.8a24.4 24.4 0 01.4-20.1zM105.8 352.4c7-34.8 48.3-56.4 78.2-67.4a66.3 66.3 0 00-8 18c-7 27 9.3 81-30.7 94.7-11 3.5-22.4-.4-30.3-8.8a44.2 44.2 0 01-9.2-36.5z"/><path d="M109.8 346c6-30.6 42.1-49.4 68.2-59a55 55 0 00-6.5 15.7c-6 23.2 7.8 70.9-27 83.1-9.5 3-19.5 0-26.4-7.8a35.8 35.8 0 01-8.3-32z"/><path d="M117.7 344.5c5.2-26.4 35.2-42.4 57.3-50.5a51.6 51.6 0 00-5.6 13.4c-5.3 20.1 6.9 60.8-22.6 71.6-7.8 2.7-16.5 0-22.2-6.7-6-6.3-9-16.6-6.9-27.8z"/><path d="M119.5 339.4c4.9-23 32.5-37 52.5-44.4-2.2 4-4 7.4-5.3 11.8-5 17.4 6.2 53-21 62.2-7 2.6-15 0-20.4-5.7-4.5-5.2-7.6-13.9-5.8-24zM203.5 469.2C208.3 446 236 431.5 256 424a52 52 0 00-5.2 12.3c-4.9 18 6 54.5-20.6 63.7-7.4 2.6-14.9 0-20.1-6.2a27.4 27.4 0 01-6.6-24.6z"/><path d="M206.5 468.2c3.9-20.8 28-33.6 45.5-40.2a32.3 32.3 0 00-4.3 10.6c-4.3 16 5.2 48.2-18 56.5-6.4 2.3-12.9 0-17.6-5.3a24.3 24.3 0 01-5.6-21.6z"/><path d="M211.6 463.5c3.7-17.1 25-27.4 40.4-32.5-1.8 3-3.2 5.6-4 8.6-3.7 12.8 4.5 39.3-16 45.7a15 15 0 01-15.4-4.2 17 17 0 01-5-17.6z"/><path d="M212.4 461c3.2-15.9 21.8-25.1 35.6-30a31.2 31.2 0 00-3.6 8c-3 11.9 4 36.1-13.7 42.3-5 1.8-10.3 0-13.8-4-4-3.5-5.8-9.7-4.5-16.3zM154.2 232.4c17.8-25 56.9-26.7 83.8-25a50.3 50.3 0 00-12.2 11.5c-14.7 18.3-20.8 66.4-56.9 63a24.2 24.2 0 01-20.4-17.6c-3-9.6-1.7-21.4 5.7-31.9z"/><path d="M163.2 229.4c14.8-20.9 48-22.6 70.8-20.9-4 2.6-7.4 5.7-10.5 9.6-12.2 15.3-18 55.4-48 52.8-8.4-.9-14.5-6.6-17.1-14.9a29 29 0 014.8-26.6z"/><path d="M164.2 232.1c12.6-17.3 41-19 60.8-17.7a38.5 38.5 0 00-9 8c-10.8 12.9-15.3 47.1-41 44.5-7.2-.5-12.6-5.8-14.8-12.5a24.6 24.6 0 014-22.3zM182 337.6c-9.5-31.9 16.6-66.8 37.3-88.6a63 63 0 001.4 18.3c5.8 24.9 43.1 62.8 14.8 91.2-7.6 7.9-18.9 9.2-29.7 5.7a41.3 41.3 0 01-23.8-26.6z"/><path d="M185.5 332c-7.4-26.7 13.6-56.6 30.7-75-.4 5.3 0 10 1 15.4 4.7 21 35.4 53 12.2 77.2a22.2 22.2 0 01-24.1 4.8 33 33 0 01-19.8-22.4z"/><path d="M187.3 330.3c-6.2-22.4 11.4-47 25.5-62.3-.4 4.4 0 8.3.9 12.7 4 17.6 29.5 44.3 10.1 64a19 19 0 01-20.2 4c-7-2.6-13.7-8.8-16.3-18.4zM348.1 277.1c47 25 110.6-2.6 151.9-27.2-10-1.3-18.7-4-28.3-7.9-37.4-17-84.9-87.8-138.8-54-14.8 9.3-21 26.4-18.3 44A63.2 63.2 0 00348 277z"/><path d="M354.2 273.3c41.5 22.1 97.5-2.2 133.8-24.4a100 100 0 01-25-7c-33.2-15.1-74.7-78-122.4-47.8a38 38 0 00-16.1 38.5 56.9 56.9 0 0029.7 40.7z"/><path d="M359.9 268.8c34.5 18.5 81-2.3 111.1-19.9a68.3 68.3 0 01-20.6-5.7c-27.5-12.3-62-64.3-101.5-39.6-10.9 6.6-15.3 19.3-13.5 32.1a44.3 44.3 0 0024.5 33zM333.4 3.5c-3.3 5 0 12.3 2.8 16.5 0-1.3.4-2.1.9-3 2.3-4.2 10.7-8.9 7-14.8-1-1.7-3.3-2.5-5.2-2a7.3 7.3 0 00-5.5 3.3z"/><path d="M333.3 6c-3 4.3 0 10.2 2.5 14 0-.8.5-1.7 1-2.5 2-3.4 9.5-7.6 6.5-12.7-1-1.3-3-2.1-4.5-1.7-2 .4-4 1.3-5.5 3z"/><path d="M332.9 6c-2 3.6 0 9 1.6 12 0-.9.4-1.3.8-2.2 1.2-3 6.5-6.6 4-11-.8-1.4-2-1.8-3.2-1.8-1.2.9-2.4 1.8-3.2 3zM316 13.8c0 5 4.1 9 7.5 11.2-.4-.9-.4-1.8-.4-2.7-.3-4 3-10.7-1.5-13.8-1-1-2.6-.5-3.7.4-1.1 1-1.9 2.7-1.9 5z"/><path d="M319 16.8c0 4 4 7.5 7.6 9.2-.5-.9-.5-1.3-.5-2.2 0-3 2.7-8.7-1.3-11.3-1.3-.9-2.7-.5-3.6.4-1.3.4-2.2 2.2-2.2 4z"/><path d="M319 16.6c0 3.7 3.3 6.5 5.8 8.4-.4-.5-.4-1.4-.4-1.9 0-2.8 2-8-1.3-9.8-.8-.5-2-.5-2.9.5-.8 1-1.2 1.4-1.2 2.8zM312.8 31.5c2 4 7.3 5 11.2 5.5-.5-.5-1-1-1.5-2-2-3-1.4-10-6.8-10-1.4 0-2.4 1-3.4 2-.5 1-.5 2.5.5 4.5z"/><path d="M313.4 29.4c1.1 2.8 5 3.2 7.6 3.6l-1.1-1.2c-1.2-2-1.2-6.8-4.6-6.8-.8 0-1.5.4-2.3 1.6 0 .8 0 2 .4 2.8z"/><path d="M313.5 29.7c1.4 2.4 5.1 3.3 7.5 3.3-.5-.5-1-1-1-1.4-.9-1.9-.9-6.6-4.6-6.6-1 0-2 .5-2.4 1.4 0 1 0 2.4.5 3.3zM312.8 48.2c3.6 1.9 8 0 11.2-1.8-.9 0-1.3-.5-2.2-.5-2.7-1.4-6.3-7-10.3-4.1-1 .4-1.8 1.8-1.4 3.2.5 1 1.4 2.3 2.7 3.2z"/><path d="M314.3 46.3c3.2 1.7 7 0 9.7-1.2-.5 0-1.4-.4-1.8-.4-2.4-.9-5.6-5-8.8-3.3-1 .4-1.4 1.6-1.4 2.4.5.9 1 2.1 2.3 2.5z"/><path d="M314.3 46.4c1.8 1.5 4.8 0 6.7-1.5-.4 0-.7 0-1.1-.4-1.5-1-3.8-5-6-3-.8.5-.8 1.5-.8 2.5-.3 1 0 2 1.2 2.4z"/></svg>
